<svg width="58" height="54" viewBox="0 0 58 54" fill="none" xmlns="http://www.w3.org/2000/svg">
<path d="M53.4811 36.5193V45.4039C53.4811 47.6251 51.6638 49.4424 49.4426 49.4424H9.05799C6.83684 49.4424 5.01953 47.6251 5.01953 45.4039V36.5193" stroke="#574DE1" stroke-width="4.03846" stroke-miterlimit="10" stroke-linecap="round" stroke-linejoin="round"/>
<path d="M29.2499 43.3847C27.0287 43.3847 25.2114 41.5674 25.2114 39.3463V33.2886H33.2883V39.3463C33.2883 41.5674 31.471 43.3847 29.2499 43.3847Z" stroke="#574DE1" stroke-width="4.03846" stroke-miterlimit="10" stroke-linecap="round" stroke-linejoin="round"/>
<path d="M25.2115 39.3461H11.0769C6.63462 39.3461 3 35.7115 3 31.2692V15.1154C3 12.8942 4.81731 11.0769 7.03846 11.0769H51.4615C53.6827 11.0769 55.5 12.8942 55.5 15.1154V31.2692C55.5 35.7115 51.8654 39.3461 47.4231 39.3461H33.2885" stroke="#574DE1" stroke-width="4.03846" stroke-miterlimit="10" stroke-linecap="round" stroke-linejoin="round"/>
<path d="M37.3271 11.0769H21.1733V7.03846C21.1733 4.81731 22.9906 3 25.2117 3H33.2887C35.5098 3 37.3271 4.81731 37.3271 7.03846V11.0769Z" stroke="#574DE1" stroke-width="4.03846" stroke-miterlimit="10" stroke-linecap="round" stroke-linejoin="round"/>
<path d="M11.0767 51.4616V49.4424" stroke="#574DE1" stroke-width="4.03846" stroke-miterlimit="10" stroke-linecap="round" stroke-linejoin="round"/>
<path d="M47.4233 51.4616V49.4424" stroke="#574DE1" stroke-width="4.03846" stroke-miterlimit="10" stroke-linecap="round" stroke-linejoin="round"/>
</svg>
