<svg width="66" height="64" viewBox="0 0 66 64" fill="none" xmlns="http://www.w3.org/2000/svg">
<path d="M26.4906 9.73957L31.1655 1.55859L35.4508 9.73957L45.19 12.077L38.9569 19.0893L39.736 28.4389L31.1655 24.1537L22.2054 28.8285L23.3741 19.0893L16.3618 11.2979L26.4906 9.73957Z" fill="#574DE1"/>
<path d="M21.9488 19.5253L20.5074 27.8933C20.4316 28.2862 20.469 28.6925 20.6152 29.0649C20.7614 29.4374 21.0104 29.7606 21.3333 29.997C21.6508 30.2347 22.0284 30.3789 22.4235 30.4133C22.8187 30.4478 23.2156 30.371 23.5694 30.1918L31.3608 26.2961L38.7471 30.145C39.0997 30.3351 39.4986 30.4222 39.8984 30.3962C40.2981 30.3703 40.6825 30.2324 41.0076 29.9984C41.3327 29.7643 41.5853 29.4435 41.7367 29.0726C41.8881 28.7018 41.9321 28.2958 41.8636 27.9011L40.4222 19.5643L46.4839 13.635C46.7689 13.3583 46.9706 13.0072 47.0663 12.6217C47.162 12.2361 47.1478 11.8315 47.0254 11.4536C46.9029 11.0757 46.6771 10.7396 46.3735 10.4834C46.0698 10.2273 45.7005 10.0613 45.3074 10.0042L36.8537 8.7732L33.0827 1.16878C32.904 0.814628 32.6298 0.517506 32.2911 0.310983C31.9524 0.104461 31.5627 -0.00323061 31.166 7.38217e-05C30.7707 -0.00177605 30.3826 0.106602 30.0454 0.313044C29.7082 0.519485 29.4352 0.815819 29.2571 1.16878L25.4783 8.7732L17.0246 9.98866C16.6276 10.0422 16.2538 10.2069 15.9463 10.4635C15.6387 10.7202 15.4099 11.0585 15.2862 11.4395C15.1624 11.8205 15.1488 12.2287 15.2468 12.6172C15.3449 13.0056 15.5506 13.3584 15.8403 13.635L21.9488 19.5253ZM26.4133 11.0015C26.5966 10.9709 26.7701 10.8969 26.9191 10.7858C27.0682 10.6747 27.1886 10.5296 27.2703 10.3626L31.166 2.57124L35.0617 10.3626C35.1457 10.5325 35.2697 10.6795 35.4231 10.7908C35.5764 10.9021 35.7546 10.9744 35.9421 11.0015L44.575 12.2482L38.3419 18.2787C38.2047 18.4105 38.1018 18.5738 38.0421 18.7544C37.9823 18.9349 37.9676 19.1274 37.9991 19.315L39.4717 27.8466L31.9218 23.9119C31.7566 23.8271 31.5737 23.7829 31.3881 23.7829C31.2024 23.7829 31.0195 23.8271 30.8544 23.9119L22.9071 27.9011L24.3875 19.3306C24.4135 19.1435 24.3937 18.9529 24.3299 18.7752C24.2662 18.5974 24.1603 18.4378 24.0213 18.3099L17.7882 12.2793L26.4133 11.0015Z" fill="#574DE1"/>
<path d="M63.8895 34.6713C63.4982 34.2192 63.0214 33.8489 62.4866 33.5814C61.9518 33.314 61.3694 33.1549 60.773 33.113C60.1766 33.072 59.5781 33.1516 59.0132 33.3471C58.4482 33.5425 57.9285 33.8498 57.485 34.2506L46.6939 43.9431C46.6658 43.7277 46.6241 43.5143 46.5692 43.3042C46.3879 42.6291 46.0629 42.0011 45.6164 41.4632C45.17 40.9253 44.6126 40.4902 43.9825 40.1876C41.9801 39.3461 39.1986 39.7357 36.5105 40.1253C34.9384 40.4331 33.3325 40.5327 31.7344 40.4214C31.0232 40.2429 30.3354 39.9814 29.6852 39.6422C27.6439 38.7306 24.8468 37.484 19.6421 38.6293C16.955 39.3234 14.4867 40.6848 12.4662 42.5874V39.7357C12.4662 39.4258 12.3431 39.1285 12.1239 38.9093C11.9048 38.6901 11.6075 38.567 11.2975 38.567H1.16871C0.858749 38.567 0.561483 38.6901 0.342307 38.9093C0.123132 39.1285 0 39.4258 0 39.7357V62.3308C0 62.6407 0.123132 62.938 0.342307 63.1572C0.561483 63.3764 0.858749 63.4995 1.16871 63.4995H11.2975C11.6075 63.4995 11.9048 63.3764 12.1239 63.1572C12.3431 62.938 12.4662 62.6407 12.4662 62.3308V60.7102C14.0245 61.0764 21.0991 62.7204 26.3272 62.7204C31.7811 62.7204 38.4506 61.4737 42.5567 59.6895C50.1221 56.4093 62.5806 42.2523 63.5934 41.107C64.471 40.284 64.9929 39.1511 65.0482 37.9493C65.1035 36.7474 64.6878 35.5714 63.8895 34.6713ZM10.1288 61.1621H2.33742V40.9044H10.1288V61.1621ZM61.9728 39.4163L61.8638 39.5253C61.7313 39.6734 48.8599 54.4147 41.6061 57.5547C37.7883 59.2142 31.4929 60.3829 26.3272 60.3829C20.8732 60.3829 12.8247 58.3883 12.7467 58.3728C12.6536 58.3614 12.5594 58.3614 12.4662 58.3728V45.9065C13.3155 44.9326 16.3152 41.7693 20.1486 40.9278C24.6053 39.9539 26.8024 40.9278 28.7191 41.7926C29.546 42.2 30.4201 42.5035 31.3214 42.6964C33.1615 42.87 35.017 42.7755 36.83 42.416C39.0973 42.1043 41.6684 41.7459 43.0631 42.3303C43.363 42.5026 43.6251 42.7335 43.8339 43.0093C44.0427 43.285 44.1939 43.5999 44.2785 43.9353C44.3917 44.3952 44.3935 44.8755 44.2837 45.3362C44.174 45.797 43.9558 46.2249 43.6474 46.5844C41.871 48.9685 31.0643 52.537 26.631 52.1864C26.3211 52.1626 26.0144 52.263 25.7784 52.4653C25.5424 52.6677 25.3965 52.9555 25.3727 53.2655C25.3489 53.5754 25.4493 53.8822 25.6517 54.1181C25.854 54.3541 26.1419 54.5 26.4518 54.5238C26.6934 54.5238 26.9583 54.5238 27.231 54.5238C32.0694 54.5238 41.31 51.6721 44.6915 48.8205L44.7772 48.7737L58.9887 35.9958C59.4158 35.6154 59.9759 35.4194 60.547 35.4504C60.8459 35.4686 61.138 35.5469 61.4057 35.6808C61.6735 35.8147 61.9115 36.0014 62.1053 36.2296C62.5054 36.6721 62.7157 37.254 62.691 37.85C62.6662 38.4461 62.4083 39.0085 61.9728 39.4163Z" fill="#8178FF"/>
</svg>
