<svg width="185" height="40" viewBox="0 0 185 40" fill="none" xmlns="http://www.w3.org/2000/svg">
<path d="M65.3702 22.6311L64.2737 25.7344H64.1824C63.9996 25.0346 63.6646 23.9697 63.1163 22.6919L57.2377 7.93615H51.481V31.4541H55.2884V16.9417C55.2884 16.029 55.2883 14.9946 55.2579 13.7168C55.2274 13.0778 55.1665 12.5911 55.1361 12.226H55.2274C55.4102 13.1387 55.6234 13.808 55.7757 14.234L62.8422 31.3933H65.5225L72.5281 14.0819C72.6804 13.6863 72.8327 12.8953 72.985 12.226H73.0764C72.985 13.9602 72.9241 15.5118 72.8936 16.4549V31.3628H76.9446V7.8753H71.4011L65.3702 22.6311ZM80.7825 14.5078H84.7421V31.3628H80.7825V14.5078ZM82.7927 7.38851C82.1227 7.38851 81.5744 7.6319 81.1175 8.05784C80.6606 8.48378 80.417 9.03142 80.417 9.70075C80.417 10.3397 80.6606 10.8873 81.1175 11.3132C81.5744 11.7392 82.1227 11.9522 82.7927 11.9522C83.4628 11.9522 84.0416 11.7088 84.468 11.3132C84.9249 10.8873 85.1685 10.3397 85.1685 9.70075C85.1685 9.06184 84.9249 8.51421 84.468 8.05784C84.072 7.6319 83.4933 7.38851 82.7927 7.38851ZM98.7837 14.3557C98.0527 14.2035 97.2912 14.1123 96.5602 14.1123C94.7631 14.1123 93.1183 14.5078 91.7477 15.2988C90.377 16.0899 89.2805 17.1851 88.5799 18.5542C87.8489 19.9537 87.4834 21.5662 87.4834 23.4221C87.4834 25.0346 87.8489 26.4645 88.5495 27.7728C89.25 29.0506 90.2247 30.085 91.5345 30.7848C92.7833 31.4845 94.2453 31.8496 95.8901 31.8496C97.7785 31.8496 99.3929 31.4541 100.672 30.7239L100.703 30.6935V27.0426L100.55 27.1643C99.9716 27.5902 99.3015 27.9553 98.6314 28.1683C97.9308 28.4117 97.2912 28.5334 96.7429 28.5334C95.1591 28.5334 93.9103 28.077 93.0269 27.073C92.1132 26.0994 91.6563 24.7608 91.6563 23.0874C91.6563 21.3533 92.1132 19.9842 93.0574 18.9802C94.0016 17.9762 95.2504 17.4589 96.7734 17.4589C98.0527 17.4589 99.3624 17.8849 100.55 18.7368L100.703 18.8585V14.9946L100.672 14.9642C100.154 14.7512 99.5756 14.5078 98.7837 14.3557ZM111.851 14.234C110.876 14.234 109.962 14.5382 109.17 15.1771C108.5 15.7248 108.043 16.5158 107.647 17.4589H107.617V14.5078H103.657V31.3628H107.617V22.7528C107.617 21.2924 107.921 20.0754 108.591 19.1931C109.262 18.2804 110.114 17.824 111.15 17.824C111.516 17.824 111.881 17.9153 112.338 17.9762C112.764 18.0979 113.069 18.2196 113.282 18.3717L113.434 18.4934V14.5382L113.343 14.5078C113.069 14.3252 112.521 14.234 111.851 14.234ZM122.633 14.1427C119.861 14.1427 117.638 14.9642 116.084 16.5766C114.5 18.1891 113.739 20.4101 113.739 23.2091C113.739 25.8256 114.531 27.9553 116.054 29.507C117.577 31.0282 119.648 31.8192 122.237 31.8192C124.948 31.8192 127.11 30.9977 128.664 29.3548C130.248 27.7119 131.009 25.5214 131.009 22.8136C131.009 20.1363 130.278 18.0066 128.786 16.4549C127.354 14.9033 125.252 14.1427 122.633 14.1427ZM125.801 27.1034C125.07 28.0466 123.912 28.503 122.481 28.503C121.049 28.503 119.892 28.0466 119.069 27.0426C118.247 26.0994 117.851 24.7303 117.851 22.9962C117.851 21.2011 118.277 19.832 119.069 18.8585C119.892 17.8849 121.019 17.3981 122.45 17.3981C123.851 17.3981 124.948 17.8545 125.74 18.7976C126.532 19.7408 126.958 21.1099 126.958 22.9049C126.897 24.7303 126.562 26.1603 125.801 27.1034ZM139.842 21.5054C138.593 20.9882 137.802 20.5926 137.436 20.258C137.131 19.9537 136.979 19.5278 136.979 18.9802C136.979 18.5238 137.162 18.0674 137.619 17.7632C138.076 17.4589 138.593 17.3068 139.355 17.3068C140.025 17.3068 140.726 17.4285 141.396 17.6111C142.066 17.7936 142.675 18.0674 143.162 18.4325L143.315 18.5542V14.8425L143.223 14.812C142.766 14.6295 142.157 14.4469 141.426 14.2948C140.695 14.1731 140.025 14.1123 139.477 14.1123C137.588 14.1123 136.035 14.5686 134.817 15.5726C133.598 16.5158 133.019 17.7936 133.019 19.2844C133.019 20.0754 133.141 20.7752 133.415 21.3533C133.69 21.9313 134.086 22.479 134.634 22.9353C135.182 23.3613 135.974 23.848 137.071 24.3044C137.984 24.6999 138.685 25.0042 139.111 25.2476C139.538 25.491 139.812 25.7648 140.025 25.9777C140.177 26.2211 140.269 26.5254 140.269 26.9209C140.269 28.0466 139.416 28.5942 137.68 28.5942C137.01 28.5942 136.309 28.4725 135.487 28.1987C134.664 27.9249 133.903 27.5294 133.263 27.073L133.111 26.9513V30.8152L133.202 30.8456C133.781 31.1194 134.482 31.302 135.334 31.515C136.187 31.6671 136.949 31.7888 137.619 31.7888C139.66 31.7888 141.335 31.3324 142.523 30.3284C143.741 29.3548 144.381 28.1074 144.381 26.495C144.381 25.3693 144.076 24.3653 143.406 23.6047C142.523 22.8745 141.426 22.1139 139.842 21.5054ZM154.828 14.1427C152.056 14.1427 149.833 14.9642 148.279 16.5766C146.726 18.1891 145.934 20.4101 145.934 23.2091C145.934 25.8256 146.726 27.9553 148.249 29.507C149.772 31.0282 151.843 31.8192 154.432 31.8192C157.143 31.8192 159.306 30.9977 160.859 29.3548C162.443 27.7119 163.204 25.5214 163.204 22.8136C163.204 20.1363 162.473 18.0066 160.981 16.4549C159.549 14.9033 157.448 14.1427 154.828 14.1427ZM157.965 27.1034C157.234 28.0466 156.077 28.503 154.645 28.503C153.183 28.503 152.056 28.0466 151.234 27.0426C150.412 26.0994 150.016 24.7303 150.016 22.9962C150.016 21.2011 150.442 19.832 151.234 18.8585C152.056 17.8849 153.183 17.3981 154.615 17.3981C155.986 17.3981 157.112 17.8545 157.904 18.7976C158.696 19.7408 159.123 21.1099 159.123 22.9049C159.123 24.7303 158.727 26.1603 157.965 27.1034ZM184.373 17.7632V14.5078H180.383V9.51821L180.261 9.54863L176.484 10.6743L176.393 10.7048V14.5078H170.423V12.3781C170.423 11.4045 170.667 10.6439 171.093 10.1571C171.52 9.67033 172.159 9.42694 172.951 9.42694C173.499 9.42694 174.078 9.54863 174.718 9.82245L174.87 9.91372V6.47578L174.779 6.44536C174.23 6.26281 173.499 6.14111 172.555 6.14111C171.367 6.14111 170.332 6.41493 169.387 6.8713C168.443 7.38851 167.743 8.08827 167.225 9.03142C166.707 9.94415 166.433 10.9786 166.433 12.1651V14.5078H163.661V17.7328H166.433V31.3628H170.423V17.7632H176.393V26.4341C176.393 29.9937 178.068 31.7888 181.419 31.7888C181.967 31.7888 182.546 31.6975 183.094 31.6062C183.673 31.4845 184.099 31.3324 184.343 31.2107L184.373 31.1803V27.9249L184.221 28.0466C183.977 28.1987 183.764 28.3204 183.399 28.4117C183.094 28.503 182.82 28.5334 182.607 28.5334C181.815 28.5334 181.266 28.3508 180.87 27.8945C180.505 27.4685 180.322 26.7688 180.322 25.7344V17.7632H184.373Z" fill="#737373"/>
<path d="M0.432526 0.026123H19.1038V18.6762H0.432526V0.026123Z" fill="#F25022"/>
<path d="M21.0527 0.0258789H39.724V18.676H21.0527V0.0258789Z" fill="#7FBA00"/>
<path d="M0.432129 20.6233H19.1034V39.2734H0.432129V20.6233Z" fill="#00A4EF"/>
<path d="M21.0527 20.6233H39.724V39.2734H21.0527V20.6233Z" fill="#FFB900"/>
</svg>
