<svg width="144" height="51" viewBox="0 0 144 51" fill="none" xmlns="http://www.w3.org/2000/svg">
<path d="M36.4946 4.08786C36.6711 8.08345 40.1273 23.3309 40.1273 23.3309C41.3974 26.4191 42.491 23.3309 42.491 23.3309C46.6724 10.8047 38.1273 3.54554 38.1273 3.54554C35.9459 2.27211 36.4946 4.08786 36.4946 4.08786ZM86.1096 1.9109C86.1096 1.9109 90.293 4.81512 86.1096 5.35936C86.1096 5.35936 70.4784 7.17413 58.8474 18.0695C58.8474 18.0695 41.3974 33.3141 34.8562 50.017C34.8562 50.017 32.6748 50.017 33.4048 46.7506C34.131 43.4832 38.4908 29.1403 57.9361 11.5338C57.9361 11.5338 76.6619 -5.5322 86.1096 1.9109Z" fill="#FF4600"/>
<path d="M6.5875 26.0787C7.27797 26.2242 7.89805 26.2955 8.8084 26.2955C12.3736 26.2955 14.7758 24.0048 14.7758 21.0958C14.7758 18.4786 12.9204 17.5346 10.5201 17.5346C9.46223 17.5346 8.66182 17.6078 8.15264 17.7514L6.5875 26.0787ZM4.5855 14.7344C6.07832 14.3694 8.29922 14.1526 10.4825 14.1526C12.7767 14.1526 15.1789 14.6237 16.7797 15.8981C18.1993 16.9885 19.0363 18.5855 19.0363 20.7702C19.0363 23.6773 17.6525 26.0431 15.9051 27.4234C13.9407 28.9868 11.1354 29.7507 8.224 29.7507C7.34934 29.7507 6.5875 29.6399 5.93174 29.5686L4.14768 38.8409H0L4.5855 14.7344Z" fill="black"/>
<path d="M30.2814 24.1859C29.8455 24.0752 29.3006 24.0049 28.5359 24.0049C24.6409 24.0049 21.5829 28.406 21.5829 32.442C21.5829 34.2934 22.2743 35.8221 24.1317 35.8221C26.1317 35.8221 28.5359 33.3513 29.3729 28.8414L30.2814 24.1859ZM28.5716 38.841C28.5716 37.7843 28.7162 36.3683 28.8638 34.8752H28.7905C27.044 38.1137 24.6765 39.2397 22.4199 39.2397C19.254 39.2397 17.1768 36.7671 17.1768 33.2049C17.1768 27.1692 21.3997 20.7327 29.6632 20.7327C31.5919 20.7327 33.6672 21.0958 35.051 21.5322L33.1947 30.7679C32.6836 33.3851 32.3933 36.7314 32.4666 38.841H28.5716Z" fill="black"/>
<path d="M59.141 31.8228C59.141 34.256 60.4149 35.9696 62.5992 35.9696C65.7661 35.9696 67.878 31.6041 67.878 28.0776C67.878 26.258 67.0391 24.004 64.4932 24.004C61.1073 24.004 59.141 28.514 59.141 31.8228ZM72.2456 28.0429C72.2456 34.0768 68.0584 39.2389 62.0177 39.2389C57.5382 39.2389 54.7744 36.1488 54.7744 31.9297C54.7744 25.9324 58.9597 20.7328 65.0023 20.7328C69.7701 20.7328 72.2456 24.1504 72.2456 28.0429Z" fill="black"/>
<path d="M73.043 38.8409L75.3372 26.623C75.7731 24.5134 76.0277 22.6592 76.2466 21.1334H80.0346L79.6334 24.2967H79.7048C81.3413 21.9319 83.5998 20.7327 86.0753 20.7327C88.6222 20.7327 90.5885 22.2613 90.5885 25.6058C90.5885 26.4043 90.4457 27.6402 90.2625 28.5139L88.33 38.8409H84.0714L85.9625 28.8414C86.0753 28.1873 86.1833 27.4234 86.1833 26.7318C86.1833 25.2407 85.6375 24.1859 83.9634 24.1859C82.0347 24.1859 79.5582 26.5122 78.7944 30.66L77.2659 38.8409H73.043Z" fill="black"/>
<path d="M101.869 23.8956C99.2102 23.8956 97.4647 26.2585 96.9556 28.4056C101.322 28.4413 104.127 27.8594 104.127 25.7152C104.127 24.5882 103.217 23.8956 101.869 23.8956ZM105.91 37.8215C104.161 38.7298 101.798 39.2394 99.648 39.2394C94.7385 39.2394 92.371 36.2234 92.371 31.8955C92.371 26.5504 96.2998 20.7333 102.416 20.7333C105.91 20.7333 108.131 22.732 108.131 25.7152C108.131 30.2589 103.364 31.7125 96.5206 31.568C96.4464 32.1854 96.592 33.3847 96.9932 34.0763C97.6856 35.2775 98.9556 35.8949 100.633 35.8949C102.637 35.8949 104.235 35.3854 105.513 34.7313L105.91 37.8215Z" fill="black"/>
<path d="M118.355 23.8956C115.7 23.8956 113.951 26.2585 113.442 28.4056C117.809 28.4413 120.614 27.8594 120.614 25.7152C120.614 24.5882 119.703 23.8956 118.355 23.8956ZM122.396 37.8215C120.65 38.7298 118.284 39.2394 116.138 39.2394C111.225 39.2394 108.857 36.2234 108.857 31.8955C108.857 26.5504 112.786 20.7333 118.902 20.7333C122.396 20.7333 124.621 22.732 124.621 25.7152C124.621 30.2589 119.85 31.7125 113.007 31.568C112.932 32.1854 113.078 33.3847 113.48 34.0763C114.172 35.2775 115.445 35.8949 117.119 35.8949C119.123 35.8949 120.722 35.3854 122 34.7313L122.396 37.8215Z" fill="black"/>
<path d="M124.872 38.8408L126.946 27.9319C127.418 25.4236 127.673 22.6966 127.852 21.1332H131.53C131.421 22.3325 131.313 23.5684 131.13 24.8428H131.238C132.445 22.478 134.369 20.7325 136.774 20.7325C137.103 20.7325 137.429 20.7701 137.722 20.7701L136.883 24.915C136.665 24.8774 136.373 24.8774 136.081 24.8774C133.058 24.8774 131.13 27.9319 130.441 31.7127L129.093 38.8408H124.872Z" fill="black"/>
<path d="M140.942 22.753H141.252C141.571 22.753 141.781 22.5758 141.781 22.308C141.781 22.0065 141.56 21.8746 141.242 21.8746C141.095 21.8746 140.991 21.8851 140.942 21.8967V22.753ZM140.638 21.6848C140.792 21.6569 141.013 21.6366 141.219 21.6366C141.541 21.6366 141.755 21.7021 141.897 21.8293C142.013 21.9323 142.081 22.0932 142.081 22.2782C142.081 22.5825 141.889 22.7887 141.642 22.8706V22.8821C141.821 22.9438 141.926 23.1123 141.986 23.3551C142.062 23.6787 142.117 23.907 142.167 23.9985H141.852C141.815 23.9273 141.762 23.7298 141.702 23.4379C141.63 23.1143 141.5 22.9948 141.226 22.9833H140.942V23.9985H140.638V21.6848Z" fill="black"/>
<path d="M141.335 20.7329C140.177 20.7329 139.237 21.6721 139.237 22.828C139.237 23.9839 140.177 24.9241 141.335 24.9241C142.492 24.9241 143.432 23.9839 143.432 22.828C143.432 21.6721 142.492 20.7329 141.335 20.7329ZM141.335 21.0566C142.313 21.0566 143.106 21.8474 143.106 22.828C143.106 23.8077 142.313 24.6014 141.335 24.6014C140.354 24.6014 139.559 23.8077 139.559 22.828C139.559 21.8474 140.354 21.0566 141.335 21.0566Z" fill="black"/>
</svg>
