<svg width="153" height="163" viewBox="0 0 153 163" fill="none" xmlns="http://www.w3.org/2000/svg">
<path d="M148.662 75.747C138.401 91.1165 116.426 138.722 121.843 156.426H43.1458C43.1458 156.426 31.7839 147.97 20.7302 133.217C18.7044 130.531 16.7227 127.668 14.8291 124.586C12.8033 121.327 10.8656 117.848 9.10405 114.193C3.95155 103.535 0.296356 91.1605 0.164241 77.5086C-0.364221 30.2113 40.5475 -13.6951 96.2121 4.00838C151.877 21.7559 158.967 60.3336 148.662 75.747Z" fill="#EAF9F8"/>
<path d="M99.4266 156.954C99.2504 156.954 99.1183 156.866 98.9862 156.734L57.0175 104.548C56.8414 104.328 56.8854 103.976 57.1056 103.8C57.3258 103.624 57.6781 103.668 57.8543 103.888L99.8229 156.073C99.9991 156.294 99.955 156.646 99.7348 156.822C99.6908 156.91 99.5587 156.954 99.4266 156.954Z" fill="#E03C03"/>
<path d="M34.3382 156.954C34.2061 156.954 34.1181 156.91 33.9859 156.822C33.7657 156.646 33.7217 156.293 33.8979 156.073L75.8665 103.888C76.0427 103.667 76.395 103.623 76.6152 103.8C76.8354 103.976 76.8794 104.328 76.7033 104.548L34.7346 156.734C34.6465 156.866 34.4704 156.954 34.3382 156.954Z" fill="#FF6224"/>
<path d="M76.3069 156.954C76.1308 156.954 75.9986 156.866 75.8665 156.734L33.8979 104.548C33.7217 104.328 33.7657 103.976 33.9859 103.8C34.2061 103.623 34.5584 103.667 34.7346 103.888L76.7033 156.073C76.8794 156.293 76.8354 156.646 76.6152 156.822C76.5271 156.91 76.439 156.954 76.3069 156.954Z" fill="#FF6224"/>
<path d="M41.7806 105.605H22.2715C21.5229 105.605 20.9063 104.989 20.9063 104.24C20.9063 103.491 21.5229 102.875 22.2715 102.875H41.7806C42.5292 102.875 43.1458 103.491 43.1458 104.24C43.1458 104.989 42.5292 105.605 41.7806 105.605Z" fill="#E03C03"/>
<path d="M97.8856 105.605H42.1329C41.3843 105.605 40.7677 104.989 40.7677 104.24C40.7677 103.491 41.3843 102.875 42.1329 102.875H97.8416V105.605H97.8856Z" fill="#FF6224"/>
<path d="M55.3007 131.808C56.1276 131.808 56.798 131.138 56.798 130.311C56.798 129.484 56.1276 128.813 55.3007 128.813C54.4737 128.813 53.8034 129.484 53.8034 130.311C53.8034 131.138 54.4737 131.808 55.3007 131.808Z" fill="#E03C03"/>
<path d="M78.4647 131.808C79.2916 131.808 79.962 131.138 79.962 130.311C79.962 129.484 79.2916 128.813 78.4647 128.813C77.6377 128.813 76.9674 129.484 76.9674 130.311C76.9674 131.138 77.6377 131.808 78.4647 131.808Z" fill="#FFC947"/>
<path d="M59.8363 61.4788H40.1951C39.2263 61.4788 38.4336 60.6861 38.4336 59.7173V45.0965C38.4336 44.1277 39.2263 43.335 40.1951 43.335H59.8363C60.8052 43.335 61.5978 44.1277 61.5978 45.0965V59.7173C61.5978 60.6861 60.8052 61.4788 59.8363 61.4788Z" fill="#20C3C5"/>
<path d="M55.036 51.3498H54.2874C54.1553 50.9535 54.0231 50.5571 53.8029 50.2489L54.3755 49.6764C54.5956 49.4562 54.5956 49.1039 54.3755 48.8837L53.5828 48.091C53.3626 47.8708 53.0103 47.8708 52.7901 48.091L52.1735 48.7075C51.8653 48.5314 51.4689 48.3552 51.1166 48.2671V47.3864C51.1166 47.0781 50.8524 46.8579 50.5881 46.8579H49.4872C49.1789 46.8579 48.9587 47.1221 48.9587 47.3864V48.3112C48.6064 48.3993 48.2541 48.5314 47.9458 48.7075L47.2853 48.0469C47.0651 47.8268 46.7128 47.8268 46.4926 48.0469L45.6999 48.8396C45.4797 49.0598 45.4797 49.4121 45.6999 49.6323L46.3164 50.2489C46.0962 50.5571 45.9641 50.9094 45.832 51.3058H44.9953C44.687 51.3058 44.4668 51.57 44.4668 51.8343V52.9352C44.4668 53.2435 44.731 53.4637 44.9953 53.4637H45.7439C45.832 53.86 45.9641 54.2564 46.1843 54.6527L45.6558 55.1812C45.4356 55.4014 45.4356 55.7537 45.6558 55.9739L46.4485 56.7666C46.6687 56.9868 47.021 56.9868 47.2412 56.7666L47.6816 56.3262C48.0339 56.5464 48.4743 56.7666 48.8706 56.8546V57.4712C48.8706 57.7794 49.1349 57.9996 49.3991 57.9996H50.5001C50.8083 57.9996 51.0285 57.7354 51.0285 57.4712V56.8987C51.4689 56.8106 51.9093 56.6345 52.2616 56.4143L52.702 56.8546C52.9222 57.0748 53.2745 57.0748 53.4947 56.8546L54.2874 56.062C54.5076 55.8418 54.5076 55.4894 54.2874 55.2693L53.847 54.8289C54.0672 54.4766 54.2433 54.0362 54.3314 53.5958H54.992C55.3003 53.5958 55.5205 53.3316 55.5205 53.0673V51.9664C55.5645 51.6141 55.3443 51.3498 55.036 51.3498ZM50.5881 55.3133C48.6064 55.7096 46.8889 53.9921 47.2853 52.0104C47.5055 50.9094 48.3862 50.0287 49.4872 49.8085C51.4689 49.4121 53.1864 51.1296 52.7901 53.1114C52.6139 54.2123 51.6891 55.1371 50.5881 55.3133Z" fill="white"/>
<path d="M89.3866 51.482H69.7454C68.7766 51.482 67.9839 50.6893 67.9839 49.7204V35.0997C67.9839 34.1308 68.7766 33.3381 69.7454 33.3381H89.3866C90.3554 33.3381 91.1481 34.1308 91.1481 35.0997V49.7204C91.1481 50.6893 90.3554 51.482 89.3866 51.482Z" fill="#FF6224"/>
<path d="M75.6472 45.4485C75.5151 45.4485 75.3829 45.4045 75.2508 45.2724L72.8287 42.6741C72.6085 42.4539 72.6085 42.1016 72.8287 41.8374L75.2949 39.1951C75.5151 38.9749 75.8674 38.9749 76.0435 39.1951C76.2637 39.4152 76.2637 39.7676 76.0435 40.0318L73.9297 42.2777L75.9995 44.4797C76.2197 44.6999 76.2197 45.0522 75.9995 45.3164C75.9554 45.4045 75.8233 45.4485 75.6472 45.4485Z" fill="white"/>
<path d="M83.4859 45.4485C83.3538 45.4485 83.2217 45.4044 83.0895 45.2723C82.8693 45.0521 82.8693 44.6998 83.0895 44.4356L85.1593 42.2337L83.0455 39.9877C82.8253 39.7675 82.8253 39.4152 83.0455 39.151C83.2657 38.9308 83.618 38.9308 83.7942 39.151L86.2603 41.7933C86.3484 41.8814 86.4365 42.0575 86.4365 42.1896C86.4365 42.3218 86.3924 42.4979 86.2603 42.586L83.8382 45.1843C83.7501 45.4044 83.618 45.4485 83.4859 45.4485Z" fill="white"/>
<path d="M78.3774 46.153C78.2893 46.153 78.2453 46.153 78.1572 46.109C77.893 45.9769 77.7609 45.6686 77.849 45.3603L80.2711 38.9748C80.4032 38.6665 80.7115 38.5344 80.9757 38.6665C81.2399 38.7986 81.372 39.1069 81.284 39.4151L78.8619 45.8007C78.7738 46.0209 78.5976 46.153 78.3774 46.153Z" fill="white"/>
<path d="M107.134 54.9608H58.3833V53.4635C58.3833 53.0672 58.6916 52.7148 59.132 52.7148H106.429C106.826 52.7148 107.178 53.0231 107.178 53.4635V54.9608H107.134Z" fill="white"/>
<path d="M105.769 80.9436H59.7485C58.9998 80.9436 58.3833 80.3271 58.3833 79.5784V54.9609H107.134V79.5784C107.134 80.3271 106.517 80.9436 105.769 80.9436Z" fill="#383873"/>
<path d="M104.447 54.1684C104.642 54.1684 104.799 54.0106 104.799 53.8161C104.799 53.6215 104.642 53.4637 104.447 53.4637C104.252 53.4637 104.095 53.6215 104.095 53.8161C104.095 54.0106 104.252 54.1684 104.447 54.1684Z" fill="#FF6224"/>
<path d="M102.113 54.1684C102.308 54.1684 102.465 54.0106 102.465 53.8161C102.465 53.6215 102.308 53.4637 102.113 53.4637C101.918 53.4637 101.761 53.6215 101.761 53.8161C101.761 54.0106 101.918 54.1684 102.113 54.1684Z" fill="#FF6224"/>
<path d="M99.7347 54.1684C99.9292 54.1684 100.087 54.0106 100.087 53.8161C100.087 53.6215 99.9292 53.4637 99.7347 53.4637C99.5401 53.4637 99.3824 53.6215 99.3824 53.8161C99.3824 54.0106 99.5401 54.1684 99.7347 54.1684Z" fill="#FF6224"/>
<path d="M87.9768 58.44H60.8931C60.6289 58.44 60.4087 58.2198 60.4087 57.9556C60.4087 57.6914 60.6289 57.4712 60.8931 57.4712H87.9768C88.241 57.4712 88.4612 57.6914 88.4612 57.9556C88.4612 58.2639 88.241 58.44 87.9768 58.44Z" fill="#20C3C5"/>
<path d="M87.9768 61.4786H60.8931C60.6289 61.4786 60.4087 61.2584 60.4087 60.9942C60.4087 60.73 60.6289 60.5098 60.8931 60.5098H87.9768C88.241 60.5098 88.4612 60.73 88.4612 60.9942C88.4612 61.2584 88.241 61.4786 87.9768 61.4786Z" fill="#20C3C5"/>
<path d="M75.0739 64.4731H60.9376C60.6734 64.4731 60.4532 64.2529 60.4532 63.9887C60.4532 63.7245 60.6734 63.5043 60.9376 63.5043H75.0739C75.3382 63.5043 75.5584 63.7245 75.5584 63.9887C75.5584 64.2529 75.3382 64.4731 75.0739 64.4731Z" fill="#20C3C5"/>
<path d="M87.9768 70.4623H60.8931C60.6289 70.4623 60.4087 70.2421 60.4087 69.9778C60.4087 69.7136 60.6289 69.4934 60.8931 69.4934H87.9768C88.241 69.4934 88.4612 69.7136 88.4612 69.9778C88.4612 70.2421 88.241 70.4623 87.9768 70.4623Z" fill="#FF6224"/>
<path d="M75.0739 73.4571H60.9376C60.6733 73.4571 60.4531 73.2369 60.4531 72.9727C60.4531 72.7085 60.6733 72.4883 60.9376 72.4883H75.0739C75.3381 72.4883 75.5583 72.7085 75.5583 72.9727C75.5583 73.2369 75.3381 73.4571 75.0739 73.4571Z" fill="#FF6224"/>
<path d="M75.0739 76.4518H60.9376C60.6733 76.4518 60.4531 76.2316 60.4531 75.9673C60.4531 75.7031 60.6733 75.4829 60.9376 75.4829H75.0739C75.3381 75.4829 75.5583 75.7031 75.5583 75.9673C75.5583 76.2316 75.3381 76.4518 75.0739 76.4518Z" fill="#20C3C5"/>
<path d="M87.9771 64.473H77.8043C77.54 64.473 77.3198 64.2528 77.3198 63.9886C77.3198 63.7243 77.54 63.5042 77.8043 63.5042H87.9771C88.2414 63.5042 88.4616 63.7243 88.4616 63.9886C88.4616 64.2528 88.2414 64.473 87.9771 64.473Z" fill="white"/>
<path d="M101.409 57.7356L94.2307 64.9138C94.0545 65.09 93.7463 65.09 93.5701 64.9138C93.3939 64.7377 93.3939 64.4294 93.5701 64.2533L100.748 57.075C100.925 56.8988 101.233 56.8988 101.409 57.075C101.585 57.2511 101.585 57.5594 101.409 57.7356Z" fill="#FF6224"/>
<path d="M97.4894 75.5709C99.8243 75.5709 101.717 73.6781 101.717 71.3432C101.717 69.0083 99.8243 67.1155 97.4894 67.1155C95.1545 67.1155 93.2617 69.0083 93.2617 71.3432C93.2617 73.6781 95.1545 75.5709 97.4894 75.5709Z" fill="#FF6224"/>
<path d="M94.5387 76.7158C95.8764 76.7158 96.9608 75.6314 96.9608 74.2937C96.9608 72.956 95.8764 71.8716 94.5387 71.8716C93.201 71.8716 92.1166 72.956 92.1166 74.2937C92.1166 75.6314 93.201 76.7158 94.5387 76.7158Z" fill="#20C3C5"/>
<path d="M58.3833 78.3013V86.8888L66.2662 79.0059" fill="#383873"/>
<path d="M50.0161 89.1786H67.2792L73.5327 101.245H56.2696L50.0161 89.1786Z" fill="#86BFBC"/>
<path d="M56.6216 100.32L51.4251 90.3675C51.337 90.1473 51.4691 89.9271 51.6893 89.9271H66.6624C66.7945 89.9271 66.8826 89.9712 66.9266 90.1033L72.1232 100.056C72.2112 100.276 72.0791 100.496 71.8589 100.496H56.8859C56.7537 100.496 56.6657 100.452 56.6216 100.32Z" fill="white"/>
<path d="M70.2743 101.245H56.2701V102.83H70.2743V101.245Z" fill="#B8E3E2"/>
<path d="M82.2961 101.245H68.468C68.0276 101.245 67.6753 101.597 67.6753 102.038C67.6753 102.478 68.0276 102.83 68.468 102.83H82.2961C82.7365 102.83 83.0888 102.478 83.0888 102.038C83.0888 101.597 82.7365 101.245 82.2961 101.245Z" fill="#9FCCC9"/>
<path d="M56.2697 101.245L50.0162 89.2227L49.708 89.4428C49.4878 89.575 49.4437 89.8832 49.5758 90.1034L56.2697 102.875V101.245Z" fill="#B8E3E2"/>
<path d="M62.5668 101.994H61.0254V102.258H62.5668V101.994Z" fill="#9FCCC9"/>
<path d="M64.5048 101.994H62.9634V102.258H64.5048V101.994Z" fill="#9FCCC9"/>
<path d="M66.4427 101.994H64.9014V102.258H66.4427V101.994Z" fill="#9FCCC9"/>
<path d="M87.8009 124.806C87.8009 124.806 73.4443 135.992 71.1984 138.81C70.3616 139.867 68.8643 141.761 67.2789 143.698C64.7247 146.869 62.0384 150.172 61.7301 150.26C61.2016 150.392 56.9299 147.134 56.7978 146.429C56.7097 145.989 60.6291 139.251 64.0201 133.878C66.0899 130.575 67.9395 127.801 68.6001 127.184C70.3176 125.555 81.0189 119.918 81.0189 119.918L87.8009 124.806Z" fill="#383873"/>
<path opacity="0.15" d="M60.4091 147.838C60.4091 147.838 73.7967 128.77 80.5346 125.555" stroke="black" stroke-width="0.360455" stroke-miterlimit="10" stroke-linecap="round"/>
<path d="M102.73 75.8352C102.598 76.1876 102.422 76.5399 102.202 76.8922C101.145 78.9179 101.938 80.8997 100.749 81.4281C100.661 81.4722 100.616 81.4722 100.528 81.5162C98.9871 81.8685 95.4199 79.7987 95.2878 78.7858C95.1117 77.7729 96.3888 76.0114 95.2878 75.7912C94.1869 75.571 93.6144 77.4206 93.6144 77.4206C92.7336 77.5087 92.3813 76.0114 90.928 76.0114C90.7078 76.0114 90.5317 76.0554 90.3115 76.0995C89.6069 76.2756 88.9903 76.716 88.638 77.0243C88.3297 77.2445 88.1976 77.4647 88.1976 77.4647C88.1976 77.4647 86.8765 76.6279 86.9646 74.9985C87.0526 72.4002 88.0215 70.5066 90.3555 70.1102C90.6197 67.2037 92.9978 65.6624 96.1686 65.5743C98.943 65.4862 99.3834 67.9964 99.4274 68.6129C99.3834 68.1285 99.2513 66.6312 98.5907 65.5743C99.9999 65.5302 101.233 66.4991 100.881 69.7579C101.189 68.7891 102.334 68.1726 103.171 68.8772C102.378 68.8772 101.585 70.2424 101.585 70.2424C101.585 70.2424 102.51 70.8589 103.171 71.9599C103.655 72.7966 103.435 74.1618 102.73 75.8352Z" fill="#382424"/>
<path d="M100.748 81.4283L100.704 81.9127L100.572 83.5862C100.572 83.5862 98.0178 85.7881 96.5646 83.5862C96.5646 83.5862 96.5646 83.5421 96.5205 83.5421C96.0801 82.8815 95.6838 82.6173 95.2874 82.5733C94.4948 82.4852 93.8342 83.2779 93.1736 82.3971C91.2359 79.975 90.4873 77.1565 90.2671 76.0115C90.4873 75.9675 90.6634 75.9235 90.8836 75.9235C92.3809 75.9235 92.6892 77.4208 93.5699 77.3327C93.5699 77.3327 94.1424 75.4831 95.2434 75.7033C96.3444 75.9235 95.0673 77.685 95.2434 78.6979C95.3315 79.1383 96.0361 79.7988 97.0049 80.3713C98.1059 81.0319 99.4711 81.5604 100.352 81.4723C100.396 81.4723 100.44 81.4723 100.528 81.4283C100.572 81.4723 100.66 81.4283 100.748 81.4283Z" fill="#FFAD94"/>
<path opacity="0.25" d="M101.144 84.5549C99.9995 85.3476 97.8856 85.4797 97.8856 85.4797L96.1681 85.2155C96.1681 85.2155 95.4635 84.1586 95.7718 83.5861C95.8158 83.454 95.992 83.3219 96.2122 83.1457C96.6966 82.7494 97.4452 82.2649 98.1939 81.8686C98.9866 81.4722 99.8233 81.1199 100.396 81.0759C101.849 80.9878 102.289 83.7622 101.144 84.5549Z" fill="black"/>
<path d="M100.793 112.652C98.1945 113.136 92.7337 111.639 90.1355 110.45C89.3428 110.097 88.8584 109.789 88.7262 109.569C88.2418 108.688 88.7262 108.028 89.9593 105.209C90.0914 104.901 90.2676 104.548 90.3997 104.196C91.2364 102.214 91.2364 97.9868 91.2364 94.3316C91.2364 91.2048 91.1924 88.5185 91.7209 88.0341C92.7778 86.9771 98.1945 83.5862 98.1945 83.5862L99.2514 89.1791C99.2514 89.1791 99.868 91.9975 100.485 95.6968C101.674 102.479 102.951 112.255 100.793 112.652Z" fill="#20C3C5"/>
<path d="M102.598 115.162C102.598 115.426 100.044 121.415 97.8859 122.252C95.7281 123.089 82.7367 122.164 82.7367 122.164L76.3071 126.347L77.6723 138.987L78.5971 147.794L78.6411 148.058C76.6594 149.336 71.7271 149.688 71.1986 148.587C70.6702 147.486 62.7873 123.749 65.87 119.654C68.9527 115.558 88.7259 109.525 88.7259 109.525C89.2544 109.833 89.8269 110.141 90.4875 110.406C92.6894 111.286 95.4638 111.859 97.6217 112.211C98.4585 112.343 99.1631 112.431 99.6915 112.475C100.396 112.563 100.792 112.607 100.792 112.607C100.792 112.607 102.598 114.897 102.598 115.162Z" fill="#383873"/>
<path d="M79.4335 156.382H62.7429C62.6548 156.073 62.7869 155.765 63.0071 155.501C63.6677 154.708 65.3852 153.871 67.0146 153.167C68.556 152.506 70.0533 151.934 70.5817 151.537C71.7708 150.613 71.1983 148.807 71.1983 148.675C71.3744 149.027 72.079 149.247 72.9598 149.336C74.7214 149.468 77.3637 149.027 78.6408 148.191L78.5967 147.926C79.0812 148.895 79.3454 153.563 79.3894 155.589C79.4335 156.029 79.4335 156.382 79.4335 156.382Z" fill="#0C2059"/>
<path d="M72.9163 149.292C72.8722 150.084 72.7401 151.361 72.5199 151.714C72.1676 152.242 68.5124 154.048 67.984 153.872C67.6316 153.784 67.2353 153.387 67.0151 153.167C68.5565 152.506 70.0538 151.934 70.5822 151.538C71.7713 150.613 71.1988 148.807 71.1988 148.675C71.3309 149.027 72.0355 149.248 72.9163 149.292Z" fill="#2E4780"/>
<path d="M79.4335 156.382H62.7429C62.6548 156.074 62.7869 155.765 63.0071 155.501H79.3894C79.4335 156.03 79.4335 156.382 79.4335 156.382Z" fill="#2E4780"/>
<path d="M61.6864 150.216C61.6864 150.216 60.4093 153.563 59.3083 155.325C58.8679 156.029 58.4716 156.47 58.1633 156.382C57.1504 155.985 46.8014 147.222 47.8143 146.561C47.9464 146.473 48.2106 146.385 48.4748 146.385C49.3556 146.253 50.8529 146.385 52.2181 146.517C53.4071 146.649 54.5081 146.781 55.0806 146.781C56.5339 146.781 56.71 146.341 56.71 146.341C56.7541 146.517 57.0183 146.825 57.4146 147.222C58.7358 148.455 61.29 150.304 61.6864 150.216Z" fill="#0C2059"/>
<path d="M57.4587 147.266C55.2568 148.719 53.0108 147.838 52.5264 147.53C52.1741 147.31 52.1741 146.826 52.2181 146.561C53.4072 146.693 54.5081 146.826 55.0806 146.826C56.5339 146.826 56.7101 146.385 56.7101 146.385C56.7981 146.517 57.0624 146.87 57.4587 147.266Z" fill="#2E4780"/>
<path d="M59.3083 155.325C58.8679 156.03 58.4716 156.47 58.1633 156.382C57.1504 155.986 46.8014 147.222 47.8143 146.561C47.9464 146.473 48.2106 146.385 48.4748 146.385L59.3083 155.325Z" fill="#2E4780"/>
<path d="M90.1357 101.73C89.343 102.875 87.8897 104.548 86.7007 104.416C86.6567 104.416 86.6126 104.416 86.5686 104.372C84.2786 103.976 70.9349 100.629 70.3184 100.497C69.6578 100.365 65.1659 100.321 65.4301 99.8362C65.6943 99.3517 68.2486 97.8544 68.9532 97.8985C69.6578 97.9425 72.3442 98.7352 75.0305 98.6471C77.7168 98.559 84.807 98.6471 84.807 98.6471L85.1594 98.0746L85.6438 97.1938C85.4676 99.7921 88.6384 101.95 90.1357 101.73Z" fill="#FFAD94"/>
<path opacity="0.15" d="M90.1348 111.507C90.1348 111.507 89.5183 114.765 91.8964 115.866" stroke="black" stroke-width="0.360455" stroke-miterlimit="10" stroke-linecap="round"/>
<path opacity="0.15" d="M88.9021 114.105C88.9021 114.105 73.0482 120.887 72.2555 122.957C71.5069 125.071 76.3071 147.794 76.3071 147.794" stroke="black" stroke-width="0.360455" stroke-miterlimit="10" stroke-linecap="round"/>
<path opacity="0.15" d="M102.598 115.162C102.598 115.426 100.044 121.415 97.886 122.252C95.7281 123.089 82.7367 122.164 82.7367 122.164L76.3071 126.348L77.6723 138.987C77.6723 138.987 74.9419 124.542 74.9419 123.573C74.9419 122.78 92.8656 117.628 97.6217 112.211C99.4714 112.519 100.837 112.608 100.837 112.608C100.837 112.608 102.598 114.898 102.598 115.162Z" fill="black"/>
<path opacity="0.25" d="M94.1431 99.8363C93.0421 101.422 91.2366 103.403 89.9594 105.253C90.0916 104.945 90.2677 104.592 90.3998 104.24C91.2366 102.258 91.2366 98.0307 91.2366 94.3755L95.0679 91.8213C95.1119 91.7773 95.9487 97.2821 94.1431 99.8363Z" fill="black"/>
<path d="M90.8398 101.246C90.6636 101.378 90.4875 101.554 90.3554 101.686C90.3113 101.686 90.2233 101.73 90.1352 101.73C88.6379 101.95 85.4671 99.7923 85.5992 97.194C85.5992 97.0179 85.7754 96.6215 85.9956 96.0931C87.2727 93.4948 91.1481 87.6817 91.8967 87.946C91.8967 87.946 94.4069 88.3423 95.0675 91.7333C95.7281 94.9481 93.4381 98.8235 90.8398 101.246Z" fill="#169799"/>
<path opacity="0.25" d="M99.6918 112.563C99.1633 112.519 98.4147 112.387 97.622 112.299C95.5082 111.947 92.6897 111.418 90.4878 110.494C92.4255 110.406 96.5651 109.128 97.0935 99.6602C97.3137 101.422 97.666 103.271 98.1505 105.165C98.767 107.631 99.3395 110.273 99.6918 112.563Z" fill="black"/>
<path opacity="0.25" d="M98.6786 81.2078C98.4584 81.428 98.3263 81.6482 98.1942 81.8244C97.4015 82.2207 96.6528 82.7052 96.2125 83.1015C95.9042 82.7492 95.5959 82.6171 95.2877 82.573L97.0052 80.4152C97.5336 80.7675 98.1061 81.0317 98.6786 81.2078Z" fill="black"/>
<path opacity="0.25" d="M90.1351 101.73C89.3424 102.875 87.8891 104.548 86.7001 104.416C86.656 104.416 86.612 104.416 86.5679 104.372C85.1147 102.258 85.0266 99.4398 85.1147 98.0746L85.5991 97.1938C85.467 99.7921 88.6378 101.95 90.1351 101.73Z" fill="black"/>
<path opacity="0.25" d="M102.73 75.8354C102.598 76.1877 102.422 76.5401 102.202 76.8924C101.673 77.8612 101.629 78.8741 101.541 79.6668C101.365 79.5347 101.189 79.4026 101.012 79.3145C99.9115 79.9751 99.1629 80.6797 98.6785 81.2522C97.0931 80.6797 95.3756 79.4906 95.2435 78.786C95.0673 77.7731 96.3444 76.0116 95.2435 75.7914C94.1425 75.5712 93.57 77.4208 93.57 77.4208C92.6892 77.5089 92.3369 76.0116 90.8836 76.0116C90.6635 76.0116 90.4873 76.0556 90.2671 76.0997C89.5625 76.2758 88.946 76.7162 88.5937 77.0245C88.5937 77.0245 90.2671 74.6904 92.8654 75.1749C92.8654 75.1749 92.469 74.4262 90.7075 74.5143C94.4067 73.3252 96.7408 73.7656 97.8858 75.1308C98.7665 76.1437 100.968 77.5089 102.73 75.8354Z" fill="black"/>
<path d="M110.217 126.392H97.3574C97.3574 126.392 107.53 123.397 107.53 103.183C107.53 102.919 107.53 102.655 107.53 102.391C107.442 88.8708 104.536 81.4283 100.969 79.3144C102.07 78.6538 103.567 78.0373 105.505 77.5969C106.341 77.4208 107.31 77.2446 108.323 77.1565C117.131 76.2758 124.133 79.7108 124.97 83.6302C125.894 87.4615 120.742 126.392 110.217 126.392Z" fill="#B8E3E2"/>
<path d="M107.574 103.139C107.574 123.353 97.4015 126.347 97.4015 126.347H76.3511L77.2318 125.731L82.7807 122.164L93.9224 121.371C94.539 118.905 96.1684 118.817 98.6345 118.553C100.088 118.421 100.22 115.954 99.7795 112.74C99.4713 110.406 98.8547 107.675 98.1942 105.121C97.7097 103.227 97.3574 101.378 97.1372 99.6161C96.873 97.5463 96.7409 95.5646 96.7409 93.6709C96.6968 89.3992 97.2253 85.7881 97.7538 83.1457C97.7978 82.8815 97.8418 82.6613 97.9299 82.3971C97.9299 82.3971 97.9299 82.3971 97.9299 82.3531C97.974 82.2209 98.1942 81.7806 98.7226 81.164C99.207 80.5915 99.9557 79.9309 101.057 79.2263C101.233 79.3144 101.409 79.4465 101.585 79.5786C104.888 82.0888 107.486 89.4873 107.618 102.302C107.574 102.655 107.574 102.919 107.574 103.139Z" fill="#86BFBC"/>
<path d="M103.479 156.382H88.3296C87.8011 156.382 87.5809 155.721 87.9773 155.413L91.7646 152.462C93.438 151.141 94.4509 149.115 94.4509 147.001V126.391H97.3575V147.001C97.3575 149.159 98.3263 151.141 100.044 152.462L103.831 155.413C104.227 155.721 104.007 156.382 103.479 156.382Z" fill="#B8E3E2"/>
<g opacity="0.25">
<g opacity="0.25">
<path opacity="0.25" d="M115.06 77.9053C115.06 77.9053 115.192 78.1695 115.368 78.742" stroke="black" stroke-width="0.360455" stroke-miterlimit="10" stroke-linecap="round"/>
<path opacity="0.25" d="M115.853 80.5034C116.382 82.4411 117.042 85.4357 117.571 89.5313C118.936 100.189 117.571 115.118 108.279 124.542" stroke="black" stroke-width="0.360455" stroke-miterlimit="10" stroke-linecap="round" stroke-dasharray="1.83 1.83"/>
<path opacity="0.25" d="M107.662 125.203C107.442 125.423 107.222 125.599 107.001 125.819" stroke="black" stroke-width="0.360455" stroke-miterlimit="10" stroke-linecap="round"/>
</g>
</g>
<path opacity="0.15" d="M97.3572 126.391V132.028C96.3443 132.557 95.3315 132.953 94.4507 133.261V126.391H97.3572Z" fill="black"/>
<path opacity="0.15" d="M101.409 117.628C100.704 119.786 96.4326 119.39 95.9482 120.975C94.8472 124.322 94.2307 122.869 90.003 123.265C87.5809 123.529 85.8193 125.071 84.7624 126.348H76.3511L77.2318 125.731L82.7807 122.164L93.9224 121.371C94.539 118.905 96.1684 118.817 98.6345 118.553C100.088 118.421 100.22 115.955 99.7795 112.74C99.4713 110.406 98.8547 107.675 98.1941 105.121C97.7097 103.227 97.3574 101.378 97.1372 99.6163C96.873 97.5465 96.7409 95.5648 96.7409 93.6711C98.3263 102.259 101.893 116.043 101.409 117.628Z" fill="black"/>
<path opacity="0.15" d="M107.574 103.139C107.574 102.875 107.574 102.611 107.574 102.346C107.486 88.8266 104.58 81.3841 101.013 79.2702C102.114 78.6097 103.611 77.9931 105.549 77.5527C104.976 78.3895 104.36 79.6666 104.624 81.0318C105.152 83.4539 110.965 92.702 108.719 107.499C107.09 118.2 107.662 123.749 109.336 126.347H97.3574C97.3574 126.391 107.574 123.353 107.574 103.139Z" fill="black"/>
<path opacity="0.25" d="M34.0301 92.1293C34.0301 92.6137 33.9861 93.0541 33.898 93.4505H29.7584C28.5253 92.6578 26.5436 91.0283 25.3545 88.6503C26.4555 89.8393 28.3491 91.3366 30.2868 91.777C32.0043 92.1733 33.2374 91.9972 34.0301 92.1293Z" fill="black"/>
<path d="M43.6305 75.7471C43.1901 77.4206 41.0322 80.6794 39.1385 84.1584C37.0247 87.9457 35.131 92.0413 35.8797 94.5956C36.0559 95.2561 36.1439 95.7406 36.1439 96.0488C36.1439 97.1938 35.3072 96.8415 34.4264 96.1809C33.5457 95.5204 32.6649 94.5956 32.6649 94.5956L32.7089 89.5752C32.7089 89.5752 29.8905 86.9769 32.1805 81.2519C32.3126 80.8996 32.4887 80.5032 32.7089 80.1069C35.9237 73.6332 40.7239 66.8073 36.188 64.8696C42.4855 64.5173 44.5993 72.224 43.6305 75.7471Z" fill="#20C3C5"/>
<g opacity="0.53">
<path opacity="0.53" d="M36.1875 64.9138C37.3765 65.178 38.3894 65.9707 39.05 66.9836C39.2261 67.2479 39.3582 67.5121 39.4904 67.7763C39.5784 68.0405 39.7106 68.3488 39.7986 68.6131C39.8867 68.9213 39.9748 69.1856 40.0188 69.4938L40.1069 69.9342L40.1509 70.3746C40.1069 71.6077 39.7546 72.7527 39.3582 73.8977C38.9179 75.0427 38.4334 76.1436 37.949 77.2446C36.9361 79.4465 35.8792 81.5604 34.9104 83.7623C34.4259 84.8632 33.9856 85.9642 33.6332 87.1092C33.4571 87.6817 33.325 88.2542 33.2369 88.8267C33.1488 89.3992 33.1488 90.0158 33.369 90.5442C33.4131 90.6323 33.369 90.7204 33.2369 90.7644C33.1488 90.8084 33.0607 90.7644 33.0167 90.6323C32.7965 90.0157 32.8406 89.3552 32.8846 88.7827C32.9727 88.1661 33.1048 87.5936 33.2809 87.0211C33.6332 85.8761 34.1177 84.7311 34.6021 83.6302C35.5709 81.4282 36.7159 79.3144 37.7288 77.1125C38.2573 76.0115 38.7417 74.9546 39.1821 73.8096C39.5784 72.7086 39.9748 71.5196 40.0188 70.3306V69.8902L39.9307 69.4498C39.8867 69.1415 39.7986 68.8773 39.7546 68.569C39.6665 68.2607 39.5784 67.9965 39.4463 67.7323C39.3142 67.4681 39.1821 67.2038 39.0059 66.9396C38.3894 65.9707 37.3765 65.178 36.1875 64.9138Z" fill="black"/>
</g>
<path d="M40.7678 85.876C38.8301 90.9404 40.7678 94.8158 37.8612 95.3442C36.5401 95.6085 35.9676 94.5956 35.7033 93.4946C35.3951 92.1294 35.6153 90.5881 35.6153 90.5881C35.6153 90.5881 36.0997 89.355 37.1566 88.1219C37.9933 87.065 39.1824 86.0962 40.7678 85.876Z" fill="#169799"/>
<path d="M34.0298 92.1292C34.0298 93.3182 33.7656 94.3311 33.1931 94.8596C33.149 94.9036 33.105 94.9477 33.0169 94.9917C31.6517 96.0927 30.771 94.0669 30.771 94.0669C30.771 94.0669 27.1158 92.2613 25.3542 88.6502C23.989 85.8758 23.6808 81.9563 26.8956 76.98C27.38 80.5471 29.3177 82.9692 31.2554 85.2592C31.4756 85.5675 31.7398 85.8317 31.96 86.0959C33.3692 87.7254 34.0739 90.1915 34.0298 92.1292Z" fill="#B8E3E2"/>
<g opacity="0.53">
<path opacity="0.53" d="M26.9397 76.9802C26.6314 78.5216 26.5433 80.107 26.6754 81.6483C26.8516 83.1896 27.2479 84.731 28.0847 86.0521C28.8774 87.3733 30.0224 88.4743 31.0353 89.6633C31.5197 90.2798 32.0481 90.8964 32.3564 91.645C32.7087 92.3497 32.8408 93.1864 32.7968 94.0231C32.7968 94.1112 32.7087 94.1993 32.6206 94.1993C32.5326 94.1993 32.4445 94.1112 32.4445 94.0231C32.5326 93.2745 32.4005 92.5258 32.0922 91.8212C31.7839 91.1166 31.3435 90.5 30.8591 89.8835C29.8903 88.6945 28.7453 87.5495 27.9526 86.1843C27.1158 84.8191 26.7195 83.2777 26.5874 81.6923C26.4993 80.0629 26.5874 78.5216 26.9397 76.9802Z" fill="black"/>
</g>
<g opacity="0.25">
<path opacity="0.25" d="M40.768 85.8759C40.1955 86.5364 39.7111 87.197 39.2267 87.8576C38.7423 88.5622 38.2578 89.2668 37.8615 89.9714C37.0248 91.4247 36.3201 92.966 36.1 94.6395C36.1 94.7276 36.0119 94.8157 35.8798 94.7716C35.7917 94.7716 35.7036 94.6835 35.7476 94.5514C36.0559 92.8339 36.8486 91.2926 37.7294 89.8393C38.1698 89.1347 38.6542 88.4301 39.1826 87.7695C39.623 87.1089 40.1955 86.4924 40.768 85.8759Z" fill="black"/>
</g>
<path d="M39.5788 94.7275L38.3458 102.302C38.3017 102.61 37.9934 102.831 37.6852 102.831H30.0225C29.7142 102.831 29.4059 102.61 29.3619 102.302L28.349 96.1367L28.1288 94.7275C28.0408 94.3312 28.349 93.9348 28.7894 93.9348H38.9183C39.3586 93.9348 39.6669 94.2871 39.5788 94.7275Z" fill="#B8E3E2"/>
<path d="M40.7675 96.2689H26.9395L27.2918 94.1991C27.3798 93.7587 27.7321 93.4504 28.1725 93.4504H39.4904C39.9308 93.4504 40.2831 93.7587 40.3712 94.1991L40.7675 96.2689Z" fill="#86BFBC"/>
<path opacity="0.25" d="M35.6156 90.5438C35.6156 90.5438 35.4394 92.0852 35.7037 93.4504H33.8981C33.9862 93.054 34.0302 92.6136 34.0302 92.1292C34.0302 90.1475 33.3256 87.6813 32.0044 86.0959C31.7842 85.8317 31.52 85.5234 31.2998 85.2592C31.3438 84.1583 31.564 82.8371 32.2246 81.2517C32.3127 83.0573 32.7971 86.2281 34.6027 86.5804C35.9679 86.8446 37.7735 85.4794 39.1387 84.1583C38.434 85.4794 37.7294 86.8006 37.1569 88.0777C36.1 89.3107 35.6156 90.5438 35.6156 90.5438Z" fill="black"/>
<path opacity="0.25" d="M34.6019 102.831H30.0219C29.7137 102.831 29.4054 102.61 29.3614 102.302L28.3925 96.2688H32.356C32.2679 97.1055 32.1358 98.6909 32.4441 99.924C32.6202 100.893 33.501 102.126 34.6019 102.831Z" fill="black"/>
<path d="M69.3046 40.4724H49.6634C48.6945 40.4724 47.9019 39.6797 47.9019 38.7108V24.1341C47.9019 23.1653 48.6945 22.3726 49.6634 22.3726H69.3046C70.2734 22.3726 71.0661 23.1653 71.0661 24.1341V38.7549C71.0661 39.7237 70.3174 40.4724 69.3046 40.4724Z" fill="#383873"/>
<path d="M53.3187 28.7581V30.6958C53.3187 30.872 53.4508 30.9601 53.5829 30.9601H54.6839C54.8601 30.9601 54.9481 30.8279 54.9481 30.6958V28.7581C54.9481 28.582 55.0803 28.4939 55.2124 28.4939H55.3004C55.4766 28.4939 55.5647 28.626 55.5647 28.7581V34.0427C55.5647 34.2189 55.4326 34.307 55.3004 34.307H55.2124C55.0362 34.307 54.9481 34.1749 54.9481 34.0427V31.8849C54.9481 31.7087 54.816 31.6206 54.6839 31.6206H53.5829C53.4068 31.6206 53.3187 31.7527 53.3187 31.8849V34.0427C53.3187 34.2189 53.1866 34.307 53.0545 34.307H52.9664C52.7903 34.307 52.7022 34.1749 52.7022 34.0427V28.7581C52.7022 28.582 52.8343 28.4939 52.9664 28.4939H53.0545C53.1866 28.4939 53.3187 28.626 53.3187 28.7581Z" fill="white"/>
<path d="M57.0617 29.1102H56.5772C56.4011 29.1102 56.313 28.9781 56.313 28.846V28.8019C56.313 28.6258 56.4451 28.5377 56.5772 28.5377H58.8232C58.9994 28.5377 59.0874 28.6698 59.0874 28.8019V28.846C59.0874 29.0221 58.9553 29.1102 58.8232 29.1102H58.3388C58.1626 29.1102 58.0746 29.2423 58.0746 29.3744V34.0866C58.0746 34.2627 57.9424 34.3508 57.8103 34.3508H57.7222C57.5461 34.3508 57.458 34.2187 57.458 34.0866V29.3744C57.3699 29.2423 57.2378 29.1102 57.0617 29.1102Z" fill="white"/>
<path d="M63.2712 31.8408C63.2272 31.0481 63.1832 30.2114 63.2272 29.5508H63.1832C63.051 30.2114 62.8749 30.916 62.6987 31.5766L61.9941 34.3069H61.5537L60.8491 31.6646C60.673 30.916 60.4968 30.2114 60.3647 29.5068C60.3647 30.2114 60.3207 31.0041 60.2766 31.8408L60.1886 34.0427C60.1886 34.1748 60.0564 34.3069 59.9243 34.3069H59.8803C59.7041 34.3069 59.572 34.1748 59.616 33.9987L59.9243 28.7141C59.9243 28.5819 60.0564 28.4498 60.1886 28.4498H60.4087C60.5409 28.4498 60.6289 28.5379 60.673 28.67L61.2895 31.1362C61.5097 31.9289 61.6418 32.5014 61.7739 33.1619H61.818C61.9501 32.5014 62.0822 31.9289 62.2584 31.1362L62.8749 28.67C62.9189 28.5379 63.007 28.4498 63.1391 28.4498H63.4034C63.5355 28.4498 63.6676 28.5819 63.6676 28.7141L63.9759 33.9987C63.9759 34.1748 63.8437 34.3069 63.7116 34.3069H63.6676C63.5355 34.3069 63.4034 34.1748 63.4034 34.0427L63.2712 31.8408Z" fill="white"/>
<path d="M65.2092 28.494H65.2973C65.4734 28.494 65.5615 28.6261 65.5615 28.7583V33.5144C65.5615 33.6906 65.6936 33.7786 65.8257 33.7786H66.9267C67.1028 33.7786 67.1909 33.9108 67.1909 34.0429C67.1909 34.219 67.0588 34.3071 66.9267 34.3071H65.1651C64.989 34.3071 64.9009 34.175 64.9009 34.0429V28.7583C64.9449 28.6261 65.0771 28.494 65.2092 28.494Z" fill="white"/>
<path d="M78.2877 23.9134C79.0363 23.9134 79.2125 23.4289 79.2125 22.9886C79.2125 22.5922 79.1685 22.2399 79.1244 21.8435C79.0804 21.4472 79.0363 21.0949 79.0363 20.6545C79.0363 19.4655 79.785 18.937 80.7098 18.937H80.886V19.6416H80.6658C80.0933 19.6416 79.8731 20.038 79.8731 20.6545C79.8731 21.0068 79.9171 21.3591 79.9611 21.6674C80.0052 22.0197 80.0492 22.328 80.0492 22.6362C80.0492 23.6932 79.6969 24.0455 79.1244 24.2216V24.2657C79.6969 24.4418 80.0492 24.7941 80.0492 25.8511C80.0492 26.2034 80.0052 26.5116 79.9611 26.8639C79.9171 27.2162 79.8731 27.5245 79.8731 27.8768C79.8731 28.4934 80.0933 28.8897 80.6658 28.8897H80.8419V29.5943H80.6658C79.785 29.5943 78.9923 29.1539 78.9923 27.8768C78.9923 27.4805 79.0363 27.0841 79.0804 26.6878C79.1244 26.2914 79.1685 25.8951 79.1685 25.5428C79.1685 25.1024 78.9923 24.5739 78.2437 24.5739V23.9134H78.2877Z" fill="#383873"/>
<path d="M91.8956 24.5739C91.147 24.5739 90.9708 25.1024 90.9708 25.5428C90.9708 25.8951 91.0149 26.2914 91.0589 26.6878C91.1029 27.0841 91.147 27.4805 91.147 27.8768C91.147 29.1539 90.3543 29.5943 89.4735 29.5943H89.2974V28.8897H89.4735C90.0901 28.8016 90.2662 28.4934 90.2662 27.8768C90.2662 27.5245 90.2222 27.1722 90.1781 26.8639C90.1341 26.5116 90.0901 26.2034 90.0901 25.8511C90.0901 24.7941 90.4424 24.4418 91.0149 24.2657V24.2216C90.4424 24.0455 90.0901 23.6932 90.0901 22.6362C90.0901 22.328 90.1341 21.9757 90.1781 21.6674C90.2222 21.3591 90.2662 21.0068 90.2662 20.6545C90.2662 20.038 90.046 19.7297 89.4735 19.6416H89.2533V18.937H89.4295C90.3983 18.937 91.1029 19.4655 91.1029 20.6545C91.1029 21.0509 91.0589 21.4472 91.0149 21.8435C90.9708 22.1959 90.9268 22.5922 90.9268 22.9886C90.9268 23.4289 91.1029 23.9134 91.8516 23.9134V24.5739H91.8956Z" fill="#383873"/>
<path d="M87.3165 25.5428V22.9885L85.1146 21.7114L82.8686 22.9885V25.5428L85.1146 26.8639L87.3165 25.5428Z" fill="#FF6224"/>
<path d="M104.051 38.3586C101.937 37.3016 99.427 37.742 97.7975 39.3715C95.7718 41.3972 95.6837 44.7001 97.5773 46.814L96.7406 46.7259C96.6525 46.7259 96.5645 46.7699 96.5204 46.902C96.5204 46.9901 96.5645 47.0782 96.6966 47.1222L97.9297 47.2543C97.9737 47.2543 98.0177 47.2543 98.0618 47.2103C98.1058 47.1663 98.1058 47.1222 98.1498 47.0782L98.282 45.8891C98.282 45.8011 98.2379 45.713 98.1058 45.669C98.0177 45.669 97.9297 45.713 97.8856 45.8451L97.7975 46.5938C96.036 44.612 96.08 41.5293 97.9737 39.6357C99.515 38.0943 101.849 37.698 103.831 38.6668C103.919 38.7109 104.007 38.6668 104.051 38.5788C104.183 38.5347 104.139 38.4026 104.051 38.3586Z" fill="#FF6224"/>
<path d="M99.3828 48.3552C101.497 49.4122 104.007 48.9718 105.636 47.3424C107.662 45.3166 107.75 42.0137 105.856 39.8999L106.693 39.9879C106.781 39.9879 106.869 39.9439 106.913 39.8118C106.913 39.7237 106.869 39.6356 106.737 39.5916L105.504 39.4595C105.46 39.4595 105.416 39.4595 105.372 39.5035C105.328 39.5475 105.328 39.5916 105.284 39.6356L105.152 40.8247C105.152 40.9127 105.196 41.0008 105.328 41.0449C105.416 41.0449 105.504 41.0008 105.548 40.8687L105.636 40.12C107.398 42.1018 107.354 45.1845 105.46 47.0781C103.919 48.6195 101.585 49.0158 99.6029 48.047C99.5149 48.0029 99.4268 48.047 99.3828 48.1351C99.2506 48.1791 99.2947 48.3112 99.3828 48.3552Z" fill="#FF6224"/>
<path d="M147.605 58.4399H114.972C114.356 58.4399 113.915 57.9555 113.915 57.383C113.915 56.7664 114.4 56.326 114.972 56.326H147.605C148.221 56.326 148.662 56.8105 148.662 57.383C148.662 57.9995 148.177 58.4399 147.605 58.4399Z" fill="#FF6224"/>
<path d="M135.935 63.152H114.972C114.356 63.152 113.915 62.6676 113.915 62.0951C113.915 61.4786 114.4 61.0382 114.972 61.0382H135.935C136.551 61.0382 136.992 61.5226 136.992 62.0951C137.036 62.6676 136.551 63.152 135.935 63.152Z" fill="#20C3C5"/>
<path d="M135.935 68.1726H114.972C114.356 68.1726 113.915 67.6881 113.915 67.1156C113.915 66.4991 114.4 66.0587 114.972 66.0587H135.935C136.551 66.0587 136.992 66.5431 136.992 67.1156C137.036 67.6881 136.551 68.1726 135.935 68.1726Z" fill="#20C3C5"/>
<path d="M31.9164 40.5604H15.0057C14.3891 40.5604 13.9487 40.076 13.9487 39.5035C13.9487 38.8869 14.4332 38.4465 15.0057 38.4465H31.9605C32.577 38.4465 33.0174 38.931 33.0174 39.5035C33.0174 40.076 32.533 40.5604 31.9164 40.5604Z" fill="#20C3C5"/>
<path d="M25.5308 45.2725H15.0057C14.3891 45.2725 13.9487 44.7881 13.9487 44.2156C13.9487 43.5991 14.4332 43.1587 15.0057 43.1587H25.5749C26.1914 43.1587 26.6318 43.6431 26.6318 44.2156C26.6318 44.7881 26.1474 45.2725 25.5308 45.2725Z" fill="#FF6224"/>
<path d="M25.5308 50.2928H15.0057C14.3891 50.2928 13.9487 49.8084 13.9487 49.2359C13.9487 48.6193 14.4332 48.179 15.0057 48.179H25.5749C26.1914 48.179 26.6318 48.6634 26.6318 49.2359C26.6318 49.8084 26.1474 50.2928 25.5308 50.2928Z" fill="#FF6224"/>
<path d="M132.896 118.596C131.839 121.679 130.562 124.321 129.241 126.743C124.661 135.067 119.377 140.351 119.2 148.146C119.2 148.146 117.571 140.836 118.892 132.512C119.641 127.844 121.314 122.824 124.705 118.596C134.218 106.882 132.808 96.2247 132.808 96.2247C132.808 96.2247 137.608 104.988 132.896 118.596Z" fill="#169799"/>
<g opacity="0.25">
<path opacity="0.25" d="M121.667 139.074C121.535 138.105 121.579 137.136 121.667 136.212C121.755 135.287 121.931 134.318 122.195 133.393C122.68 131.543 123.384 129.782 124.221 128.108C124.617 127.272 125.102 126.435 125.586 125.642L127.128 123.264C128.096 121.679 128.933 120.005 129.638 118.244C130.342 116.526 130.915 114.721 131.399 112.915C131.884 111.11 132.324 109.26 132.632 107.41C132.941 105.561 133.205 103.711 133.293 101.817C133.337 100.893 133.381 99.9238 133.337 98.999C133.293 98.5146 133.293 98.0742 133.205 97.5898C133.117 97.1494 133.029 96.665 132.809 96.2246C133.029 96.621 133.117 97.1054 133.205 97.5898C133.293 98.0742 133.337 98.5146 133.337 98.999C133.381 99.9238 133.381 100.893 133.337 101.817C133.249 103.711 133.029 105.561 132.721 107.41C132.412 109.26 132.016 111.11 131.531 112.915C131.047 114.721 130.475 116.526 129.814 118.288C129.153 120.049 128.317 121.767 127.348 123.396L125.851 125.774C125.366 126.567 124.882 127.404 124.485 128.241C123.649 129.914 122.944 131.676 122.504 133.481C122.283 134.362 122.107 135.287 122.019 136.212C121.931 137.136 121.887 138.061 122.019 138.986C122.019 139.074 121.975 139.162 121.887 139.206C121.799 139.206 121.711 139.162 121.667 139.074Z" fill="black"/>
</g>
<path opacity="0.25" d="M129.285 126.787C124.705 135.111 119.421 140.395 119.244 148.19C119.244 148.19 117.615 140.88 118.936 132.556C121.843 131.323 125.982 129.342 129.285 126.787Z" fill="black"/>
<path d="M121.843 156.381C121.843 156.381 118.496 150.7 126.379 143.654C134.262 136.608 140.427 127.36 139.238 119.829C131.708 128.593 111.67 141.012 117.307 156.381H121.843Z" fill="#20C3C5"/>
<g opacity="0.25">
<path opacity="0.25" d="M139.238 119.829C138.489 121.503 137.476 123 136.375 124.497C135.274 125.951 134.085 127.316 132.808 128.593C131.531 129.914 130.122 131.059 128.757 132.248C127.392 133.437 126.114 134.758 125.013 136.168C122.767 139.03 121.05 142.289 119.993 145.724C119.465 147.441 119.112 149.247 119.068 151.053C119.024 152.858 119.244 154.664 119.949 156.337C119.993 156.425 119.949 156.513 119.861 156.557C119.773 156.601 119.685 156.557 119.641 156.469C118.892 154.752 118.672 152.858 118.76 151.053C118.848 149.203 119.2 147.397 119.729 145.636C120.83 142.157 122.591 138.898 124.881 136.035C126.026 134.626 127.303 133.305 128.713 132.116C130.122 130.971 131.531 129.826 132.808 128.505C134.085 127.228 135.318 125.863 136.419 124.409C137.476 123 138.489 121.503 139.238 119.829Z" fill="black"/>
</g>
<path d="M8.75203 115.161C8.75203 115.161 4.65645 111.418 2.45453 102.038C15.0495 112.695 18.1322 122.207 18.1322 122.207L8.75203 115.161Z" fill="#169799"/>
<g opacity="0.25">
<path opacity="0.25" d="M2.45462 102.038C4.21616 104.548 5.93366 107.058 7.60712 109.656C8.44385 110.934 9.23655 112.255 10.0292 113.532C10.8219 114.853 11.5706 116.174 12.2312 117.583C12.2752 117.671 12.2312 117.76 12.1431 117.804C12.055 117.848 11.9669 117.804 11.9229 117.716C11.3064 116.306 10.6017 114.985 9.80904 113.664C9.06039 112.343 8.2677 111.022 7.43097 109.745C5.84558 107.146 4.17212 104.592 2.45462 102.038Z" fill="black"/>
</g>
<path d="M17.8681 120.402C15.6222 118.376 12.2312 116.351 9.06045 114.149C4.83276 111.242 0.869294 108.071 0.12064 104.196C-1.55282 118.2 14.7414 124.498 14.7414 124.498L14.7854 124.542L20.7306 133.217C20.7306 133.217 23.1528 125.158 17.8681 120.402Z" fill="#20C3C5"/>
<g opacity="0.25">
<path opacity="0.25" d="M0.165497 104.24C0.165497 105.781 0.64992 107.323 1.26646 108.732C1.97107 110.141 2.89588 111.418 3.99684 112.475C5.09781 113.576 6.37492 114.457 7.69608 115.294C9.01723 116.13 10.3384 116.967 11.6155 117.848C14.1697 119.609 16.6359 121.635 18.3534 124.277C20.1149 126.92 20.9076 130.09 20.9076 133.217C20.9076 133.305 20.8195 133.393 20.7315 133.393C20.6434 133.393 20.5553 133.305 20.5553 133.217C20.5993 130.134 19.8067 127.008 18.1332 124.409C16.4597 121.811 14.0376 119.741 11.4834 117.98C10.2063 117.099 8.88511 116.262 7.608 115.382C6.33088 114.501 5.05377 113.62 3.90877 112.519C2.80781 111.418 1.883 110.141 1.22242 108.732C0.605882 107.323 0.165497 105.781 0.165497 104.24Z" fill="black"/>
</g>
<path d="M133.909 162.635H24.4295C22.712 162.635 21.3027 161.226 21.3027 159.508C21.3027 157.791 22.712 156.382 24.4295 156.382H133.909C135.627 156.382 137.036 157.791 137.036 159.508C137.036 161.226 135.627 162.635 133.909 162.635Z" fill="#EAF9F8"/>
</svg>
