<svg width="142" height="37" viewBox="0 0 142 37" fill="none" xmlns="http://www.w3.org/2000/svg">
<path d="M45.9825 28.6449L47.7454 24.5503C49.6505 25.9721 52.1812 26.7114 54.6834 26.7114C56.5317 26.7114 57.6975 26.0005 57.6975 24.92C57.669 21.9059 46.6365 24.266 46.5512 16.7024C46.5227 12.8638 49.9349 9.90659 54.7687 9.90659C57.6406 9.90659 60.5125 10.6175 62.5598 12.2382L60.9106 16.4181C59.0339 15.2238 56.7023 14.3708 54.4844 14.3708C52.9774 14.3708 51.9822 15.0817 51.9822 15.9916C52.0106 18.9488 63.1285 17.328 63.2422 24.5503C63.2422 28.4743 59.9154 31.2324 55.1384 31.2324C51.6409 31.2324 48.4278 30.4078 45.9825 28.6449ZM113.628 23.0718C112.747 24.6072 111.097 25.6593 109.192 25.6593C106.377 25.6593 104.103 23.3845 104.103 20.5695C104.103 17.7545 106.377 15.4798 109.192 15.4798C111.097 15.4798 112.747 16.5318 113.628 18.0673L118.49 15.366C116.671 12.1245 113.173 9.90659 109.192 9.90659C103.306 9.90659 98.5294 14.6836 98.5294 20.5695C98.5294 26.4555 103.306 31.2324 109.192 31.2324C113.202 31.2324 116.671 29.043 118.49 25.773L113.628 23.0718ZM65.6876 1.06348H71.7725V30.8344H65.6876V1.06348ZM120.879 1.06348V30.8344H126.964V21.9059L134.186 30.8344H141.977L132.793 20.2283L141.295 10.3331H133.845L126.964 18.5507V1.06348H120.879ZM89.8569 23.1286C88.9754 24.5788 87.1556 25.6593 85.1083 25.6593C82.2933 25.6593 80.0185 23.3845 80.0185 20.5695C80.0185 17.7545 82.2933 15.4798 85.1083 15.4798C87.1556 15.4798 88.9754 16.6171 89.8569 18.0957V23.1286ZM89.8569 10.3331V12.75C88.8616 11.0724 86.3879 9.90659 83.8003 9.90659C78.4546 9.90659 74.2463 14.6267 74.2463 20.5411C74.2463 26.4555 78.4546 31.2324 83.8003 31.2324C86.3879 31.2324 88.8616 30.0666 89.8569 28.389V30.8059H95.9418V10.3331H89.8569Z" fill="#17284D"/>
<path d="M8.3651 23.1C8.3651 25.1757 6.68746 26.8534 4.61175 26.8534C2.53603 26.8534 0.858398 25.1757 0.858398 23.1C0.858398 21.0243 2.53603 19.3467 4.61175 19.3467H8.3651V23.1ZM10.2418 23.1C10.2418 21.0243 11.9194 19.3467 13.9951 19.3467C16.0708 19.3467 17.7485 21.0243 17.7485 23.1V32.4834C17.7485 34.5591 16.0708 36.2367 13.9951 36.2367C11.9194 36.2367 10.2418 34.5591 10.2418 32.4834V23.1Z" fill="#E01E5A"/>
<path d="M13.9952 8.03026C11.9195 8.03026 10.2419 6.35262 10.2419 4.27691C10.2419 2.20119 11.9195 0.52356 13.9952 0.52356C16.0709 0.52356 17.7486 2.20119 17.7486 4.27691V8.03026H13.9952ZM13.9952 9.93537C16.0709 9.93537 17.7486 11.613 17.7486 13.6887C17.7486 15.7644 16.0709 17.4421 13.9952 17.4421H4.58343C2.50771 17.4421 0.830078 15.7644 0.830078 13.6887C0.830078 11.613 2.50771 9.93537 4.58343 9.93537H13.9952Z" fill="#36C5F0"/>
<path d="M29.0367 13.6883C29.0367 11.6126 30.7143 9.935 32.79 9.935C34.8658 9.935 36.5434 11.6126 36.5434 13.6883C36.5434 15.7641 34.8658 17.4417 32.79 17.4417H29.0367V13.6883ZM27.16 13.6883C27.16 15.7641 25.4824 17.4417 23.4067 17.4417C21.331 17.4417 19.6533 15.7641 19.6533 13.6883V4.27654C19.6533 2.20083 21.331 0.523193 23.4067 0.523193C25.4824 0.523193 27.16 2.20083 27.16 4.27654V13.6883Z" fill="#2EB67D"/>
<path d="M23.4067 28.7301C25.4824 28.7301 27.16 30.4077 27.16 32.4834C27.16 34.5591 25.4824 36.2367 23.4067 36.2367C21.331 36.2367 19.6533 34.5591 19.6533 32.4834V28.7301H23.4067ZM23.4067 26.8534C21.331 26.8534 19.6533 25.1757 19.6533 23.1C19.6533 21.0243 21.331 19.3467 23.4067 19.3467H32.8185C34.8942 19.3467 36.5718 21.0243 36.5718 23.1C36.5718 25.1757 34.8942 26.8534 32.8185 26.8534H23.4067Z" fill="#ECB22E"/>
</svg>
