<svg width="176" height="143" viewBox="0 0 176 143" fill="none" xmlns="http://www.w3.org/2000/svg">
<path d="M31.3051 60.079C31.3051 60.0035 31.3428 59.928 31.4561 59.928L33.9861 60.0413C34.2505 60.0413 34.4393 60.079 34.6281 60.1545C34.8169 60.2301 34.9302 60.3056 35.0435 60.4189C35.1568 60.5322 35.2323 60.6832 35.27 60.8343C35.3078 60.9853 35.3456 61.1741 35.3456 61.4007L35.3078 62.0804C35.3078 62.2692 35.27 62.458 35.2323 62.6468C35.1945 62.7979 35.0812 62.9489 34.9679 63.0622C34.8547 63.1755 34.7036 63.251 34.5148 63.3265C34.326 63.402 34.1372 63.402 33.8729 63.402L32.5134 63.3643L32.2491 62.5713H32.2114L32.1736 63.3643L31.2296 63.3265L31.3051 60.079ZM32.2114 62.4958L33.8351 62.5335C34.0239 62.5335 34.1372 62.4958 34.2127 62.4202C34.2882 62.3447 34.326 62.1937 34.326 62.0049V61.4384C34.326 61.2119 34.2882 61.0986 34.2127 61.0231C34.1372 60.9475 34.0239 60.9098 33.8351 60.9098L32.2869 60.872C32.2491 60.872 32.2491 60.872 32.2491 60.9098L32.2114 60.9475V62.4958Z" fill="#F1F1F4"/>
<path d="M36.667 61.5518L36.5915 62.5714C36.5915 62.6091 36.6293 62.6469 36.667 62.6469L39.4991 62.7224L39.4614 63.5909L35.723 63.4776C35.6475 63.4776 35.572 63.4399 35.6097 63.3266L35.6852 60.2301C35.6852 60.1546 35.723 60.0791 35.8363 60.0791L39.4614 60.1924C39.5369 60.1924 39.6124 60.2301 39.6124 60.3434L39.5747 61.2119L38.6684 61.514H38.6306V61.0609C38.6306 61.0231 38.6306 61.0231 38.5929 61.0231L36.667 60.9476C36.6293 60.9476 36.6293 60.9476 36.6293 60.9854V61.0231V61.4385L38.2153 61.4763L38.1775 62.156L36.8558 62.1182L36.667 61.5518Z" fill="#F1F1F4"/>
<path d="M43.0112 61.4764L42.9735 61.0988C42.9735 61.0611 42.9735 61.0611 42.9357 61.0233L41.1609 60.9855C41.0854 60.9855 41.0476 60.9855 41.0099 61.0233C40.9721 61.0611 40.9721 61.0988 40.9721 61.1366V61.2121C40.9721 61.2876 40.9721 61.3254 41.0099 61.3254C41.0476 61.3631 41.0854 61.3631 41.1231 61.3631L43.2 61.703C43.3511 61.7408 43.4266 61.7408 43.5399 61.8163C43.6154 61.854 43.6909 61.9296 43.7665 61.9673C43.842 62.0429 43.8797 62.1184 43.8797 62.1939C43.9175 62.2694 43.9175 62.3827 43.9175 62.5338V62.7981C43.9175 62.9491 43.8797 63.0624 43.842 63.1757C43.8042 63.289 43.7287 63.3645 43.6532 63.44C43.5776 63.5156 43.4644 63.5533 43.3511 63.5911C43.2378 63.6288 43.049 63.6288 42.8979 63.6288L39.877 63.5533L39.9148 62.6848L42.5958 62.7603C42.6714 62.7603 42.7469 62.7603 42.7469 62.7226C42.7846 62.6848 42.7847 62.647 42.7847 62.5715V62.496C42.7847 62.4205 42.7846 62.3827 42.7469 62.3827C42.7091 62.3449 42.6714 62.3449 42.6336 62.3449L40.6322 62.0429C40.4812 62.0051 40.3679 62.0051 40.2924 61.9673C40.1791 61.9296 40.1036 61.8918 40.0658 61.8163C39.9903 61.7408 39.9525 61.6652 39.9525 61.5897C39.9148 61.5142 39.9148 61.4009 39.9148 61.2499V61.0233C39.9148 60.7967 39.9903 60.6079 40.1413 60.4569C40.2924 60.3436 40.4812 60.2681 40.7833 60.2681L43.7665 60.3436C43.8797 60.3436 43.9175 60.3813 43.9175 60.4946L43.8797 61.1743L43.0112 61.4764Z" fill="#F1F1F4"/>
<path d="M44.2954 63.7416L44.4087 60.3809L45.3527 60.4186L45.2394 63.7794L44.2954 63.7416Z" fill="#F1F1F4"/>
<path d="M48.7883 62.4203C48.7883 62.3825 48.7883 62.307 48.7883 62.2692C48.7883 62.2315 48.7883 62.1559 48.7883 62.1182V62.0804L49.7324 62.1182L49.6946 63.7797C49.6946 63.8552 49.6569 63.893 49.5813 63.893L47.0513 63.8174C46.787 63.8174 46.5982 63.7797 46.4094 63.7042C46.2206 63.6286 46.1073 63.5531 45.994 63.4398C45.8807 63.3265 45.8052 63.1755 45.7674 63.0244C45.7297 62.8734 45.6919 62.6846 45.6919 62.458L45.7297 61.7783C45.7297 61.5895 45.7674 61.4007 45.8052 61.2119C45.8429 61.0608 45.9562 60.9098 46.0695 60.7965C46.1828 60.6832 46.3338 60.6077 46.5226 60.5322C46.7115 60.4567 46.9003 60.4567 47.1646 60.4567L49.6946 60.5322C49.7701 60.5322 49.8457 60.5699 49.8079 60.6832L49.7701 61.4007L48.8639 61.7028H48.8261V61.3629C48.8261 61.3252 48.8261 61.3252 48.7883 61.3252L47.1646 61.2874C47.0891 61.2874 46.9758 61.2874 46.938 61.2874C46.8625 61.2874 46.8247 61.3252 46.787 61.3629C46.7492 61.4007 46.7115 61.4762 46.7115 61.514C46.6737 61.5895 46.6737 61.665 46.6737 61.7783V62.3825C46.6737 62.5713 46.7115 62.7224 46.787 62.7979C46.8625 62.8734 46.9758 62.9112 47.1646 62.9489L48.7506 62.9867C48.7883 62.9867 48.7883 62.9867 48.7883 62.9489V62.4203Z" fill="#F1F1F4"/>
<path d="M51.7343 60.5699C51.8098 60.5699 51.8475 60.5699 51.8853 60.6077C51.9231 60.6454 51.9231 60.6832 51.9608 60.721L53.1692 63.1755C53.207 63.2132 53.207 63.251 53.2447 63.251H53.2825C53.3202 63.251 53.358 63.2132 53.358 63.1755L53.4335 60.6454L54.302 60.6832L54.1888 63.9307C54.1888 64.0062 54.151 64.0817 54.0377 64.044L52.6783 64.0062C52.6028 64.0062 52.565 64.0062 52.5273 63.9684C52.4895 63.9307 52.4517 63.9307 52.4517 63.8552L51.2056 61.4007C51.2056 61.3629 51.1678 61.3251 51.1301 61.3251H51.0923C51.0546 61.3251 51.0168 61.3629 51.0168 61.4007L50.9413 63.9307L50.0728 63.8929L50.186 60.6454C50.186 60.5699 50.2238 60.4944 50.3371 60.4944L51.7343 60.5699Z" fill="#F1F1F4"/>
<path d="M76.9586 118.42C109.284 118.42 135.489 92.2151 135.489 59.8897C135.489 27.5643 109.284 1.35938 76.9586 1.35938C44.6331 1.35938 18.4282 27.5643 18.4282 59.8897C18.4282 92.2151 44.6331 118.42 76.9586 118.42Z" fill="#E0F3FF"/>
<path d="M33.91 56.1134C32.4751 53.6211 29.9073 52.6016 29.9073 52.6016L29.0011 53.0169L31.0024 56.642C30.7381 58.0392 29.794 58.7944 29.794 58.7944C29.794 58.7944 28.5857 59.021 27.3395 58.3413L25.8291 54.4896L24.9228 54.905C24.9228 54.905 24.0543 57.5106 25.0361 60.1916C25.0361 60.1916 25.4137 61.0601 25.4892 61.1357C25.8291 61.551 26.7731 62.0042 28.5479 61.9287L34.703 73.6347C34.2121 74.5032 34.0989 75.5983 34.552 76.5801C35.3072 78.1661 37.1953 78.8836 38.819 78.1283C40.405 77.3731 41.1225 75.485 40.3673 73.8613C39.9141 72.8795 39.0078 72.2375 38.026 72.0487L33.0038 59.8895C34.2121 58.6434 34.4387 57.6238 34.3632 57.0574C34.3254 56.9441 33.91 56.1134 33.91 56.1134ZM38.9323 76.278L37.3086 77.0333L35.8359 76.0137L35.9869 74.2389L37.6107 73.4837L39.0834 74.5032L38.9323 76.278Z" fill="url(#paint0_linear_2_130)"/>
<path d="M34.3632 57.0951C32.9283 54.6028 30.3605 53.5833 30.3605 53.5833L29.4542 53.9986L31.4556 57.6237C31.1913 59.0209 30.2472 59.7761 30.2472 59.7761C30.2472 59.7761 29.0389 60.0027 27.7927 59.323L26.2823 55.4713L25.376 55.8867C25.376 55.8867 24.5075 58.4922 25.4893 61.1733C25.4893 61.1733 26.8865 63.0236 28.9633 62.9103L35.0807 74.5786C34.5898 75.4472 34.4765 76.5422 34.9297 77.524C35.6849 79.11 37.573 79.8275 39.1967 79.0723C40.7827 78.317 41.5002 76.429 40.7449 74.8052C40.2918 73.8234 39.3855 73.1815 38.4037 72.9927L33.3814 60.8335C34.8919 59.323 34.3632 57.0951 34.3632 57.0951ZM39.3855 77.222L37.7618 77.9772L36.2891 76.9576L36.4401 75.1828L38.0639 74.4276L39.5366 75.4472L39.3855 77.222Z" fill="url(#paint1_linear_2_130)"/>
<path d="M25.8645 54.5231L24.975 54.9387L25.4226 55.8967L26.3121 55.4811L25.8645 54.5231Z" fill="#E5E2FF"/>
<path d="M29.9397 52.6262L29.0502 53.0417L29.4978 53.9997L30.3873 53.5841L29.9397 52.6262Z" fill="#E5E2FF"/>
<path d="M38.9261 76.2578L37.3182 77.009L37.7657 77.967L39.3737 77.2157L38.9261 76.2578Z" fill="#E5E2FF"/>
<path d="M30.3603 63.7788L35.307 73.2569C36.5909 73.3324 37.3084 72.3129 37.3084 72.3129L33.2679 62.3816C31.4554 62.3438 30.3603 63.7788 30.3603 63.7788ZM36.893 72.4262C36.742 72.5394 36.5154 72.7282 36.2511 72.8415C36.0245 72.9548 35.7979 73.0303 35.5714 73.0303L30.6246 63.741C30.8512 63.5144 31.2666 63.2123 31.833 62.948C32.2484 62.7592 32.626 62.6459 33.0414 62.5704L36.893 72.4262Z" fill="url(#paint2_linear_2_130)"/>
<path d="M36.8927 72.4261L37.2703 72.3506C37.2703 72.3506 36.7039 73.3701 35.269 73.2946L35.5711 73.0681C35.5711 73.0303 36.2885 72.9548 36.8927 72.4261Z" fill="#E5E2FF"/>
<path opacity="0.62" d="M30.3603 63.779L30.6624 63.7412C30.6624 63.7412 31.4931 62.8727 33.0791 62.6084L33.3057 62.4196C33.3057 62.4196 32.6637 62.3063 31.6819 62.7594C30.6624 63.2126 30.3603 63.779 30.3603 63.779Z" fill="url(#paint3_linear_2_130)"/>
<path opacity="0.62" d="M29.0385 62.9105C29.0385 62.9105 31.4175 62.4951 33.4566 60.8713L34.0986 62.4196C34.0986 62.4196 33.3811 61.7021 31.7573 62.344C29.8693 63.0993 29.9826 64.6097 29.9826 64.6097L29.0385 62.9105Z" fill="url(#paint4_linear_2_130)"/>
<path opacity="0.5" d="M34.0989 62.4193C33.6457 62.0795 33.1171 62.0795 33.1171 62.0795L37.9128 73.6345L38.4792 73.0303L34.0989 62.4193Z" fill="url(#paint5_linear_2_130)"/>
<path d="M34.099 62.4194C34.099 62.4194 33.6081 63.9677 35.0431 64.6851L34.099 62.4194Z" fill="white"/>
<path d="M106.072 137.074H88.3245C86.4742 126.765 82.1317 113.322 82.1317 113.322C81.0743 112.718 79.0352 113.473 79.0352 113.473L72.578 137.074H56.3783C55.5098 122.498 63.4775 105.996 63.4775 105.996C63.4397 105.959 63.2131 105.43 63.2509 105.09C63.2887 104.939 63.553 104.675 63.8551 104.373C64.3082 103.957 64.7991 103.58 64.7991 103.58L95.0461 103.391C95.0461 103.391 95.3482 103.542 95.7258 103.768C96.4055 104.184 97.274 104.788 97.274 105.241C97.274 105.845 97.0474 106.261 96.9719 106.374V106.412C103.467 118.646 106.072 137.074 106.072 137.074Z" fill="url(#paint6_linear_2_130)"/>
<path opacity="0.5" d="M71.3698 126.501C69.2174 135.904 64.4972 142.852 60.8343 142.021C57.2092 141.19 56.0008 132.883 58.1532 123.442C60.3056 114.04 65.0258 107.091 68.6887 107.922C72.3516 108.791 73.5599 117.098 71.3698 126.501Z" fill="url(#paint7_radial_2_130)"/>
<path opacity="0.5" d="M102.712 122.989C105.318 132.278 104.525 140.661 100.9 141.643C97.3122 142.663 92.2521 135.941 89.6466 126.614C87.0411 117.325 87.834 108.942 91.4591 107.96C95.0843 106.94 100.107 113.662 102.712 122.989Z" fill="url(#paint8_radial_2_130)"/>
<path d="M70.4633 137.112L70.2745 137.074C72.3514 124.915 77.5625 114.719 77.638 114.606L77.6758 114.568L78.9974 113.398L79.1107 113.549L77.7891 114.719C77.5625 115.172 72.5025 125.179 70.4633 137.112Z" fill="url(#paint9_linear_2_130)"/>
<path d="M90.7413 137.112C88.7021 125.179 83.4911 115.097 83.2645 114.644L82.0939 113.586L82.2072 113.435L83.4155 114.53C83.4533 114.644 88.8532 124.915 90.8923 137.074L90.7413 137.112Z" fill="url(#paint10_linear_2_130)"/>
<path opacity="0.76" d="M97.3118 105.279C97.3118 105.883 97.0853 106.298 97.0097 106.412V106.449C90.7036 107.884 85.9079 113.737 85.9079 113.737C89.3442 120.308 95.0839 137.112 95.0839 137.112H88.3624C86.512 126.803 82.1695 113.36 82.1695 113.36C81.1121 112.756 79.073 113.511 79.073 113.511L72.578 137.074H68.3865C69.897 127.181 74.3151 115.135 74.3151 115.135C69.9347 110.037 63.4775 105.996 63.4775 105.996L62.7223 105.505L63.2887 105.09C66.0831 107.771 75.1458 111.283 75.4102 111.396L63.8929 104.373C64.346 103.957 64.8369 103.58 64.8369 103.58L95.0839 103.391C95.0839 103.391 95.386 103.542 95.7636 103.768L87.4938 108.3L97.3118 105.279Z" fill="url(#paint11_linear_2_130)"/>
<path opacity="0.76" d="M82.1696 113.36L85.6814 111.057L84.8506 113.36L84.2464 120.233L82.1696 113.36Z" fill="url(#paint12_linear_2_130)"/>
<path opacity="0.76" d="M79.0732 113.473L75.3726 111.396L67.5182 107.847L77.525 114.493L78.1292 116.872L79.0732 113.473Z" fill="url(#paint13_linear_2_130)"/>
<path d="M89.1929 42.5571C89.2307 42.7082 89.2307 42.8214 89.2307 42.8214C89.0419 43.5767 88.8153 44.2941 88.5888 44.9738C87.8335 47.0885 86.9272 48.5989 86.2475 49.543C85.6434 50.336 85.228 50.7514 85.228 50.7514C79.7148 49.0143 76.996 43.6522 75.9764 40.9711V40.9334C75.7876 40.4425 75.6366 40.0271 75.561 39.7628C75.4855 39.5362 75.4478 39.4229 75.4478 39.4229C75.4855 39.3851 75.4855 39.3096 75.5233 39.2719C75.5988 39.0831 75.7121 38.8942 75.7876 38.7054C76.5051 37.1195 76.996 35.6468 77.2981 34.4761C77.5624 33.4943 77.7134 32.7391 77.789 32.3237C77.8267 32.0972 77.8267 31.9839 77.8267 31.9839L80.3945 33.3433L89.2307 38.0257C89.0797 38.8187 89.0419 39.6117 89.0419 40.2537C89.0419 40.7446 89.0419 41.1599 89.0797 41.4998C89.1174 41.9529 89.1552 42.2928 89.1929 42.5193C89.1552 42.5193 89.1929 42.5193 89.1929 42.5571Z" fill="#FE9083"/>
<path d="M86.7381 51.3176C86.2472 51.8085 85.643 52.2616 84.9256 52.6392L84.8878 52.677C84.8878 52.677 84.85 52.677 84.85 52.6392C84.6612 52.5259 83.9815 52.1106 83.113 51.4686C80.8096 49.7316 76.9579 46.2198 75.825 41.4618C75.825 41.4618 75.825 41.4618 75.825 41.4241C75.7118 40.8576 75.5985 40.2912 75.5607 39.687C75.5607 39.536 75.5229 39.3849 75.5229 39.2339C75.5229 39.2339 76.2782 41.0464 77.6376 42.9723C79.1858 45.2757 81.5648 47.768 84.3591 47.768C86.7759 47.768 88.022 46.1442 88.664 44.596C88.9283 43.9541 89.0793 43.3121 89.1926 42.859C89.2304 42.7079 89.2304 42.5947 89.2681 42.5191C89.2681 42.4814 89.2681 42.4059 89.3059 42.3681C89.3437 42.1793 89.3437 42.1038 89.3437 42.1038C89.3437 42.1038 90.1367 47.8813 86.7381 51.3176Z" fill="url(#paint14_linear_2_130)"/>
<path opacity="0.5" d="M86.7381 51.3176C86.2472 51.8085 85.643 52.2616 84.9256 52.6392H84.8878H84.85C84.6612 52.5259 83.9815 52.1106 83.113 51.4686C80.8096 49.7316 76.9579 46.2198 75.825 41.4618C75.825 41.4618 75.825 41.4618 75.825 41.4241C75.7118 40.8576 75.5985 40.2912 75.5607 39.687C75.5607 39.536 75.5229 39.3849 75.5229 39.2339C75.5229 39.2339 76.2782 41.0464 77.6376 42.9723C77.6376 42.9723 79.1481 47.1638 82.4711 49.2407C84.1326 50.298 85.3787 50.147 86.285 49.505C87.1913 48.9008 87.7954 47.8435 88.1353 47.0505C88.4751 46.2575 88.5884 45.5023 88.6262 44.9359C88.6262 44.8226 88.6262 44.7093 88.6262 44.596C88.8905 43.9541 89.0416 43.3121 89.1549 42.859C89.1926 42.7079 89.1926 42.5947 89.2304 42.5191C89.2304 42.4814 89.2304 42.4059 89.2681 42.3681C89.3059 42.1793 89.3059 42.1038 89.3059 42.1038C89.3059 42.1038 90.1367 47.8813 86.7381 51.3176Z" fill="url(#paint15_linear_2_130)"/>
<path d="M107.923 85.5674C107.885 85.5674 107.847 85.6052 107.847 85.6052C107.545 85.643 106.563 85.4164 105.317 84.3591C104.26 83.4528 102.976 81.9046 101.73 79.3745C99.1996 74.3145 98.4822 70.9537 98.3689 70.3495V70.274L96.8962 72.6152C95.9144 75.6362 93.9886 88.0597 94.0263 88.6261C94.0641 89.1925 95.6878 91.7603 95.6878 92.1002C95.6501 92.44 94.8948 93.1575 94.706 93.9127C94.555 94.4414 95.5745 96.0651 96.292 97.2735C96.6696 97.9154 96.934 98.4441 96.934 98.6329C96.934 99.1993 95.1592 101.994 95.1592 101.994V103.504L95.1214 103.542L95.0459 103.617L94.9704 103.693C94.2907 104.222 91.4208 105.996 82.3958 106.45C71.7093 107.016 64.6101 103.58 64.6101 103.58L65.1388 102.107C65.1388 102.107 64.6479 101.692 64.6101 101.465C64.5724 101.238 64.9877 100.748 64.9877 100.748C64.9877 100.748 63.9304 100.181 63.9304 99.4637C63.9304 98.7462 66.0828 96.5183 66.0073 94.6302C65.9318 92.7421 64.2703 91.0429 64.0814 89.9855C63.8549 88.9282 66.8758 86.2471 66.8758 86.2471C64.308 78.0906 63.7794 67.1398 63.7794 67.1398L63.2885 66.5734C63.2885 66.5734 60.192 73.597 57.4354 77.0333C57.0956 77.4487 56.7557 77.8263 56.3781 78.2417C55.5851 79.0724 54.7544 79.8654 53.9614 80.5829C52.0355 82.2822 50.2607 83.3773 49.8454 83.3017C49.1279 83.1507 46.258 77.4865 46.4091 71.709C46.4846 68.9524 48.1461 65.8559 49.8454 63.4014C50.0342 63.1371 50.223 62.8728 50.4118 62.6084C51.6202 60.9469 52.7908 59.6253 53.3572 59.0211C53.5838 58.7945 53.697 58.6812 53.697 58.6812C53.697 58.6812 53.3194 57.4351 53.0173 56.3023C53.0173 56.2645 53.0173 56.2645 52.9796 56.2267V56.189C52.9796 56.1512 52.9796 56.1512 52.9796 56.1512C52.8285 55.4715 52.7152 54.9051 52.8285 54.754C53.0551 54.3764 54.4523 53.9611 54.6788 53.659C54.9054 53.3569 55.925 48.5612 56.6802 48.0325C57.3977 47.5416 58.7193 47.164 62.9864 45.4647C63.2129 45.3892 63.4017 45.3137 63.6283 45.2004C68.4618 43.2745 73.182 40.9711 73.182 40.9711L74.9945 38.7432H75.7875L75.5232 39.3096C75.6365 39.876 75.7875 40.4424 75.9763 40.9711V41.0089C78.4686 48.8632 84.888 51.3933 84.888 51.3933C89.3439 48.108 89.2684 42.8969 89.2684 42.8969V42.1795L90.0991 42.4438L90.6656 43.8032C90.6656 43.8032 91.6474 45.3137 95.4613 46.9752C96.141 47.2773 96.8207 47.6171 97.5759 48.0325C101.088 50.0339 104.977 53.0925 105.279 53.7345C105.317 53.81 105.355 53.9233 105.393 54.0743C105.808 55.6981 106.639 61.7399 107.432 63.8923C107.923 65.2517 108.716 65.9692 109.282 66.3846C109.697 66.6867 109.999 66.7622 109.999 66.7622C110.075 67.1021 110.113 67.4419 110.15 67.744C111.774 78.0529 108.64 85.0765 107.923 85.5674Z" fill="url(#paint16_linear_2_130)"/>
<path opacity="0.5" d="M66.8387 66.0068L63.7422 67.0641L63.2513 66.4977C63.2513 66.4977 60.1549 73.5213 57.3983 76.9576C57.0585 77.373 56.7186 77.7506 56.341 78.166C55.548 78.9967 54.7172 79.7897 53.9243 80.5072L51.5453 70.2738L50.3369 62.5327C51.5453 60.8712 52.7159 59.5496 53.2823 58.9454C53.5089 58.7188 53.6222 58.6055 53.6222 58.6055C53.6222 58.6055 53.2445 57.3594 52.9425 56.2266C52.9425 56.1888 52.9425 56.1888 52.9047 56.151V56.1133C52.9047 56.0755 52.9047 56.0755 52.9047 56.0755C52.7537 55.3958 52.6404 54.8294 52.7536 54.6783C52.9802 54.3007 54.3774 53.8853 54.604 53.5832C54.8305 53.2812 55.8501 48.4854 56.6053 47.9568C56.6053 47.9568 56.1144 52.6015 58.7577 58.4545L60.0416 60.267L63.8178 63.288C63.8555 63.2502 65.2905 65.1383 66.8387 66.0068Z" fill="url(#paint17_linear_2_130)"/>
<path d="M57.8509 74.3898C57.1712 79.3366 49.8077 83.1505 49.8077 83.1505C48.1462 83.1505 46.3337 80.2806 44.6344 76.7688C42.9729 73.257 42.8596 63.0991 42.7841 62.4572C42.7086 61.8152 41.7645 60.5691 41.7268 60.0404C41.689 59.5118 43.2372 58.3789 43.2372 58.3789V58.3412V58.3034C43.0862 57.9636 42.1799 56 42.2177 55.6224C42.2932 55.2447 44.0302 54.3762 44.0302 54.3762L44.1435 56.3021C44.1435 56.3021 48.2217 55.5468 49.5811 52.3749L49.8077 51.3931L50.4874 51.8462V56C50.4874 56 50.6385 56.6419 50.8273 56.6419C51.0538 56.6419 52.6398 55.8489 52.9797 55.9622C53.3195 56.0755 53.6594 58.3034 54.0748 58.5678C54.5279 58.8698 55.6985 59.6628 55.8873 60.0782C55.9628 60.267 55.9628 60.909 56.0006 61.6642C56.0006 62.5705 56.0384 63.6656 56.1516 64.2697C56.3405 65.4403 58.4929 69.4053 57.8509 74.3898Z" fill="url(#paint18_linear_2_130)"/>
<path d="M125.407 70.1229C125.067 70.6516 123.405 71.7467 122.99 72.1621C122.574 72.5774 122.99 74.0124 122.99 74.0124C115.966 81.4514 108.678 85.1898 107.923 85.5296C107.885 85.5296 107.847 85.5674 107.847 85.5674C103.429 82.622 103.807 77.713 105.28 73.6347C106.677 69.7076 109.056 66.4601 109.169 66.309C109.245 66.2713 110.491 65.7426 111.397 65.7048C111.699 65.6671 111.963 65.8181 112.228 65.9692C112.756 66.309 113.21 66.8377 113.663 66.6111C114.305 66.2713 115.74 62.8727 116.721 62.7972C117.401 62.7217 118.345 63.4391 118.987 63.8168C119.251 64.0056 119.478 64.1188 119.591 64.0811C119.969 63.9678 121.177 62.5329 121.253 62.4951C121.366 62.4573 121.895 62.8727 121.895 62.8727L121.517 63.3636C122.121 66.7999 124.085 69.1034 124.085 69.1034L125.407 67.1775C125.407 67.1398 125.746 69.5943 125.407 70.1229Z" fill="url(#paint19_linear_2_130)"/>
<path d="M89.1931 42.406C89.1931 42.4437 89.1931 42.5193 89.1553 42.557C89.1175 42.6703 89.1175 42.7458 89.0798 42.8591C88.6266 44.5206 86.8141 46.2199 84.5106 45.4269C82.0184 44.5206 77.2227 34.4383 77.2227 34.4383L77.7136 32.2859L89.0042 41.4997L89.1175 42.3682L89.1931 42.406Z" fill="#CB4D7A"/>
<path d="M51.5448 40.5559C51.5448 40.5559 50.8651 36.7419 51.1672 33.9098C51.4693 31.0777 51.0917 27.9057 51.0917 27.9057C51.0917 27.9057 50.412 27.6037 49.9211 27.9057C49.4302 28.2078 48.2596 31.1155 48.7882 33.4567C49.3169 35.7979 48.9015 41.3866 48.9015 41.3866H48.1085L46.4092 39.0076L45.5785 38.7811C45.5785 38.7811 40.7828 43.3124 40.8583 45.9935L41.5003 48.3725L47.4288 48.1837L51.2805 43.7656L51.5448 40.5559Z" fill="#EE8183"/>
<path d="M45.5409 38.781C45.5409 38.781 45.6541 41.8019 46.3339 44.3697C46.3339 44.3697 46.2206 45.427 44.9744 45.5026L44.6724 45.1627C44.6724 45.1627 44.4458 46.3711 43.3507 46.4466L42.3311 45.427L42.5955 46.2955C42.5955 46.2955 42.2179 47.2018 41.2361 47.1641C41.2361 47.1641 39.5745 45.8802 39.499 44.1809L41.1228 42.8215V41.7642L43.0486 40.4048L43.0864 39.6495C43.0864 39.6118 44.2192 38.781 45.5409 38.781Z" fill="url(#paint20_linear_2_130)"/>
<path opacity="0.6" d="M51.2427 33.1169C51.2427 33.1169 50.9406 33.8344 50.5252 34.1365C50.1098 34.4386 48.9392 34.6274 48.9392 34.6274L48.9015 41.3867H48.1085L46.4092 39.0077C46.4092 39.0077 47.2777 40.3672 47.3155 41.3867L46.6358 41.7266L46.0316 39.6874L45.7673 41.1601L46.0316 42.9727C46.0316 42.9727 47.0512 42.1042 48.9015 42.0664L49.1658 42.5573C49.1658 42.5573 45.8428 45.3139 45.0498 46.9377C45.0498 46.9377 46.7113 44.8608 50.4497 42.5196L50.7896 41.4245L51.2805 38.7812C51.2805 38.7812 50.8273 34.9673 51.2427 33.1169Z" fill="url(#paint21_linear_2_130)"/>
<path d="M54.0371 44.8608C53.735 45.8049 50.4875 49.6565 50.1099 50.4873C49.77 51.3181 49.5435 52.4131 49.5435 52.4131C47.9575 55.8494 44.1058 56.3403 44.1058 56.3403L43.917 53.2439C43.917 53.2439 41.8401 52.0355 41.5003 51.3936L41.4625 51.2803C41.3492 50.6761 41.4625 48.4104 41.4625 48.4104L45.0876 46.9377C46.6736 44.8986 50.4875 42.5196 50.4875 42.5196L50.6763 41.4623C47.9197 40.1029 48.3729 36.0246 48.8638 35.5337C49.3169 35.0428 50.1854 35.0428 50.1854 35.0428C50.1854 35.0428 51.205 38.3281 51.8469 39.8763C52.4134 41.3868 54.3392 43.9546 54.0371 44.8608Z" fill="url(#paint22_linear_2_130)"/>
<path d="M43.086 39.6118C43.086 39.6118 43.5014 43.3502 44.672 45.1628C44.672 45.1628 43.1616 43.2747 43.0483 40.4048L43.086 39.6118Z" fill="#E28183"/>
<path d="M41.123 41.7263C41.123 41.7263 41.5007 44.7472 43.3887 46.4465C43.3887 46.4465 41.7272 45.6158 41.123 42.7836V41.7263Z" fill="#E28183"/>
<path opacity="0.91" d="M50.6009 49.6943C50.6009 49.6943 46.5227 53.6593 43.8794 53.2439L44.0682 56.3404C44.0682 56.3404 48.373 55.9627 49.7702 51.4314C49.7702 51.4691 50.2611 50.1852 50.6009 49.6943Z" fill="url(#paint23_linear_2_130)"/>
<path d="M137.112 55.094C137.112 55.094 133.336 61.9666 128.956 64.0812H127.445L123.971 69.3301C123.971 69.3301 121.743 67.9329 121.555 63.2882C121.555 63.2882 122.348 62.4575 122.536 61.5512C122.536 61.5512 121.29 60.5694 120.95 59.8519C120.61 59.1345 120.497 56.9821 120.271 56.1136C120.044 55.245 118.005 53.3947 117.552 53.1682C117.099 52.9416 115.06 52.7905 115.06 52.7905C115.06 52.7905 114.757 52.0353 115.06 51.6955C115.362 51.3556 118.534 50.1095 120.271 51.2801C120.271 51.2801 120.384 52.1864 120.573 52.6773C120.762 53.1682 122.31 54.8297 122.536 54.8297C122.763 54.8297 123.782 53.9611 124.236 53.3192C124.651 52.6773 126.992 47.6927 127.521 46.0312C127.521 45.9935 127.521 45.9935 127.521 45.9935C127.521 45.9557 127.559 45.9557 127.559 45.9179C127.559 45.8802 127.559 45.8802 127.559 45.8802C127.559 45.8802 127.559 45.8802 127.559 45.8424C127.974 44.4075 130.504 41.6131 131.826 40.8201C131.826 40.8201 132.392 40.6691 132.694 41.3866C132.694 41.3866 131.637 44.4453 130.504 46.2578C130.315 46.5599 130.126 46.9375 129.9 47.3151C128.956 49.0899 127.861 51.3556 127.71 51.6955L127.672 51.7332L128.276 52.0353L129.9 50.5249L131.561 48.9389L135.337 52.9416L134.96 53.4325L133.789 54.943L134.393 55.0562L135.791 53.508L137.112 55.094Z" fill="url(#paint24_linear_2_130)"/>
<path opacity="0.6" d="M136.206 56.5666L134.998 58.3414C134.998 58.3414 128.39 53.2436 126.992 52.8282C125.558 52.4129 125.029 52.6772 125.029 52.6772L123.556 54.5653C123.556 54.5653 126.275 56.982 126.502 60.2295C126.502 60.2295 125.595 56.1135 122.537 54.9051C122.763 54.9051 123.783 54.0366 124.236 53.3947C124.651 52.7527 126.992 47.7682 127.521 46.1067C127.446 46.4088 127.332 46.9374 127.597 47.3906C127.937 47.9948 129.825 47.4283 129.938 47.3906L127.748 51.7709L127.71 51.8087L128.314 52.1108L129.938 50.6003L129.145 52.4884L135.036 53.5457L133.865 55.0562L134.469 55.1695L136.206 56.5666Z" fill="url(#paint25_linear_2_130)"/>
<path d="M131.637 48.9767C131.637 48.9767 132.769 48.8256 133.525 50.2983L133.374 50.7892C133.374 50.7892 134.506 51.0158 135.564 52.8283C135.564 52.8283 134.62 54.5654 132.241 55.3584C132.241 55.3584 131.146 55.0563 130.957 54.1122L131.183 53.508L130.315 54.15C130.315 54.15 129.295 54.4521 128.842 52.9416L131.637 48.9767Z" fill="url(#paint26_linear_2_130)"/>
<path d="M137.452 54.6409C137.452 54.6409 137.679 53.5458 136.508 52.8284L134.243 55.3206C134.243 55.3206 134.318 56.1136 135.3 56.3024C135.3 56.3024 136.848 55.7738 137.452 54.6409Z" fill="url(#paint27_linear_2_130)"/>
<path opacity="0.91" d="M120.951 59.8896C120.951 59.8896 123.594 62.835 127.408 64.0812L125.746 66.6112L122.272 62.2309L122.499 61.5889C122.537 61.5512 121.139 60.5316 120.951 59.8896Z" fill="url(#paint28_linear_2_130)"/>
<path d="M133.336 50.7515C133.336 50.7515 132.241 52.564 131.146 53.4703L130.919 54.0745C130.919 54.0745 133.034 52.6395 133.827 50.978C133.827 50.978 133.6 50.7892 133.336 50.7515Z" fill="#E28183"/>
<path opacity="0.5" d="M125.406 70.1229C125.066 70.6516 123.405 71.7467 122.989 72.1621C122.574 72.5774 122.989 74.0124 122.989 74.0124C115.966 81.4514 108.678 85.1898 107.922 85.5296C107.885 85.5296 107.847 85.5674 107.847 85.5674C107.28 85.6429 104.486 84.8499 101.692 79.2612C99.1617 74.2012 98.4442 70.8404 98.3309 70.2362V70.1607L98.9351 69.33L99.8414 59.0211L100.483 61.098C102.9 58.1526 105.204 53.6589 105.204 53.6589L105.317 53.9988C105.732 55.6225 106.563 61.6644 107.356 63.8168C107.847 65.1762 108.64 65.8937 109.206 66.309C106.978 68.3482 105.845 71.2936 105.317 73.6348C104.826 75.7872 104.788 77.4109 104.788 77.4109C104.788 77.4109 105.392 74.5033 107.356 70.9915C108.073 69.7076 109.093 68.5747 110.113 67.6684C110.868 66.951 111.661 66.3846 112.265 65.9314C112.794 66.2713 113.247 66.7999 113.7 66.5734C110.754 70.9915 110.83 79.7521 113.587 78.0906C116.343 76.4291 116.985 72.8795 116.985 72.8795C116.343 68.5747 116.532 63.7035 117.061 62.7595C117.703 62.7972 119.515 64.0811 119.628 64.0433C119.477 69.1412 121.856 72.5019 121.856 72.5019L123.442 70.0852C121.139 66.2335 121.328 62.4574 121.328 62.4574C121.441 62.4196 121.97 62.835 121.97 62.835L121.592 63.3259C122.196 66.7622 124.16 69.0656 124.16 69.0656L125.481 67.1398C125.406 67.1398 125.746 69.5943 125.406 70.1229Z" fill="url(#paint29_linear_2_130)"/>
<path opacity="0.5" d="M95.0461 101.88V103.391L95.0083 103.429L94.9328 103.504L94.8573 103.58C94.1776 104.108 91.3077 105.883 82.2827 106.336C71.5962 106.903 64.497 103.466 64.497 103.466L65.0257 101.994C65.0257 101.994 64.5348 101.578 64.497 101.352C64.4593 101.125 64.8746 100.634 64.8746 100.634C64.8746 100.634 63.8173 100.068 63.8173 99.3503C63.8173 98.7084 65.5543 96.8203 65.8564 95.0833C65.8942 94.8945 65.8942 94.7057 65.8942 94.5169C65.8187 92.6288 64.1949 90.9673 63.9684 89.8722C63.7418 88.8149 66.7627 86.1338 66.7627 86.1338C64.1949 77.9773 63.6663 67.0265 63.6663 67.0265L63.1754 66.4601C63.1754 66.4601 60.0789 73.4837 57.3223 76.92C54.528 80.3563 50.4497 83.3017 49.7323 83.1506C48.0708 83.1506 46.2582 80.2808 44.5589 76.7689C42.8974 73.2571 42.7841 63.0993 42.7086 62.4573C42.6331 61.8154 41.6891 60.5693 41.6513 60.0406C43.4261 63.137 46.296 62.2308 46.296 62.2308C44.2191 62.2685 43.1618 58.4169 43.1618 58.4169V58.3791V58.3413L42.1422 55.698C42.2555 55.8113 44.5967 58.4546 46.9002 56.8309C49.2414 55.1694 50.4497 51.9219 50.4497 51.9219V56.0756C50.4497 56.0756 50.6008 56.7176 50.7896 56.7176C50.6385 58.6434 50.2609 60.9469 49.77 63.2503C48.7127 68.1971 47.24 72.9928 47.24 72.9928C47.24 72.9928 51.1672 70.8404 52.5644 65.4027C53.2441 62.7972 53.3196 60.5315 53.2819 58.9078C53.2441 57.5106 53.0553 56.5288 52.9798 56.1889C52.9798 56.1512 52.9798 56.1512 52.942 56.1134V56.0756C52.942 56.0756 52.942 56.0756 52.942 56.0379L53.3196 56.8309L54.0371 58.6434C54.8678 65.6293 53.1308 76.127 53.1308 76.127C55.6608 72.9928 56.1895 66.0069 56.0762 64.3076C56.0384 63.5147 55.9629 62.4951 55.9252 61.7021C55.8874 60.7958 55.8119 60.1161 55.8119 60.1161L60.9852 63.2126L60.0412 60.1916L63.8173 63.2126C63.8173 63.2126 67.2158 67.2908 70.6899 67.7817C74.164 68.2726 86.9651 67.9705 86.9651 67.9705C86.9651 67.9705 75.8632 68.688 72.6157 69.632C69.3683 70.5761 68.7641 71.6711 68.7641 71.6711C71.1053 83.6038 84.0952 87.6065 84.5106 87.7575C72.729 85.9827 67.2536 75.976 67.2536 75.976C67.2536 75.976 67.0648 81.6024 67.9711 83.7548C68.8774 85.9072 74.2395 91.1561 81.0743 92.2512C81.6407 92.3267 82.2072 92.4022 82.7736 92.44C88.5511 92.7043 93.3468 89.7589 93.8377 89.419C93.8755 89.3813 93.8755 89.3813 93.8755 89.3813C93.8755 89.3813 93.8755 89.3813 93.8755 89.419C93.6867 89.7211 91.3077 93.0442 81.7163 93.4218C81.1498 93.4595 80.5834 93.4595 80.017 93.4218C71.143 93.0442 66.6117 87.1156 66.6117 87.1156C66.6117 87.1156 63.3264 88.8904 65.4411 91.4959C65.4788 91.5337 65.4788 91.5715 65.5166 91.5715C66.1208 92.2889 67.5179 93.1574 69.1039 94.0637C69.1417 94.1015 69.1794 94.1015 69.255 94.1392C71.2186 95.2343 73.4843 96.3294 75.259 97.2357H75.2968C76.3919 97.8021 77.2604 98.293 77.7513 98.6329C78.2422 99.0105 78.3555 99.237 77.8646 99.2748C75.3723 99.5769 66.0075 97.5 65.5921 98.0664C65.2145 98.6329 66.0452 100.106 66.0452 100.106C74.6549 104.373 93.1202 102.258 93.7244 102.22C78.28 106.185 65.6299 101.163 65.6299 101.163L66.0452 102.636C66.0452 102.636 72.9178 105.015 81.0366 105.203C89.1553 105.392 94.2153 103.315 94.2153 103.315L95.0461 101.88Z" fill="url(#paint30_linear_2_130)"/>
<path opacity="0.5" d="M88.7402 67.9329C88.7402 67.9329 94.8954 68.2727 98.9358 69.33L96.859 72.502C96.859 72.502 93.687 69.7454 88.7402 67.9329Z" fill="url(#paint31_linear_2_130)"/>
<path opacity="0.5" d="M94.4796 84.8877C94.4796 84.8877 90.6657 88.0974 86.8895 89.5701C83.1134 91.0428 79.4883 91.1939 79.4883 91.1939C79.4883 91.1939 81.6407 91.8358 87.0028 90.9673C92.3272 90.0988 94.1397 87.2289 94.1397 87.2289L94.4796 84.8877Z" fill="url(#paint32_linear_2_130)"/>
<path opacity="0.5" d="M96.2169 97.198C89.1178 99.0483 80.1305 96.405 80.206 96.1029C80.2816 95.763 82.6605 96.2539 88.2115 95.1211C93.5736 94.026 95.5372 92.1379 95.6505 92.0247C95.6127 92.3645 94.8575 93.082 94.6687 93.8372C94.4799 94.3281 95.4995 95.9519 96.2169 97.198Z" fill="url(#paint33_linear_2_130)"/>
<path opacity="0.5" d="M76.9583 68.9148C70.9165 69.519 69.2549 71.2183 69.2549 71.2183C67.5557 71.4448 63.7418 67.0645 63.7418 67.0645L63.2509 66.4981C63.2509 66.4981 60.1544 73.5217 57.3978 76.958C57.058 77.3734 56.7181 77.751 56.3405 78.1664L56.7181 77.2601C56.7181 77.2601 57.3601 76.958 57.5489 73.5595C57.7377 70.1609 56.1139 65.0631 56.1139 64.3834C56.1139 63.7037 55.8496 60.1919 55.8496 60.1919L61.0229 63.2883L60.0789 60.2674L63.8551 63.2883C63.8551 63.2883 65.3277 65.5163 69.0661 67.3666C72.578 69.0658 76.5052 68.9148 76.9583 68.9148Z" fill="url(#paint34_linear_2_130)"/>
<path opacity="0.5" d="M63.2129 66.4978L66.838 66.0447C66.838 66.0447 68.2729 66.9887 71.1806 68.1971L68.7638 71.7467C68.7638 71.7467 69.7079 76.8067 72.4645 79.6766C72.4645 79.6766 65.1765 75.6361 64.1569 72.1998L63.2129 66.4978Z" fill="url(#paint35_linear_2_130)"/>
<path opacity="0.5" d="M42.1426 55.698L43.1621 58.4169C43.1621 58.4169 44.2195 62.0797 46.2963 62.2308C48.3732 62.3818 50.4123 56.0756 50.4123 56.0756V51.9219C50.4123 51.9219 48.1844 56.6798 45.8054 57.2085C43.4265 57.7371 42.1426 55.698 42.1426 55.698Z" fill="url(#paint36_linear_2_130)"/>
<path opacity="0.5" d="M54.6416 53.5457C54.6416 53.5457 56.4919 57.2463 58.7954 58.4169C58.7954 58.4169 56.0765 51.8086 56.643 47.9192C56.643 47.9192 55.6234 48.5234 54.6416 53.5457Z" fill="url(#paint37_linear_2_130)"/>
<path opacity="0.76" d="M99.8414 59.0588L100.483 61.1357L101.125 78.1284C101.125 78.1284 99.4638 74.8809 98.3309 70.274L98.9351 69.3677C98.9351 69.33 99.9547 62.9483 99.8414 59.0588Z" fill="url(#paint38_linear_2_130)"/>
<path opacity="0.5" d="M119.629 64.0432C119.629 64.0432 119.251 72.3885 122.801 73.106L122.99 74.0122C122.99 74.0122 118.383 73.8612 119.629 64.0432Z" fill="url(#paint39_linear_2_130)"/>
<path opacity="0.3" d="M113.701 66.5731C113.701 66.5731 113.55 66.8752 112.266 65.9312C112.266 65.9312 107.81 69.1031 106.073 73.559C106.073 73.559 108.829 69.443 110.302 69.0276C111.775 68.5745 112.115 70.236 112.115 70.236C112.115 70.236 112.719 67.9325 113.701 66.5731Z" fill="url(#paint40_linear_2_130)"/>
<path opacity="0.5" d="M41.6894 60.0408C41.6894 60.0408 43.4264 63.2127 46.6361 62.2309C46.6361 62.2309 44.7103 63.5148 42.7844 62.4575C42.7467 62.4575 41.5761 60.4184 41.6894 60.0408Z" fill="url(#paint41_linear_2_130)"/>
<path opacity="0.5" d="M52.9418 56.0381C52.9418 56.0381 55.3208 64.8743 49.1279 71.5203C49.1279 71.5203 53.1306 69.4812 54.0369 64.7232C54.9432 59.9275 52.9418 56.0381 52.9418 56.0381Z" fill="url(#paint42_linear_2_130)"/>
<path opacity="0.5" d="M95.2725 48.9766C95.2725 48.9766 95.0082 52.9793 93.0824 55.8114C91.1565 58.6813 87.3804 60.6071 87.3804 60.6071C87.3804 60.6071 92.1383 58.8701 94.3285 56.3778C96.5187 53.9233 95.2725 48.9766 95.2725 48.9766Z" fill="url(#paint43_linear_2_130)"/>
<path opacity="0.5" d="M70.9546 42.9724C70.9546 42.9724 70.9546 46.2954 72.0119 49.694C73.0693 53.0925 82.3964 59.0211 82.3964 59.0211C82.3964 59.0211 72.8049 55.0183 70.9169 51.431C69.0288 47.8436 70.9546 42.9724 70.9546 42.9724Z" fill="url(#paint44_linear_2_130)"/>
<path d="M70.8413 58.8698V64.3075C70.8413 64.3075 83.3404 64.1942 97.3499 65.1382L97.652 60.267C97.6897 60.2292 85.4928 58.7943 70.8413 58.8698Z" fill="url(#paint45_linear_2_130)"/>
<path d="M73.1448 60.0787C73.1448 60.0031 73.1826 59.9276 73.2958 59.9276L75.8259 60.0031C76.0902 60.0031 76.279 60.0409 76.4678 60.1164C76.6566 60.1919 76.7699 60.2675 76.8832 60.3807C76.9965 60.494 77.072 60.6451 77.1098 60.7961C77.1475 60.9472 77.1853 61.136 77.1853 61.3626L77.1475 62.0423C77.1475 62.2311 77.1098 62.4199 77.072 62.6087C77.0342 62.7597 76.9209 62.9108 76.8077 63.0241C76.6944 63.1373 76.5433 63.2129 76.3545 63.2884C76.1657 63.3639 75.9769 63.3639 75.7126 63.3639L74.3532 63.3261L74.0888 62.5332H74.0511L74.0133 63.3261L73.0693 63.2884L73.1448 60.0787ZM74.0511 62.4954L75.6748 62.5332C75.8636 62.5332 75.9769 62.4954 76.0524 62.4199C76.128 62.3444 76.1657 62.1933 76.1657 62.0045V61.4381C76.1657 61.2115 76.128 61.0982 76.0524 61.0227C75.9769 60.9472 75.8636 60.9094 75.6748 60.9094L74.1266 60.8716C74.0888 60.8716 74.0888 60.8717 74.0888 60.9094L74.0511 60.9472V62.4954Z" fill="#EBEFFF"/>
<path d="M78.5448 61.5514L78.4693 62.571C78.4693 62.6088 78.5071 62.6465 78.5448 62.6465L81.377 62.722L81.3392 63.5906L77.6008 63.4773C77.5253 63.4773 77.4498 63.4395 77.4875 63.3262L77.563 60.2298C77.563 60.1543 77.6008 60.0787 77.7141 60.0787L81.3392 60.192C81.4147 60.192 81.4902 60.2298 81.4902 60.3431L81.4525 61.2116L80.5462 61.5137H80.5084V61.0605C80.5084 61.0228 80.5084 61.0228 80.4707 61.0228L78.5448 60.9472C78.5071 60.9472 78.5071 60.9472 78.5071 60.985V61.0228V61.4381L80.0931 61.4759L80.0553 62.1556L78.7337 62.1179L78.5448 61.5514Z" fill="#EBEFFF"/>
<path d="M84.851 61.4761L84.8132 61.0985C84.8132 61.0607 84.8132 61.0607 84.7755 61.0229L83.0007 60.9852C82.9252 60.9852 82.8874 60.9852 82.8496 61.0229C82.8119 61.0607 82.8119 61.0984 82.8119 61.1362V61.2117C82.8119 61.2873 82.8119 61.325 82.8496 61.325C82.8874 61.3628 82.9252 61.3628 82.9629 61.3628L85.0398 61.7026C85.1909 61.7404 85.2664 61.7404 85.3797 61.8159C85.4552 61.8537 85.5307 61.9292 85.6062 61.967C85.6818 62.0425 85.7195 62.118 85.7195 62.1935C85.7573 62.2691 85.7573 62.3823 85.7573 62.5334V62.7977C85.7573 62.9488 85.7195 63.0621 85.6818 63.1753C85.644 63.2886 85.5685 63.3641 85.4929 63.4397C85.4174 63.5152 85.3041 63.5529 85.1909 63.5907C85.0776 63.6285 84.8888 63.6285 84.7377 63.6285L81.7168 63.553L81.7546 62.6844L84.4356 62.76C84.5112 62.76 84.5867 62.76 84.5867 62.7222C84.6244 62.6844 84.6244 62.6467 84.6244 62.5711V62.4956C84.6244 62.4201 84.6244 62.3823 84.5867 62.3823C84.5489 62.3446 84.5111 62.3446 84.4734 62.3446L82.472 62.0425C82.321 62.0047 82.2077 62.0047 82.1322 61.967C82.0189 61.9292 81.9434 61.8914 81.9056 61.8159C81.8301 61.7404 81.7923 61.6649 81.7923 61.5894C81.7546 61.5138 81.7546 61.4005 81.7546 61.2495V61.0229C81.7546 60.7964 81.8301 60.6076 81.9811 60.4565C82.1322 60.3432 82.321 60.2677 82.6231 60.2677L85.6062 60.3432C85.7195 60.3432 85.7573 60.381 85.7573 60.4943L85.7195 61.174L84.851 61.4761Z" fill="#EBEFFF"/>
<path d="M86.1352 63.7418L86.2485 60.381L87.1925 60.4187L87.0792 63.7795L86.1352 63.7418Z" fill="#EBEFFF"/>
<path d="M90.6281 62.42C90.6281 62.3823 90.6281 62.3067 90.6281 62.269C90.6281 62.2312 90.6281 62.1557 90.6281 62.1179V62.0802L91.5722 62.1179L91.5344 63.7794C91.5344 63.855 91.4966 63.8927 91.4211 63.8927L88.8911 63.8172C88.6268 63.8172 88.438 63.7794 88.2491 63.7039C88.0603 63.6284 87.9471 63.5529 87.8338 63.4396C87.7205 63.3263 87.645 63.1752 87.6072 63.0242C87.5694 62.8732 87.5317 62.6843 87.5317 62.4578L87.5694 61.7781C87.5694 61.5893 87.6072 61.4005 87.645 61.2117C87.6827 61.0606 87.796 60.9096 87.9093 60.7963C88.0226 60.683 88.1736 60.6075 88.3624 60.5319C88.5512 60.4564 88.74 60.4564 89.0044 60.4564L91.5344 60.5319C91.6099 60.5319 91.6854 60.5697 91.6477 60.683L91.6099 61.4005L90.7036 61.7025H90.6659V61.3627C90.6659 61.3249 90.6659 61.3249 90.6281 61.3249L89.0044 61.2872C88.9289 61.2872 88.8156 61.2872 88.7778 61.2872C88.7023 61.2872 88.6645 61.3249 88.6268 61.3627C88.589 61.4005 88.5512 61.476 88.5512 61.5137C88.5135 61.5893 88.5135 61.6648 88.5135 61.7781V62.3823C88.5135 62.5711 88.5512 62.7221 88.6268 62.7976C88.7023 62.8732 88.8156 62.9109 89.0044 62.9487L90.5904 62.9864C90.6281 62.9864 90.6281 62.9864 90.6281 62.9487V62.42Z" fill="#EBEFFF"/>
<path d="M93.574 60.5695C93.6496 60.5695 93.6873 60.5695 93.7251 60.6073C93.7629 60.6451 93.7629 60.6828 93.8006 60.7206L95.009 63.1751C95.0467 63.2128 95.0467 63.2506 95.0845 63.2506H95.1223C95.16 63.2506 95.1978 63.2128 95.1978 63.1751L95.2733 60.6451L96.1418 60.6828L96.0285 63.9303C96.0285 64.0058 95.9908 64.0814 95.8775 64.0436L94.5181 64.0058C94.4426 64.0058 94.4048 64.0058 94.367 63.9681C94.3293 63.9303 94.2915 63.9303 94.2915 63.8548L93.0454 61.4003C93.0454 61.3625 93.0076 61.3248 92.9699 61.3248H92.9321C92.8943 61.3248 92.8566 61.3625 92.8566 61.4003L92.7811 63.9303L91.9125 63.8926L92.0258 60.6451C92.0258 60.5695 92.0636 60.494 92.1769 60.494L93.574 60.5695Z" fill="#EBEFFF"/>
<path opacity="0.5" d="M90.6281 43.69C90.326 47.2019 89.2687 49.6564 88.1358 51.3179C86.5499 53.5836 84.8506 54.3766 84.8506 54.3766C83.1513 53.6213 81.6786 52.715 80.3947 51.6955C74.9948 47.3907 73.2578 41.4244 73.1445 40.9335C75.4102 46.4089 78.771 49.7319 81.301 51.62C83.3401 53.1304 84.8506 53.6968 84.8506 53.6968V51.9598C84.4352 51.8088 84.0576 51.62 83.68 51.4312C79.2241 49.2032 76.8829 44.5208 75.7878 41.4621C75.7878 41.4621 75.7878 41.4621 75.7878 41.4244C75.1837 39.8006 74.9571 38.63 74.9571 38.63H75.7501L75.4857 39.1964C75.599 39.7629 75.7501 40.3293 75.9389 40.8579V40.8957C78.4311 48.7501 84.8506 51.2801 84.8506 51.2801C89.3065 47.9949 89.2309 42.7838 89.2309 42.7838V42.0663L90.0617 42.3306L90.6281 43.69Z" fill="url(#paint46_linear_2_130)"/>
<path opacity="0.3" d="M117.061 62.7598C117.061 62.7598 115.853 66.7247 116.986 72.8799C116.986 72.8799 117.552 65.0632 118.005 64.3835C118.421 63.7038 119.629 64.0437 119.629 64.0437C119.629 64.0437 117.741 63.0241 117.061 62.7598Z" fill="url(#paint47_linear_2_130)"/>
<path opacity="0.5" d="M105.317 84.2836C104.259 83.3773 102.976 81.8291 101.729 79.2991C99.1994 74.239 98.4819 70.8783 98.3687 70.2741L98.9728 69.3678L99.7658 61.5889L100.521 61.1358C100.521 61.1358 103.202 58.1526 105.241 53.6968C105.279 53.7723 105.317 53.8856 105.355 54.0366C105.77 55.6604 106.601 61.7022 107.394 63.8546C107.885 65.214 108.678 65.9315 109.244 66.3469C109.244 66.3469 104.599 73.2572 104.373 78.1662C104.146 82.6221 105.128 84.057 105.317 84.2836Z" fill="url(#paint48_linear_2_130)"/>
<path opacity="0.5" d="M77.7138 98.6707C77.7138 98.6707 69.3308 97.3113 65.8945 95.0834C65.9322 94.8946 65.9322 94.7058 65.9322 94.517C65.8567 92.6289 64.233 90.9674 64.0064 89.8723C64.0442 89.9856 64.3085 90.552 65.4791 91.5716C66.2343 92.2135 67.3672 93.0443 69.0664 94.0638C69.1042 94.1016 69.142 94.1016 69.2175 94.1394C71.6342 95.5743 73.7111 96.5183 75.2216 97.2358H75.2593C76.581 97.8778 77.4873 98.2931 77.7138 98.6707Z" fill="url(#paint49_linear_2_130)"/>
<path opacity="0.5" d="M95.65 91.9871C95.6123 92.3269 94.857 93.0444 94.6682 93.7996C94.6682 93.7996 91.6095 97.0471 80.2056 96.0653C80.2811 95.7254 82.6601 96.2163 88.211 95.0835C93.5731 94.0262 95.499 92.1003 95.65 91.9871Z" fill="url(#paint50_linear_2_130)"/>
<path opacity="0.5" d="M97.5383 47.957L90.2503 50.2982L88.1357 51.28H86.7385H84.8504L83.6798 51.3933L83.0756 51.4311L81.3008 51.5821L80.3945 51.6576L71.6716 48.4857L70.1234 47.9192L62.9487 45.3137C63.1753 45.2382 63.3641 45.1627 63.5907 45.0494C68.4241 43.1235 73.1443 40.8201 73.1443 40.8201L74.9569 38.5922H75.7499C76.4674 37.0062 76.9583 35.5335 77.2603 34.3629L77.7512 32.2105C77.789 31.9839 77.789 31.8706 77.789 31.8706L80.3568 33.23L89.0042 40.1404C89.0042 40.6313 89.0042 41.0466 89.0419 41.3865L89.1552 42.255C89.193 42.0662 89.193 41.9907 89.193 41.9907L90.0237 42.255L90.5901 43.6144C90.5901 43.6144 91.572 45.1249 95.3859 46.7864C96.0656 47.164 96.783 47.5416 97.5383 47.957Z" fill="#7A4AC0"/>
<path d="M91.9878 41.3109C91.9878 41.3109 88.5893 42.0661 84.8509 40.2536C81.1125 38.441 77.9783 33.1166 77.7517 31.7572C77.5629 30.4356 79.1867 26.9237 79.1867 24.2049C79.1867 21.4861 77.865 16.8037 80.0929 14.2736C82.3209 11.7436 92.6298 11.366 95.9905 14.6135C95.9905 14.6135 97.0101 17.219 97.0101 18.6917C97.0101 19.0316 96.9346 19.5603 96.8591 20.1644C96.8213 20.391 96.7835 20.6176 96.7458 20.8819C96.4437 22.6567 96.0283 24.8469 96.2171 25.7909C96.2926 26.1308 96.4059 26.4328 96.5192 26.7349C96.9346 27.679 97.5388 28.4342 97.652 29.265C97.8031 30.36 96.3682 37.9879 91.9878 41.3109Z" fill="url(#paint51_linear_2_130)"/>
<path d="M79.1866 23.4876C79.1866 23.4876 78.2426 21.1841 75.9391 21.1464C75.9391 21.1464 74.5797 21.675 74.3531 22.7323C74.3531 22.7323 74.8441 26.4707 75.4105 28.2455C75.9769 29.9826 78.0915 29.756 78.0915 29.756C78.0915 29.756 79.9041 26.9239 79.1866 23.4876Z" fill="url(#paint52_linear_2_130)"/>
<path d="M88.0982 31.1155C88.0982 31.1155 88.8912 31.04 89.1933 31.3043C89.5331 31.5686 90.7415 32.7392 92.2897 33.0413C93.838 33.3812 94.8575 32.0595 95.1974 31.984C95.5372 31.9085 95.8771 32.3616 95.8771 32.3616C95.8771 32.3616 95.726 31.833 94.933 31.5686C94.933 31.5686 94.5932 32.8148 92.3653 32.3616C90.1373 31.9462 89.1933 30.9644 89.1933 30.9644L89.08 30.7756C89.1178 30.8134 88.4758 30.9644 88.0982 31.1155Z" fill="url(#paint53_linear_2_130)"/>
<path opacity="0.6" d="M84.8134 19.5604L84.8511 19.3338C84.8511 19.3338 87.0791 15.4444 91.4594 15.3311C95.8775 15.2178 96.8593 17.9744 96.8593 17.9744L97.69 16.7283L95.8397 12.9522L82.9253 12.7256L79.7911 15.2556L79.338 21.524L80.7351 29.7183L84.1337 31.5308L85.0777 30.6623C84.7378 27.9057 82.661 25.4135 82.661 25.4135L84.1337 24.3939C84.1337 24.3939 87.9476 26.2442 90.1755 25.6778C90.1755 25.6778 91.837 20.8065 91.7615 17.2192C91.837 17.2192 86.135 18.05 84.8134 19.5604Z" fill="url(#paint54_linear_2_130)"/>
<path d="M84.624 19.8625C84.624 19.8625 84.8506 18.4653 87.2296 17.8989C89.8729 17.2569 92.0253 16.7283 92.0253 16.7283C92.0253 16.7283 91.5721 18.2765 90.6659 18.8429C90.6659 18.8429 87.8715 18.7296 86.4366 19.0695C85.0394 19.4093 84.624 19.8625 84.624 19.8625Z" fill="#38368E"/>
<path d="M96.859 17.9742C96.859 17.9742 95.4996 18.9938 94.5933 21.4861C94.5933 21.4861 95.4618 20.3532 96.2926 20.3532C96.859 20.3532 96.7457 20.9196 96.7457 20.9196C96.7457 20.9196 97.3122 19.4469 96.859 17.9742Z" fill="#38368E"/>
<path d="M85.5308 23.8275C85.5308 23.8275 85.6819 20.8443 88.5895 20.0891C88.5895 20.0891 89.6091 21.4485 89.7224 22.959C89.6846 22.9967 88.1741 22.6947 85.5308 23.8275Z" fill="url(#paint55_linear_2_130)"/>
<path d="M93.7999 25.0361C93.7999 25.0361 94.0264 22.6571 95.3859 21.7886C95.3859 21.7886 96.3299 22.4683 96.2166 24.4696C96.2166 24.4696 95.4236 24.1676 93.7999 25.0361Z" fill="url(#paint56_linear_2_130)"/>
<path d="M85.5308 23.8274C85.5308 23.8274 86.4749 24.998 89.1182 25.2246C89.1182 25.2246 89.6091 24.4693 89.5713 22.9589C89.5335 22.9589 87.1168 22.7323 85.5308 23.8274Z" fill="#FFEBED"/>
<path d="M93.7999 25.036V25.3758C93.7999 25.3758 94.2152 26.2066 95.6502 26.3576C95.6502 26.3576 96.1033 25.6402 96.1411 24.4318C96.1788 24.4318 95.2726 24.2052 93.7999 25.036Z" fill="#FFEBED"/>
<path d="M88.3245 22.8835C88.3245 22.8835 87.6448 23.7143 87.7203 24.9604C87.7203 24.9604 88.5888 25.1492 89.0797 25.187C89.0797 25.187 89.6462 24.394 89.5329 22.9213C89.5329 22.959 88.7777 22.808 88.3245 22.8835Z" fill="#7F9EC9"/>
<path d="M95.1973 24.4694C95.1973 24.4694 94.8197 24.8848 94.7442 26.1309C94.7442 26.1309 95.2729 26.3575 95.6882 26.3575C95.6882 26.3575 96.2169 25.6023 96.1791 24.4317C96.1791 24.4317 95.8015 24.3184 95.1973 24.4694Z" fill="#7F9EC9"/>
<path d="M88.098 25.0736C88.098 25.0736 87.8714 23.4876 88.7777 22.8457L89.5329 22.959C89.5329 22.959 89.7973 24.2429 89.0798 25.2247C89.0798 25.2247 88.3246 25.1492 88.098 25.0736Z" fill="#38368E"/>
<path d="M95.5374 24.3939C95.5374 24.3939 95.1976 25.1114 95.0465 26.2065C95.0465 26.2065 95.3108 26.3197 95.6885 26.3197C95.6885 26.3197 96.2171 25.6778 96.1794 24.3939C96.1794 24.4317 95.8017 24.3184 95.5374 24.3939Z" fill="#38368E"/>
<path d="M85.5308 23.8278C85.5308 23.8278 87.2679 22.8082 90.2888 23.3746L89.7224 22.9592C89.6846 22.997 87.5699 22.3173 85.5308 23.8278Z" fill="#131163"/>
<path d="M93.7999 25.0357C93.7999 25.0357 95.197 24.2805 96.8586 24.6959L96.1788 24.205C96.1788 24.1672 95.0838 24.0162 93.7999 25.0357Z" fill="#131163"/>
<path d="M87.419 23.8273C87.419 23.8273 87.9099 23.714 88.3253 24.1671C88.3253 24.1671 87.7211 24.3559 87.419 23.8273Z" fill="white"/>
<path d="M94.4424 25.2249C94.4424 25.2249 95.1977 25.0738 95.462 25.4137C95.462 25.4137 95.0466 25.678 94.4424 25.2249Z" fill="white"/>
<path d="M85.6817 24.0161C85.6817 24.0161 87.0411 25.3755 89.2313 25.6776L89.269 24.8846L89.0802 25.2245C89.0802 25.2245 87.0034 25.1112 85.6817 24.0161Z" fill="#C6659C"/>
<path d="M93.7999 25.376C93.7999 25.376 94.0264 26.2445 95.8012 26.6221L95.7257 26.2067L95.6124 26.3578C95.6879 26.3578 94.404 26.2067 93.7999 25.376Z" fill="#C6659C"/>
<path d="M90.251 28.8496C90.251 28.8496 90.9307 28.6986 92.1391 28.8496C93.3475 29.0006 94.7069 29.3405 95.4621 28.8496C95.4621 28.8496 94.4803 29.8314 93.6118 29.9824C92.7433 30.1335 91.4594 29.3783 91.4594 29.3783H90.893C90.8552 29.416 90.4398 29.1895 90.251 28.8496Z" fill="#CB5F7D"/>
<path d="M90.9683 29.3785C90.9683 29.3785 91.2704 29.1896 91.5347 29.2274C91.799 29.2652 92.0256 29.6428 92.0256 29.6428C92.0256 29.6428 91.4592 29.3785 90.9683 29.3785Z" fill="#9F4A8B"/>
<path d="M95.4621 28.8499C95.7642 28.5478 94.1404 25.6024 93.3474 25.4891C92.5544 25.3758 91.837 28.7743 91.837 28.7743C91.837 28.7743 92.9321 28.9254 93.9894 29.0764C95.0467 29.2275 95.4621 28.8499 95.4621 28.8499Z" fill="#FFBCAF"/>
<path opacity="0.6" d="M96.6329 19.6359C96.1798 19.5982 94.6316 21.4862 94.6316 21.4862C94.6316 21.4862 93.612 24.5827 93.8386 25.489C94.0274 26.3952 96.4819 26.8861 96.4819 26.8861L96.5952 26.7351C96.4819 26.433 96.3686 26.1309 96.2931 25.7911C96.1043 24.847 96.5196 22.6569 96.8217 20.8821C96.8217 20.8821 96.935 20.5045 96.935 20.1646C96.8973 19.9003 96.8595 19.6359 96.6329 19.6359Z" fill="url(#paint57_linear_2_130)"/>
<path d="M96.5573 32.2105C96.0664 31.1532 96.3685 30.6246 91.9881 30.0581C85.833 29.2651 85.2666 31.1155 84.247 30.8511C84.2093 30.8511 84.1715 30.8134 84.1337 30.8134C83.0009 30.3602 80.3198 27.7547 80.2443 24.2051C80.1688 20.5045 82.661 17.8989 82.661 17.8989C81.7548 17.1437 81.4149 14.9535 82.3589 14.0473C83.3407 13.1032 84.9645 13.3298 89.005 13.7452C93.0454 14.1605 93.0454 13.934 93.0454 13.934C94.3293 14.2738 95.0846 15.4822 95.2734 15.8598C95.3111 15.9353 95.3489 15.9731 95.3489 15.9731L95.8398 15.52C97.1992 17.4836 96.9349 19.636 96.9349 19.636C96.9349 19.636 99.1628 15.1423 98.8985 14.5004C98.4453 13.3298 97.1615 11.5928 97.0859 11.4795C97.0859 11.4795 96.7461 8.04317 95.651 8.04317C94.5937 8.04317 89.9868 9.06274 89.9868 9.06274C90.4777 7.89213 90.4021 6.53271 90.4021 6.53271C90.4021 6.53271 90.4021 6.53271 90.3644 6.57048C88.8539 7.89213 87.419 8.04318 85.3421 9.02497C84.2848 9.51587 83.7939 9.96901 83.4163 10.4222L83.2652 10.5732L83.1142 10.762C82.9631 10.9508 82.8121 11.1396 82.661 11.3284C82.661 11.3284 82.661 11.3284 82.6233 11.3662C82.4722 11.555 82.2457 11.7438 82.0191 11.9326C80.6597 13.0277 77.6765 13.7829 77.2989 14.9535C76.959 16.1241 77.752 17.7101 78.1674 19.3716C78.5828 21.0331 78.394 22.4681 78.394 22.4681C78.394 22.4681 79.8289 24.3184 79.338 26.9995C78.9226 29.4162 78.0164 29.7938 78.0164 29.7938C77.3744 31.1155 77.6765 32.3616 77.6765 32.3616C78.9982 37.6104 84.4736 40.7446 84.4736 40.7446C89.3448 42.5572 92.5546 41.7642 92.5546 41.7642C96.1041 39.4607 97.3125 31.8329 97.3503 31.4553C97.3503 31.4553 96.7083 32.4749 96.5573 32.2105ZM94.3671 37.0818C93.4986 36.9307 93.3098 34.7783 93.0454 34.4762C92.7434 34.1741 91.1951 34.3252 91.1951 34.3252C91.1951 34.3252 89.7602 35.9489 89.1938 35.9867C88.6274 36.0244 85.5687 34.7783 86.2106 32.928C86.8526 31.0777 89.1938 30.8134 89.1938 30.8134C89.1938 30.8134 90.4021 31.8329 92.1769 31.9462C93.9517 32.0595 94.5937 31.7196 94.8202 31.6441C95.0468 31.5308 96.1797 32.0595 96.1419 33.6832C96.1797 34.8161 95.2356 37.2328 94.3671 37.0818Z" fill="url(#paint58_linear_2_130)"/>
<path d="M94.1783 26.1687C94.1783 26.1687 95.7265 28.0945 95.5755 28.812C95.4244 29.605 93.6119 30.0204 93.6119 30.0204C93.6119 30.0204 95.0468 29.5295 95.3489 28.812C95.3489 28.7742 94.9713 27.3393 94.1783 26.1687Z" fill="#D2726C"/>
<path opacity="0.6" d="M96.9722 19.5983C96.9722 19.5983 97.2365 17.4459 95.8771 15.4823C96.9722 13.5187 97.1232 11.4418 97.1232 11.4418C97.5008 12.348 97.6896 14.1228 97.6896 14.1228L98.9358 14.4627C99.1623 15.0669 96.9722 19.5983 96.9722 19.5983Z" fill="url(#paint59_linear_2_130)"/>
<path opacity="0.6" d="M95.2727 15.822C95.0461 15.4444 94.3287 14.236 93.0448 13.8961C93.0448 13.8961 93.0448 14.1605 89.0043 13.7073C84.9638 13.2919 83.3023 13.0654 82.3583 14.0094C81.3765 14.9535 81.7541 17.1059 82.6603 17.8611C82.6603 17.8611 80.2059 20.4666 80.2436 24.1673C80.3191 27.7168 83.0002 30.3601 84.133 30.7755L84.0953 31.1531C84.0953 31.1531 84.2841 39.2719 86.2855 39.9138C88.2491 40.5558 92.3651 40.2159 92.7427 40.5935C93.1203 40.9711 92.7049 41.5753 92.6671 41.6508C92.6671 41.6508 89.4574 42.4438 84.5862 40.6313C84.5862 40.6313 79.1108 37.4971 77.7891 32.2482C77.7891 32.2482 77.487 31.0021 78.129 29.6804C78.129 29.6804 79.0352 29.3028 79.4506 26.8861C79.9415 24.205 78.5066 22.3547 78.5066 22.3547C78.5066 22.3547 78.6954 20.882 78.28 19.2583C77.8646 17.5968 77.0339 16.0108 77.4115 14.8402C79.715 15.2178 81.1876 14.0094 81.1876 14.0094C81.1876 14.0094 81.603 13.443 83.3778 13.1787C85.1526 12.8766 92.2518 13.594 92.2518 13.594C92.2518 13.594 91.5343 12.9899 90.0238 12.6122C88.5889 12.2346 83.7554 12.6878 83.2268 12.7255C83.7932 12.6122 89.2686 11.6682 89.9106 11.857C90.5903 12.0458 92.9692 13.1409 92.9692 13.1409C92.7427 12.0458 90.628 9.40251 90.628 9.40251C90.628 9.40251 87.6071 9.44027 85.6435 9.85565C83.8687 10.2333 82.9247 11.0263 82.7359 11.1773L83.189 10.6109L83.3401 10.4221L83.4911 10.271L84.1708 10.1577L87.6071 8.76057C88.7777 8.15638 90.2504 6.60816 90.4392 6.41935L90.477 6.38159C90.477 6.38159 90.5525 7.74101 90.0616 8.91161C92.9692 8.534 93.951 8.72281 93.951 8.72281C95.2349 10.7242 95.2727 15.822 95.2727 15.822Z" fill="url(#paint60_linear_2_130)"/>
<path opacity="0.5" d="M84.5489 40.6691C84.5489 40.6691 86.3237 40.2537 89.0425 40.367C91.7236 40.4803 93.2718 40.4803 92.6299 41.6886C92.5921 41.6886 89.2313 42.4439 84.5489 40.6691Z" fill="url(#paint61_linear_2_130)"/>
<path d="M93.9134 8.83611C93.9134 8.83611 95.5372 8.19416 96.2169 8.30745C96.2169 8.30745 95.9525 7.96759 95.6882 7.89207C95.4239 7.81655 90.024 9.02492 90.024 9.02492C90.024 9.02492 93.3848 8.6473 93.9134 8.83611Z" fill="url(#paint62_linear_2_130)"/>
<path d="M90.5905 9.4403C90.5905 9.4403 90.4772 11.2151 89.873 11.857L83.1892 12.7255L81.2256 12.3857C81.2256 12.3857 81.9809 12.0458 82.8116 11.1018C83.6801 10.12 88.0227 9.17597 90.5905 9.4403Z" fill="url(#paint63_linear_2_130)"/>
<path d="M97.0855 11.4419C97.0855 11.4419 97.6142 13.2167 97.6897 14.123L98.9358 14.4628C98.9358 14.4251 98.5582 13.1034 97.0855 11.4419Z" fill="url(#paint64_linear_2_130)"/>
<path opacity="0.8" d="M78.8845 26.6217C78.8845 26.6217 78.4313 24.356 77.2607 23.261C76.1279 22.1281 74.8062 22.5057 74.8062 22.5057C74.8062 22.5057 75.1461 26.6973 75.5237 27.7168C75.9013 28.7364 76.4677 29.0007 76.4677 29.0007C76.4677 29.0007 75.6747 28.2832 75.5614 26.9238C75.4482 25.5267 75.4104 23.6008 75.7125 23.3742C76.0146 23.1477 77.2607 24.054 77.2607 24.054C77.2607 24.054 76.8831 24.5449 76.6565 25.7532C76.43 26.9993 77.2985 27.8679 77.6006 27.8679C77.9404 27.8679 77.6006 26.4329 77.6383 26.0553C77.6761 25.6777 78.3936 25.6777 78.8845 26.6217Z" fill="url(#paint65_linear_2_130)"/>
<path opacity="0.8" d="M77.7516 23.8274C77.7516 23.8274 76.5054 24.6581 76.6187 26.3574C76.7698 28.0567 77.7138 27.9812 77.7138 27.6035C77.7138 27.2637 77.525 26.3197 77.6383 25.8288C77.7516 25.3001 78.5823 25.5267 78.5823 25.5267C78.5823 25.5267 78.0159 24.205 77.7516 23.8274Z" fill="url(#paint66_linear_2_130)"/>
<path d="M97.4255 31.3796C97.4255 31.3796 95.8772 38.5166 92.6297 41.6885C92.592 41.6885 96.2926 40.2158 97.4255 31.3796Z" fill="#34C7FF"/>
<path d="M95.6882 7.89197C95.6882 7.89197 96.5189 8.53391 96.67 10.7618C96.821 12.9898 95.877 15.4443 95.877 15.4443C95.877 15.4443 97.1231 13.594 97.2364 11.5548C97.3119 9.55347 96.3301 8.1563 95.6882 7.89197Z" fill="#34C7FF"/>
<path d="M85.6816 12.5745C85.6816 12.5745 87.5697 13.2165 89.6844 13.4053C91.7612 13.5941 92.2144 13.6318 92.2144 13.6318C92.2144 13.6318 91.3836 12.8011 89.5711 12.5745C87.7963 12.3102 85.6816 12.5745 85.6816 12.5745Z" fill="url(#paint67_linear_2_130)"/>
<path d="M94.8955 31.5306C94.8955 31.5306 95.8018 31.5306 96.1794 32.6635C96.4815 33.5697 96.557 34.3627 96.557 34.3627L96.8969 33.1166C96.8969 33.1166 96.4815 31.5306 96.0284 31.153C95.7263 30.8887 95.1598 30.6243 94.8955 30.6999V31.5306Z" fill="url(#paint68_linear_2_130)"/>
<path d="M92.4404 30.3978L92.5915 31.7572C92.5915 31.7572 93.6866 31.8328 94.4418 31.5307L94.5551 30.6999C94.5928 30.6999 93.1579 30.3601 92.4404 30.3978Z" fill="url(#paint69_linear_2_130)"/>
<path d="M97.5386 47.9568C97.5386 47.9568 104.034 52.7147 104.902 54.3385C105.733 55.9622 106.073 61.0978 107.243 63.3257C107.243 63.3257 106.45 59.7006 105.922 56.8685C105.355 54.0364 105.506 53.9986 105.204 53.2812C104.864 52.5637 99.9931 49.2029 97.5386 47.9568Z" fill="#34C7FF"/>
<path d="M96.3678 74.3899C96.3678 74.3899 93.2336 87.7952 93.3847 88.7015C93.5357 89.6078 95.5749 91.4581 95.6504 91.949C95.6504 91.949 94.1021 94.0259 94.1777 94.479C94.2532 94.9322 96.8965 97.8398 96.821 98.7461C96.7832 99.0104 95.084 101.843 95.084 101.843C95.084 101.843 97.0098 99.0482 97.1231 98.6328C97.2364 98.1796 94.7441 94.479 94.6686 94.1014C94.4798 93.1196 95.9147 92.4021 95.9525 91.7602C95.9902 91.1182 94.0266 89.5323 94.0266 88.4749C93.9889 87.4554 96.3678 74.3899 96.3678 74.3899Z" fill="#34C7FF"/>
<path d="M97.0098 106.412C97.0098 106.412 103.807 121.743 106.11 137.112C106.073 137.074 105.695 122.12 97.0098 106.412Z" fill="#34C7FF"/>
<path d="M54.0375 44.8605C54.0375 44.8605 52.3004 44.4829 51.5452 42.9724C50.8277 41.4242 51.2809 39.234 51.2809 39.234C51.2809 39.234 52.6403 41.8773 53.32 42.7836C54.0375 43.6521 54.2263 44.6717 54.0375 44.8605Z" fill="#FFBCAF"/>
<path opacity="0.6" d="M108.149 36.8928L109.358 71.5579C109.396 72.9173 110.528 74.0124 111.926 74.0124H171.626C173.024 74.0124 174.157 72.9173 174.194 71.5201L175.025 36.4397C175.063 35.0047 173.892 33.7964 172.457 33.8341L110.679 34.2495C109.244 34.2495 108.074 35.4201 108.149 36.8928Z" fill="#36D1F7"/>
<path d="M171.627 74.0879H111.888C110.453 74.0879 109.282 72.9551 109.245 71.5201L108.036 36.8551C107.998 36.1376 108.263 35.4579 108.754 34.9292C109.245 34.4006 109.924 34.1362 110.642 34.0985L172.42 33.6831C173.137 33.6831 173.817 33.9474 174.308 34.4761C174.799 35.0048 175.101 35.6845 175.063 36.4019L174.232 71.4824C174.232 72.9551 173.062 74.0879 171.627 74.0879ZM172.457 33.9097L110.68 34.3251C110 34.3251 109.396 34.5894 108.905 35.0803C108.452 35.5712 108.187 36.2131 108.225 36.8551L109.433 71.5201C109.471 72.8418 110.566 73.8991 111.888 73.8991H171.589C172.91 73.8991 174.006 72.804 174.043 71.4824L174.874 36.4019C174.874 35.7222 174.648 35.0803 174.157 34.6271C173.741 34.174 173.099 33.9097 172.457 33.9097Z" fill="#744CA2"/>
<path opacity="0.6" d="M108.224 38.6298H174.949L175.062 36.8173C175.175 35.1935 173.854 33.8341 172.23 33.8719L110.49 34.3628C109.206 34.3628 108.186 35.4201 108.186 36.704L108.224 38.6298Z" fill="url(#paint70_linear_2_130)"/>
<path opacity="0.3" d="M111.585 41.4242V61.5133H132.014V41.3486L111.585 41.4242Z" fill="url(#paint71_linear_2_130)"/>
<path opacity="0.3" d="M160.6 42.7837H151.726V51.6576H160.6V42.7837Z" fill="url(#paint72_linear_2_130)"/>
<path opacity="0.3" d="M171.098 42.7837H162.224V51.6576H171.098V42.7837Z" fill="url(#paint73_linear_2_130)"/>
<path opacity="0.3" d="M149.952 42.7837H141.078V51.6576H149.952V42.7837Z" fill="url(#paint74_linear_2_130)"/>
<path d="M171.098 56.8308H148.365V58.9455H171.098V56.8308Z" fill="#D1D4FB"/>
<path d="M171.098 60.0785H142.701V60.7204H171.098V60.0785Z" fill="#D1D4FB"/>
<path d="M148.403 52.7905H142.965V53.4325H148.403V52.7905Z" fill="#D1D4FB"/>
<path d="M158.901 52.7905H153.463V53.4325H158.901V52.7905Z" fill="#D1D4FB"/>
<path d="M169.36 52.7905H163.923V53.4325H169.36V52.7905Z" fill="#D1D4FB"/>
<path d="M150.216 61.1357H141.078V61.7777H150.216V61.1357Z" fill="#D1D4FB"/>
<path d="M171.098 62.1929H142.701V62.8348H171.098V62.1929Z" fill="#D1D4FB"/>
<path d="M171.098 63.2502H141.078V63.8922H171.098V63.2502Z" fill="#D1D4FB"/>
<path d="M171.098 64.3079H141.078V64.9498H171.098V64.3079Z" fill="#D1D4FB"/>
<path d="M171.098 68.6123H142.701V69.2542H171.098V68.6123Z" fill="#D1D4FB"/>
<path d="M171.098 69.6699H141.078V70.3119H171.098V69.6699Z" fill="#D1D4FB"/>
<path d="M171.098 70.7273H141.078V71.3692H171.098V70.7273Z" fill="#D1D4FB"/>
<path d="M169.89 65.365H141.078V66.0069H169.89V65.365Z" fill="#D1D4FB"/>
<path d="M171.098 66.4225H142.701V67.0644H171.098V66.4225Z" fill="#D1D4FB"/>
<path d="M165.396 67.4797H141.078V68.1217H165.396V67.4797Z" fill="#D1D4FB"/>
<path d="M117.287 57.4729C114.078 57.4729 111.472 54.8674 111.472 51.6577C111.472 48.448 114.078 45.8424 117.287 45.8424C120.497 45.8424 123.103 48.448 123.103 51.6577C123.103 54.8674 120.497 57.4729 117.287 57.4729ZM117.287 46.22C114.304 46.22 111.85 48.6745 111.85 51.6577C111.85 54.6408 114.304 57.0953 117.287 57.0953C120.27 57.0953 122.725 54.6408 122.725 51.6577C122.725 48.6745 120.308 46.22 117.287 46.22Z" fill="#E0FFFF"/>
<path d="M117.288 54.8295C119.039 54.8295 120.46 53.4094 120.46 51.6576C120.46 49.9057 119.039 48.4856 117.288 48.4856C115.536 48.4856 114.116 49.9057 114.116 51.6576C114.116 53.4094 115.536 54.8295 117.288 54.8295Z" fill="white"/>
<path d="M132.014 47.1262C128.805 47.1262 126.199 44.5206 126.199 41.3109C126.199 38.1011 128.805 35.4956 132.014 35.4956C135.224 35.4956 137.83 38.1011 137.83 41.3109C137.83 44.5206 135.186 47.1262 132.014 47.1262ZM132.014 35.911C129.031 35.911 126.577 38.3655 126.577 41.3486C126.577 44.3318 129.031 46.7863 132.014 46.7863C134.998 46.7863 137.452 44.3318 137.452 41.3486C137.414 38.3277 134.998 35.911 132.014 35.911Z" fill="#E0FFFF"/>
<path d="M132.015 44.3318C133.662 44.3318 134.998 42.9962 134.998 41.3486C134.998 39.7011 133.662 38.3655 132.015 38.3655C130.367 38.3655 129.032 39.7011 129.032 41.3486C129.032 42.9962 130.367 44.3318 132.015 44.3318Z" fill="white"/>
<path d="M110.565 35.911L110.981 35.269L113.284 37.2704L112.944 37.7613L110.565 35.911Z" fill="white"/>
<path d="M113.322 35.911L112.907 35.269L110.603 37.2704L110.981 37.7613L113.322 35.911Z" fill="white"/>
<path d="M173.287 35.7222H152.745V36.7417H173.287V35.7222Z" fill="white"/>
<path d="M44.5967 20.8443V29.756L55.2454 29.8316L55.3965 20.5422L44.5967 20.8443Z" fill="url(#paint75_linear_2_130)"/>
<path d="M55.3966 20.5422L56.0764 21.7128L55.7365 29.8316H55.2456L55.3966 20.5422Z" fill="url(#paint76_linear_2_130)"/>
<path d="M46.4849 23.8275L47.4667 22.3926L52.791 26.8862L51.998 27.9813L46.4849 23.8275Z" fill="white"/>
<path d="M52.942 23.8276L51.9602 22.3927L46.6358 26.8863L47.4288 27.9814L52.942 23.8276Z" fill="white"/>
<path opacity="0.81" d="M69.4811 125.821H32.9658C31.342 125.821 30.0204 124.537 29.9826 122.914L29.3029 92.9688C29.2651 91.3073 30.6245 89.9102 32.2861 89.9102H70.3119C72.0112 89.9102 73.3328 91.3073 73.2951 92.9688L72.4643 122.914C72.4265 124.537 71.1049 125.821 69.4811 125.821Z" fill="url(#paint77_linear_2_130)"/>
<path d="M69.4809 125.934H32.9655C31.304 125.934 29.9068 124.575 29.8691 122.913L29.1894 92.9686C29.1516 92.1378 29.4915 91.3449 30.0579 90.7407C30.6243 90.1365 31.4173 89.7966 32.2481 89.7966H70.2739C71.1046 89.7966 71.8976 90.1365 72.5018 90.7407C73.106 91.3449 73.4081 92.1378 73.3703 92.9686L72.5396 122.913C72.5018 124.613 71.1424 125.934 69.4809 125.934ZM32.2858 89.9854C31.4928 89.9854 30.7754 90.2875 30.2089 90.854C29.6425 91.4204 29.3782 92.1756 29.3782 92.9308L30.0579 122.876C30.0956 124.424 31.3795 125.708 32.9655 125.708H69.4809C71.0669 125.708 72.3508 124.462 72.3885 122.876L73.2193 92.9308C73.257 92.1378 72.955 91.3826 72.3885 90.8162C71.8221 90.2498 71.1046 89.9477 70.3116 89.9477H32.2858V89.9854Z" fill="#473DA2"/>
<path d="M58.3034 96.0276H39.1206V96.8583H58.3034V96.0276Z" fill="white"/>
<path d="M48.712 98.0291H39.1205V98.8598H48.712V98.0291Z" fill="white"/>
<path d="M48.712 99.6902H39.1205V100.521H48.712V99.6902Z" fill="white"/>
<path d="M57.4345 99.6902H49.8066V100.521H57.4345V99.6902Z" fill="white"/>
<path d="M54.6028 101.352H39.1205V102.183H54.6028V101.352Z" fill="white"/>
<path d="M44.6337 103.051H39.1205V103.882H44.6337V103.051Z" fill="white"/>
<path d="M55.283 108.036H45.7671V108.866H55.283V108.036Z" fill="white"/>
<path d="M56.3776 104.713H39.1206V105.544H56.3776V104.713Z" fill="white"/>
<path d="M52.4126 106.374H39.1205V107.205H52.4126V106.374Z" fill="white"/>
<path d="M45.3512 108.036H39.1205V108.866H45.3512V108.036Z" fill="white"/>
<path d="M48.712 109.697H39.1206V110.528H48.712V109.697Z" fill="white"/>
<path d="M41.8771 111.396H39.1205V112.227H41.8771V111.396Z" fill="white"/>
<path d="M53.0167 111.396H43.0099V112.227H53.0167V111.396Z" fill="white"/>
<path d="M55.283 113.02H45.7671V113.851H55.283V113.02Z" fill="white"/>
<path d="M45.3512 113.02H39.1205V113.851H45.3512V113.02Z" fill="white"/>
<path d="M48.712 114.682H39.1205V115.513H48.712V114.682Z" fill="white"/>
<path d="M41.8771 116.343H39.1205V117.174H41.8771V116.343Z" fill="white"/>
<path d="M53.0167 116.343H43.0099V117.174H53.0167V116.343Z" fill="white"/>
<path d="M165.773 28.85C166.712 28.85 167.473 28.0892 167.473 27.1507C167.473 26.2122 166.712 25.4514 165.773 25.4514C164.835 25.4514 164.074 26.2122 164.074 27.1507C164.074 28.0892 164.835 28.85 165.773 28.85Z" fill="url(#paint78_linear_2_130)"/>
<path d="M7.17519 68.386C8.34308 68.386 9.28984 67.4393 9.28984 66.2714C9.28984 65.1035 8.34308 64.1567 7.17519 64.1567C6.00731 64.1567 5.06055 65.1035 5.06055 66.2714C5.06055 67.4393 6.00731 68.386 7.17519 68.386Z" fill="url(#paint79_linear_2_130)"/>
<path d="M170.72 28.85C171.659 28.85 172.42 28.0892 172.42 27.1507C172.42 26.2122 171.659 25.4514 170.72 25.4514C169.782 25.4514 169.021 26.2122 169.021 27.1507C169.021 28.0892 169.782 28.85 170.72 28.85Z" fill="url(#paint80_linear_2_130)"/>
<path d="M61.8915 39.9516C62.5588 39.9516 63.0998 39.4106 63.0998 38.7433C63.0998 38.0759 62.5588 37.5349 61.8915 37.5349C61.2241 37.5349 60.6831 38.0759 60.6831 38.7433C60.6831 39.4106 61.2241 39.9516 61.8915 39.9516Z" fill="url(#paint81_linear_2_130)"/>
<path d="M141.832 92.5912C142.5 92.5912 143.041 92.0502 143.041 91.3828C143.041 90.7154 142.5 90.1744 141.832 90.1744C141.165 90.1744 140.624 90.7154 140.624 91.3828C140.624 92.0502 141.165 92.5912 141.832 92.5912Z" fill="url(#paint82_linear_2_130)"/>
<path d="M17.7482 104.335C18.3322 104.335 18.8056 103.862 18.8056 103.278C18.8056 102.694 18.3322 102.22 17.7482 102.22C17.1643 102.22 16.6909 102.694 16.6909 103.278C16.6909 103.862 17.1643 104.335 17.7482 104.335Z" fill="url(#paint83_linear_2_130)"/>
<path opacity="0.73" d="M35.9491 92.8176H17.5215C16.0488 92.8176 14.8404 91.647 14.7649 90.1743L14.3495 78.0528C14.3118 76.5046 15.5579 75.2207 17.1061 75.2207H36.3267C37.8749 75.2207 39.1211 76.5046 39.0833 78.0528L38.7057 90.1743C38.6679 91.647 37.4218 92.8176 35.9491 92.8176Z" fill="url(#paint84_linear_2_130)"/>
<path d="M35.9493 92.9306H17.5217C15.9734 92.9306 14.7273 91.7222 14.6895 90.174L14.2742 78.0526C14.2364 77.2596 14.5385 76.5421 15.0672 75.9757C15.5958 75.4093 16.351 75.1072 17.1063 75.1072H36.3269C37.1199 75.1072 37.8373 75.4093 38.366 75.9757C38.8947 76.5421 39.1968 77.2596 39.159 78.0526L38.7814 90.174C38.7436 91.7222 37.4975 92.9306 35.9493 92.9306ZM17.1063 75.296C16.3888 75.296 15.7091 75.5981 15.1804 76.089C14.6895 76.6176 14.4252 77.2973 14.4252 78.0148L14.8406 90.1363C14.8783 91.5712 16.049 92.704 17.4839 92.704H35.9115C37.3464 92.704 38.517 91.5712 38.5548 90.1363L38.9324 78.0148C38.9702 77.2973 38.7059 76.6176 38.1772 76.089C37.6863 75.5603 37.0066 75.296 36.2891 75.296H17.1063Z" fill="#953DA2"/>
<path d="M22.4302 79.5632L17.8988 84.8121L22.5057 88.7393V86.7379L19.8246 84.3967L22.3169 81.6024L22.4302 79.5632Z" fill="white"/>
<path d="M30.4363 79.79L34.9677 85.0767L30.323 89.0038V86.9647L33.0041 84.6235L30.0209 81.4893L30.4363 79.79Z" fill="white"/>
<path d="M23.4126 88.7393L27.3776 80.0164H29.2279L24.772 88.7393H23.4126Z" fill="white"/>
<path opacity="0.73" d="M159.92 117.778H136.885C135.035 117.778 133.525 116.305 133.449 114.455L132.92 99.275C132.845 97.3492 134.431 95.7255 136.357 95.7255H160.373C162.299 95.7255 163.885 97.3492 163.809 99.275L163.356 114.455C163.319 116.268 161.77 117.778 159.92 117.778Z" fill="url(#paint85_linear_2_130)"/>
<path d="M159.92 117.854H136.885C134.959 117.854 133.411 116.343 133.336 114.455L132.807 99.275C132.769 98.2932 133.109 97.387 133.789 96.7073C134.468 96.0276 135.375 95.6122 136.319 95.6122H160.335C161.317 95.6122 162.185 95.9898 162.865 96.6695C163.545 97.3492 163.885 98.2932 163.847 99.2373L163.394 114.417C163.394 116.343 161.846 117.854 159.92 117.854ZM136.356 95.801C135.45 95.801 134.582 96.1786 133.94 96.8205C133.298 97.4625 132.958 98.331 132.996 99.275L133.524 114.455C133.6 116.268 135.073 117.703 136.885 117.703H159.92C161.732 117.703 163.205 116.268 163.28 114.455L163.734 99.275C163.771 98.3688 163.431 97.5003 162.79 96.8583C162.148 96.2164 161.317 95.8388 160.373 95.8388H136.356V95.801Z" fill="#953DA2"/>
<path d="M158.636 98.1422H137.527V110.679H158.636V98.1422Z" fill="#D1D4FB"/>
<path d="M146.25 101.277V107.583L151.612 104.147L146.25 101.277Z" fill="white"/>
<path d="M158.636 113.02H137.527V114.153H158.636V113.02Z" fill="#D1D4FB"/>
<path d="M143.003 113.02H137.527V114.153H143.003V113.02Z" fill="white"/>
<path fill-rule="evenodd" clip-rule="evenodd" d="M122.083 94.2153L120.988 97.3495C121.593 95.6124 122.461 94.4796 122.083 94.2153ZM120.988 97.3495L119.893 100.484C120.158 100.408 120.384 99.0865 120.988 97.3495ZM122.083 94.2153L120.988 97.3495C121.593 95.6124 122.461 94.4796 122.083 94.2153ZM120.988 97.3495L119.893 100.484C120.158 100.408 120.384 99.0865 120.988 97.3495ZM124.16 100.068L125.218 100.672L126.388 97.5005L125.142 97.3117C125.18 97.1984 125.18 97.0851 125.218 96.9719C125.293 96.4432 125.331 95.9145 125.331 95.3859L126.615 94.5551L126.011 91.7608L124.764 92.9314C124.576 92.5915 124.387 92.2517 124.123 92.0251C124.047 91.9496 123.972 91.8741 123.896 91.7985L124.651 90.0615L122.65 89.4196L122.159 91.1943C121.706 91.1943 121.253 91.3076 120.8 91.4964L120.573 89.8349L118.345 91.5342L118.874 93.0069C118.458 93.46 118.118 93.9887 117.779 94.5929L116.721 93.9887L115.551 97.1607L116.797 97.3495C116.684 98.0292 116.608 98.6711 116.646 99.2753L115.362 100.106L115.966 102.9L117.212 101.73C117.439 102.183 117.703 102.561 118.081 102.863L117.325 104.6L119.327 105.393L119.629 104.26L119.855 103.505C120.309 103.505 120.762 103.391 121.215 103.202L121.441 104.864L123.669 103.165L123.141 101.692C123.443 101.314 123.745 100.937 124.009 100.484C124.009 100.333 124.085 100.219 124.16 100.068ZM120.988 97.3495C120.384 99.0865 120.988 100.899 119.893 100.484C118.798 100.106 118.383 98.369 118.987 96.632C119.591 94.895 120.988 93.7999 122.083 94.1775C123.179 94.5929 121.593 95.6124 120.988 97.3495ZM122.083 94.2153L120.988 97.3495C121.593 95.6124 122.461 94.4796 122.083 94.2153ZM120.988 97.3495L119.893 100.484C120.158 100.408 120.384 99.0865 120.988 97.3495Z" fill="url(#paint86_linear_2_130)"/>
<path fill-rule="evenodd" clip-rule="evenodd" d="M125.218 100.672L126.389 97.5005L125.218 96.934L125.029 96.8585L125.142 95.1215L126.464 94.4795L126.049 91.7985L123.217 90.8544L123.745 92.1006L124.727 90.0615L122.726 89.4195L121.895 89.1552L119.894 88.3622L119.516 89.7216L117.779 88.8908L115.551 90.5901L116.231 92.4027L114.154 98.1802L113.134 101.919L115.098 102.145L114.456 103.618L116.457 104.411L119.289 105.355L118.836 104.449L118.534 103.882L119.592 104.222L121.404 104.826L123.632 103.127L122.273 101.503L124.01 100.446L125.218 100.672ZM118.987 96.632C119.592 94.8949 120.989 93.7998 122.084 94.1775L120.989 97.3117L119.894 100.446C118.761 100.106 118.345 98.369 118.987 96.632Z" fill="url(#paint87_linear_2_130)"/>
<path fill-rule="evenodd" clip-rule="evenodd" d="M122.386 99.7662L123.557 96.5942L122.311 96.4054C122.424 95.7257 122.499 95.0837 122.462 94.4795L123.746 93.6488L123.141 90.8544L121.895 92.025C121.669 91.5719 121.404 91.1943 121.065 90.8922L121.82 89.1552L119.818 88.3622L119.29 90.2503C118.837 90.2503 118.383 90.3635 117.93 90.5524L117.704 88.8908L115.476 90.5901L116.005 92.0628C115.589 92.5159 115.249 93.0446 114.909 93.6488L113.852 93.0446L112.681 96.2166L113.928 96.4054C113.814 97.0851 113.739 97.727 113.777 98.3312L112.493 99.162L113.097 101.956L114.343 100.786C114.57 101.239 114.834 101.616 115.174 101.919L114.419 103.656L116.42 104.449L116.949 102.561C117.402 102.561 117.855 102.447 118.308 102.258L118.535 103.92L120.762 102.221L120.234 100.748C120.649 100.295 120.989 99.7662 121.329 99.162L122.386 99.7662ZM117.024 99.5774C115.929 99.1997 115.514 97.4627 116.118 95.7257C116.722 93.9886 118.119 92.8936 119.214 93.2712C120.309 93.6488 120.725 95.3858 120.121 97.1229C119.516 98.8599 118.119 99.955 117.024 99.5774Z" fill="url(#paint88_linear_2_130)"/>
<path opacity="0.5" fill-rule="evenodd" clip-rule="evenodd" d="M126.615 94.5927L123.745 93.6487L122.461 94.4794L125.294 95.4235L126.615 94.5927Z" fill="#601734"/>
<path fill-rule="evenodd" clip-rule="evenodd" d="M123.594 103.127L120.724 102.221L120.233 100.748L123.065 101.654L123.594 103.127Z" fill="#B3D9FF"/>
<path opacity="0.5" fill-rule="evenodd" clip-rule="evenodd" d="M121.064 90.9299L122.65 91.383L123.179 90.8921L124.199 91.232L124.69 90.0992L121.82 89.1929L121.064 90.9299Z" fill="#601734"/>
<path opacity="0.5" fill-rule="evenodd" clip-rule="evenodd" d="M116.911 102.56L118.422 103.164L118.308 102.22C118.308 102.22 117.478 102.636 116.911 102.56Z" fill="#601734"/>
<path opacity="0.5" fill-rule="evenodd" clip-rule="evenodd" d="M117.137 93.9886L119.667 95.3103C119.667 95.3103 120.044 94.8194 120.309 94.6306C120.309 94.6306 119.667 91.874 117.137 93.9886Z" fill="#601734"/>
<path d="M59.4747 0L61.8914 4.87123L60.2677 5.5887L58.002 1.13285L59.4747 0Z" fill="#FF1D9C"/>
<path d="M4.90967 113.02L7.17536 115.513L8.04387 114.493L5.92923 112.152L4.90967 113.02Z" fill="#6877FF"/>
<path d="M118.873 29.6049L116.608 30.9643L115.701 29.265L118.193 27.8301L118.873 29.6049Z" fill="#4F31E0"/>
<path d="M130.013 116.343L126.766 118.647L125.859 116.947L128.994 115.097L130.013 116.343Z" fill="#4F31E0"/>
<path fill-rule="evenodd" clip-rule="evenodd" d="M125.708 17.8612L125.179 5.17334H141.832L141.153 17.8234L125.708 17.8612Z" fill="url(#paint89_linear_2_130)"/>
<path fill-rule="evenodd" clip-rule="evenodd" d="M125.18 5.17334L124.689 5.92857L125.18 17.8612H125.708L125.18 5.17334Z" fill="url(#paint90_linear_2_130)"/>
<path d="M130.693 7.70329L128.088 7.43896L128.465 16.1241L130.693 15.8975V14.9913L129.409 15.029L129.258 8.30748L130.693 8.383V7.70329Z" fill="white"/>
<path d="M136.055 7.70329L138.661 7.43896L138.321 16.1241L136.055 15.8975V14.9913L137.339 15.029L137.49 8.30748L136.055 8.383V7.70329Z" fill="white"/>
<path fill-rule="evenodd" clip-rule="evenodd" d="M10.9886 45.6916L11.3285 37.0442H0L0.453138 45.6916H10.9886Z" fill="url(#paint91_linear_2_130)"/>
<path fill-rule="evenodd" clip-rule="evenodd" d="M11.3282 37.0442L11.668 37.5351L11.3282 45.6916H10.9883L11.3282 37.0442Z" fill="url(#paint92_linear_2_130)"/>
<path d="M6.98584 38.7812C6.98584 38.7812 8.23197 38.7434 8.45854 38.8189C8.68511 38.9322 8.38302 40.9336 8.38302 40.9336L8.87392 41.3867L8.42078 41.8399C8.42078 41.8399 8.45854 43.879 8.15645 44.0678C7.85436 44.2566 6.87256 44.0678 6.87256 44.0678V43.5391C6.87256 43.5391 7.70331 43.5769 7.8166 43.4636C7.96764 43.3503 7.92988 41.5755 7.92988 41.5755L8.15645 41.349L7.92988 41.0846C7.92988 41.0846 7.96764 39.8007 7.92988 39.4609C7.92988 39.2343 6.94808 39.1965 6.94808 39.1965V38.7812H6.98584Z" fill="white"/>
<path d="M4.11616 38.7812C4.11616 38.7812 2.87003 38.7434 2.64346 38.8189C2.4169 38.8945 2.71899 40.9336 2.71899 40.9336L2.22809 41.3867L2.68123 41.8399C2.68123 41.8399 2.64346 43.879 2.94556 44.0678C3.24765 44.2566 4.22945 44.0678 4.22945 44.0678V43.5391C4.22945 43.5391 3.39869 43.5769 3.28541 43.4636C3.13436 43.3503 3.17213 41.5755 3.17213 41.5755L2.94556 41.349L3.17213 41.0846C3.17213 41.0846 3.13436 39.8007 3.17213 39.4609C3.17213 39.2343 4.15393 39.1965 4.15393 39.1965V38.7812H4.11616Z" fill="white"/>
<path d="M106.715 19.0321L103.92 11.7441L111.133 13.2546L106.715 19.0321ZM104.222 12.0085L106.753 18.6545L110.793 13.4056L104.222 12.0085Z" fill="#744CA2"/>
<path d="M128.891 118.74L126.458 122.06L126.61 122.171L129.044 118.852L128.891 118.74Z" fill="#744CA2"/>
<path d="M103.694 91.4586L101.088 88.2111L101.239 88.0601L103.845 91.3453L103.694 91.4586Z" fill="#744CA2"/>
<path d="M22.7708 114.38L17.522 110.604L17.6353 110.453L22.8841 114.229L22.7708 114.38Z" fill="#744CA2"/>
<path d="M22.0649 109.796L18.1518 114.933L18.302 115.047L22.2151 109.911L22.0649 109.796Z" fill="#744CA2"/>
<path d="M11.0292 56.7406L10.9414 56.9077L14.3175 58.6816L14.4053 58.5144L11.0292 56.7406Z" fill="#744CA2"/>
<path d="M144.552 12.9902L144.401 12.8769L148.328 8.3833L148.441 8.53435L144.552 12.9902Z" fill="#744CA2"/>
<path d="M68.4474 23.807L68.2783 23.8911L70.0275 27.4071L70.1965 27.323L68.4474 23.807Z" fill="#744CA2"/>
<path d="M45.0723 83.0414L40.583 86.7968L40.7041 86.9416L45.1934 83.1863L45.0723 83.0414Z" fill="#744CA2"/>
<defs>
<linearGradient id="paint0_linear_2_130" x1="38.8329" y1="78.1353" x2="27.4537" y2="53.7802" gradientUnits="userSpaceOnUse">
<stop stop-color="#DBCCFF"/>
<stop offset="1" stop-color="#D1BBFF"/>
</linearGradient>
<linearGradient id="paint1_linear_2_130" x1="39.2755" y1="79.086" x2="27.8963" y2="54.7309" gradientUnits="userSpaceOnUse">
<stop stop-color="#B5A6E7"/>
<stop offset="1" stop-color="#7760BF"/>
</linearGradient>
<linearGradient id="paint2_linear_2_130" x1="36.4462" y1="73.0309" x2="31.6497" y2="62.7649" gradientUnits="userSpaceOnUse">
<stop stop-color="#B5A6E7"/>
<stop offset="1" stop-color="#7760BF"/>
</linearGradient>
<linearGradient id="paint3_linear_2_130" x1="30.2888" y1="63.6512" x2="33.2025" y2="62.2898" gradientUnits="userSpaceOnUse">
<stop stop-color="#8B8BE0"/>
<stop offset="1" stop-color="#A177B7"/>
</linearGradient>
<linearGradient id="paint4_linear_2_130" x1="32.0616" y1="63.6469" x2="31.2375" y2="61.8831" gradientUnits="userSpaceOnUse">
<stop stop-color="white"/>
<stop offset="1" stop-color="#A177B7"/>
</linearGradient>
<linearGradient id="paint5_linear_2_130" x1="38.477" y1="73.3589" x2="33.1893" y2="62.0414" gradientUnits="userSpaceOnUse">
<stop/>
<stop offset="1" stop-color="white"/>
</linearGradient>
<linearGradient id="paint6_linear_2_130" x1="81.1888" y1="137.088" x2="81.1888" y2="103.401" gradientUnits="userSpaceOnUse">
<stop stop-color="#6456C0"/>
<stop offset="1" stop-color="#5F2C95"/>
</linearGradient>
<radialGradient id="paint7_radial_2_130" cx="0" cy="0" r="1" gradientUnits="userSpaceOnUse" gradientTransform="translate(64.7853 124.973) rotate(12.9927) scale(6.76844 17.4877)">
<stop stop-color="#4B474B"/>
<stop offset="1"/>
</radialGradient>
<radialGradient id="paint8_radial_2_130" cx="0" cy="0" r="1" gradientUnits="userSpaceOnUse" gradientTransform="translate(96.2033 124.803) rotate(-15.6582) scale(6.76867 17.4872)">
<stop stop-color="#4B474B"/>
<stop offset="1"/>
</radialGradient>
<linearGradient id="paint9_linear_2_130" x1="70.2861" y1="125.262" x2="79.1214" y2="125.262" gradientUnits="userSpaceOnUse">
<stop stop-color="#9E8CEF"/>
<stop offset="1" stop-color="#CAAFEE"/>
</linearGradient>
<linearGradient id="paint10_linear_2_130" x1="90.9323" y1="125.262" x2="82.0964" y2="125.262" gradientUnits="userSpaceOnUse">
<stop stop-color="#9E8CEF"/>
<stop offset="1" stop-color="#CAAFEE"/>
</linearGradient>
<linearGradient id="paint11_linear_2_130" x1="80.0033" y1="137.088" x2="80.0033" y2="103.401" gradientUnits="userSpaceOnUse">
<stop stop-color="#CCCCFF"/>
<stop offset="1" stop-color="#755CBB"/>
</linearGradient>
<linearGradient id="paint12_linear_2_130" x1="83.9251" y1="120.245" x2="83.9251" y2="111.057" gradientUnits="userSpaceOnUse">
<stop stop-color="#CCCCFF"/>
<stop offset="1" stop-color="#755CBB"/>
</linearGradient>
<linearGradient id="paint13_linear_2_130" x1="73.2831" y1="116.866" x2="73.2831" y2="107.864" gradientUnits="userSpaceOnUse">
<stop stop-color="#CCCCFF"/>
<stop offset="1" stop-color="#755CBB"/>
</linearGradient>
<linearGradient id="paint14_linear_2_130" x1="82.4128" y1="52.6722" x2="82.4128" y2="39.2253" gradientUnits="userSpaceOnUse">
<stop stop-color="#D5CDF8"/>
<stop offset="1" stop-color="#F3EDFB"/>
</linearGradient>
<linearGradient id="paint15_linear_2_130" x1="75.4903" y1="45.9355" x2="89.3352" y2="45.9355" gradientUnits="userSpaceOnUse">
<stop stop-color="#CCCCFF"/>
<stop offset="1" stop-color="#755CBB"/>
</linearGradient>
<linearGradient id="paint16_linear_2_130" x1="78.4541" y1="106.399" x2="78.4541" y2="38.6402" gradientUnits="userSpaceOnUse">
<stop stop-color="#9E8CEF"/>
<stop offset="1" stop-color="#CAAFEE"/>
</linearGradient>
<linearGradient id="paint17_linear_2_130" x1="50.3345" y1="64.1762" x2="66.8362" y2="64.1762" gradientUnits="userSpaceOnUse">
<stop stop-color="#CCCCFF"/>
<stop offset="1" stop-color="#755CBB"/>
</linearGradient>
<linearGradient id="paint18_linear_2_130" x1="49.8235" y1="83.1532" x2="49.8235" y2="51.4676" gradientUnits="userSpaceOnUse">
<stop stop-color="#9E8CEF"/>
<stop offset="1" stop-color="#DAC7F3"/>
</linearGradient>
<linearGradient id="paint19_linear_2_130" x1="104.311" y1="74.0212" x2="125.572" y2="74.0212" gradientUnits="userSpaceOnUse">
<stop stop-color="#A999F1"/>
<stop offset="1" stop-color="#DAC7F3"/>
</linearGradient>
<linearGradient id="paint20_linear_2_130" x1="42.9076" y1="47.1474" x2="42.9076" y2="38.7928" gradientUnits="userSpaceOnUse">
<stop offset="0.0159875" stop-color="#FFC2A9"/>
<stop offset="1" stop-color="#FF9595"/>
</linearGradient>
<linearGradient id="paint21_linear_2_130" x1="48.1683" y1="46.9497" x2="48.1683" y2="33.1203" gradientUnits="userSpaceOnUse">
<stop stop-color="#FFEADB"/>
<stop offset="0.9944" stop-color="#C27CB6"/>
</linearGradient>
<linearGradient id="paint22_linear_2_130" x1="47.7197" y1="56.3582" x2="47.7197" y2="35.0381" gradientUnits="userSpaceOnUse">
<stop offset="0.0159875" stop-color="#FFC2A9"/>
<stop offset="1" stop-color="#FF9595"/>
</linearGradient>
<linearGradient id="paint23_linear_2_130" x1="43.9071" y1="53.0312" x2="50.6106" y2="53.0312" gradientUnits="userSpaceOnUse">
<stop offset="0.0159875" stop-color="#D1A1D6"/>
<stop offset="0.9944" stop-color="#BD89C4"/>
</linearGradient>
<linearGradient id="paint24_linear_2_130" x1="126.01" y1="69.3442" x2="126.01" y2="40.8337" gradientUnits="userSpaceOnUse">
<stop offset="0.0159875" stop-color="#FFC2A9"/>
<stop offset="1" stop-color="#FF9595"/>
</linearGradient>
<linearGradient id="paint25_linear_2_130" x1="129.379" y1="60.2096" x2="129.379" y2="46.0453" gradientUnits="userSpaceOnUse">
<stop stop-color="#FFEADB"/>
<stop offset="0.9944" stop-color="#C27CB6"/>
</linearGradient>
<linearGradient id="paint26_linear_2_130" x1="132.173" y1="55.3208" x2="132.173" y2="48.9712" gradientUnits="userSpaceOnUse">
<stop stop-color="#FFB0B0"/>
<stop offset="0.984" stop-color="#FFC2A9"/>
</linearGradient>
<linearGradient id="paint27_linear_2_130" x1="135.856" y1="56.2986" x2="135.856" y2="52.8166" gradientUnits="userSpaceOnUse">
<stop stop-color="#FFB0B0"/>
<stop offset="0.984" stop-color="#FFC2A9"/>
</linearGradient>
<linearGradient id="paint28_linear_2_130" x1="120.963" y1="63.2385" x2="127.439" y2="63.2385" gradientUnits="userSpaceOnUse">
<stop offset="0.0159875" stop-color="#D1A1D6"/>
<stop offset="0.9944" stop-color="#BD89C4"/>
</linearGradient>
<linearGradient id="paint29_linear_2_130" x1="111.95" y1="85.5895" x2="111.95" y2="53.6768" gradientUnits="userSpaceOnUse">
<stop stop-color="#CCCCFF"/>
<stop offset="1" stop-color="#755CBB"/>
</linearGradient>
<linearGradient id="paint30_linear_2_130" x1="41.6866" y1="79.16" x2="95.0625" y2="79.16" gradientUnits="userSpaceOnUse">
<stop stop-color="#CCCCFF"/>
<stop offset="1" stop-color="#755CBB"/>
</linearGradient>
<linearGradient id="paint31_linear_2_130" x1="88.7436" y1="70.2283" x2="98.946" y2="70.2283" gradientUnits="userSpaceOnUse">
<stop stop-color="#CCEDFF"/>
<stop offset="1" stop-color="#755CBB"/>
</linearGradient>
<linearGradient id="paint32_linear_2_130" x1="79.4896" y1="88.1334" x2="94.4832" y2="88.1334" gradientUnits="userSpaceOnUse">
<stop stop-color="#CCEDFF"/>
<stop offset="1" stop-color="#755CBB"/>
</linearGradient>
<linearGradient id="paint33_linear_2_130" x1="80.1843" y1="94.9131" x2="96.2031" y2="94.9131" gradientUnits="userSpaceOnUse">
<stop stop-color="#CCEDFF"/>
<stop offset="1" stop-color="#755CBB"/>
</linearGradient>
<linearGradient id="paint34_linear_2_130" x1="66.3977" y1="78.1276" x2="66.3977" y2="60.1493" gradientUnits="userSpaceOnUse">
<stop stop-color="#CCEDFF"/>
<stop offset="1" stop-color="#755CBB"/>
</linearGradient>
<linearGradient id="paint35_linear_2_130" x1="67.8449" y1="79.6386" x2="67.8449" y2="66.0105" gradientUnits="userSpaceOnUse">
<stop stop-color="#CCEDFF"/>
<stop offset="1" stop-color="#755CBB"/>
</linearGradient>
<linearGradient id="paint36_linear_2_130" x1="46.3071" y1="62.2174" x2="46.3071" y2="51.9209" gradientUnits="userSpaceOnUse">
<stop stop-color="#CCEDFF"/>
<stop offset="1" stop-color="#755CBB"/>
</linearGradient>
<linearGradient id="paint37_linear_2_130" x1="54.6391" y1="53.1501" x2="58.7887" y2="53.1501" gradientUnits="userSpaceOnUse">
<stop stop-color="#CCEDFF"/>
<stop offset="1" stop-color="#755CBB"/>
</linearGradient>
<linearGradient id="paint38_linear_2_130" x1="99.7473" y1="78.1274" x2="99.7473" y2="59.0427" gradientUnits="userSpaceOnUse">
<stop stop-color="#CCCCFF"/>
<stop offset="1" stop-color="#755CBB"/>
</linearGradient>
<linearGradient id="paint39_linear_2_130" x1="121.204" y1="74.0226" x2="121.204" y2="64.0497" gradientUnits="userSpaceOnUse">
<stop stop-color="#CCCCFF"/>
<stop offset="1" stop-color="#755CBB"/>
</linearGradient>
<linearGradient id="paint40_linear_2_130" x1="109.894" y1="73.5768" x2="109.894" y2="65.9528" gradientUnits="userSpaceOnUse">
<stop stop-color="#CCCCFF"/>
<stop offset="1" stop-color="#755CBB"/>
</linearGradient>
<linearGradient id="paint41_linear_2_130" x1="44.1517" y1="62.8748" x2="44.1517" y2="60.0435" gradientUnits="userSpaceOnUse">
<stop stop-color="#CCEDFF"/>
<stop offset="1" stop-color="#755CBB"/>
</linearGradient>
<linearGradient id="paint42_linear_2_130" x1="51.7145" y1="71.5068" x2="51.7145" y2="56.0333" gradientUnits="userSpaceOnUse">
<stop stop-color="#CCCCFF"/>
<stop offset="1" stop-color="#755CBB"/>
</linearGradient>
<linearGradient id="paint43_linear_2_130" x1="91.5239" y1="60.6152" x2="91.5239" y2="48.9711" gradientUnits="userSpaceOnUse">
<stop stop-color="#CCEDFF"/>
<stop offset="1" stop-color="#755CBB"/>
</linearGradient>
<linearGradient id="paint44_linear_2_130" x1="76.2696" y1="59.0411" x2="76.2696" y2="42.97" gradientUnits="userSpaceOnUse">
<stop stop-color="#CCEDFF"/>
<stop offset="1" stop-color="#755CBB"/>
</linearGradient>
<linearGradient id="paint45_linear_2_130" x1="70.843" y1="61.9803" x2="97.6856" y2="61.9803" gradientUnits="userSpaceOnUse">
<stop stop-color="#8642A0"/>
<stop offset="1" stop-color="#6456C0"/>
</linearGradient>
<linearGradient id="paint46_linear_2_130" x1="73.1572" y1="46.4909" x2="90.6257" y2="46.4909" gradientUnits="userSpaceOnUse">
<stop stop-color="#CCCCFF"/>
<stop offset="1" stop-color="#755CBB"/>
</linearGradient>
<linearGradient id="paint47_linear_2_130" x1="118.064" y1="72.886" x2="118.064" y2="62.7766" gradientUnits="userSpaceOnUse">
<stop stop-color="#CCCCFF"/>
<stop offset="1" stop-color="#755CBB"/>
</linearGradient>
<linearGradient id="paint48_linear_2_130" x1="103.774" y1="84.2901" x2="103.774" y2="53.6769" gradientUnits="userSpaceOnUse">
<stop stop-color="#CCCCFF"/>
<stop offset="1" stop-color="#755CBB"/>
</linearGradient>
<linearGradient id="paint49_linear_2_130" x1="70.8614" y1="98.6697" x2="70.8614" y2="89.894" gradientUnits="userSpaceOnUse">
<stop stop-color="#CCCCFF"/>
<stop offset="1" stop-color="#755CBB"/>
</linearGradient>
<linearGradient id="paint50_linear_2_130" x1="87.9083" y1="96.2592" x2="87.9083" y2="91.9974" gradientUnits="userSpaceOnUse">
<stop stop-color="#CCCCFF"/>
<stop offset="1" stop-color="#755CBB"/>
</linearGradient>
<linearGradient id="paint51_linear_2_130" x1="87.7211" y1="41.4805" x2="87.7211" y2="12.326" gradientUnits="userSpaceOnUse">
<stop offset="0.0159875" stop-color="#FFC2A9"/>
<stop offset="1" stop-color="#FF9595"/>
</linearGradient>
<linearGradient id="paint52_linear_2_130" x1="76.8526" y1="29.7161" x2="76.8526" y2="21.1207" gradientUnits="userSpaceOnUse">
<stop offset="0.0159875" stop-color="#FFC2A9"/>
<stop offset="1" stop-color="#FF9595"/>
</linearGradient>
<linearGradient id="paint53_linear_2_130" x1="91.7732" y1="32.9667" x2="92.1336" y2="31.0903" gradientUnits="userSpaceOnUse">
<stop stop-color="#E1616A"/>
<stop offset="1" stop-color="#FF8883"/>
</linearGradient>
<linearGradient id="paint54_linear_2_130" x1="88.5204" y1="31.531" x2="88.5204" y2="12.7496" gradientUnits="userSpaceOnUse">
<stop stop-color="#FFEADB"/>
<stop offset="0.9944" stop-color="#C27CB6"/>
</linearGradient>
<linearGradient id="paint55_linear_2_130" x1="87.6051" y1="23.8396" x2="87.6051" y2="20.1191" gradientUnits="userSpaceOnUse">
<stop stop-color="#CF6074"/>
<stop offset="1" stop-color="#F37270"/>
</linearGradient>
<linearGradient id="paint56_linear_2_130" x1="95.0253" y1="25.0204" x2="95.0253" y2="21.7828" gradientUnits="userSpaceOnUse">
<stop stop-color="#CF6074"/>
<stop offset="1" stop-color="#FF817F"/>
</linearGradient>
<linearGradient id="paint57_linear_2_130" x1="95.3309" y1="26.904" x2="95.3309" y2="19.6186" gradientUnits="userSpaceOnUse">
<stop stop-color="#FFEADB"/>
<stop offset="0.9944" stop-color="#C27CB6"/>
</linearGradient>
<linearGradient id="paint58_linear_2_130" x1="88.1127" y1="41.8473" x2="88.1127" y2="6.49016" gradientUnits="userSpaceOnUse">
<stop stop-color="#2E33A0"/>
<stop offset="1" stop-color="#0665A5"/>
</linearGradient>
<linearGradient id="paint59_linear_2_130" x1="97.3989" y1="19.5821" x2="97.3989" y2="11.4256" gradientUnits="userSpaceOnUse">
<stop stop-color="#FFEADB"/>
<stop offset="0.9944" stop-color="#8860C7"/>
</linearGradient>
<linearGradient id="paint60_linear_2_130" x1="86.2838" y1="41.8472" x2="86.2838" y2="6.49008" gradientUnits="userSpaceOnUse">
<stop stop-color="#CCC2DB"/>
<stop offset="0.9944" stop-color="#8860C7"/>
</linearGradient>
<linearGradient id="paint61_linear_2_130" x1="88.655" y1="41.8389" x2="88.655" y2="40.3198" gradientUnits="userSpaceOnUse">
<stop stop-color="#776D7E"/>
<stop offset="1" stop-color="#9D68C2"/>
</linearGradient>
<linearGradient id="paint62_linear_2_130" x1="93.1115" y1="9.02767" x2="93.1115" y2="7.89909" gradientUnits="userSpaceOnUse">
<stop stop-color="#1F77D1"/>
<stop offset="1" stop-color="#0686C9"/>
</linearGradient>
<linearGradient id="paint63_linear_2_130" x1="85.922" y1="12.7434" x2="85.922" y2="9.40658" gradientUnits="userSpaceOnUse">
<stop stop-color="#1F77D1"/>
<stop offset="1" stop-color="#0686C9"/>
</linearGradient>
<linearGradient id="paint64_linear_2_130" x1="98.0139" y1="14.4354" x2="98.0139" y2="11.4258" gradientUnits="userSpaceOnUse">
<stop stop-color="#1F77D1"/>
<stop offset="1" stop-color="#0686C9"/>
</linearGradient>
<linearGradient id="paint65_linear_2_130" x1="78.1043" y1="27.6789" x2="74.2542" y2="22.9621" gradientUnits="userSpaceOnUse">
<stop stop-color="#FFEADB"/>
<stop offset="0.9944" stop-color="#B060F4"/>
</linearGradient>
<linearGradient id="paint66_linear_2_130" x1="78.5073" y1="27.0713" x2="76.613" y2="24.7505" gradientUnits="userSpaceOnUse">
<stop stop-color="#FFEADB"/>
<stop offset="0.9944" stop-color="#B060F4"/>
</linearGradient>
<linearGradient id="paint67_linear_2_130" x1="85.6993" y1="13.0419" x2="92.2195" y2="13.0419" gradientUnits="userSpaceOnUse">
<stop stop-color="#1F77D1"/>
<stop offset="1" stop-color="#0686C9"/>
</linearGradient>
<linearGradient id="paint68_linear_2_130" x1="94.8958" y1="32.5411" x2="96.8735" y2="32.5411" gradientUnits="userSpaceOnUse">
<stop stop-color="#1F77D1"/>
<stop offset="1" stop-color="#0686C9"/>
</linearGradient>
<linearGradient id="paint69_linear_2_130" x1="92.4537" y1="31.0707" x2="94.5867" y2="31.0707" gradientUnits="userSpaceOnUse">
<stop stop-color="#1F77D1"/>
<stop offset="1" stop-color="#0686C9"/>
</linearGradient>
<linearGradient id="paint70_linear_2_130" x1="108.186" y1="36.2446" x2="175.046" y2="36.2446" gradientUnits="userSpaceOnUse">
<stop stop-color="#9D68C2"/>
<stop offset="1" stop-color="#AEC2FF"/>
</linearGradient>
<linearGradient id="paint71_linear_2_130" x1="121.788" y1="61.497" x2="121.788" y2="41.3315" gradientUnits="userSpaceOnUse">
<stop stop-color="#CCEDFF"/>
<stop offset="1" stop-color="#9D68C2"/>
</linearGradient>
<linearGradient id="paint72_linear_2_130" x1="156.173" y1="51.6655" x2="156.173" y2="42.783" gradientUnits="userSpaceOnUse">
<stop stop-color="#CCEDFF"/>
<stop offset="1" stop-color="#9D68C2"/>
</linearGradient>
<linearGradient id="paint73_linear_2_130" x1="166.653" y1="51.6655" x2="166.653" y2="42.783" gradientUnits="userSpaceOnUse">
<stop stop-color="#CCEDFF"/>
<stop offset="1" stop-color="#9D68C2"/>
</linearGradient>
<linearGradient id="paint74_linear_2_130" x1="145.518" y1="51.6655" x2="145.518" y2="42.783" gradientUnits="userSpaceOnUse">
<stop stop-color="#CCEDFF"/>
<stop offset="1" stop-color="#9D68C2"/>
</linearGradient>
<linearGradient id="paint75_linear_2_130" x1="49.9859" y1="29.8409" x2="49.9859" y2="20.5433" gradientUnits="userSpaceOnUse">
<stop stop-color="#D93DE3"/>
<stop offset="1" stop-color="#FF6DBA"/>
</linearGradient>
<linearGradient id="paint76_linear_2_130" x1="55.6691" y1="29.8409" x2="55.6691" y2="20.5433" gradientUnits="userSpaceOnUse">
<stop stop-color="#A242EA"/>
<stop offset="1" stop-color="#FE117E"/>
</linearGradient>
<linearGradient id="paint77_linear_2_130" x1="48.3721" y1="127.788" x2="53.4" y2="87.7552" gradientUnits="userSpaceOnUse">
<stop stop-color="#067EFF"/>
<stop offset="1" stop-color="#3E37A0"/>
</linearGradient>
<linearGradient id="paint78_linear_2_130" x1="165.756" y1="28.8294" x2="165.756" y2="25.4546" gradientUnits="userSpaceOnUse">
<stop stop-color="#459FFF"/>
<stop offset="1" stop-color="#A96DFF"/>
</linearGradient>
<linearGradient id="paint79_linear_2_130" x1="7.15978" y1="68.3768" x2="7.15978" y2="64.1765" gradientUnits="userSpaceOnUse">
<stop stop-color="#459FFF"/>
<stop offset="1" stop-color="#A96DFF"/>
</linearGradient>
<linearGradient id="paint80_linear_2_130" x1="170.712" y1="28.8294" x2="170.712" y2="25.4546" gradientUnits="userSpaceOnUse">
<stop stop-color="#B31A8F"/>
<stop offset="1" stop-color="#FE117E"/>
</linearGradient>
<linearGradient id="paint81_linear_2_130" x1="61.894" y1="39.9376" x2="61.894" y2="37.5513" gradientUnits="userSpaceOnUse">
<stop stop-color="#B31A8F"/>
<stop offset="1" stop-color="#FE117E"/>
</linearGradient>
<linearGradient id="paint82_linear_2_130" x1="141.818" y1="92.5914" x2="141.818" y2="90.205" gradientUnits="userSpaceOnUse">
<stop stop-color="#8642A0"/>
<stop offset="1" stop-color="#6456C0"/>
</linearGradient>
<linearGradient id="paint83_linear_2_130" x1="17.764" y1="104.362" x2="17.764" y2="102.228" gradientUnits="userSpaceOnUse">
<stop stop-color="#8642A0"/>
<stop offset="1" stop-color="#6456C0"/>
</linearGradient>
<linearGradient id="paint84_linear_2_130" x1="26.7151" y1="92.8209" x2="26.7151" y2="75.2004" gradientUnits="userSpaceOnUse">
<stop stop-color="#D906E3"/>
<stop offset="1" stop-color="#FF6DF9"/>
</linearGradient>
<linearGradient id="paint85_linear_2_130" x1="148.379" y1="117.763" x2="148.379" y2="95.7196" gradientUnits="userSpaceOnUse">
<stop stop-color="#D906E3"/>
<stop offset="1" stop-color="#FF6DF9"/>
</linearGradient>
<linearGradient id="paint86_linear_2_130" x1="119.778" y1="105.437" x2="122.156" y2="89.3821" gradientUnits="userSpaceOnUse">
<stop stop-color="#1852A0"/>
<stop offset="1" stop-color="#067ED3"/>
</linearGradient>
<linearGradient id="paint87_linear_2_130" x1="118.005" y1="105.022" x2="122.3" y2="89.0719" gradientUnits="userSpaceOnUse">
<stop stop-color="#1852A0"/>
<stop offset="1" stop-color="#067ED3"/>
</linearGradient>
<linearGradient id="paint88_linear_2_130" x1="115.988" y1="104.364" x2="118.523" y2="88.2035" gradientUnits="userSpaceOnUse">
<stop stop-color="#188DC1"/>
<stop offset="1" stop-color="#06BFE7"/>
</linearGradient>
<linearGradient id="paint89_linear_2_130" x1="131.053" y1="19.3093" x2="135.332" y2="3.418" gradientUnits="userSpaceOnUse">
<stop stop-color="#188DC1"/>
<stop offset="1" stop-color="#06BFE7"/>
</linearGradient>
<linearGradient id="paint90_linear_2_130" x1="123.698" y1="17.476" x2="126.889" y2="5.62558" gradientUnits="userSpaceOnUse">
<stop stop-color="#1852A0"/>
<stop offset="1" stop-color="#067ED3"/>
</linearGradient>
<linearGradient id="paint91_linear_2_130" x1="7.33895" y1="46.6764" x2="4.42187" y2="35.843" gradientUnits="userSpaceOnUse">
<stop stop-color="#188DC1"/>
<stop offset="1" stop-color="#06BFE7"/>
</linearGradient>
<linearGradient id="paint92_linear_2_130" x1="12.3528" y1="45.4267" x2="10.1775" y2="37.3479" gradientUnits="userSpaceOnUse">
<stop stop-color="#1852A0"/>
<stop offset="1" stop-color="#067ED3"/>
</linearGradient>
</defs>
</svg>
