<svg width="66" height="66" viewBox="0 0 66 66" fill="none" xmlns="http://www.w3.org/2000/svg">
<path d="M32.432 0.000320226C24.6639 -0.0341629 17.141 2.71734 11.2282 7.7555C5.31551 12.7937 1.40489 19.7846 0.206055 27.4596L6.05231 28.3904C7.11994 21.7591 10.6462 15.7732 15.9287 11.6249C21.2113 7.47653 27.8626 5.47012 34.5579 6.00523C41.2533 6.54034 47.5014 9.57771 52.0581 14.5124C56.6147 19.4471 59.1454 25.9171 59.1462 32.6338C59.1468 34.4115 58.9713 36.1849 58.6223 37.928L64.4267 39.0929C65.3783 34.3552 65.2667 29.4655 64.1001 24.7761C62.9335 20.0868 60.7409 15.7147 57.6804 11.9752C54.6198 8.23572 50.7676 5.22193 46.4015 3.15116C42.0354 1.08039 37.2642 0.00424554 32.432 0.000320226Z" fill="#574DE1"/>
<path d="M38.2134 52.6388C34.3329 54.4359 30.01 55.0535 25.7816 54.4148C23.5424 54.0853 21.3665 53.4165 19.3288 52.4316C17.1803 51.4358 15.2024 50.1072 13.4681 48.4949C11.6468 46.8517 10.0805 44.9462 8.82086 42.8413C7.53806 40.6446 6.55735 38.285 5.90524 35.8262L3.02674 36.1733L0 36.182L0.0209544 36.5361C0.778985 42.8138 3.34423 48.7363 7.4049 53.5835C11.4656 58.4307 16.8468 61.9941 22.8946 63.8405C28.9424 65.6869 35.3963 65.7368 41.4719 63.9841C47.5475 62.2315 52.9832 58.7518 57.1184 53.9679V43.5377L46.7086 44.9577C44.696 48.2996 41.7405 50.9719 38.2134 52.6388Z" fill="#574DE1"/>
<path d="M26.4904 25.5908C26.2124 25.5908 25.9457 25.7013 25.749 25.898C25.5524 26.0946 25.4419 26.3613 25.4419 26.6394V31.8557C25.43 32.2129 25.4916 32.5688 25.6229 32.9013C25.7541 33.2337 25.9523 33.5357 26.205 33.7884C26.4578 34.0412 26.7598 34.2393 27.0922 34.3706C27.4247 34.5019 27.7806 34.5635 28.1378 34.5516H30.933V38.6231C30.933 38.7608 30.9602 38.8972 31.0128 39.0244C31.0655 39.1516 31.1428 39.2672 31.2401 39.3645C31.3375 39.4619 31.4531 39.5391 31.5803 39.5918C31.7075 39.6445 31.8439 39.6716 31.9816 39.6716C32.1192 39.6716 32.2556 39.6445 32.3828 39.5918C32.51 39.5391 32.6256 39.4619 32.723 39.3645C32.8203 39.2672 32.8976 39.1516 32.9503 39.0244C33.003 38.8972 33.0301 38.7608 33.0301 38.6231V26.6394C33.0301 26.5017 33.003 26.3653 32.9503 26.2381C32.8976 26.1109 32.8203 25.9953 32.723 25.898C32.6256 25.8006 32.51 25.7234 32.3828 25.6707C32.2556 25.618 32.1192 25.5909 31.9816 25.5909C31.8439 25.5909 31.7075 25.618 31.5803 25.6707C31.4531 25.7234 31.3375 25.8006 31.2401 25.898C31.1428 25.9953 31.0655 26.1109 31.0128 26.2381C30.9602 26.3653 30.933 26.5017 30.933 26.6394V32.4547H28.1378C28.0564 32.4663 27.9735 32.4588 27.8955 32.4328C27.8176 32.4068 27.7467 32.363 27.6886 32.3049C27.6305 32.2468 27.5867 32.1759 27.5607 32.098C27.5347 32.02 27.5272 31.937 27.5388 31.8557V26.6394C27.5388 26.3613 27.4284 26.0946 27.2318 25.898C27.0352 25.7014 26.7685 25.5909 26.4904 25.5908Z" fill="#574DE1"/>
<path d="M15.1684 37.882C15.0218 38.0286 14.9219 38.2154 14.8815 38.4188C14.841 38.6222 14.8618 38.833 14.9411 39.0246C15.0205 39.2162 15.1549 39.38 15.3273 39.4952C15.4997 39.6104 15.7024 39.6719 15.9098 39.6719H23.1416C23.4197 39.6719 23.6864 39.5614 23.8831 39.3648C24.0797 39.1682 24.1902 38.9015 24.1902 38.6234C24.1902 38.3453 24.0797 38.0786 23.8831 37.882C23.6864 37.6853 23.4197 37.5749 23.1416 37.5749H18.4409L22.899 33.1168C23.7237 32.2896 24.1864 31.169 24.1855 30.0009C24.1847 28.8328 23.7203 27.7129 22.8943 26.8869C22.0684 26.061 20.9484 25.5966 19.7803 25.5957C18.6123 25.5948 17.4916 26.0575 16.6644 26.8822L15.919 27.6277C15.7224 27.8243 15.612 28.0909 15.612 28.369C15.612 28.647 15.7224 28.9137 15.919 29.1103C16.1156 29.3069 16.3823 29.4173 16.6603 29.4173C16.9384 29.4173 17.205 29.3069 17.4016 29.1103L18.1471 28.3649C18.5807 27.9317 19.1686 27.6885 19.7815 27.6886C20.3944 27.6888 20.9821 27.9323 21.4155 28.3657C21.8489 28.7991 22.0925 29.3869 22.0926 29.9998C22.0928 30.6127 21.8496 31.2006 21.4164 31.6342L15.1684 37.882Z" fill="#574DE1"/>
<path d="M43.5193 39.9769C43.6454 40.0293 43.7805 40.0563 43.917 40.0563C44.125 40.0562 44.3283 39.9943 44.501 39.8784C44.6738 39.7626 44.8082 39.598 44.8872 39.4056L50.1266 26.6533C50.192 26.4941 50.2171 26.3212 50.1999 26.1499C50.1826 25.9787 50.1234 25.8143 50.0276 25.6713C49.9318 25.5283 49.8022 25.4111 49.6503 25.3301C49.4985 25.249 49.329 25.2066 49.1569 25.2066H41.5129C41.3746 25.2056 41.2375 25.232 41.1094 25.2842C40.9814 25.3365 40.8649 25.4136 40.7668 25.511C40.6686 25.6085 40.5907 25.7244 40.5376 25.8521C40.4844 25.9798 40.457 26.1167 40.457 26.255C40.457 26.3934 40.4844 26.5303 40.5376 26.658C40.5907 26.7857 40.6686 26.9016 40.7668 26.9991C40.8649 27.0965 40.9814 27.1736 41.1094 27.2258C41.2375 27.2781 41.3746 27.3045 41.5129 27.3035H47.5923L42.9479 38.6089C42.8956 38.7363 42.8688 38.8727 42.8692 39.0104C42.8695 39.148 42.897 39.2843 42.9501 39.4113C43.0032 39.5384 43.0807 39.6537 43.1784 39.7508C43.2761 39.8478 43.3919 39.9247 43.5193 39.9769Z" fill="#574DE1"/>
<path d="M35.3307 42.0117C35.5781 42.0115 35.8175 41.9237 36.0064 41.764C36.1954 41.6043 36.3218 41.3829 36.3633 41.139L39.1975 24.4763C39.2436 24.2024 39.1791 23.9214 39.0182 23.695C38.8573 23.4686 38.6131 23.3152 38.3392 23.2687C38.0654 23.2222 37.7843 23.2862 37.5576 23.4468C37.3309 23.6074 37.1772 23.8514 37.1303 24.1251L34.296 40.7878C34.2705 40.9382 34.2781 41.0925 34.3183 41.2397C34.3586 41.3869 34.4305 41.5236 34.529 41.6401C34.6275 41.7567 34.7503 41.8503 34.8888 41.9145C35.0273 41.9787 35.1781 42.0119 35.3307 42.0117H35.3307Z" fill="#574DE1"/>
</svg>
