<svg xmlns="http://www.w3.org/2000/svg" viewBox="0 0 512 512"><path fill="none" d="M237.1 447.3c-6.5 0-11.8 5.3-11.8 11.8s5.3 11.8 11.8 11.8 11.8-5.3 11.8-11.8-5.3-11.8-11.8-11.8zM378.8 447.3c-6.5 0-11.8 5.3-11.8 11.8s5.3 11.8 11.8 11.8c6.5 0 11.8-5.3 11.8-11.8s-5.3-11.8-11.8-11.8z"/><path d="M490.6 202c11 0 20-9 20-20s-9-20-20-20h-355c-.6 0-1.3 0-1.9.1l-24.3-63.9c-.1-.2-.1-.3-.2-.5-.1-.4-.3-.7-.5-1.1-.1-.3-.3-.5-.4-.8-.2-.3-.3-.6-.5-.9-.2-.3-.3-.5-.5-.8-.2-.3-.4-.6-.6-.8-.2-.3-.4-.5-.6-.8-.2-.2-.4-.5-.6-.7-.2-.3-.5-.5-.7-.7-.2-.2-.4-.4-.7-.6-.3-.2-.5-.5-.8-.7-.2-.2-.4-.4-.7-.5-.3-.2-.6-.4-.9-.7-.1-.1-.3-.2-.4-.3L33.4 46.4c-9.4-5.8-21.7-2.9-27.5 6.5C.1 62.3 3 74.6 12.4 80.4l62 38.4 87.4 229.9c1.3 9.8 9.7 17.3 19.8 17.3h266c11 0 20-9 20-20s-9-20-20-20H195.9l-16-42h291.6c11 0 20-9 20-20s-9-20-20-20H164.8l-16-42h341.8zM237.1 407.3c-28.6 0-51.8 23.3-51.8 51.8s23.3 51.8 51.8 51.8 51.8-23.3 51.8-51.8-23.2-51.8-51.8-51.8zm0 63.7c-6.5 0-11.8-5.3-11.8-11.8s5.3-11.8 11.8-11.8 11.8 5.3 11.8 11.8-5.3 11.8-11.8 11.8zM378.8 407.3c-28.6 0-51.8 23.3-51.8 51.8s23.3 51.8 51.8 51.8 51.8-23.3 51.8-51.8-23.2-51.8-51.8-51.8zm0 63.7c-6.5 0-11.8-5.3-11.8-11.8s5.3-11.8 11.8-11.8c6.5 0 11.8 5.3 11.8 11.8s-5.3 11.8-11.8 11.8z"/></svg>