<svg width="59" height="66" viewBox="0 0 59 66" fill="none" xmlns="http://www.w3.org/2000/svg">
<path d="M42.2734 29.8315C43.5381 26.945 44.2352 23.842 44.3266 20.692C44.3254 20.0957 44.2888 19.4999 44.2169 18.9079C43.773 15.1978 41.9564 11.7882 39.1247 9.35034C36.2929 6.91244 32.6512 5.62281 28.9163 5.7353C25.1814 5.84779 21.6239 7.35425 18.944 9.95816C16.2641 12.5621 14.656 16.0748 14.4362 19.8049C14.4162 20.094 14.4062 20.393 14.4062 20.692C14.4062 28.9544 21.104 41.6322 29.3664 41.6322C32.496 41.6322 35.3863 39.8282 37.7784 37.1272C36.1233 37.4471 34.4408 37.604 32.7551 37.5957H32.6654C31.6838 38.2431 30.5417 38.6053 29.3664 38.6421C23.5857 38.6421 17.3963 28.1072 17.3963 20.692C17.3963 20.4428 17.4063 20.1936 17.4262 19.9444C22.9932 19.9487 28.4592 18.4583 33.2535 15.6288C35.7364 16.9105 38.3818 17.8493 41.1172 18.4195C41.2661 19.1678 41.3396 19.9291 41.3365 20.692C41.3365 24.0508 40.0607 28.0475 38.1372 31.4163C39.5659 31.0291 40.9517 30.4981 42.2734 29.8315Z" fill="#574DE1"/>
<path d="M9.91967 21.9376C10.0833 21.9376 10.2453 21.9054 10.3964 21.8428C10.5476 21.7802 10.6849 21.6884 10.8006 21.5727C10.9163 21.457 11.0081 21.3197 11.0707 21.1685C11.1333 21.0173 11.1655 20.8553 11.1655 20.6917C11.1655 20.3146 11.1748 19.9462 11.203 19.5598C11.4205 16.0462 12.6527 12.6713 14.7503 9.84421C16.8479 7.01714 19.7207 4.85942 23.0204 3.63275C26.32 2.40608 29.9046 2.16317 33.3396 2.93346C36.7746 3.70375 39.9122 5.45416 42.372 7.97239C45.1636 10.8421 46.9408 14.5456 47.4328 18.5188C47.5174 19.2401 47.5613 19.9655 47.5642 20.6917C47.5591 21.8783 47.4551 23.0624 47.2532 24.2317L47.0586 25.3841L48.1959 25.6522C48.8709 25.8119 49.4718 26.1959 49.9002 26.7415C50.3286 27.287 50.5592 27.9618 50.5543 28.6554C50.5547 29.4758 50.2297 30.2629 49.6505 30.844C49.0714 31.425 48.2854 31.7526 47.4649 31.7549C46.6667 31.7601 45.8991 31.4484 45.3305 30.8882L44.6676 30.2341L43.8525 30.6843C40.077 32.8332 35.757 33.8352 31.421 33.5677C31.185 33.1196 30.8097 32.7604 30.3517 32.5441C29.8937 32.3279 29.3778 32.2664 28.8819 32.3688C28.3859 32.4712 27.9366 32.7321 27.6018 33.1121C27.2669 33.4921 27.0647 33.9706 27.0254 34.4755C26.9862 34.9805 27.1122 35.4845 27.3843 35.9116C27.6565 36.3388 28.0601 36.6659 28.5343 36.8437C29.0085 37.0215 29.5277 37.0403 30.0136 36.8974C30.4994 36.7545 30.9257 36.4575 31.2281 36.0513C31.7416 36.0774 32.2505 36.0959 32.7498 36.0959C36.7771 36.123 40.7482 35.1508 44.3075 33.2665C45.2348 33.9088 46.3369 34.2509 47.4649 34.2466C48.7323 34.2441 49.9613 33.8112 50.9504 33.0187C51.9395 32.2263 52.6301 31.1213 52.909 29.8849C53.1878 28.6486 53.0384 27.3542 52.4852 26.2139C51.932 25.0736 51.0078 24.155 49.8642 23.6087C49.9897 22.6414 50.0537 21.6671 50.0559 20.6917C50.0528 19.8705 50.0036 19.0502 49.9085 18.2345C49.3533 13.7107 47.3311 9.49346 44.1513 6.22821C41.3551 3.36634 37.7888 1.37701 33.8847 0.501362C29.9805 -0.374289 25.9062 -0.098662 22.1556 1.29483C18.405 2.68833 15.1391 5.13985 12.7538 8.35225C10.3686 11.5646 8.96635 15.4 8.71714 19.3933C8.685 19.8226 8.67383 20.2523 8.67383 20.6917C8.67381 20.8553 8.70603 21.0173 8.76863 21.1685C8.83124 21.3197 8.923 21.457 9.03869 21.5727C9.15438 21.6884 9.29173 21.7802 9.44289 21.8428C9.59405 21.9054 9.75606 21.9376 9.91967 21.9376Z" fill="#574DE1"/>
<path d="M57.5957 54.4468C56.7432 51.3207 55.1772 49.6075 52.0544 48.6439C49.2097 47.6902 40.4336 44.6067 37.8954 43.6196C35.8707 47.3611 32.9377 50.5335 29.3663 52.845C25.7949 50.5335 22.862 47.3611 20.8372 43.6196C18.299 44.6067 9.52286 47.6902 6.67822 48.6439C3.55539 49.6075 1.98945 51.3207 1.13695 54.4468C0.172509 57.9835 0 61.7557 0 65.404H58.7327C58.7327 61.7557 58.5601 57.9835 57.5957 54.4468ZM51.1453 59.0447H43.0268C42.668 59.0447 42.3238 58.9021 42.07 58.6484C41.8163 58.3946 41.6737 58.0505 41.6737 57.6916C41.6737 57.3327 41.8163 56.9886 42.07 56.7348C42.3238 56.4811 42.668 56.3385 43.0268 56.3385H51.1453C51.5042 56.3385 51.8484 56.4811 52.1021 56.7348C52.3559 56.9886 52.4984 57.3327 52.4984 57.6916C52.4984 58.0505 52.3559 58.3946 52.1021 58.6484C51.8484 58.9021 51.5042 59.0447 51.1453 59.0447Z" fill="#574DE1"/>
<path d="M22.2737 22.4358C21.9433 22.4358 21.6264 22.567 21.3927 22.8007C21.1591 23.0343 21.0278 23.3512 21.0278 23.6817C21.0278 24.0121 21.1591 24.329 21.3927 24.5626C21.6264 24.7963 21.9433 24.9275 22.2737 24.9275H25.3003C25.6307 24.9275 25.9476 24.7963 26.1812 24.5626C26.4149 24.329 26.5461 24.0121 26.5461 23.6817C26.5461 23.3512 26.4149 23.0343 26.1812 22.8007C25.9476 22.567 25.6307 22.4358 25.3003 22.4358H22.2737Z" fill="#574DE1"/>
<path d="M33.4324 22.436C33.102 22.436 32.7851 22.5673 32.5514 22.8009C32.3178 23.0346 32.1865 23.3515 32.1865 23.6819C32.1865 24.0123 32.3178 24.3292 32.5514 24.5629C32.7851 24.7965 33.102 24.9278 33.4324 24.9278H36.4589C36.7893 24.9278 37.1062 24.7965 37.3399 24.5629C37.5735 24.3292 37.7048 24.0123 37.7048 23.6819C37.7048 23.3515 37.5735 23.0346 37.3399 22.8009C37.1062 22.5673 36.7893 22.436 36.4589 22.436H33.4324Z" fill="#574DE1"/>
</svg>
