<svg width="68" height="63" viewBox="0 0 68 63" fill="none" xmlns="http://www.w3.org/2000/svg">
<path d="M39.0261 56.6201C36.1442 57.329 33.1562 57.4998 30.2122 57.124L30.7837 54.4243L24.2558 57.2862L29.0642 62.5477L29.6703 59.6844C33.0003 60.1368 36.3858 59.9569 39.6491 59.154C39.9851 59.0714 40.2745 58.8587 40.4537 58.5627C40.6329 58.2667 40.6872 57.9116 40.6045 57.5756C40.5219 57.2395 40.3092 56.9501 40.0132 56.7709C39.7172 56.5917 39.3621 56.5375 39.0261 56.6201Z" fill="#574DE1"/>
<path d="M55.5673 24.5263L52.7425 25.4224L58.4515 29.6896L60.6572 22.9119L58.0607 23.7354C55.8356 18.0044 51.697 13.2192 46.3466 10.1912C46.1975 10.1067 46.0332 10.0523 45.8631 10.0313C45.693 10.0103 45.5204 10.023 45.3552 10.0687C45.19 10.1144 45.0354 10.1922 44.9003 10.2977C44.7652 10.4032 44.6522 10.5342 44.5678 10.6834C44.4833 10.8325 44.4291 10.9969 44.4082 11.167C44.3872 11.3371 44.4 11.5097 44.4458 11.6748C44.4916 11.84 44.5695 11.9945 44.6751 12.1296C44.7806 12.2646 44.9117 12.3776 45.0609 12.4619C49.8381 15.1655 53.5458 19.423 55.5673 24.5263Z" fill="#574DE1"/>
<path d="M42.6923 17.7327C40.561 16.6703 35.8861 15.102 35.8861 15.102V13.5572L36.0157 13.4594C36.9234 12.7649 37.5303 11.7489 37.7114 10.6205L37.737 10.4548H37.8645C38.2073 10.4548 38.5423 10.3527 38.8269 10.1616C39.1115 9.97047 39.3327 9.69897 39.4624 9.38166C39.6155 9.10219 39.6959 8.78871 39.6962 8.47006C39.6961 8.25117 39.655 8.03423 39.5751 7.83045C39.5334 7.60804 39.4098 7.40937 39.2287 7.2737L38.7973 7.01234L38.9036 6.54273C39.6834 3.14705 37.0506 0.0849871 33.5168 0.00212974C33.4297 4.25023e-08 33.3447 0 33.2618 0C33.1768 0 33.0918 4.25023e-08 33.0068 0.00212974C29.4709 0.0849871 26.8402 3.14705 27.6179 6.54273L27.7263 7.01234L27.2949 7.2737C27.1125 7.40812 26.9885 7.60738 26.9486 7.83045C26.867 8.03381 26.8251 8.25093 26.8253 8.47006C26.8253 8.78902 26.9065 9.10274 27.0612 9.38166C27.1907 9.69869 27.4116 9.97002 27.6958 10.1611C27.98 10.3522 28.3146 10.4544 28.657 10.4548H28.7845L28.81 10.6205C28.9929 11.7488 29.6003 12.7645 30.5079 13.4594L30.6375 13.5572V15.102C30.6375 15.102 25.9605 16.6703 23.8291 17.7327C23.5098 17.8925 23.2326 18.1253 23.02 18.4121C22.8074 18.6989 22.6652 19.0318 22.6052 19.3838C22.3509 21.2821 22.2069 23.1935 22.1738 25.1084H44.3477C44.3158 23.1935 44.1724 21.2821 43.9184 19.3838C43.8579 19.0317 43.7154 18.6988 43.5024 18.4119C43.2894 18.1251 43.0119 17.8924 42.6923 17.7327Z" fill="#574DE1"/>
<path d="M67.5708 51.2974C67.5103 50.9452 67.3678 50.6123 67.1548 50.3255C66.9418 50.0387 66.6643 49.806 66.3447 49.6463C64.2134 48.5838 59.5385 47.0156 59.5385 47.0156V45.4708L59.6681 45.373C60.5757 44.6785 61.1826 43.6625 61.3638 42.5341L61.3893 42.3683H61.5168C61.8596 42.3683 62.1947 42.2663 62.4792 42.0752C62.7638 41.884 62.9851 41.6125 63.1148 41.2952C63.2679 41.0158 63.3483 40.7023 63.3485 40.3836C63.3484 40.1647 63.3073 39.9478 63.2274 39.744C63.1857 39.5216 63.0621 39.3229 62.881 39.1873L62.4497 38.9259L62.5559 38.4563C63.3358 35.0606 60.703 31.9986 57.1692 31.9157C57.0821 31.9136 56.9971 31.9136 56.9142 31.9136C56.8292 31.9136 56.7442 31.9136 56.6592 31.9157C53.1233 31.9986 50.4926 35.0606 51.2703 38.4563L51.3787 38.9259L50.9473 39.1873C50.7649 39.3217 50.6409 39.5209 50.6009 39.744C50.5193 39.9473 50.4775 40.1645 50.4777 40.3836C50.4777 40.7026 50.5588 41.0163 50.7135 41.2952C50.843 41.6122 51.0639 41.8836 51.3481 42.0747C51.6323 42.2658 51.9669 42.368 52.3094 42.3683H52.4369L52.4624 42.534C52.6453 43.6624 53.2527 44.678 54.1602 45.373L54.2898 45.4707V47.0156C54.2898 47.0156 49.6128 48.5838 47.4815 49.6463C47.1622 49.8061 46.885 50.0388 46.6723 50.3256C46.4597 50.6125 46.3176 50.9454 46.2575 51.2973C46.0032 53.1956 45.8592 55.107 45.8261 57.022H68C67.9681 55.107 67.8248 53.1956 67.5708 51.2974Z" fill="#574DE1"/>
<path d="M20.5185 49.6463C18.3872 48.5838 13.7123 47.0156 13.7123 47.0156V45.4708L13.8419 45.373C14.7496 44.6785 15.3564 43.6625 15.5376 42.5341L15.5632 42.3684H15.6907C16.0335 42.3683 16.3685 42.2663 16.6531 42.0752C16.9377 41.8841 17.1589 41.6126 17.2886 41.2952C17.4417 41.0158 17.5221 40.7023 17.5224 40.3836C17.5222 40.1647 17.4811 39.9478 17.4012 39.744C17.3595 39.5216 17.2359 39.3229 17.0549 39.1873L16.6235 38.9259L16.7297 38.4563C17.5096 35.0606 14.8768 31.9986 11.343 31.9157C11.2559 31.9136 11.1709 31.9136 11.088 31.9136C11.003 31.9136 10.918 31.9136 10.833 31.9157C7.29708 31.9986 4.66638 35.0606 5.44409 38.4563L5.55247 38.9259L5.1211 39.1873C4.93866 39.3217 4.81471 39.5209 4.77476 39.744C4.69315 39.9474 4.65131 40.1645 4.6515 40.3836C4.65149 40.7026 4.73266 41.0163 4.88737 41.2952C5.01687 41.6123 5.23777 41.8836 5.52195 42.0747C5.80614 42.2658 6.14075 42.368 6.48321 42.3683H6.61072L6.63621 42.5341C6.81908 43.6624 7.42651 44.6781 8.33404 45.373L8.46367 45.4708V47.0156C8.46367 47.0156 3.78664 48.5838 1.65532 49.6463C1.33601 49.8061 1.05881 50.0388 0.84617 50.3257C0.633529 50.6125 0.491418 50.9454 0.431343 51.2974C0.177061 53.1956 0.0330288 55.107 -3.05176e-05 57.022H22.1739C22.1419 55.1071 21.9986 53.1956 21.7446 51.2974C21.6841 50.9453 21.5416 50.6123 21.3286 50.3255C21.1156 50.0387 20.8381 49.806 20.5185 49.6463Z" fill="#574DE1"/>
<path d="M13.619 25.4565L10.8706 24.7409C12.8692 19.5422 16.6137 15.2005 21.4624 12.46C21.6118 12.3756 21.7431 12.2626 21.8488 12.1275C21.9544 11.9924 22.0324 11.8377 22.0783 11.6724C22.1241 11.5071 22.1369 11.3343 22.1159 11.164C22.0949 10.9938 22.0405 10.8293 21.9559 10.6801C21.8712 10.5309 21.758 10.3998 21.6226 10.2944C21.4873 10.189 21.3325 10.1113 21.1671 10.0658C21.0016 10.0203 20.8289 10.0078 20.6586 10.0292C20.4884 10.0505 20.3241 10.1052 20.175 10.1902C14.7131 13.2789 10.5186 18.1986 8.33243 24.0802L5.58347 23.3645L8.14153 30.0173L13.619 25.4565Z" fill="#574DE1"/>
</svg>
