<svg id="Layer_1" data-name="Layer 1" xmlns="http://www.w3.org/2000/svg" viewBox="0 0 368.64 322.67"><defs><style>.cls-1{fill-rule:evenodd;}</style></defs><path d="M72.45,85.41H420.07a10.48,10.48,0,0,1,7.43,3.08v0a10.45,10.45,0,0,1,3.08,7.4V352.19a10.45,10.45,0,0,1-3.08,7.4v0a10.48,10.48,0,0,1-7.43,3.08H72.45A10.48,10.48,0,0,1,65,359.61v0a10.45,10.45,0,0,1-3.08-7.4V95.91A10.45,10.45,0,0,1,65,88.51v0a10.48,10.48,0,0,1,7.43-3.08ZM419.06,96.93H73.46V351.17h345.6Z" transform="translate(-61.94 -85.41)"/><rect x="5.76" y="227.8" width="357.12" height="11.52"/><path d="M217.19,351.17h62l1.49,3.56,19,45.38,3.33,8H189.57l3.33-8,19-45.38,1.49-3.56Zm54.31,11.52H221l-14.17,33.86h78.82Z" transform="translate(-61.94 -85.41)"/><path d="M358.08,408.07a5.76,5.76,0,0,0,0-11.52H134.44a5.76,5.76,0,0,0,0,11.52Z" transform="translate(-61.94 -85.41)"/><path d="M70.82,310.78a5.74,5.74,0,1,0,3.73,10.85l67.14-23.24L139.82,293l1.89,5.45a5.74,5.74,0,0,0,3.39-3.13l21.47-39.56,32.33,19,2.9-4.95-2.91,5a5.75,5.75,0,0,0,7.09-1l40.18-35.45,28.59,19.44v0a5.76,5.76,0,0,0,8-1.47l36.35-45.13,25.75-11.8,16.56,19.86,4.41-3.66-4.43,3.68a5.76,5.76,0,0,0,8.12.74,6,6,0,0,0,1.2-1.38l25.54-34.49a5.74,5.74,0,0,0-9.22-6.84l-21.48,29L351.16,189a5.76,5.76,0,0,0-7.15-2v0l-30.54,14a5.8,5.8,0,0,0-2.54,1.81l4.48,3.62-4.48-3.6-34.12,42.36-27.45-18.67a5.76,5.76,0,0,0-7.48.12L245.7,231l-3.8-4.3-40.78,36-33.43-19.59a5.87,5.87,0,0,0-.59-.37,5.76,5.76,0,0,0-7.81,2.32h0l-23.47,43.24Z" transform="translate(-61.94 -85.41)"/><path class="cls-1" d="M138.77,302.29a10.52,10.52,0,1,0-10.52-10.52A10.53,10.53,0,0,0,138.77,302.29Z" transform="translate(-61.94 -85.41)"/><path class="cls-1" d="M165.39,259.85a10.53,10.53,0,1,0-10.52-10.53A10.54,10.54,0,0,0,165.39,259.85Z" transform="translate(-61.94 -85.41)"/><path class="cls-1" d="M201.8,280.25a10.53,10.53,0,1,0-10.52-10.53A10.54,10.54,0,0,0,201.8,280.25Z" transform="translate(-61.94 -85.41)"/><circle cx="245.7" cy="230.99" r="10.52" transform="translate(-153.31 155.98) rotate(-45)"/><path class="cls-1" d="M276.86,262.7a10.52,10.52,0,1,0-10.52-10.52A10.54,10.54,0,0,0,276.86,262.7Z" transform="translate(-61.94 -85.41)"/><path class="cls-1" d="M315.42,217a10.53,10.53,0,1,0-10.52-10.52A10.55,10.55,0,0,0,315.42,217Z" transform="translate(-61.94 -85.41)"/><circle cx="346.41" cy="192.25" r="10.52" transform="translate(82.68 447.79) rotate(-88.41)"/><path class="cls-1" d="M365.78,226a10.53,10.53,0,1,0-10.53-10.52A10.55,10.55,0,0,0,365.78,226Z" transform="translate(-61.94 -85.41)"/><path class="cls-1" d="M392.76,187.67a10.53,10.53,0,1,0-10.52-10.52A10.55,10.55,0,0,0,392.76,187.67Z" transform="translate(-61.94 -85.41)"/><path d="M178.79,124.08a52.32,52.32,0,1,1-74,0h0a52.32,52.32,0,0,1,74,0Zm3.81,37a40.67,40.67,0,0,0-11.95-28.86h0a40.81,40.81,0,0,0-57.71,0h0a40.81,40.81,0,1,0,69.66,28.86Z" transform="translate(-61.94 -85.41)"/><polygon points="116.86 46.81 83.93 79.74 81.41 81.21 36.56 93.79 33.46 82.72 76.83 70.55 108.71 38.67 116.86 46.81"/><rect x="140.52" y="160.72" width="11.5" height="46.54" transform="translate(-106.21 -39.05) rotate(-15.67)"/><rect x="180.58" y="39.95" width="56.36" height="11.52"/><rect x="180.58" y="61.9" width="56.36" height="11.52"/><rect x="280.24" y="183.51" width="56.36" height="11.52"/></svg>