<svg width="129" height="43" viewBox="0 0 129 43" fill="none" xmlns="http://www.w3.org/2000/svg">
<path d="M125.069 25.8484L128.627 28.2204C127.472 29.9214 124.71 32.8396 119.935 32.8396C114.005 32.8396 109.589 28.2516 109.589 22.4153C109.589 16.2044 114.052 11.991 119.436 11.991C124.851 11.991 127.504 16.298 128.362 18.6232L128.83 19.8092L114.879 25.5831C115.94 27.6742 117.594 28.7354 119.935 28.7354C122.276 28.7354 123.899 27.5806 125.069 25.8484ZM114.13 22.0876L123.446 18.2175C122.931 16.9222 121.402 16.0015 119.576 16.0015C117.251 16.0015 114.021 18.0614 114.13 22.0876Z" fill="#FF302F"/>
<path d="M102.864 1.36377H107.359V31.8876H102.864V1.36377Z" fill="#20B15A"/>
<path d="M95.779 12.8024H100.117V31.3415C100.117 39.0348 95.5762 42.2027 90.208 42.2027C85.1519 42.2027 82.1088 38.8008 80.9697 36.0386L84.949 34.3845C85.6668 36.0854 87.399 38.0985 90.208 38.0985C93.6567 38.0985 95.779 35.9606 95.779 31.9657V30.4676H95.623C94.593 31.716 92.6268 32.8396 90.1299 32.8396C84.9178 32.8396 80.1426 28.2984 80.1426 22.4465C80.1426 16.5633 84.9178 11.9753 90.1299 11.9753C92.6112 11.9753 94.593 13.0833 95.623 14.3005H95.779V12.8024ZM96.0911 22.4465C96.0911 18.7636 93.6411 16.0795 90.5201 16.0795C87.3678 16.0795 84.7149 18.7636 84.7149 22.4465C84.7149 26.0825 87.3678 28.7198 90.5201 28.7198C93.6411 28.7354 96.0911 26.0825 96.0911 22.4465Z" fill="#3686F7"/>
<path d="M55.4697 22.3684C55.4697 28.3764 50.7881 32.7927 45.0454 32.7927C39.3027 32.7927 34.6211 28.3608 34.6211 22.3684C34.6211 16.3291 39.3027 11.9285 45.0454 11.9285C50.7881 11.9285 55.4697 16.3291 55.4697 22.3684ZM50.913 22.3684C50.913 18.6231 48.1977 16.0483 45.0454 16.0483C41.8931 16.0483 39.1778 18.6231 39.1778 22.3684C39.1778 26.0824 41.8931 28.6885 45.0454 28.6885C48.1977 28.6885 50.913 26.0824 50.913 22.3684Z" fill="#FF302F"/>
<path d="M78.2382 22.4153C78.2382 28.4233 73.5567 32.8396 67.8139 32.8396C62.0712 32.8396 57.3896 28.4233 57.3896 22.4153C57.3896 16.376 62.0712 11.991 67.8139 11.991C73.5567 11.991 78.2382 16.3604 78.2382 22.4153ZM73.6659 22.4153C73.6659 18.67 70.9506 16.0951 67.7983 16.0951C64.6461 16.0951 61.9307 18.67 61.9307 22.4153C61.9307 26.1293 64.6461 28.7354 67.7983 28.7354C70.9662 28.7354 73.6659 26.1137 73.6659 22.4153Z" fill="#FFBA40"/>
<path d="M17.4869 28.2673C10.9483 28.2673 5.82981 22.9928 5.82981 16.4542C5.82981 9.91555 10.9483 4.64098 17.4869 4.64098C21.0137 4.64098 23.5886 6.02985 25.4924 7.80884L28.6291 4.67219C25.9762 2.12853 22.4338 0.193481 17.4869 0.193481C8.52952 0.193481 0.992188 7.49674 0.992188 16.4542C0.992188 25.4116 8.52952 32.7148 17.4869 32.7148C22.3246 32.7148 25.9762 31.1231 28.8319 28.1581C31.7657 25.2243 32.6708 21.1045 32.6708 17.765C32.6708 16.7194 32.546 15.6427 32.4056 14.8468H17.4869V19.1851H28.1141C27.802 21.9004 26.9437 23.7574 25.6797 25.0214C24.1504 26.5664 21.7316 28.2673 17.4869 28.2673Z" fill="#3686F7"/>
</svg>
