<svg width="157" height="157" viewBox="0 0 157 157" fill="none" xmlns="http://www.w3.org/2000/svg">
<path d="M149.503 75.747C139.242 91.1165 117.267 138.722 122.683 156.426H43.9866C43.9866 156.426 32.6247 147.97 21.571 133.217C19.5453 130.531 17.5635 127.668 15.6699 124.586C13.6441 121.327 11.7064 117.848 9.94487 114.193C4.79237 103.535 1.13718 91.1605 1.00506 77.5086C0.4766 30.2113 41.3883 -13.6951 97.053 4.00838C152.718 21.7559 159.808 60.3336 149.503 75.747Z" fill="#EAF9F8"/>
<path d="M126.286 154.722H30.5849V155.787H126.286V154.722Z" fill="#1D0030"/>
<path d="M139.388 53.3376V131.043C139.388 133.963 137.02 136.292 134.139 136.292H96.2142" stroke="#C370FF" stroke-width="0.52685" stroke-miterlimit="10" stroke-dasharray="1.05 1.05"/>
<path d="M21.3897 124.808V53.3376C21.3897 50.4173 23.7576 48.0889 26.6385 48.0889H64.6427" stroke="#C370FF" stroke-width="0.52685" stroke-miterlimit="10" stroke-dasharray="1.05 1.05"/>
<path d="M88.5186 124.531H72.2987L61.8801 151.999H98.8977L88.5186 124.531Z" fill="#C1C9D9"/>
<path d="M100.989 155.748H59.7885L58.0126 151.92H102.765L100.989 155.748Z" fill="#DCE6F2"/>
<path d="M68.8259 133.727L95.8195 143.829L90.847 130.767H69.9309L68.8259 133.727Z" fill="#A5ACBA"/>
<path d="M134.139 133.687H26.6779C25.2177 133.687 24.0338 132.503 24.0338 131.043V53.3376C24.0338 51.8774 25.2177 50.6935 26.6779 50.6935H134.139C135.6 50.6935 136.784 51.8774 136.784 53.3376V131.043C136.784 132.503 135.6 133.687 134.139 133.687Z" fill="#C1C9D9"/>
<path d="M80.3889 55.7055C81.3479 55.7055 82.1254 54.9281 82.1254 53.9691C82.1254 53.0101 81.3479 52.2327 80.3889 52.2327C79.4299 52.2327 78.6525 53.0101 78.6525 53.9691C78.6525 54.9281 79.4299 55.7055 80.3889 55.7055Z" fill="#0A1D45"/>
<path d="M130.437 124.555V57.0311L30.3552 57.0311L30.3552 124.555L130.437 124.555Z" fill="#0A1D45"/>
<path d="M4.65682 139.37C5.13632 139.37 5.52504 138.981 5.52504 138.502C5.52504 138.022 5.13632 137.634 4.65682 137.634C4.17732 137.634 3.7886 138.022 3.7886 138.502C3.7886 138.981 4.17732 139.37 4.65682 139.37Z" fill="#F15A24"/>
<path d="M8.36648 139.37C8.84598 139.37 9.23469 138.981 9.23469 138.502C9.23469 138.022 8.84598 137.634 8.36648 137.634C7.88698 137.634 7.49826 138.022 7.49826 138.502C7.49826 138.981 7.88698 139.37 8.36648 139.37Z" fill="#F15A24"/>
<path d="M12.1156 139.37C12.5951 139.37 12.9838 138.981 12.9838 138.502C12.9838 138.022 12.5951 137.634 12.1156 137.634C11.6361 137.634 11.2474 138.022 11.2474 138.502C11.2474 138.981 11.6361 139.37 12.1156 139.37Z" fill="#F15A24"/>
<path d="M15.8252 139.37C16.3048 139.37 16.6935 138.981 16.6935 138.502C16.6935 138.022 16.3048 137.634 15.8252 137.634C15.3457 137.634 14.957 138.022 14.957 138.502C14.957 138.981 15.3457 139.37 15.8252 139.37Z" fill="#F15A24"/>
<path d="M19.5744 139.37C20.0539 139.37 20.4426 138.981 20.4426 138.502C20.4426 138.022 20.0539 137.634 19.5744 137.634C19.0949 137.634 18.7061 138.022 18.7061 138.502C18.7061 138.981 19.0949 139.37 19.5744 139.37Z" fill="#F15A24"/>
<path d="M23.284 139.37C23.7635 139.37 24.1522 138.981 24.1522 138.502C24.1522 138.022 23.7635 137.634 23.284 137.634C22.8045 137.634 22.4158 138.022 22.4158 138.502C22.4158 138.981 22.8045 139.37 23.284 139.37Z" fill="#F15A24"/>
<path d="M27.0331 139.37C27.5126 139.37 27.9014 138.981 27.9014 138.502C27.9014 138.022 27.5126 137.634 27.0331 137.634C26.5536 137.634 26.1649 138.022 26.1649 138.502C26.1649 138.981 26.5536 139.37 27.0331 139.37Z" fill="#F15A24"/>
<path d="M30.7428 139.37C31.2223 139.37 31.611 138.981 31.611 138.502C31.611 138.022 31.2223 137.634 30.7428 137.634C30.2633 137.634 29.8746 138.022 29.8746 138.502C29.8746 138.981 30.2633 139.37 30.7428 139.37Z" fill="#F15A24"/>
<path d="M76.995 35.7364C77.4745 35.7364 77.8632 35.3477 77.8632 34.8682C77.8632 34.3887 77.4745 34 76.995 34C76.5155 34 76.1268 34.3887 76.1268 34.8682C76.1268 35.3477 76.5155 35.7364 76.995 35.7364Z" fill="#F15A24"/>
<path d="M80.7047 35.7364C81.1842 35.7364 81.5729 35.3477 81.5729 34.8682C81.5729 34.3887 81.1842 34 80.7047 34C80.2252 34 79.8365 34.3887 79.8365 34.8682C79.8365 35.3477 80.2252 35.7364 80.7047 35.7364Z" fill="#F15A24"/>
<path d="M84.4538 35.7364C84.9333 35.7364 85.3221 35.3477 85.3221 34.8682C85.3221 34.3887 84.9333 34 84.4538 34C83.9743 34 83.5856 34.3887 83.5856 34.8682C83.5856 35.3477 83.9743 35.7364 84.4538 35.7364Z" fill="#F15A24"/>
<path d="M88.1635 35.7364C88.643 35.7364 89.0317 35.3477 89.0317 34.8682C89.0317 34.3887 88.643 34 88.1635 34C87.684 34 87.2953 34.3887 87.2953 34.8682C87.2953 35.3477 87.684 35.7364 88.1635 35.7364Z" fill="#F15A24"/>
<path d="M91.9126 35.7364C92.3921 35.7364 92.7808 35.3477 92.7808 34.8682C92.7808 34.3887 92.3921 34 91.9126 34C91.4331 34 91.0444 34.3887 91.0444 34.8682C91.0444 35.3477 91.4331 35.7364 91.9126 35.7364Z" fill="#F15A24"/>
<path d="M95.6222 35.7364C96.1017 35.7364 96.4905 35.3477 96.4905 34.8682C96.4905 34.3887 96.1017 34 95.6222 34C95.1427 34 94.754 34.3887 94.754 34.8682C94.754 35.3477 95.1427 35.7364 95.6222 35.7364Z" fill="#F15A24"/>
<path d="M99.3713 35.7364C99.8509 35.7364 100.24 35.3477 100.24 34.8682C100.24 34.3887 99.8509 34 99.3713 34C98.8918 34 98.5031 34.3887 98.5031 34.8682C98.5031 35.3477 98.8918 35.7364 99.3713 35.7364Z" fill="#F15A24"/>
<path d="M103.081 35.7364C103.561 35.7364 103.949 35.3477 103.949 34.8682C103.949 34.3887 103.561 34 103.081 34C102.601 34 102.213 34.3887 102.213 34.8682C102.213 35.3477 102.601 35.7364 103.081 35.7364Z" fill="#F15A24"/>
<path d="M146.452 124.808C147.716 124.808 148.741 123.783 148.741 122.519C148.741 121.255 147.716 120.23 146.452 120.23C145.188 120.23 144.163 121.255 144.163 122.519C144.163 123.783 145.188 124.808 146.452 124.808Z" fill="#0CBA83"/>
<path d="M14.957 51.2065C16.2212 51.2065 17.246 50.1817 17.246 48.9176C17.246 47.6534 16.2212 46.6287 14.957 46.6287C13.6929 46.6287 12.6681 47.6534 12.6681 48.9176C12.6681 50.1817 13.6929 51.2065 14.957 51.2065Z" fill="#ED1E79"/>
<path d="M49.3305 137.002C50.5946 137.002 51.6194 135.977 51.6194 134.713C51.6194 133.449 50.5946 132.424 49.3305 132.424C48.0663 132.424 47.0415 133.449 47.0415 134.713C47.0415 135.977 48.0663 137.002 49.3305 137.002Z" fill="#29ABE2"/>
<path d="M97.9506 65.1769H38.241C36.7808 65.1769 35.5968 66.3608 35.5968 67.821V69.3996V127.018H100.555V69.3996V67.821C100.595 66.3608 99.4107 65.1769 97.9506 65.1769Z" fill="#A5ACBA"/>
<path d="M97.9506 62.3749C97.9506 60.9148 96.7667 59.7308 95.3065 59.7308H35.6363C34.1761 59.7308 32.9922 60.9148 32.9922 62.3749V63.9535H97.9506V62.3749Z" fill="#0059D6"/>
<path d="M97.9506 63.9535H32.9922V121.571H97.9506V63.9535Z" fill="#E4EBFD"/>
<path d="M93.2938 68.3341H76.0478V71.0177H93.2938V68.3341Z" fill="#BECBEB"/>
<path d="M93.2938 73.1487H76.0479V75.8323H93.2938V73.1487Z" fill="#BECBEB"/>
<path d="M93.2938 77.9634H76.0479V80.647H93.2938V77.9634Z" fill="#BECBEB"/>
<path d="M93.2938 82.7781H76.0479V85.4617H93.2938V82.7781Z" fill="#BECBEB"/>
<path d="M93.2938 87.5927H76.0479V90.2762H93.2938V87.5927Z" fill="#BECBEB"/>
<path d="M94.4382 93.6307H75.4559V119.717H94.4382V93.6307Z" stroke="#0068FA" stroke-width="0.263425" stroke-miterlimit="10" stroke-dasharray="1.05 1.05"/>
<path d="M93.0965 94.9725H76.7977V118.375H93.0965V94.9725Z" fill="white"/>
<path d="M91.3996 96.3538H78.4552V116.994H91.3996V96.3538Z" fill="#2FCBE0"/>
<path d="M84.1381 99.0768H85.4404L88.124 114.231H86.9006L86.3876 111.153H83.3488L82.8752 114.231H81.6518L84.1381 99.0768ZM86.2297 110.087L84.8485 101.524L83.5856 110.087H86.2297Z" fill="black"/>
<path d="M72.1409 93.3939H36.3072V96.0775H72.1409V93.3939Z" fill="#BECBEB"/>
<path d="M72.1409 98.6821H36.3072V101.366H72.1409V98.6821Z" fill="#BECBEB"/>
<path d="M57.7363 103.97H36.3072V106.654H57.7363V103.97Z" fill="#BECBEB"/>
<path d="M53.2374 109.259H36.3072V111.942H53.2374V109.259Z" fill="#BECBEB"/>
<path d="M62.7878 114.547H58.3678V117.23H62.7878V114.547Z" fill="#ED1E79"/>
<path d="M56.434 114.547H36.3072V117.23H56.434V114.547Z" fill="#BECBEB"/>
<path d="M68.1155 103.97H59.4333V106.654H68.1155V103.97Z" fill="#FBB03B"/>
<path d="M72.1408 109.259H55.8026V111.942H72.1408V109.259Z" fill="#BECBEB"/>
<path d="M72.1803 114.547H65.274V117.23H72.1803V114.547Z" fill="#BECBEB"/>
<path d="M69.6941 70.5441H38.7935V88.5793H69.6941V70.5441Z" fill="#0A1D45"/>
<path d="M57.3418 77.3319L53.8294 84.7512L48.3833 73.1487L41.0824 88.5793H55.6448V88.5398H62.6694L57.3418 77.3319Z" fill="#133785"/>
<path d="M64.6821 77.9634C66.186 77.9634 67.4052 76.7443 67.4052 75.2404C67.4052 73.7365 66.186 72.5173 64.6821 72.5173C63.1782 72.5173 61.9591 73.7365 61.9591 75.2404C61.9591 76.7443 63.1782 77.9634 64.6821 77.9634Z" fill="#FBB03B"/>
<path d="M72.1409 68.3341H36.3072V90.7499H72.1409V68.3341Z" stroke="#0068FA" stroke-width="0.263425" stroke-miterlimit="10" stroke-dasharray="1.05 1.05"/>
<path d="M72.7723 67.7421H71.5489V68.9655H72.7723V67.7421Z" fill="#0A1D45"/>
<path d="M36.9386 67.7421H35.7152V68.9655H36.9386V67.7421Z" fill="#0A1D45"/>
<path d="M72.7723 90.1578H71.5489V91.3812H72.7723V90.1578Z" fill="#0A1D45"/>
<path d="M36.9386 90.1578H35.7152V91.3812H36.9386V90.1578Z" fill="#0A1D45"/>
<path d="M126.01 61.8619H102.41V85.4616H126.01V61.8619Z" stroke="#0068FA" stroke-width="0.263425" stroke-miterlimit="10" stroke-dasharray="1.05 1.05"/>
<path d="M123.918 63.9535H104.502V83.37H123.918V63.9535Z" fill="#103173"/>
<path d="M114.21 79.5814C117.479 79.5814 120.13 76.9311 120.13 73.6617C120.13 70.3924 117.479 67.7421 114.21 67.7421C110.941 67.7421 108.29 70.3924 108.29 73.6617C108.29 76.9311 110.941 79.5814 114.21 79.5814Z" fill="#0A1D45"/>
<path d="M112.908 69.9916V77.3319L117.604 73.6618L112.908 69.9916Z" fill="#ED1E79"/>
<path d="M92.7807 50.6935C93.0964 53.4955 95.4643 55.7055 98.3847 55.7055H127.509C130.39 55.7055 132.798 53.5349 133.113 50.6935H92.7807Z" fill="#A5ACBA"/>
<path d="M125.655 53.9691H96.5299C93.4122 53.9691 90.8865 51.4433 90.8865 48.3257C90.8865 45.208 93.4122 42.6823 96.5299 42.6823H125.655C128.772 42.6823 131.298 45.208 131.298 48.3257C131.298 51.4433 128.772 53.9691 125.655 53.9691Z" fill="#DCE6F2"/>
<path d="M125.181 51.9169H96.8851C94.9118 51.9169 93.2938 50.2988 93.2938 48.3256C93.2938 46.3524 94.9118 44.7344 96.8851 44.7344H125.181C127.154 44.7344 128.772 46.3524 128.772 48.3256C128.772 50.2988 127.154 51.9169 125.181 51.9169Z" fill="#BECBEB"/>
<path d="M100.003 49.7068L98.7793 48.5623C98.8977 48.3255 98.9766 48.0493 98.9766 47.8125C98.9766 46.9443 98.2663 46.1945 97.3586 46.1945C96.4904 46.1945 95.7405 46.9048 95.7405 47.8125C95.7405 48.6807 96.4509 49.4305 97.3586 49.4305C97.6743 49.4305 97.9506 49.3516 98.2268 49.1543L99.4502 50.2988C99.5291 50.3777 99.6081 50.4171 99.7265 50.4171C99.8448 50.4171 99.9632 50.3777 100.003 50.2988C100.082 50.2198 100.121 50.1014 100.121 50.0225C100.161 49.9041 100.082 49.7857 100.003 49.7068ZM98.3452 47.8125C98.3452 48.3255 97.9111 48.7596 97.3981 48.7596C96.885 48.7596 96.4509 48.3255 96.4509 47.8125C96.4509 47.2995 96.885 46.8654 97.3981 46.8654C97.9111 46.8654 98.3452 47.2995 98.3452 47.8125Z" fill="#E4EBFD"/>
<path d="M136.784 98.6821H109.04C108.448 98.6821 107.975 99.1557 107.975 99.7477V116.204C107.975 116.796 108.448 117.27 109.04 117.27H136.784V98.6821Z" fill="#A5ACBA"/>
<path d="M144.282 114.073V114.586H143.769" stroke="#0068FA" stroke-width="0.263425" stroke-miterlimit="10"/>
<path d="M142.703 114.586H103.712" stroke="#0068FA" stroke-width="0.263425" stroke-miterlimit="10" stroke-dasharray="1.04 1.04"/>
<path d="M103.199 114.586H102.647V114.073" stroke="#0068FA" stroke-width="0.263425" stroke-miterlimit="10"/>
<path d="M102.647 113.047V93.3545" stroke="#0068FA" stroke-width="0.263425" stroke-miterlimit="10" stroke-dasharray="1.01 1.01"/>
<path d="M102.647 92.8415V92.3285H103.199" stroke="#0068FA" stroke-width="0.263425" stroke-miterlimit="10"/>
<path d="M104.225 92.3285H143.216" stroke="#0068FA" stroke-width="0.263425" stroke-miterlimit="10" stroke-dasharray="1.04 1.04"/>
<path d="M143.769 92.3285H144.282V92.8415" stroke="#0068FA" stroke-width="0.263425" stroke-miterlimit="10"/>
<path d="M144.282 93.8676V113.56" stroke="#0068FA" stroke-width="0.263425" stroke-miterlimit="10" stroke-dasharray="1.01 1.01"/>
<path d="M144.874 91.697H143.65V92.9204H144.874V91.697Z" fill="#DCE6F2"/>
<path d="M103.278 91.697H102.055V92.9204H103.278V91.697Z" fill="#DCE6F2"/>
<path d="M144.874 113.955H143.65V115.178H144.874V113.955Z" fill="#DCE6F2"/>
<path d="M103.278 113.955H102.055V115.178H103.278V113.955Z" fill="#DCE6F2"/>
<path d="M141.401 112.732H105.567C104.975 112.732 104.502 112.258 104.502 111.666V95.2093C104.502 94.6174 104.975 94.1438 105.567 94.1438H141.401C141.993 94.1438 142.466 94.6174 142.466 95.2093V111.666C142.427 112.258 141.953 112.732 141.401 112.732Z" fill="#DCE6F2"/>
<path d="M130.311 96.9852H118.59V99.2742H130.311V96.9852Z" fill="#BECBEB"/>
<path d="M133.547 100.774H118.59V103.063H133.547V100.774Z" fill="#BECBEB"/>
<path d="M141.204 100.774H134.85V103.063H141.204V100.774Z" fill="#E43438"/>
<path d="M131.186 99.2748H134.461V96.9859H131.186V99.2748Z" fill="#BECBEB"/>
<path d="M135.27 99.2748H140.361V96.9859H135.27V99.2748Z" fill="#BECBEB"/>
<path d="M130.311 104.523H118.59V106.812H130.311V104.523Z" fill="#BECBEB"/>
<path d="M141.164 108.311H118.59V110.6H141.164V108.311Z" fill="#BECBEB"/>
<path d="M131.186 106.835H134.461V104.546H131.186V106.835Z" fill="#ED1E79"/>
<path d="M135.27 106.835H140.361V104.546H135.27V106.835Z" fill="#BECBEB"/>
<path d="M111.566 97.4193C109.474 97.4193 107.817 99.1163 107.817 101.168V102.352H109.001V101.05C109.001 99.6293 110.145 98.4849 111.566 98.4849C112.986 98.4849 114.131 99.6293 114.131 101.05V102.352H115.315V101.168C115.354 99.1163 113.657 97.4193 111.566 97.4193Z" fill="#0A1D45"/>
<path d="M115.315 102.352H107.856C107.58 102.352 107.343 102.589 107.343 102.865V108.982C107.343 109.259 107.58 109.495 107.856 109.495H115.315C115.591 109.495 115.828 109.259 115.828 108.982V102.865C115.828 102.589 115.591 102.352 115.315 102.352ZM112.158 107.246H111.013L111.171 105.983C110.974 105.865 110.816 105.588 110.816 105.352C110.816 104.917 111.171 104.562 111.605 104.562C112.039 104.562 112.395 104.917 112.395 105.352C112.395 105.628 112.237 105.865 112.039 105.983L112.158 107.246Z" fill="#FBBF62"/>
<path d="M112 122.282C105.409 122.282 100.082 125.794 100.082 130.096C100.082 133.49 103.397 136.371 107.975 137.436V142.645L112.75 137.87C118.985 137.634 123.918 134.24 123.918 130.096C123.918 125.755 118.59 122.282 112 122.282ZM106.751 131.714C105.843 131.714 105.094 130.964 105.094 130.056C105.094 129.149 105.843 128.399 106.751 128.399C107.659 128.399 108.409 129.149 108.409 130.056C108.409 130.964 107.659 131.714 106.751 131.714ZM112 131.714C111.092 131.714 110.342 130.964 110.342 130.056C110.342 129.149 111.092 128.399 112 128.399C112.908 128.399 113.657 129.149 113.657 130.056C113.657 130.964 112.908 131.714 112 131.714ZM117.209 131.714C116.302 131.714 115.552 130.964 115.552 130.056C115.552 129.149 116.302 128.399 117.209 128.399C118.117 128.399 118.867 129.149 118.867 130.056C118.867 130.964 118.117 131.714 117.209 131.714Z" fill="#E43438"/>
<path d="M66.8526 40.8668V38.7752L65.5108 38.499C65.4714 38.42 65.4319 38.3017 65.3924 38.2227L66.1423 37.0783L64.6821 35.6181L63.5376 36.3679C63.4587 36.3284 63.3403 36.289 63.2614 36.2495L62.9851 34.9077H60.8935L60.6173 36.2495C60.5383 36.289 60.4199 36.3284 60.341 36.3679L59.1965 35.6181L57.7364 37.0783L58.4862 38.2227C58.4467 38.3017 58.4073 38.42 58.3678 38.499L57.026 38.7752V40.8668L58.3678 41.1431C58.4073 41.222 58.4467 41.3404 58.4862 41.4193L57.7364 42.5638L59.1965 44.024L60.341 43.2742C60.4199 43.3136 60.5383 43.3531 60.6173 43.3926L60.8935 44.7343H62.9851L63.2614 43.3926C63.3403 43.3531 63.4587 43.3136 63.5376 43.2742L64.6821 44.024L66.1423 42.5638L65.3924 41.4193C65.4319 41.3404 65.4714 41.222 65.5108 41.1431L66.8526 40.8668ZM61.959 41.7351C60.8935 41.7351 60.0253 40.8668 60.0253 39.8013C60.0253 38.7358 60.8935 37.8675 61.959 37.8675C63.0246 37.8675 63.8928 38.7358 63.8928 39.8013C63.8928 40.8668 63.0246 41.7351 61.959 41.7351Z" fill="#0059D6"/>
<path d="M38.6356 50.6935L41.4376 53.4955L43.6476 52.0353C43.8449 52.1142 44.0028 52.1931 44.2001 52.2721L44.7131 54.8767H48.7779L49.291 52.2721C49.4883 52.1931 49.6856 52.1142 49.8435 52.0353L52.0535 53.4955L54.8555 50.6935H38.6356Z" fill="#A5ACBA"/>
<path d="M54.4214 45.7605V41.6957L51.8167 41.1826C51.7378 40.9853 51.6589 40.788 51.5799 40.6301L53.0401 38.4201L50.1592 35.5392L47.9492 36.9994C47.7519 36.9205 47.594 36.8415 47.3967 36.7626L46.8837 34.158H42.8189L42.3058 36.7626C42.1085 36.8415 41.9112 36.9205 41.7533 36.9994L39.5433 35.5392L36.6624 38.4201L38.1226 40.6301C38.0437 40.8274 37.9647 40.9853 37.8858 41.1826L35.2812 41.6957V45.7605L37.8858 46.2735C37.9647 46.4708 38.0437 46.6682 38.1226 46.826L36.6624 49.036L39.5433 51.9169L41.7533 50.4567C41.9506 50.5357 42.1085 50.6146 42.3058 50.6935L42.8189 53.2982H46.8837L47.3967 50.6935C47.594 50.6146 47.7914 50.5357 47.9492 50.4567L50.1592 51.9169L53.0401 49.036L51.5799 46.826C51.6589 46.6287 51.7378 46.4708 51.8167 46.2735L54.4214 45.7605ZM44.8315 47.5364C42.7399 47.5364 41.043 45.8394 41.043 43.7478C41.043 41.6562 42.7399 39.9592 44.8315 39.9592C46.9232 39.9592 48.6201 41.6562 48.6201 43.7478C48.6201 45.8 46.9232 47.5364 44.8315 47.5364Z" fill="#0CBA83"/>
<path d="M144.913 82.6991C151.147 82.6991 156.2 77.6458 156.2 71.4123C156.2 65.1788 151.147 60.1255 144.913 60.1255C138.68 60.1255 133.626 65.1788 133.626 71.4123C133.626 77.6458 138.68 82.6991 144.913 82.6991Z" fill="#E4EBFD"/>
<path d="M146.847 62.6118V69.1234L144.874 70.1495L142.901 69.1234V62.6118C140.572 63.4406 138.875 65.6506 138.875 68.2552C138.875 70.8204 140.454 72.9909 142.703 73.8592V80.9233C143.374 81.0811 144.124 81.1601 144.834 81.1601C145.584 81.1601 146.294 81.0811 146.965 80.9233V73.8592C149.215 72.9909 150.793 70.8204 150.793 68.2552C150.872 65.6506 149.215 63.4406 146.847 62.6118Z" fill="#0059D6"/>
<path d="M40.451 104.01H24.1127V122.479H40.451C41.0429 122.479 41.5165 122.164 41.5165 121.769V104.72C41.477 104.326 41.0035 104.01 40.451 104.01Z" fill="#A5ACBA"/>
<path d="M38.3594 119.717H1.97321C1.49964 119.717 1.105 119.322 1.105 118.848V102.589C1.105 102.116 1.49964 101.721 1.97321 101.721H38.3594C38.8329 101.721 39.2276 102.116 39.2276 102.589V118.848C39.2276 119.322 38.8329 119.717 38.3594 119.717Z" fill="#DCE6F2"/>
<path d="M19.6094 116.996H36.1449V114.667H19.6094V116.996Z" fill="#BECBEB"/>
<path d="M19.6094 113.485H36.1449V111.157H19.6094V113.485Z" fill="#BECBEB"/>
<path d="M19.5949 109.974H29.6978V107.646H19.5949V109.974Z" fill="#BECBEB"/>
<path d="M31.4932 109.974H36.15V107.646H31.4932V109.974Z" fill="#0CBA83"/>
<path d="M19.6094 106.464H36.1449V104.135H19.6094V106.464Z" fill="#BECBEB"/>
<path d="M17.2459 103.97H4.1832V117.033H17.2459V103.97Z" fill="#0059D6"/>
<path d="M6.47211 110.64V110.008L9.03729 108.864V109.535L7.10354 110.324L9.03729 111.113V111.784L6.47211 110.64Z" fill="white"/>
<path d="M11.2473 108.075H12.1155L10.2212 112.613H9.35301L11.2473 108.075Z" fill="white"/>
<path d="M12.3918 111.113L14.3255 110.324L12.3918 109.535V108.864L14.957 110.008V110.64L12.3918 111.784V111.113Z" fill="white"/>
<path d="M29.5588 75.556H24.0338V90.6314H29.5588V75.556Z" fill="#A5ACBA"/>
<path d="M27.3883 72.4778H0V87.5532H27.3883V72.4778Z" fill="#FBB03B"/>
<path d="M13.6941 87.5532H27.3883L13.6941 78.1212L0 87.5532H13.6941Z" fill="#FBBF62"/>
<path d="M13.6941 72.4778H0L13.6941 81.9098L27.3883 72.4778H13.6941Z" fill="#FF9129"/>
</svg>
