<svg width="157" height="122" viewBox="0 0 157 122" fill="none" xmlns="http://www.w3.org/2000/svg">
<path d="M126.286 120.722H30.5849V121.787H126.286V120.722Z" fill="#1D0030"/>
<path d="M139.388 19.3376V97.043C139.388 99.9634 137.02 102.292 134.139 102.292H96.2142" stroke="#C370FF" stroke-width="0.52685" stroke-miterlimit="10" stroke-dasharray="1.05 1.05"/>
<path d="M21.3897 90.8076V19.3376C21.3897 16.4173 23.7576 14.0889 26.6385 14.0889H64.6427" stroke="#C370FF" stroke-width="0.52685" stroke-miterlimit="10" stroke-dasharray="1.05 1.05"/>
<path d="M88.5186 90.5314H72.2987L61.8801 117.999H98.8977L88.5186 90.5314Z" fill="#C1C9D9"/>
<path d="M100.989 121.748H59.7885L58.0126 117.92H102.765L100.989 121.748Z" fill="#DCE6F2"/>
<path d="M68.8259 99.7266L95.8195 109.829L90.847 96.7667H69.9309L68.8259 99.7266Z" fill="#A5ACBA"/>
<path d="M134.139 99.6871H26.6779C25.2177 99.6871 24.0338 98.5031 24.0338 97.043V19.3376C24.0338 17.8774 25.2177 16.6935 26.6779 16.6935H134.139C135.6 16.6935 136.784 17.8774 136.784 19.3376V97.043C136.784 98.5031 135.6 99.6871 134.139 99.6871Z" fill="#C1C9D9"/>
<path d="M80.3889 21.7055C81.3479 21.7055 82.1254 20.9281 82.1254 19.9691C82.1254 19.0101 81.3479 18.2327 80.3889 18.2327C79.4299 18.2327 78.6525 19.0101 78.6525 19.9691C78.6525 20.9281 79.4299 21.7055 80.3889 21.7055Z" fill="#0A1D45"/>
<path d="M130.437 90.5547V23.0311L30.3552 23.0311L30.3552 90.5547L130.437 90.5547Z" fill="#0A1D45"/>
<path d="M4.65682 105.37C5.13632 105.37 5.52504 104.981 5.52504 104.502C5.52504 104.022 5.13632 103.634 4.65682 103.634C4.17732 103.634 3.7886 104.022 3.7886 104.502C3.7886 104.981 4.17732 105.37 4.65682 105.37Z" fill="#F15A24"/>
<path d="M8.36648 105.37C8.84598 105.37 9.23469 104.981 9.23469 104.502C9.23469 104.022 8.84598 103.634 8.36648 103.634C7.88698 103.634 7.49826 104.022 7.49826 104.502C7.49826 104.981 7.88698 105.37 8.36648 105.37Z" fill="#F15A24"/>
<path d="M12.1156 105.37C12.5951 105.37 12.9838 104.981 12.9838 104.502C12.9838 104.022 12.5951 103.634 12.1156 103.634C11.6361 103.634 11.2474 104.022 11.2474 104.502C11.2474 104.981 11.6361 105.37 12.1156 105.37Z" fill="#F15A24"/>
<path d="M15.8252 105.37C16.3048 105.37 16.6935 104.981 16.6935 104.502C16.6935 104.022 16.3048 103.634 15.8252 103.634C15.3457 103.634 14.957 104.022 14.957 104.502C14.957 104.981 15.3457 105.37 15.8252 105.37Z" fill="#F15A24"/>
<path d="M19.5744 105.37C20.0539 105.37 20.4426 104.981 20.4426 104.502C20.4426 104.022 20.0539 103.634 19.5744 103.634C19.0949 103.634 18.7061 104.022 18.7061 104.502C18.7061 104.981 19.0949 105.37 19.5744 105.37Z" fill="#F15A24"/>
<path d="M23.284 105.37C23.7635 105.37 24.1522 104.981 24.1522 104.502C24.1522 104.022 23.7635 103.634 23.284 103.634C22.8045 103.634 22.4158 104.022 22.4158 104.502C22.4158 104.981 22.8045 105.37 23.284 105.37Z" fill="#F15A24"/>
<path d="M27.0331 105.37C27.5126 105.37 27.9014 104.981 27.9014 104.502C27.9014 104.022 27.5126 103.634 27.0331 103.634C26.5536 103.634 26.1649 104.022 26.1649 104.502C26.1649 104.981 26.5536 105.37 27.0331 105.37Z" fill="#F15A24"/>
<path d="M30.7428 105.37C31.2223 105.37 31.611 104.981 31.611 104.502C31.611 104.022 31.2223 103.634 30.7428 103.634C30.2633 103.634 29.8746 104.022 29.8746 104.502C29.8746 104.981 30.2633 105.37 30.7428 105.37Z" fill="#F15A24"/>
<path d="M76.995 1.73643C77.4745 1.73643 77.8632 1.34772 77.8632 0.868218C77.8632 0.388716 77.4745 0 76.995 0C76.5155 0 76.1268 0.388716 76.1268 0.868218C76.1268 1.34772 76.5155 1.73643 76.995 1.73643Z" fill="#F15A24"/>
<path d="M80.7047 1.73643C81.1842 1.73643 81.5729 1.34772 81.5729 0.868218C81.5729 0.388716 81.1842 0 80.7047 0C80.2252 0 79.8365 0.388716 79.8365 0.868218C79.8365 1.34772 80.2252 1.73643 80.7047 1.73643Z" fill="#F15A24"/>
<path d="M84.4538 1.73643C84.9333 1.73643 85.3221 1.34772 85.3221 0.868218C85.3221 0.388716 84.9333 0 84.4538 0C83.9743 0 83.5856 0.388716 83.5856 0.868218C83.5856 1.34772 83.9743 1.73643 84.4538 1.73643Z" fill="#F15A24"/>
<path d="M88.1635 1.73643C88.643 1.73643 89.0317 1.34772 89.0317 0.868218C89.0317 0.388716 88.643 0 88.1635 0C87.684 0 87.2953 0.388716 87.2953 0.868218C87.2953 1.34772 87.684 1.73643 88.1635 1.73643Z" fill="#F15A24"/>
<path d="M91.9126 1.73643C92.3921 1.73643 92.7808 1.34772 92.7808 0.868218C92.7808 0.388716 92.3921 0 91.9126 0C91.4331 0 91.0444 0.388716 91.0444 0.868218C91.0444 1.34772 91.4331 1.73643 91.9126 1.73643Z" fill="#F15A24"/>
<path d="M95.6222 1.73643C96.1017 1.73643 96.4905 1.34772 96.4905 0.868218C96.4905 0.388716 96.1017 0 95.6222 0C95.1427 0 94.754 0.388716 94.754 0.868218C94.754 1.34772 95.1427 1.73643 95.6222 1.73643Z" fill="#F15A24"/>
<path d="M99.3713 1.73643C99.8509 1.73643 100.24 1.34772 100.24 0.868218C100.24 0.388716 99.8509 0 99.3713 0C98.8918 0 98.5031 0.388716 98.5031 0.868218C98.5031 1.34772 98.8918 1.73643 99.3713 1.73643Z" fill="#F15A24"/>
<path d="M103.081 1.73643C103.561 1.73643 103.949 1.34772 103.949 0.868218C103.949 0.388716 103.561 0 103.081 0C102.601 0 102.213 0.388716 102.213 0.868218C102.213 1.34772 102.601 1.73643 103.081 1.73643Z" fill="#F15A24"/>
<path d="M146.452 90.8076C147.716 90.8076 148.741 89.7828 148.741 88.5187C148.741 87.2545 147.716 86.2297 146.452 86.2297C145.188 86.2297 144.163 87.2545 144.163 88.5187C144.163 89.7828 145.188 90.8076 146.452 90.8076Z" fill="#0CBA83"/>
<path d="M14.957 17.2065C16.2212 17.2065 17.246 16.1817 17.246 14.9176C17.246 13.6534 16.2212 12.6287 14.957 12.6287C13.6929 12.6287 12.6681 13.6534 12.6681 14.9176C12.6681 16.1817 13.6929 17.2065 14.957 17.2065Z" fill="#ED1E79"/>
<path d="M49.3305 103.002C50.5946 103.002 51.6194 101.977 51.6194 100.713C51.6194 99.449 50.5946 98.4242 49.3305 98.4242C48.0663 98.4242 47.0415 99.449 47.0415 100.713C47.0415 101.977 48.0663 103.002 49.3305 103.002Z" fill="#29ABE2"/>
<path d="M97.9506 31.1769H38.241C36.7808 31.1769 35.5968 32.3608 35.5968 33.821V35.3996V93.0176H100.555V35.3996V33.821C100.595 32.3608 99.4107 31.1769 97.9506 31.1769Z" fill="#A5ACBA"/>
<path d="M97.9506 28.3749C97.9506 26.9148 96.7667 25.7308 95.3065 25.7308H35.6363C34.1761 25.7308 32.9922 26.9148 32.9922 28.3749V29.9535H97.9506V28.3749Z" fill="#0059D6"/>
<path d="M97.9506 29.9535H32.9922V87.5715H97.9506V29.9535Z" fill="#E4EBFD"/>
<path d="M93.2938 34.3341H76.0478V37.0177H93.2938V34.3341Z" fill="#BECBEB"/>
<path d="M93.2938 39.1487H76.0479V41.8323H93.2938V39.1487Z" fill="#BECBEB"/>
<path d="M93.2938 43.9634H76.0479V46.647H93.2938V43.9634Z" fill="#BECBEB"/>
<path d="M93.2938 48.7781H76.0479V51.4617H93.2938V48.7781Z" fill="#BECBEB"/>
<path d="M93.2938 53.5927H76.0479V56.2762H93.2938V53.5927Z" fill="#BECBEB"/>
<path d="M94.4382 59.6307H75.4559V85.7167H94.4382V59.6307Z" stroke="#0068FA" stroke-width="0.263425" stroke-miterlimit="10" stroke-dasharray="1.05 1.05"/>
<path d="M93.0965 60.9725H76.7977V84.3749H93.0965V60.9725Z" fill="white"/>
<path d="M91.3996 62.3538H78.4552V82.9936H91.3996V62.3538Z" fill="#2FCBE0"/>
<path d="M84.1381 65.0768H85.4404L88.124 80.2311H86.9006L86.3876 77.1529H83.3488L82.8752 80.2311H81.6518L84.1381 65.0768ZM86.2297 76.0873L84.8485 67.5236L83.5856 76.0873H86.2297Z" fill="black"/>
<path d="M72.1409 59.3939H36.3072V62.0775H72.1409V59.3939Z" fill="#BECBEB"/>
<path d="M72.1409 64.6821H36.3072V67.3657H72.1409V64.6821Z" fill="#BECBEB"/>
<path d="M57.7363 69.9703H36.3072V72.6539H57.7363V69.9703Z" fill="#BECBEB"/>
<path d="M53.2374 75.2587H36.3072V77.9423H53.2374V75.2587Z" fill="#BECBEB"/>
<path d="M62.7878 80.5469H58.3678V83.2304H62.7878V80.5469Z" fill="#ED1E79"/>
<path d="M56.434 80.5469H36.3072V83.2304H56.434V80.5469Z" fill="#BECBEB"/>
<path d="M68.1155 69.9703H59.4333V72.6539H68.1155V69.9703Z" fill="#FBB03B"/>
<path d="M72.1408 75.2587H55.8026V77.9423H72.1408V75.2587Z" fill="#BECBEB"/>
<path d="M72.1803 80.5469H65.274V83.2304H72.1803V80.5469Z" fill="#BECBEB"/>
<path d="M69.6941 36.5441H38.7935V54.5793H69.6941V36.5441Z" fill="#0A1D45"/>
<path d="M57.3418 43.3319L53.8294 50.7512L48.3833 39.1487L41.0824 54.5793H55.6448V54.5398H62.6694L57.3418 43.3319Z" fill="#133785"/>
<path d="M64.6821 43.9634C66.186 43.9634 67.4052 42.7443 67.4052 41.2404C67.4052 39.7365 66.186 38.5173 64.6821 38.5173C63.1782 38.5173 61.9591 39.7365 61.9591 41.2404C61.9591 42.7443 63.1782 43.9634 64.6821 43.9634Z" fill="#FBB03B"/>
<path d="M72.1409 34.3341H36.3072V56.7499H72.1409V34.3341Z" stroke="#0068FA" stroke-width="0.263425" stroke-miterlimit="10" stroke-dasharray="1.05 1.05"/>
<path d="M72.7723 33.7421H71.5489V34.9655H72.7723V33.7421Z" fill="#0A1D45"/>
<path d="M36.9386 33.7421H35.7152V34.9655H36.9386V33.7421Z" fill="#0A1D45"/>
<path d="M72.7723 56.1578H71.5489V57.3812H72.7723V56.1578Z" fill="#0A1D45"/>
<path d="M36.9386 56.1578H35.7152V57.3812H36.9386V56.1578Z" fill="#0A1D45"/>
<path d="M126.01 27.8619H102.41V51.4616H126.01V27.8619Z" stroke="#0068FA" stroke-width="0.263425" stroke-miterlimit="10" stroke-dasharray="1.05 1.05"/>
<path d="M123.918 29.9535H104.502V49.37H123.918V29.9535Z" fill="#103173"/>
<path d="M114.21 45.5814C117.479 45.5814 120.13 42.9311 120.13 39.6617C120.13 36.3924 117.479 33.7421 114.21 33.7421C110.941 33.7421 108.29 36.3924 108.29 39.6617C108.29 42.9311 110.941 45.5814 114.21 45.5814Z" fill="#0A1D45"/>
<path d="M112.908 35.9916V43.3319L117.604 39.6618L112.908 35.9916Z" fill="#ED1E79"/>
<path d="M92.7807 16.6935C93.0964 19.4955 95.4643 21.7055 98.3847 21.7055H127.509C130.39 21.7055 132.798 19.5349 133.113 16.6935H92.7807Z" fill="#A5ACBA"/>
<path d="M125.655 19.9691H96.5299C93.4122 19.9691 90.8865 17.4433 90.8865 14.3257C90.8865 11.208 93.4122 8.68225 96.5299 8.68225H125.655C128.772 8.68225 131.298 11.208 131.298 14.3257C131.298 17.4433 128.772 19.9691 125.655 19.9691Z" fill="#DCE6F2"/>
<path d="M125.181 17.9169H96.8851C94.9118 17.9169 93.2938 16.2988 93.2938 14.3256C93.2938 12.3524 94.9118 10.7344 96.8851 10.7344H125.181C127.154 10.7344 128.772 12.3524 128.772 14.3256C128.772 16.2988 127.154 17.9169 125.181 17.9169Z" fill="#BECBEB"/>
<path d="M100.003 15.7068L98.7793 14.5623C98.8977 14.3255 98.9766 14.0493 98.9766 13.8125C98.9766 12.9443 98.2663 12.1945 97.3586 12.1945C96.4904 12.1945 95.7405 12.9048 95.7405 13.8125C95.7405 14.6807 96.4509 15.4305 97.3586 15.4305C97.6743 15.4305 97.9506 15.3516 98.2268 15.1543L99.4502 16.2988C99.5291 16.3777 99.6081 16.4171 99.7265 16.4171C99.8448 16.4171 99.9632 16.3777 100.003 16.2988C100.082 16.2198 100.121 16.1014 100.121 16.0225C100.161 15.9041 100.082 15.7857 100.003 15.7068ZM98.3452 13.8125C98.3452 14.3255 97.9111 14.7596 97.3981 14.7596C96.885 14.7596 96.4509 14.3255 96.4509 13.8125C96.4509 13.2995 96.885 12.8654 97.3981 12.8654C97.9111 12.8654 98.3452 13.2995 98.3452 13.8125Z" fill="#E4EBFD"/>
<path d="M136.784 64.6821H109.04C108.448 64.6821 107.975 65.1557 107.975 65.7477V82.2043C107.975 82.7963 108.448 83.2699 109.04 83.2699H136.784V64.6821Z" fill="#A5ACBA"/>
<path d="M144.282 80.0732V80.5863H143.769" stroke="#0068FA" stroke-width="0.263425" stroke-miterlimit="10"/>
<path d="M142.703 80.5863H103.712" stroke="#0068FA" stroke-width="0.263425" stroke-miterlimit="10" stroke-dasharray="1.04 1.04"/>
<path d="M103.199 80.5863H102.647V80.0732" stroke="#0068FA" stroke-width="0.263425" stroke-miterlimit="10"/>
<path d="M102.647 79.0472V59.3545" stroke="#0068FA" stroke-width="0.263425" stroke-miterlimit="10" stroke-dasharray="1.01 1.01"/>
<path d="M102.647 58.8415V58.3285H103.199" stroke="#0068FA" stroke-width="0.263425" stroke-miterlimit="10"/>
<path d="M104.225 58.3285H143.216" stroke="#0068FA" stroke-width="0.263425" stroke-miterlimit="10" stroke-dasharray="1.04 1.04"/>
<path d="M143.769 58.3285H144.282V58.8415" stroke="#0068FA" stroke-width="0.263425" stroke-miterlimit="10"/>
<path d="M144.282 59.8676V79.5603" stroke="#0068FA" stroke-width="0.263425" stroke-miterlimit="10" stroke-dasharray="1.01 1.01"/>
<path d="M144.874 57.697H143.65V58.9204H144.874V57.697Z" fill="#DCE6F2"/>
<path d="M103.278 57.697H102.055V58.9204H103.278V57.697Z" fill="#DCE6F2"/>
<path d="M144.874 79.955H143.65V81.1783H144.874V79.955Z" fill="#DCE6F2"/>
<path d="M103.278 79.955H102.055V81.1783H103.278V79.955Z" fill="#DCE6F2"/>
<path d="M141.401 78.7315H105.567C104.975 78.7315 104.502 78.2579 104.502 77.666V61.2093C104.502 60.6174 104.975 60.1438 105.567 60.1438H141.401C141.993 60.1438 142.466 60.6174 142.466 61.2093V77.666C142.427 78.2579 141.953 78.7315 141.401 78.7315Z" fill="#DCE6F2"/>
<path d="M130.311 62.9852H118.59V65.2742H130.311V62.9852Z" fill="#BECBEB"/>
<path d="M133.547 66.7738H118.59V69.0627H133.547V66.7738Z" fill="#BECBEB"/>
<path d="M141.204 66.7738H134.85V69.0627H141.204V66.7738Z" fill="#E43438"/>
<path d="M131.186 65.2748H134.461V62.9859H131.186V65.2748Z" fill="#BECBEB"/>
<path d="M135.27 65.2748H140.361V62.9859H135.27V65.2748Z" fill="#BECBEB"/>
<path d="M130.311 70.5228H118.59V72.8118H130.311V70.5228Z" fill="#BECBEB"/>
<path d="M141.164 74.3114H118.59V76.6003H141.164V74.3114Z" fill="#BECBEB"/>
<path d="M131.186 72.8353H134.461V70.5464H131.186V72.8353Z" fill="#ED1E79"/>
<path d="M135.27 72.8353H140.361V70.5464H135.27V72.8353Z" fill="#BECBEB"/>
<path d="M111.566 63.4193C109.474 63.4193 107.817 65.1163 107.817 67.1684V68.3524H109.001V67.05C109.001 65.6293 110.145 64.4849 111.566 64.4849C112.986 64.4849 114.131 65.6293 114.131 67.05V68.3524H115.315V67.1684C115.354 65.1163 113.657 63.4193 111.566 63.4193Z" fill="#0A1D45"/>
<path d="M115.315 68.3523H107.856C107.58 68.3523 107.343 68.5891 107.343 68.8653V74.9823C107.343 75.2586 107.58 75.4954 107.856 75.4954H115.315C115.591 75.4954 115.828 75.2586 115.828 74.9823V68.8653C115.828 68.5891 115.591 68.3523 115.315 68.3523ZM112.158 73.2459H111.013L111.171 71.983C110.974 71.8646 110.816 71.5884 110.816 71.3516C110.816 70.9175 111.171 70.5623 111.605 70.5623C112.039 70.5623 112.395 70.9175 112.395 71.3516C112.395 71.6278 112.237 71.8646 112.039 71.983L112.158 73.2459Z" fill="#FBBF62"/>
<path d="M112 88.2819C105.409 88.2819 100.082 91.7942 100.082 96.0958C100.082 99.4898 103.397 102.371 107.975 103.436V108.645L112.75 103.87C118.985 103.634 123.918 100.24 123.918 96.0958C123.918 91.7547 118.59 88.2819 112 88.2819ZM106.751 97.7139C105.843 97.7139 105.094 96.964 105.094 96.0563C105.094 95.1487 105.843 94.3988 106.751 94.3988C107.659 94.3988 108.409 95.1487 108.409 96.0563C108.409 96.964 107.659 97.7139 106.751 97.7139ZM112 97.7139C111.092 97.7139 110.342 96.964 110.342 96.0563C110.342 95.1487 111.092 94.3988 112 94.3988C112.908 94.3988 113.657 95.1487 113.657 96.0563C113.657 96.964 112.908 97.7139 112 97.7139ZM117.209 97.7139C116.302 97.7139 115.552 96.964 115.552 96.0563C115.552 95.1487 116.302 94.3988 117.209 94.3988C118.117 94.3988 118.867 95.1487 118.867 96.0563C118.867 96.964 118.117 97.7139 117.209 97.7139Z" fill="#E43438"/>
<path d="M66.8526 6.86684V4.77522L65.5108 4.49897C65.4714 4.42004 65.4319 4.30165 65.3924 4.22272L66.1423 3.07826L64.6821 1.61807L63.5376 2.3679C63.4587 2.32843 63.3403 2.28897 63.2614 2.2495L62.9851 0.907715H60.8935L60.6173 2.2495C60.5383 2.28897 60.4199 2.32843 60.341 2.3679L59.1965 1.61807L57.7364 3.07826L58.4862 4.22272C58.4467 4.30165 58.4073 4.42004 58.3678 4.49897L57.026 4.77522V6.86684L58.3678 7.14309C58.4073 7.22201 58.4467 7.34041 58.4862 7.41934L57.7364 8.56381L59.1965 10.024L60.341 9.27416C60.4199 9.31363 60.5383 9.35309 60.6173 9.39256L60.8935 10.7343H62.9851L63.2614 9.39256C63.3403 9.35309 63.4587 9.31363 63.5376 9.27416L64.6821 10.024L66.1423 8.56381L65.3924 7.41934C65.4319 7.34041 65.4714 7.22201 65.5108 7.14309L66.8526 6.86684ZM61.959 7.73505C60.8935 7.73505 60.0253 6.86684 60.0253 5.8013C60.0253 4.73576 60.8935 3.86754 61.959 3.86754C63.0246 3.86754 63.8928 4.73576 63.8928 5.8013C63.8928 6.86684 63.0246 7.73505 61.959 7.73505Z" fill="#0059D6"/>
<path d="M38.6356 16.6935L41.4376 19.4955L43.6476 18.0353C43.8449 18.1142 44.0028 18.1931 44.2001 18.2721L44.7131 20.8767H48.7779L49.291 18.2721C49.4883 18.1931 49.6856 18.1142 49.8435 18.0353L52.0535 19.4955L54.8555 16.6935H38.6356Z" fill="#A5ACBA"/>
<path d="M54.4214 11.7605V7.69566L51.8167 7.18262C51.7378 6.9853 51.6589 6.78798 51.5799 6.63012L53.0401 4.42011L50.1592 1.53921L47.9492 2.99939C47.7519 2.92046 47.594 2.84154 47.3967 2.76261L46.8837 0.157959H42.8189L42.3058 2.76261C42.1085 2.84154 41.9112 2.92046 41.7533 2.99939L39.5433 1.53921L36.6624 4.42011L38.1226 6.63012C38.0437 6.82744 37.9647 6.9853 37.8858 7.18262L35.2812 7.69566V11.7605L37.8858 12.2735C37.9647 12.4708 38.0437 12.6682 38.1226 12.826L36.6624 15.036L39.5433 17.9169L41.7533 16.4567C41.9506 16.5357 42.1085 16.6146 42.3058 16.6935L42.8189 19.2982H46.8837L47.3967 16.6935C47.594 16.6146 47.7914 16.5357 47.9492 16.4567L50.1592 17.9169L53.0401 15.036L51.5799 12.826C51.6589 12.6287 51.7378 12.4708 51.8167 12.2735L54.4214 11.7605ZM44.8315 13.5364C42.7399 13.5364 41.043 11.8394 41.043 9.7478C41.043 7.65619 42.7399 5.95922 44.8315 5.95922C46.9232 5.95922 48.6201 7.65619 48.6201 9.7478C48.6201 11.8 46.9232 13.5364 44.8315 13.5364Z" fill="#0CBA83"/>
<path d="M144.913 48.6991C151.147 48.6991 156.2 43.6458 156.2 37.4123C156.2 31.1788 151.147 26.1255 144.913 26.1255C138.68 26.1255 133.626 31.1788 133.626 37.4123C133.626 43.6458 138.68 48.6991 144.913 48.6991Z" fill="#E4EBFD"/>
<path d="M146.847 28.6118V35.1234L144.874 36.1495L142.901 35.1234V28.6118C140.572 29.4406 138.875 31.6506 138.875 34.2552C138.875 36.8204 140.454 38.9909 142.703 39.8592V46.9233C143.374 47.0811 144.124 47.1601 144.834 47.1601C145.584 47.1601 146.294 47.0811 146.965 46.9233V39.8592C149.215 38.9909 150.793 36.8204 150.793 34.2552C150.872 31.6506 149.215 29.4406 146.847 28.6118Z" fill="#0059D6"/>
<path d="M40.451 70.0099H24.1127V88.4792H40.451C41.0429 88.4792 41.5165 88.1635 41.5165 87.7689V70.7202C41.477 70.3256 41.0035 70.0099 40.451 70.0099Z" fill="#A5ACBA"/>
<path d="M38.3594 85.7167H1.97321C1.49964 85.7167 1.105 85.3221 1.105 84.8485V68.5892C1.105 68.1156 1.49964 67.7209 1.97321 67.7209H38.3594C38.8329 67.7209 39.2276 68.1156 39.2276 68.5892V84.8485C39.2276 85.3221 38.8329 85.7167 38.3594 85.7167Z" fill="#DCE6F2"/>
<path d="M19.6094 82.9957H36.1449V80.6673H19.6094V82.9957Z" fill="#BECBEB"/>
<path d="M19.6094 79.4851H36.1449V77.1567H19.6094V79.4851Z" fill="#BECBEB"/>
<path d="M19.5949 75.9744H29.6978V73.646H19.5949V75.9744Z" fill="#BECBEB"/>
<path d="M31.4932 75.9744H36.15V73.646H31.4932V75.9744Z" fill="#0CBA83"/>
<path d="M19.6094 72.4637H36.1449V70.1353H19.6094V72.4637Z" fill="#BECBEB"/>
<path d="M17.2459 69.9703H4.1832V83.033H17.2459V69.9703Z" fill="#0059D6"/>
<path d="M6.47211 76.6399V76.0085L9.03729 74.864V75.5349L7.10354 76.3242L9.03729 77.1135V77.7844L6.47211 76.6399Z" fill="white"/>
<path d="M11.2473 74.0747H12.1155L10.2212 78.6131H9.35301L11.2473 74.0747Z" fill="white"/>
<path d="M12.3918 77.1135L14.3255 76.3242L12.3918 75.5349V74.864L14.957 76.0085V76.6399L12.3918 77.7844V77.1135Z" fill="white"/>
<path d="M29.5588 41.556H24.0338V56.6314H29.5588V41.556Z" fill="#A5ACBA"/>
<path d="M27.3883 38.4778H0V53.5532H27.3883V38.4778Z" fill="#FBB03B"/>
<path d="M13.6941 53.5532H27.3883L13.6941 44.1212L0 53.5532H13.6941Z" fill="#FBBF62"/>
<path d="M13.6941 38.4778H0L13.6941 47.9098L27.3883 38.4778H13.6941Z" fill="#FF9129"/>
</svg>
