<svg width="162" height="40" viewBox="0 0 162 40" fill="none" xmlns="http://www.w3.org/2000/svg">
<path d="M60.8041 8.85205H51.8605C51.5644 8.85186 51.278 8.95743 51.0528 9.14972C50.8277 9.34201 50.6786 9.60839 50.6325 9.90086L47.0153 32.8347C46.9987 32.9411 47.0053 33.0499 47.0347 33.1535C47.0642 33.2571 47.1157 33.3531 47.1858 33.4349C47.2559 33.5167 47.3429 33.5823 47.4408 33.6272C47.5387 33.6722 47.6451 33.6954 47.7528 33.6952H52.0226C52.3189 33.6954 52.6055 33.5896 52.8306 33.3971C53.0558 33.2045 53.2048 32.9378 53.2506 32.6451L54.2262 26.4595C54.272 26.167 54.4207 25.9005 54.6456 25.708C54.8705 25.5154 55.1568 25.4095 55.4528 25.4094H58.2841C64.1755 25.4094 67.5756 22.5585 68.4636 16.909C68.8637 14.4374 68.4806 12.4954 67.3232 11.1354C66.0521 9.64193 63.7975 8.85205 60.8041 8.85205ZM61.8359 17.2281C61.3468 20.4373 58.8948 20.4373 56.5239 20.4373H55.1743L56.1211 14.444C56.1488 14.2686 56.2382 14.1089 56.3732 13.9936C56.5081 13.8783 56.6798 13.8149 56.8573 13.8149H57.4759C59.091 13.8149 60.6145 13.8149 61.4017 14.7356C61.8712 15.2848 62.0151 16.1009 61.8359 17.2281ZM87.5383 17.1248H83.2554C83.0779 17.1248 82.9062 17.1882 82.7712 17.3035C82.6363 17.4188 82.5469 17.5785 82.5192 17.7538L82.3295 18.9517L82.0301 18.5176C81.1029 17.1719 79.0353 16.722 76.9717 16.722C72.239 16.722 68.1968 20.3066 67.4095 25.3348C67.0002 27.8431 67.5821 30.2415 69.005 31.9141C70.3101 33.452 72.1775 34.0928 74.3994 34.0928C78.2128 34.0928 80.3274 31.6408 80.3274 31.6408L80.1365 32.8308C80.1194 32.9372 80.1257 33.046 80.1548 33.1498C80.1839 33.2535 80.2351 33.3497 80.305 33.4318C80.3748 33.5138 80.4617 33.5797 80.5594 33.625C80.6572 33.6702 80.7637 33.6937 80.8714 33.6939H84.7292C85.0255 33.694 85.3121 33.5883 85.5373 33.3957C85.7624 33.2032 85.9114 32.9365 85.9572 32.6438L88.2719 17.9853C88.289 17.8792 88.2827 17.7706 88.2537 17.667C88.2247 17.5635 88.1735 17.4675 88.1037 17.3857C88.034 17.3039 87.9473 17.2382 87.8497 17.1931C87.752 17.1481 87.6458 17.1248 87.5383 17.1248ZM81.5684 25.4604C81.1552 27.9072 79.2132 29.5497 76.7363 29.5497C75.4927 29.5497 74.4988 29.1508 73.8606 28.3949C73.2277 27.6443 72.987 26.5759 73.1884 25.3858C73.5742 22.96 75.5489 21.2638 77.9878 21.2638C79.204 21.2638 80.1927 21.6679 80.8439 22.4303C81.4965 23.2006 81.7554 24.2756 81.5684 25.4604ZM110.348 17.1248H106.044C105.841 17.1251 105.641 17.175 105.462 17.27C105.283 17.365 105.129 17.5024 105.015 17.6702L99.0791 26.4137L96.563 18.0115C96.4858 17.7552 96.3281 17.5306 96.1133 17.3709C95.8985 17.2112 95.638 17.125 95.3703 17.1248H91.1411C91.0224 17.1245 90.9053 17.1526 90.7996 17.2066C90.6939 17.2607 90.6027 17.3392 90.5335 17.4357C90.4643 17.5321 90.4191 17.6437 90.4017 17.7612C90.3844 17.8786 90.3953 17.9985 90.4336 18.1109L95.1742 32.0226L90.7174 38.3142C90.6382 38.4257 90.5912 38.5569 90.5816 38.6934C90.572 38.8298 90.6001 38.9663 90.6629 39.0879C90.7257 39.2094 90.8208 39.3113 90.9376 39.3825C91.0545 39.4536 91.1887 39.4912 91.3255 39.4911H95.624C95.8247 39.4914 96.0225 39.443 96.2004 39.3501C96.3783 39.2571 96.531 39.1225 96.6454 38.9576L110.96 18.2953C111.038 18.1835 111.083 18.0526 111.092 17.9168C111.1 17.781 111.071 17.6454 111.008 17.5248C110.945 17.4042 110.85 17.3032 110.734 17.2327C110.617 17.1622 110.484 17.1249 110.348 17.1248Z" fill="#253B80"/>
<path d="M124.598 8.85202H115.653C115.357 8.85214 115.071 8.95784 114.846 9.15011C114.621 9.34238 114.472 9.60858 114.426 9.90082L110.809 32.8347C110.792 32.9409 110.799 33.0495 110.828 33.1531C110.857 33.2566 110.908 33.3526 110.978 33.4343C111.048 33.5161 111.135 33.5818 111.232 33.6268C111.33 33.6719 111.436 33.6952 111.544 33.6952H116.134C116.341 33.6949 116.541 33.6207 116.699 33.486C116.856 33.3512 116.96 33.1648 116.992 32.9602L118.019 26.4594C118.064 26.167 118.213 25.9005 118.438 25.7079C118.663 25.5154 118.949 25.4095 119.245 25.4093H122.075C127.968 25.4093 131.367 22.5585 132.256 16.909C132.657 14.4374 132.272 12.4954 131.114 11.1353C129.845 9.64189 127.591 8.85202 124.598 8.85202ZM125.63 17.2281C125.142 20.4373 122.69 20.4373 120.318 20.4373H118.969L119.917 14.4439C119.945 14.2686 120.034 14.1087 120.169 13.9934C120.303 13.878 120.475 13.8147 120.652 13.8149H121.271C122.885 13.8149 124.41 13.8149 125.197 14.7355C125.666 15.2848 125.809 16.1008 125.63 17.2281ZM151.331 17.1248H147.05C146.873 17.1243 146.701 17.1875 146.566 17.3029C146.431 17.4184 146.342 17.5783 146.316 17.7538L146.126 18.9517L145.825 18.5175C144.898 17.1719 142.832 16.722 140.768 16.722C136.035 16.722 131.994 20.3065 131.207 25.3348C130.799 27.843 131.379 30.2414 132.801 31.914C134.109 33.4519 135.974 34.0927 138.196 34.0927C142.009 34.0927 144.124 31.6407 144.124 31.6407L143.933 32.8308C143.916 32.9374 143.922 33.0464 143.951 33.1504C143.981 33.2543 144.032 33.3506 144.102 33.4327C144.172 33.5148 144.259 33.5807 144.358 33.6258C144.456 33.6709 144.562 33.6941 144.67 33.6939H148.527C148.823 33.6937 149.109 33.5878 149.334 33.3953C149.559 33.2028 149.708 32.9362 149.754 32.6438L152.07 17.9853C152.086 17.8788 152.079 17.77 152.05 17.6664C152.02 17.5628 151.968 17.4668 151.898 17.3851C151.828 17.3033 151.741 17.2377 151.643 17.1928C151.545 17.1479 151.438 17.1247 151.331 17.1248ZM145.361 25.4603C144.95 27.9071 143.006 29.5496 140.529 29.5496C139.288 29.5496 138.291 29.1508 137.653 28.3949C137.02 27.6443 136.782 26.5758 136.981 25.3858C137.369 22.9599 139.341 21.2638 141.78 21.2638C142.996 21.2638 143.985 21.6679 144.636 22.4303C145.292 23.2006 145.551 24.2755 145.361 25.4603ZM156.38 9.48104L152.709 32.8347C152.692 32.9409 152.699 33.0495 152.728 33.1531C152.757 33.2566 152.808 33.3526 152.878 33.4343C152.948 33.5161 153.035 33.5818 153.133 33.6268C153.23 33.6719 153.336 33.6952 153.444 33.6952H157.134C157.748 33.6952 158.268 33.2505 158.362 32.6451L161.982 9.71251C161.999 9.60621 161.993 9.49753 161.963 9.39394C161.934 9.29036 161.883 9.19432 161.813 9.11243C161.743 9.03054 161.657 8.96475 161.559 8.91957C161.461 8.87439 161.355 8.8509 161.247 8.85071H157.115C156.937 8.85134 156.766 8.91511 156.631 9.03061C156.497 9.14611 156.408 9.30579 156.38 9.48104Z" fill="#179BD7"/>
<path d="M9.87577 38.1518L10.5597 33.8074L9.0362 33.7721H1.76123L6.81696 1.71547C6.83201 1.61752 6.88176 1.52825 6.95714 1.46391C7.03251 1.39958 7.12849 1.36447 7.22759 1.365H19.4942C23.5665 1.365 26.3769 2.21241 27.8441 3.88501C28.532 4.66966 28.9701 5.48961 29.182 6.39195C29.4043 7.33876 29.4082 8.46996 29.1911 9.84962L29.1754 9.95032V10.8344L29.8633 11.2241C30.3884 11.4901 30.8604 11.85 31.256 12.2859C31.8445 12.9568 32.2251 13.8095 32.3859 14.8203C32.552 15.86 32.4971 17.0971 32.2251 18.4977C31.9112 20.1089 31.4038 21.5121 30.7186 22.6603C30.1139 23.6889 29.301 24.5797 28.3319 25.2757C27.4217 25.9218 26.3402 26.4122 25.1175 26.726C23.9327 27.0347 22.5818 27.1903 21.1001 27.1903H20.1455C19.4628 27.1903 18.7998 27.4361 18.2793 27.8768C17.7596 28.3223 17.4148 28.9377 17.3064 29.6135L17.2344 30.0045L16.0261 37.6614L15.9712 37.9425C15.9568 38.0315 15.9319 38.0759 15.8953 38.106C15.8598 38.135 15.8156 38.1511 15.7698 38.1518H9.87577Z" fill="#253B80"/>
<path d="M30.5139 10.0525C30.4773 10.2866 30.4354 10.5259 30.3883 10.7717C28.7707 19.0772 23.2363 21.9464 16.168 21.9464H12.5691C11.7046 21.9464 10.9762 22.5741 10.8415 23.4268L8.99892 35.1127L8.47713 38.4253C8.45634 38.5566 8.46428 38.691 8.50039 38.819C8.5365 38.9471 8.59993 39.0657 8.68631 39.1669C8.77269 39.2681 8.87997 39.3493 9.00076 39.4051C9.12155 39.4608 9.25298 39.4897 9.38601 39.4898H15.7691C16.525 39.4898 17.1671 38.9405 17.2861 38.1951L17.3488 37.8708L18.5507 30.244L18.6278 29.8255C18.7455 29.0775 19.3889 28.5283 20.1448 28.5283H21.0994C27.2838 28.5283 32.125 26.0174 33.54 18.7516C34.1311 15.7163 33.8251 13.1819 32.261 11.3995C31.7653 10.8481 31.1732 10.3916 30.5139 10.0525Z" fill="#179BD7"/>
<path d="M28.821 9.37773C28.3044 9.22831 27.779 9.11169 27.2477 9.02857C26.198 8.86725 25.1372 8.78984 24.0752 8.7971H14.4606C14.0948 8.79681 13.7408 8.92744 13.4628 9.16537C13.1849 9.40329 13.0012 9.73282 12.945 10.0944L10.8997 23.0489L10.8408 23.4268C10.9045 23.0144 11.1138 22.6384 11.4306 22.3669C11.7475 22.0954 12.1511 21.9462 12.5683 21.9464H16.1673C23.2356 21.9464 28.77 19.0759 30.3876 10.7718C30.436 10.5259 30.4766 10.2866 30.5132 10.0525C30.0863 9.82868 29.6414 9.64102 29.1832 9.49151C29.0631 9.45165 28.9423 9.41372 28.821 9.37773Z" fill="#222D65"/>
<path d="M12.9456 10.0942C13.0013 9.73252 13.1849 9.40284 13.463 9.16504C13.7411 8.92723 14.0953 8.79707 14.4612 8.79821H24.0757C25.2148 8.79821 26.278 8.87275 27.2483 9.02968C27.905 9.13288 28.5525 9.28722 29.1851 9.49131C29.6624 9.64955 30.1057 9.83656 30.5151 10.0523C30.9963 6.98306 30.5111 4.89329 28.8516 3.00099C27.0221 0.917759 23.72 0.0258789 19.4947 0.0258789H7.22811C6.365 0.0258789 5.62874 0.653595 5.49535 1.50755L0.386006 33.8938C0.362208 34.0441 0.371262 34.1979 0.412547 34.3444C0.453832 34.4909 0.526367 34.6268 0.625162 34.7426C0.723958 34.8584 0.84667 34.9515 0.984857 35.0153C1.12304 35.0792 1.27343 35.1124 1.42566 35.1126H8.99879L10.9002 23.0487L12.9456 10.0942Z" fill="#253B80"/>
</svg>
