<svg width="185" height="137" viewBox="0 0 185 137" fill="none" xmlns="http://www.w3.org/2000/svg">
<path opacity="0.3" d="M177.442 119.001H58.9069C26.3787 119.001 0 92.6225 0 60.0943V58.9069C0 26.3787 26.3787 0 58.9069 0H92.7073L177.442 119.001Z" fill="#55C0EA"/>
<mask id="mask0_2_552" style="mask-type:alpha" maskUnits="userSpaceOnUse" x="166" y="18" width="19" height="102">
<path d="M184.057 18.533H166.796V119.001H184.057V18.533Z" fill="url(#paint0_linear_2_552)"/>
</mask>
<g mask="url(#mask0_2_552)">
<path d="M184.058 18.533H166.797V119.001H184.058V18.533Z" fill="url(#paint1_linear_2_552)"/>
<path d="M166.797 18.533L175.448 50.8915V119.001H166.797V18.533Z" fill="#D6F3FF"/>
<path d="M184.101 18.533L175.449 50.8915V119.001H184.101V18.533Z" fill="#C2E5FF"/>
<path opacity="0.1" d="M166.797 119.001H171.589V60.4761L166.797 57.8467V119.001Z" fill="#0077CD"/>
</g>
<mask id="mask1_2_552" style="mask-type:alpha" maskUnits="userSpaceOnUse" x="149" y="45" width="14" height="75">
<path d="M162.26 45.718H149.198V119.044H162.26V45.718Z" fill="url(#paint2_linear_2_552)"/>
</mask>
<g mask="url(#mask1_2_552)">
<path d="M162.259 45.7175H149.197V119.044H162.259V45.7175Z" fill="url(#paint3_linear_2_552)"/>
<g opacity="0.3">
<path opacity="0.3" d="M150.809 45.718H150.385V118.874H150.809V45.718Z" fill="#DEF5FF"/>
</g>
<g opacity="0.3">
<path opacity="0.3" d="M152.888 45.718H152.464V118.874H152.888V45.718Z" fill="#DEF5FF"/>
</g>
<g opacity="0.3">
<path opacity="0.3" d="M154.923 45.718H154.499V118.874H154.923V45.718Z" fill="#DEF5FF"/>
</g>
<g opacity="0.3">
<path opacity="0.3" d="M157.001 45.718H156.577V118.874H157.001V45.718Z" fill="#DEF5FF"/>
</g>
<g opacity="0.3">
<path opacity="0.3" d="M159.036 45.718H158.612V118.874H159.036V45.718Z" fill="#DEF5FF"/>
</g>
<g opacity="0.3">
<path opacity="0.3" d="M161.116 45.718H160.691V118.874H161.116V45.718Z" fill="#DEF5FF"/>
</g>
</g>
<mask id="mask2_2_552" style="mask-type:alpha" maskUnits="userSpaceOnUse" x="120" y="32" width="22" height="87">
<path d="M141.775 32.3583H120.74V118.874H141.775V32.3583Z" fill="url(#paint4_linear_2_552)"/>
</mask>
<g mask="url(#mask2_2_552)">
<path d="M141.775 32.3582H120.74V118.874H141.775V32.3582Z" fill="url(#paint5_linear_2_552)"/>
<path d="M137.789 25.8699H125.405V32.3585H137.789V25.8699Z" fill="#DEF5FF"/>
<path d="M127.611 25.8699H125.405V32.3585H127.611V25.8699Z" fill="#CEF0FF"/>
<path d="M137.832 25.8699H133.888V32.3585H137.832V25.8699Z" fill="#C2E5FF"/>
<path d="M141.775 32.3582H134.82V118.874H141.775V32.3582Z" fill="#C2E5FF"/>
<path d="M124.345 32.3582H120.74V119.001H124.345V32.3582Z" fill="#CEF0FF"/>
<path opacity="0.3" d="M134.82 35.4119H124.345V36.048H134.82V35.4119Z" fill="white"/>
<path opacity="0.3" d="M134.82 61.7058H124.345V62.342H134.82V61.7058Z" fill="white"/>
<path opacity="0.3" d="M134.82 87.9998H124.345V88.6359H134.82V87.9998Z" fill="white"/>
<path opacity="0.3" d="M134.82 114.294H124.345V114.93H134.82V114.294Z" fill="white"/>
<path opacity="0.1" d="M141.817 32.3582C141.817 32.3582 144.32 83.9706 120.782 104.963V119.001H141.817V32.3582Z" fill="#0077CD"/>
<path d="M127.653 37.4475H125.914V38.2533H127.653V37.4475Z" fill="#C2E5FF"/>
<path d="M127.653 51.7397H125.914V52.5455H127.653V51.7397Z" fill="#C2E5FF"/>
<path d="M130.283 51.7397H128.544V52.5455H130.283V51.7397Z" fill="#C2E5FF"/>
<path d="M132.912 51.7397H131.173V52.5455H132.912V51.7397Z" fill="#C2E5FF"/>
<path d="M130.283 40.1616H128.544V40.9674H130.283V40.1616Z" fill="#C2E5FF"/>
<path d="M132.912 42.876H131.173V43.6818H132.912V42.876Z" fill="#C2E5FF"/>
<path opacity="0.3" d="M132.912 69.0002H131.173V69.806H132.912V69.0002Z" fill="white"/>
</g>
<path d="M184.1 108.314H117.813V110.138H184.1V108.314Z" fill="white"/>
<path d="M154.794 20.3992H154.752L151.189 18.9572C151.147 18.9572 151.104 18.8724 151.104 18.83V14.165C151.104 14.1226 151.104 14.0801 151.147 14.0801C151.189 14.0377 151.232 14.0377 151.274 14.0801L154.794 15.1404L158.314 14.0801C158.357 14.0801 158.399 14.0801 158.441 14.0801C158.484 14.1226 158.484 14.1226 158.484 14.165V18.83C158.484 18.8724 158.441 18.9148 158.399 18.9572L154.837 20.3992H154.794ZM151.359 18.7452L154.794 20.1447L158.229 18.7452V14.3346L154.837 15.3524C154.794 15.3524 154.794 15.3524 154.752 15.3524L151.359 14.3346V18.7452Z" fill="#C2E5FF"/>
<path d="M158.357 14.292L154.794 13.2318L151.274 14.292C151.189 14.292 151.147 14.292 151.104 14.2072C151.104 14.1224 151.104 14.0799 151.189 14.0375L154.752 12.9773C154.794 12.9773 154.794 12.9773 154.837 12.9773L158.399 14.0375C158.484 14.0375 158.526 14.1224 158.484 14.2072C158.484 14.292 158.441 14.292 158.357 14.292Z" fill="#C2E5FF"/>
<path d="M154.796 20.2294V15.225L158.358 14.1648V18.8298L154.796 20.2294Z" fill="#C2E5FF"/>
<path d="M159.079 26.4635H159.037L156.195 25.0216C156.153 24.9792 156.11 24.9368 156.11 24.8944V21.6712C156.11 21.6288 156.11 21.5864 156.153 21.544C156.195 21.5016 156.238 21.5016 156.28 21.544L159.079 22.6043L161.878 21.544C161.92 21.544 161.963 21.544 162.005 21.544C162.048 21.5864 162.048 21.6288 162.048 21.6712V24.8944C162.048 24.9368 162.005 24.9792 161.963 25.0216L159.121 26.4635C159.121 26.4635 159.121 26.4635 159.079 26.4635ZM156.365 24.8096L159.079 26.1667L161.793 24.8096V21.8409L159.121 22.8587C159.079 22.8587 159.079 22.8587 159.037 22.8587L156.365 21.8409V24.8096Z" fill="#C2E5FF"/>
<path d="M161.962 21.8408H161.919L159.12 20.7806L156.321 21.8408C156.236 21.8832 156.194 21.8408 156.151 21.756C156.109 21.6712 156.151 21.6288 156.236 21.5864L159.078 20.5261C159.12 20.5261 159.12 20.5261 159.162 20.5261L162.004 21.5864C162.089 21.6288 162.089 21.6712 162.089 21.756C162.046 21.7984 162.004 21.8408 161.962 21.8408Z" fill="#C2E5FF"/>
<path d="M159.078 26.294V22.7316L161.962 21.6714V24.8945L159.078 26.294Z" fill="#C2E5FF"/>
<path d="M150.512 29.6866C150.47 29.6866 150.47 29.6866 150.512 29.6866L146.186 28.2447C146.144 28.2447 146.102 28.1598 146.102 28.1174V22.3921C146.102 22.3497 146.102 22.3073 146.144 22.3073C146.186 22.2649 146.229 22.2649 146.271 22.3073L150.512 23.7068L154.753 22.3073C154.796 22.3073 154.838 22.3073 154.88 22.3073C154.923 22.3497 154.923 22.3497 154.923 22.3921V28.1174C154.923 28.1598 154.88 28.2022 154.838 28.2447L150.512 29.6866ZM146.356 28.0326L150.512 29.4321L154.668 28.0326V22.6042L150.555 23.9613C150.512 23.9613 150.512 23.9613 150.47 23.9613L146.356 22.6042V28.0326Z" fill="#C2E5FF"/>
<path d="M154.796 22.5194C154.796 22.5194 154.753 22.5194 154.796 22.5194L150.512 21.0775L146.271 22.477C146.186 22.5194 146.144 22.477 146.102 22.3922C146.059 22.3074 146.102 22.265 146.186 22.2226L150.47 20.7806C150.512 20.7806 150.512 20.7806 150.555 20.7806L154.838 22.2226C154.923 22.265 154.923 22.3074 154.923 22.3922C154.88 22.5194 154.838 22.5194 154.796 22.5194Z" fill="#C2E5FF"/>
<path d="M150.512 23.7918V29.5171L154.795 28.1176V22.3923L150.512 23.7918Z" fill="#C2E5FF"/>
<path opacity="0.5" d="M111.071 105.6H79.6455C75.7438 105.6 72.6055 102.419 72.6055 98.5597V19.6779C72.6055 15.7762 75.7862 12.6379 79.6455 12.6379H111.071C114.973 12.6379 118.111 15.8187 118.111 19.6779V98.5173C118.111 102.419 114.93 105.6 111.071 105.6Z" fill="url(#paint6_linear_2_552)"/>
<path d="M109.417 105.6H77.9912C74.0895 105.6 70.9512 102.419 70.9512 98.5597V19.6779C70.9512 15.7762 74.1319 12.6379 77.9912 12.6379H109.417C113.318 12.6379 116.457 15.8187 116.457 19.6779V98.5173C116.457 102.419 113.318 105.6 109.417 105.6Z" fill="#EF531A"/>
<path d="M108.526 105.6H77.1005C73.1989 105.6 70.0605 102.419 70.0605 98.5597V19.6779C70.0605 15.7762 73.2413 12.6379 77.1005 12.6379H108.526C112.428 12.6379 115.566 15.8187 115.566 19.6779V98.5173C115.566 102.419 112.428 105.6 108.526 105.6Z" fill="#1C298F"/>
<path d="M112.597 19.6779V98.5173C112.597 100.765 110.774 102.631 108.484 102.631H77.0581C74.8104 102.631 72.9443 100.807 72.9443 98.5173V19.6779C72.9443 17.4302 74.7679 15.5642 77.0581 15.5642H108.484C110.774 15.5642 112.597 17.3878 112.597 19.6779Z" fill="url(#paint7_linear_2_552)"/>
<path d="M108.526 12.5957H77.1005C73.1989 12.5957 70.0605 15.7764 70.0605 19.6357V19.975C70.0605 16.0733 73.2413 12.935 77.1005 12.935H108.526C112.428 12.935 115.566 16.1157 115.566 19.975V19.6357C115.566 15.7764 112.428 12.5957 108.526 12.5957Z" fill="url(#paint8_linear_2_552)"/>
<path d="M112.597 19.6779V50.0008L91.6045 15.5642H108.526C110.774 15.5642 112.597 17.3878 112.597 19.6779Z" fill="url(#paint9_linear_2_552)"/>
<path d="M77.0581 102.631H101.062L72.9443 56.532V98.5174C72.9867 100.808 74.8104 102.631 77.0581 102.631Z" fill="url(#paint10_linear_2_552)"/>
<path opacity="0.5" d="M106.406 92.4529C105.77 92.4529 105.261 92.9194 105.219 93.5131H94.0226C93.9378 92.9194 93.4288 92.4529 92.8351 92.4529C92.199 92.4529 91.6901 92.9194 91.6477 93.5131H80.4515C80.3667 92.9194 79.8578 92.4529 79.2641 92.4529C78.5855 92.4529 78.0342 93.0042 78.0342 93.6828C78.0342 94.3613 78.5855 94.9126 79.2641 94.9126C79.9002 94.9126 80.4091 94.4461 80.4515 93.8524H91.6052C91.6901 94.4461 92.199 94.9126 92.7927 94.9126C93.4289 94.9126 93.9378 94.4461 93.9802 93.8524H105.176C105.261 94.4461 105.77 94.9126 106.364 94.9126C107.042 94.9126 107.594 94.3613 107.594 93.6828C107.636 93.0042 107.085 92.4529 106.406 92.4529Z" fill="#003052"/>
<path d="M106.407 93.5557H79.1798C79.0526 93.5557 78.9678 93.4709 78.9678 93.3436C78.9678 93.2164 79.0526 93.1316 79.1798 93.1316H106.407C106.534 93.1316 106.619 93.2164 106.619 93.3436C106.619 93.4709 106.534 93.5557 106.407 93.5557Z" fill="#8CD3EF"/>
<path d="M79.1791 94.5733C79.8583 94.5733 80.409 94.0226 80.409 93.3434C80.409 92.6642 79.8583 92.1135 79.1791 92.1135C78.4999 92.1135 77.9492 92.6642 77.9492 93.3434C77.9492 94.0226 78.4999 94.5733 79.1791 94.5733Z" fill="#283558"/>
<path d="M92.7924 94.5733C93.4716 94.5733 94.0223 94.0226 94.0223 93.3434C94.0223 92.6642 93.4716 92.1135 92.7924 92.1135C92.1131 92.1135 91.5625 92.6642 91.5625 93.3434C91.5625 94.0226 92.1131 94.5733 92.7924 94.5733Z" fill="#8CD3EF"/>
<path d="M92.7911 93.8523C93.0722 93.8523 93.3001 93.6245 93.3001 93.3434C93.3001 93.0623 93.0722 92.8345 92.7911 92.8345C92.5101 92.8345 92.2822 93.0623 92.2822 93.3434C92.2822 93.6245 92.5101 93.8523 92.7911 93.8523Z" fill="#0077CD"/>
<path d="M106.406 94.5733C107.085 94.5733 107.636 94.0226 107.636 93.3434C107.636 92.6642 107.085 92.1135 106.406 92.1135C105.726 92.1135 105.176 92.6642 105.176 93.3434C105.176 94.0226 105.726 94.5733 106.406 94.5733Z" fill="#8CD3EF"/>
<path d="M79.0937 94.0219C79.0089 94.0219 78.9665 93.9795 78.9241 93.9371L78.4576 93.3857C78.3727 93.3009 78.3727 93.1737 78.5 93.0889C78.5848 93.0041 78.712 93.0041 78.7968 93.1313L79.0937 93.4706L79.645 92.8344C79.7298 92.7496 79.8571 92.7496 79.9419 92.792C80.0267 92.8768 80.0267 93.0041 79.9843 93.0889L79.3057 93.8947C79.2209 93.9795 79.1785 94.0219 79.0937 94.0219Z" fill="white"/>
<path d="M112.895 46.7352H72.8177C72.7753 46.7352 72.6904 46.6928 72.6904 46.6079C72.6904 46.5655 72.7328 46.4807 72.8177 46.4807H112.895C112.937 46.4807 113.022 46.5231 113.022 46.6079C113.022 46.6928 112.98 46.7352 112.895 46.7352Z" fill="#BCCFE3"/>
<path d="M105.176 73.3685C105.134 73.3685 105.049 73.3261 105.049 73.2413V40.8404C105.049 40.798 105.091 40.7131 105.176 40.7131C105.219 40.7131 105.303 40.7555 105.303 40.8404V73.2413C105.303 73.3261 105.219 73.3685 105.176 73.3685Z" fill="#BCCFE3"/>
<path d="M81.4683 45.6751C80.8322 45.6751 80.3232 45.1662 80.3232 44.5301C80.3232 43.8939 80.8322 43.385 81.4683 43.385C82.1044 43.385 82.6134 43.8939 82.6134 44.5301C82.6134 45.1662 82.1044 45.6751 81.4683 45.6751ZM81.4683 43.8091C81.0866 43.8091 80.7473 44.1484 80.7473 44.5301C80.7473 44.9118 81.0866 45.251 81.4683 45.251C81.85 45.251 82.1893 44.9118 82.1893 44.5301C82.1893 44.1484 81.8924 43.8091 81.4683 43.8091Z" fill="#80A0D1"/>
<path opacity="0.2" d="M115.566 53.8601H100.001C98.9835 53.8601 98.1777 54.6659 98.1777 55.6837V87.5333C98.1777 88.5511 98.9835 89.3569 100.001 89.3569H115.566V53.8601Z" fill="#2A335C"/>
<path opacity="0.9" d="M156.958 88.6782H99.0687C98.0509 88.6782 97.2451 87.8724 97.2451 86.8546V55.005C97.2451 53.9872 98.0509 53.1814 99.0687 53.1814H156.958C157.976 53.1814 158.781 53.9872 158.781 55.005V86.8546C158.781 87.8724 157.976 88.6782 156.958 88.6782Z" fill="#008DF0"/>
<path opacity="0.2" d="M87.0248 37.0662H70.0186V73.4112H87.0248C88.0426 73.4112 88.8908 72.563 88.8908 71.5451V38.9322C88.8908 37.9144 88.0426 37.0662 87.0248 37.0662Z" fill="#2A335C"/>
<path opacity="0.9" d="M85.7098 72.0962H26.4637C25.4458 72.0962 24.5977 71.248 24.5977 70.2302V37.6172C24.5977 36.5994 25.4458 35.7512 26.4637 35.7512H85.6674C86.6853 35.7512 87.5334 36.5994 87.5334 37.6172V70.1878C87.5759 71.248 86.7277 72.0962 85.7098 72.0962Z" fill="#FAFAFA"/>
<path opacity="0.3" d="M99.0687 53.1816C98.0509 53.1816 97.2451 53.9873 97.2451 55.0052V65.3531H112.343C113.234 65.3531 113.997 64.6321 113.997 63.6991V53.1392H99.0687V53.1816Z" fill="#1C298F"/>
<path opacity="0.9" d="M112.3 61.7909V28.7963C112.3 27.9057 111.579 27.1423 110.646 27.1423H75.9128C75.0222 27.1423 74.2588 27.8633 74.2588 28.7963V61.7909C74.2588 62.6815 74.9797 63.4449 75.9128 63.4449H110.689C111.579 63.4025 112.3 62.6815 112.3 61.7909Z" fill="#ECF3FF"/>
<path d="M93.2165 42.9609C96.0038 42.9609 98.2633 40.7014 98.2633 37.9142C98.2633 35.1269 96.0038 32.8674 93.2165 32.8674C90.4293 32.8674 88.1698 35.1269 88.1698 37.9142C88.1698 40.7014 90.4293 42.9609 93.2165 42.9609Z" fill="url(#paint11_linear_2_552)"/>
<path opacity="0.9" d="M95.1674 36.2602C95.1674 37.3204 94.2768 38.211 93.2166 38.211C92.1564 38.211 91.2657 37.3204 91.2657 36.2602C91.2657 35.1999 92.1564 34.3093 93.2166 34.3093C94.2768 34.3093 95.1674 35.1575 95.1674 36.2602ZM95.6339 40.5435C95.6339 39.3985 94.7009 38.4655 93.5559 38.4655H92.8349C91.6898 38.4655 90.7568 39.3985 90.7568 40.5435C90.7568 40.5859 95.6339 40.5859 95.6339 40.5435Z" fill="#008DF0"/>
<path d="M102.844 46.7352H83.802C83.7596 46.7352 83.6748 46.6928 83.6748 46.6079C83.6748 46.5655 83.7172 46.4807 83.802 46.4807H102.844C102.886 46.4807 102.971 46.5231 102.971 46.6079C102.929 46.6504 102.886 46.7352 102.844 46.7352Z" fill="#F5F6FA"/>
<path d="M102.844 49.407H83.802C83.7596 49.407 83.6748 49.3646 83.6748 49.2798C83.6748 49.2374 83.7172 49.1526 83.802 49.1526H102.844C102.886 49.1526 102.971 49.195 102.971 49.2798C102.929 49.3646 102.886 49.407 102.844 49.407Z" fill="#F5F6FA"/>
<path d="M102.844 52.1214H83.802C83.7596 52.1214 83.6748 52.079 83.6748 51.9942C83.6748 51.9094 83.7172 51.8669 83.802 51.8669H102.844C102.886 51.8669 102.971 51.9094 102.971 51.9942C102.971 52.079 102.886 52.1214 102.844 52.1214Z" fill="#F5F6FA"/>
<path d="M108.228 31.9343C108.228 31.9343 108.186 31.9343 108.228 31.9343C108.016 31.8919 107.889 31.8071 107.72 31.6798C107.677 31.6798 107.677 31.6374 107.677 31.595C107.677 31.5526 107.677 31.5526 107.72 31.5102C107.804 31.4254 107.804 31.3406 107.762 31.2557C107.72 31.1709 107.592 31.1285 107.508 31.1709C107.465 31.1709 107.465 31.1709 107.423 31.1709C107.38 31.1709 107.38 31.1285 107.38 31.0861C107.38 31.0013 107.338 30.9165 107.338 30.8317C107.338 30.7468 107.338 30.662 107.38 30.5772C107.38 30.5348 107.423 30.5348 107.423 30.4924C107.465 30.4924 107.465 30.4924 107.508 30.4924C107.592 30.5348 107.72 30.4924 107.762 30.4076C107.804 30.3227 107.804 30.1955 107.72 30.1531C107.677 30.1531 107.677 30.1107 107.677 30.0683C107.677 30.0259 107.677 30.0259 107.72 29.9835C107.847 29.8562 108.016 29.7714 108.186 29.729C108.228 29.729 108.228 29.729 108.271 29.729C108.313 29.729 108.313 29.7714 108.313 29.8138C108.313 29.8986 108.441 29.9835 108.525 29.9835C108.61 29.9835 108.737 29.8986 108.737 29.8138C108.737 29.7714 108.78 29.7714 108.78 29.729C108.822 29.729 108.822 29.729 108.865 29.729C109.034 29.7714 109.204 29.8562 109.331 29.9835C109.374 29.9835 109.374 30.0259 109.374 30.0683C109.374 30.1107 109.374 30.1107 109.331 30.1531C109.246 30.2379 109.246 30.3227 109.289 30.4076C109.331 30.4924 109.458 30.5348 109.543 30.4924C109.586 30.4924 109.586 30.4924 109.628 30.4924C109.67 30.4924 109.67 30.5348 109.67 30.5772C109.67 30.662 109.713 30.7468 109.713 30.8317C109.713 30.9165 109.713 31.0013 109.67 31.0861C109.67 31.1285 109.628 31.1285 109.628 31.1709C109.586 31.1709 109.586 31.1709 109.543 31.1709C109.458 31.1285 109.331 31.1709 109.289 31.2557C109.246 31.3406 109.246 31.4678 109.331 31.5102C109.374 31.5102 109.374 31.5526 109.374 31.595C109.374 31.6374 109.374 31.6374 109.331 31.6798C109.204 31.8071 109.034 31.8919 108.865 31.9343C108.822 31.9343 108.822 31.9343 108.78 31.9343C108.737 31.9343 108.737 31.8919 108.737 31.8495C108.737 31.7647 108.61 31.6798 108.525 31.6798C108.441 31.6798 108.313 31.7647 108.313 31.8495C108.313 31.8919 108.271 31.8919 108.271 31.9343H108.228ZM107.974 31.5526C108.016 31.595 108.101 31.6374 108.186 31.6798C108.271 31.5526 108.398 31.4678 108.568 31.4678C108.737 31.4678 108.865 31.5526 108.949 31.6798C109.034 31.6374 109.077 31.595 109.161 31.5526C109.077 31.4254 109.077 31.2558 109.161 31.0861C109.246 30.9589 109.374 30.8741 109.543 30.8741C109.543 30.8317 109.543 30.7892 109.543 30.7468C109.543 30.7044 109.543 30.662 109.543 30.6196C109.374 30.6196 109.246 30.5348 109.161 30.4076C109.077 30.2803 109.077 30.1107 109.161 29.9411C109.119 29.8986 109.034 29.8562 108.949 29.8138C108.865 29.9411 108.737 30.0259 108.568 30.0259C108.398 30.0259 108.271 29.9411 108.186 29.8138C108.101 29.8562 108.059 29.8986 107.974 29.9411C108.059 30.0683 108.059 30.2379 107.974 30.4076C107.889 30.5348 107.72 30.6196 107.592 30.6196C107.592 30.662 107.592 30.7044 107.592 30.7468C107.592 30.7892 107.592 30.8317 107.592 30.8741C107.762 30.8741 107.889 30.9589 107.974 31.0861C108.059 31.2558 108.059 31.4254 107.974 31.5526ZM108.568 31.2557C108.313 31.2557 108.101 31.0437 108.101 30.7892C108.101 30.5348 108.313 30.3227 108.568 30.3227C108.822 30.3227 109.034 30.5348 109.034 30.7892C109.034 31.0437 108.822 31.2557 108.568 31.2557ZM108.568 30.4924C108.441 30.4924 108.313 30.6196 108.313 30.7468C108.313 30.8741 108.441 31.0013 108.568 31.0013C108.695 31.0013 108.822 30.8741 108.822 30.7468C108.822 30.6196 108.695 30.4924 108.568 30.4924Z" fill="#F5F6FA"/>
<path opacity="0.3" d="M29.1355 22.6467C34.382 22.6467 38.6352 18.3935 38.6352 13.147C38.6352 7.9004 34.382 3.64722 29.1355 3.64722C23.8889 3.64722 19.6357 7.9004 19.6357 13.147C19.6357 18.3935 23.8889 22.6467 29.1355 22.6467Z" fill="white"/>
<path d="M29.1361 19.9324C32.8837 19.9324 35.9216 16.8944 35.9216 13.1469C35.9216 9.39931 32.8837 6.36133 29.1361 6.36133C25.3886 6.36133 22.3506 9.39931 22.3506 13.1469C22.3506 16.8944 25.3886 19.9324 29.1361 19.9324Z" fill="url(#paint12_linear_2_552)"/>
<path d="M7.33691 23.8341C7.33691 23.8341 16.2429 16.0308 20.0598 16.2852C23.8766 16.5397 20.6535 20.3141 22.774 20.5686C24.8945 20.823 30.6198 14.7585 33.546 14.6737C36.4723 14.5888 34.9031 21.2047 36.1754 21.2047C37.4477 21.2047 44.1908 18.4905 46.5233 18.6602C48.8559 18.8298 48.4318 22.477 49.6617 22.7315C50.8915 22.9859 53.2665 20.7806 56.1927 20.823C59.0766 20.9079 62.5117 23.7917 62.5117 23.7917H7.33691V23.8341Z" fill="url(#paint13_linear_2_552)"/>
<path d="M73.4538 136.262C104.184 136.262 129.095 134.781 129.095 132.954C129.095 131.127 104.184 129.646 73.4538 129.646C42.724 129.646 17.8125 131.127 17.8125 132.954C17.8125 134.781 42.724 136.262 73.4538 136.262Z" fill="url(#paint14_linear_2_552)"/>
<path d="M32.7823 133.293C34.818 127.144 35.4965 115.99 35.4965 115.99H16.4971C16.4971 115.99 17.1756 127.144 19.2113 133.293H32.7823Z" fill="url(#paint15_linear_2_552)"/>
<path opacity="0.3" d="M21.5019 132.445C20.3992 128.671 19.7207 123.412 19.3814 119.892H18.8301C19.1694 123.412 19.8479 128.671 20.9506 132.445H21.5019Z" fill="#F7F7FF"/>
<path d="M25.9968 116.754C31.2434 116.754 35.4965 116.412 35.4965 115.99C35.4965 115.569 31.2434 115.227 25.9968 115.227C20.7502 115.227 16.4971 115.569 16.4971 115.99C16.4971 116.412 20.7502 116.754 25.9968 116.754Z" fill="#EDF1FB"/>
<path opacity="0.1" d="M35.3266 115.99C34.9874 116.245 32.0611 116.626 27.0144 116.669H26.6751C26.463 116.669 26.251 116.669 26.0389 116.669H25.6149C25.4876 116.669 25.3604 116.669 25.2332 116.669H24.8091C24.597 116.669 24.3426 116.669 24.1305 116.669C19.5927 116.584 16.9633 116.287 16.624 116.033C16.9209 115.778 19.2534 115.481 23.3247 115.396C23.6216 115.396 23.9185 115.396 24.2153 115.396C24.385 115.396 24.5546 115.396 24.7242 115.396C24.7667 115.396 24.7667 115.396 24.8091 115.396H25.4028C25.4452 115.396 25.4876 115.396 25.53 115.396H26.2934C26.5479 115.396 26.8447 115.396 27.0992 115.396H27.2264C27.5233 115.396 27.8201 115.396 28.0746 115.396C32.4852 115.439 35.0298 115.778 35.3266 115.99Z" fill="#0077CD"/>
<path d="M25.6156 116.669C25.4883 116.669 25.3611 116.669 25.2339 116.669H24.8098C24.8098 116.542 24.7674 116.414 24.7674 116.245C24.7674 116.202 24.7674 116.16 24.7674 116.117C24.7674 115.99 24.725 115.821 24.725 115.651C24.725 115.566 24.6826 115.439 24.6826 115.354C24.6401 114.93 24.5553 114.463 24.5129 113.955C24.4281 113.318 24.3009 112.555 24.2161 111.749C24.0888 110.943 23.9616 110.053 23.8344 109.162C23.6647 108.229 23.5375 107.296 23.3255 106.278C23.2406 105.77 23.1134 105.261 23.0286 104.709C22.9438 104.2 22.8589 103.691 22.7317 103.183C22.6469 102.843 22.6045 102.504 22.5197 102.122C22.3924 101.401 22.2228 100.723 22.0532 100.002C21.7987 98.9416 21.5867 97.8813 21.3322 96.8635C21.205 96.3546 21.0777 95.8457 20.9505 95.3368C20.8233 94.8279 20.6961 94.3189 20.5688 93.8524C20.3144 92.877 20.0599 91.944 19.8055 91.011C19.763 90.7989 19.6782 90.5869 19.5934 90.3748C19.4238 89.6963 19.2117 89.1026 19.0421 88.5088C18.7876 87.7455 18.5756 87.0245 18.3635 86.3883C18.1515 85.7522 17.9818 85.2009 17.8122 84.7768C17.5578 84.0558 17.3881 83.5893 17.3457 83.4197C17.3881 83.5893 17.6002 84.0134 17.8546 84.7768C18.0243 85.2433 18.2363 85.7522 18.4484 86.3883C18.6604 87.0245 18.9149 87.703 19.1693 88.4664C19.339 89.0177 19.551 89.5691 19.7206 90.1628C19.8055 90.4173 19.8903 90.6717 19.9751 90.9686C20.2296 91.8592 20.5264 92.7922 20.8233 93.7676C20.9505 94.2341 21.1202 94.743 21.2474 95.2519C21.3746 95.7609 21.5442 96.2698 21.6715 96.7787C21.9683 97.7965 22.2228 98.8568 22.4773 99.917C22.6469 100.511 22.7741 101.104 22.9014 101.741C23.0286 102.207 23.1134 102.631 23.2406 103.098C23.3679 103.691 23.4951 104.328 23.6223 104.921C23.7071 105.345 23.792 105.77 23.8768 106.194C24.0888 107.169 24.2585 108.144 24.4281 109.077C24.5977 109.968 24.725 110.816 24.8522 111.58C24.8522 111.622 24.8522 111.664 24.8522 111.664C24.9794 112.47 25.1067 113.191 25.2339 113.87C25.2763 114.209 25.3187 114.548 25.3611 114.845C25.4035 115.015 25.4035 115.184 25.4459 115.354C25.4459 115.439 25.4883 115.481 25.4883 115.566C25.4883 115.693 25.5307 115.821 25.5307 115.905C25.5732 116.245 25.6156 116.499 25.658 116.669H25.6156Z" fill="#1A52E0"/>
<path d="M25.0219 116.626L25.0643 116.669H24.7674C24.5554 116.669 24.3009 116.669 24.0889 116.669C24.004 116.542 23.9192 116.414 23.8768 116.287C23.7072 116.033 23.4951 115.736 23.2831 115.396C23.2831 115.354 23.2407 115.354 23.2407 115.312C23.1134 115.142 22.9862 114.93 22.859 114.76C22.7317 114.591 22.6045 114.379 22.4349 114.167C22.1804 113.743 21.8836 113.318 21.5443 112.894C21.205 112.47 20.9081 112.004 20.5689 111.58C20.2296 111.113 19.8903 110.689 19.5086 110.223C19.1693 109.798 18.7877 109.332 18.406 108.908C18.0243 108.484 17.685 108.06 17.3033 107.678C16.5824 106.872 15.9038 106.151 15.3101 105.515C14.9284 105.133 14.5467 104.752 14.2498 104.497C13.7409 103.988 13.3592 103.691 13.2744 103.564C13.4016 103.649 13.7833 103.946 14.3347 104.455C14.6315 104.709 15.0132 105.049 15.3949 105.43C16.031 106.024 16.752 106.703 17.5154 107.466C17.8971 107.848 18.2787 108.272 18.6604 108.653C19.0421 109.077 19.4238 109.502 19.8055 109.926C20.1872 110.35 20.5689 110.774 20.9505 111.24C21.3322 111.664 21.6715 112.089 22.0108 112.513C22.3501 112.937 22.6893 113.361 22.9862 113.743C23.1558 113.955 23.2831 114.124 23.4103 114.336C23.5375 114.548 23.6648 114.718 23.792 114.888C23.9192 115.057 24.004 115.227 24.1313 115.354C24.2585 115.524 24.3857 115.693 24.4705 115.863C24.5554 115.99 24.6402 116.117 24.725 116.245C24.8946 116.372 24.9795 116.499 25.0219 116.626Z" fill="#1A52E0"/>
<path d="M29.0936 83.165C29.0512 83.3771 28.9664 83.8436 28.8816 84.5645C28.7544 85.2855 28.6271 86.2185 28.4575 87.3212C28.4151 87.7029 28.3303 88.0845 28.2879 88.4662C27.7789 91.6894 27.1852 96.0151 26.6763 100.341C26.6339 100.553 26.6339 100.807 26.5915 101.019C26.4218 102.419 26.2946 103.818 26.1674 105.133C26.125 105.642 26.0826 106.193 26.0401 106.702C25.9553 107.72 25.8705 108.696 25.8281 109.629C25.7857 110.095 25.7857 110.562 25.7433 110.986C25.7009 111.41 25.7009 111.834 25.7009 112.258C25.7009 112.64 25.6585 113.064 25.6585 113.403V113.53C25.6585 113.87 25.6585 114.166 25.6585 114.463C25.6585 114.76 25.6585 115.057 25.6585 115.311C25.6585 115.524 25.6585 115.693 25.7009 115.863C25.7009 115.99 25.7009 116.075 25.7009 116.16C25.7009 116.329 25.7433 116.499 25.7433 116.626C25.6161 116.626 25.4888 116.626 25.3616 116.626H24.9375C24.9375 116.499 24.9375 116.329 24.9375 116.202C24.9375 116.16 24.9375 116.117 24.9375 116.075C24.9375 115.863 24.9375 115.566 24.9375 115.311C24.9375 115.057 24.9375 114.76 24.9375 114.463C24.9375 114.124 24.9375 113.785 24.9799 113.403C24.9799 113.021 25.0223 112.64 25.0223 112.216C25.0223 112.004 25.0647 111.749 25.0647 111.537C25.0647 111.325 25.1071 111.155 25.1071 110.943C25.1495 110.519 25.192 110.053 25.2344 109.586C25.3192 108.653 25.404 107.678 25.5312 106.66C25.5736 106.236 25.6161 105.769 25.7009 105.303C25.8705 103.946 26.0401 102.546 26.2522 101.147C26.2946 100.85 26.337 100.553 26.3794 100.298C27.0156 95.9727 27.7365 91.6894 28.2879 88.4662C28.3727 88.0421 28.4575 87.6605 28.4999 87.2788C28.7119 86.2185 28.8816 85.2855 29.0088 84.607C28.9664 83.8436 29.0512 83.3771 29.0936 83.165Z" fill="#1A52E0"/>
<path d="M38.8903 97.8813C38.551 98.263 37.6604 99.196 36.5153 100.511C36.0912 101.02 35.5823 101.571 35.1158 102.207C33.9284 103.649 32.6561 105.345 31.4686 107.084C31.0445 107.72 30.6204 108.357 30.2387 108.95C29.857 109.586 29.4753 110.223 29.1361 110.816C28.9664 111.113 28.7968 111.452 28.6696 111.707C28.4999 112.004 28.3727 112.301 28.2455 112.597C28.1182 112.894 27.991 113.191 27.8638 113.446C27.7366 113.743 27.6517 113.997 27.5245 114.251C27.3973 114.633 27.2276 115.015 27.1004 115.312C27.058 115.396 27.058 115.439 27.0156 115.524C27.0156 115.566 26.9732 115.609 26.9732 115.693C26.846 116.075 26.7611 116.372 26.6763 116.669C26.4643 116.669 26.2522 116.669 26.0402 116.669H25.8281C25.8281 116.626 25.8281 116.626 25.8705 116.584C25.9554 116.372 25.9978 116.16 26.0826 115.905C26.125 115.736 26.2098 115.609 26.2522 115.439C26.2522 115.397 26.2522 115.396 26.2946 115.354C26.4219 114.93 26.6339 114.463 26.846 113.997C26.9732 113.743 27.1004 113.446 27.2276 113.191C27.3549 112.937 27.5245 112.64 27.6517 112.343C27.8214 112.046 27.991 111.749 28.1182 111.452C28.2879 111.156 28.4575 110.859 28.6696 110.562C29.0513 109.968 29.4329 109.332 29.857 108.696C30.2811 108.06 30.7052 107.466 31.1717 106.83C32.444 105.091 33.8011 103.437 35.031 102.037C35.5399 101.444 36.0064 100.935 36.4729 100.426C37.5756 99.1112 38.5086 98.2206 38.8903 97.8813Z" fill="#1A52E0"/>
<path d="M26.6333 102.165L26.5061 105.133L26.082 115.354L26.0396 115.905L25.9972 116.584V116.669H25.5731C25.4459 116.669 25.3186 116.669 25.1914 116.669L25.3186 115.354L25.361 114.845L25.4883 113.573L26.2941 105.133L26.6333 102.165Z" fill="#1A52E0"/>
<path d="M47.3297 99.6201C49.1958 100.723 50.5104 102.674 50.5104 102.674C51.0618 101.91 51.4435 98.0085 49.1958 95.1247C46.3119 91.435 43.8946 92.0288 42.9191 92.2832C41.0107 92.7497 40.2473 96.4393 40.2049 96.609C40.1201 96.609 39.8656 96.609 39.7384 96.2697C39.6112 95.888 39.2719 94.3613 37.9572 93.7675C36.6425 93.1738 35.5823 93.7675 35.2854 94.022C34.9885 94.2765 33.4194 95.2943 33.1225 96.8634C32.7833 98.9415 33.6739 100.468 34.31 101.274C34.4796 101.486 34.6493 101.741 34.8613 102.037C34.9037 102.08 34.9461 102.165 34.9886 102.207C35.5823 102.97 36.4729 103.691 38.2541 103.352C38.2541 103.352 37.6604 102.462 37.9572 101.656C38.2541 100.85 39.0599 99.196 39.9929 99.5352C40.9259 99.8745 39.484 103.013 38.0844 103.522C38.0844 103.522 39.0175 104.073 39.3991 104.412C39.7808 104.752 40.0353 105.345 40.5442 105.685C40.8411 105.897 42.2406 106.618 43.0888 107.551C43.7249 108.229 43.8946 109.205 43.8521 109.332C44.2762 108.229 47.3721 106.236 48.4748 105.6C49.535 104.964 50.1712 103.055 50.1712 103.055C50.1712 103.055 48.8141 101.401 47.3721 100.553C45.9726 99.7049 42.8343 99.0687 43.0888 98.6871C43.5129 98.263 45.1244 98.3478 47.3297 99.6201ZM46.3967 96.1849C47.3721 96.1425 48.1355 96.4818 48.1355 96.821C48.0931 97.1603 45.3789 97.1603 45.0396 96.6938C44.8276 96.4818 45.4213 96.2273 46.3967 96.1849Z" fill="url(#paint16_linear_2_552)"/>
<path d="M37.7019 86.6003C35.9631 85.6673 34.0123 85.2432 34.0123 85.0311C34.0123 84.6495 36.6416 85.2008 37.8291 85.8793C38.9742 86.5579 40.3737 87.7454 40.8826 88.6784C40.8826 88.6784 41.1795 87.0244 40.7554 86.3458C40.3737 85.7521 38.6773 84.8615 37.4474 84.3526C35.4542 83.5044 33.7154 83.7164 33.673 83.3772C33.673 83.0379 35.751 83.3348 36.5144 83.5892C38.2532 84.1405 39.7375 85.4128 39.7375 85.4128C39.7375 85.4128 39.6527 83.462 37.9563 81.9777C35.539 79.942 32.6127 79.8148 31.1284 80.0268C29.6441 80.2389 29.3896 81.5111 29.6017 82.4866C29.6017 82.529 29.6017 82.529 29.5593 82.529C29.3896 82.4866 28.5414 81.7232 27.9053 81.1719C27.1419 80.5357 26.3785 80.4509 25.9969 80.7902C25.6152 81.1295 25.3607 82.6562 25.9969 84.2254C26.4634 85.4128 27.7781 86.7275 28.3294 87.2788C28.3718 87.3213 28.4142 87.3213 28.4142 87.3637C28.5414 87.4909 28.6262 87.5333 28.6262 87.5333C28.6262 87.5333 28.6687 83.8013 29.2624 83.8437C29.8137 83.8861 28.9655 87.9998 28.9655 87.9998C28.9655 87.9998 31.6373 90.1627 32.4431 90.8412C32.4007 90.7564 31.4677 89.3145 31.1708 87.9574C30.9164 86.5579 30.7467 85.4552 31.3829 85.6249C32.019 85.7945 31.8918 87.1516 32.019 88.127C32.1886 89.1025 33.2065 91.1805 33.2065 91.1805L36.0903 91.6046C36.0903 91.6046 34.7756 90.6292 34.0971 89.7386C33.5458 89.0176 33.2065 88.1694 33.673 88.0422C33.885 87.9998 34.5212 88.5511 35.1997 89.3993C35.2845 89.5266 35.3694 89.6114 35.4118 89.6538C36.3024 90.7988 37.1082 92.2408 37.0233 93.2162C37.0233 93.2162 39.4831 91.9863 39.6951 91.3078C39.9072 90.6716 38.4229 89.2721 37.7867 88.7208C37.1082 88.1694 34.5212 87.1092 34.9453 86.6427C35.327 86.1762 37.6595 87.3637 38.2532 88.0846C38.8469 88.8056 39.6527 90.4596 40.6706 91.1805C40.6706 91.1805 41.1795 90.1203 40.925 89.2721C40.7554 88.8904 39.3559 87.4909 37.7019 86.6003ZM27.0571 82.529C26.5482 82.5714 26.0817 82.7834 26.0393 82.6562C25.9544 82.4017 26.3361 81.7232 26.8026 81.7232C27.5236 81.7232 28.1597 82.3169 28.1173 82.529C28.0749 82.6986 27.566 82.4866 27.0571 82.529ZM35.2845 81.4687C36.0903 81.4687 37.2778 81.596 37.3202 81.8504C37.3626 82.0201 36.3024 82.0201 35.2421 82.0201C34.2243 82.0201 33.1641 82.1049 33.1641 81.9777C33.2489 81.7232 33.9698 81.4687 35.2845 81.4687Z" fill="url(#paint17_linear_2_552)"/>
<path d="M22.9861 78.924C21.5442 78.2455 20.1023 79.0937 19.551 79.7298C19.042 80.3236 17.9818 82.5713 17.6001 82.444C17.5577 82.444 17.5153 82.4016 17.4729 82.3592C17.176 82.0199 16.8367 80.7901 15.4372 80.1115C14.2073 79.5178 11.3235 79.7298 9.07579 81.0445C7.20977 82.1472 6.14953 84.4373 6.10712 85.4551C6.10712 85.4551 5.34375 86.6002 5.34375 88.339C5.34375 89.9081 6.06471 91.0956 6.06471 91.0956C6.06471 91.0956 6.14953 89.1872 7.59146 87.6604C9.03338 86.1337 11.3659 85.2855 11.9172 85.6247C12.4686 85.964 7.20977 91.8165 7.20977 91.8165C7.20977 91.8165 10.5177 95.0397 10.9842 95.7182C11.0266 95.6334 11.8748 94.1915 13.3167 93.4281C15.0555 92.4951 16.5399 92.3679 16.5399 92.3679C16.5399 92.3679 16.7519 90.205 16.7095 89.3992C16.6247 88.0845 15.9885 86.6426 16.5823 86.4305C17.176 86.2185 17.6001 87.7028 17.6849 88.551C17.8122 90.205 17.0912 92.3679 17.0488 92.4951C17.1336 92.4527 18.2363 91.7741 19.2117 90.7987C19.3389 90.6715 19.4661 90.5443 19.551 90.417C19.5934 90.3322 19.6358 90.2898 19.6782 90.205C20.1871 89.272 20.0175 88.1693 19.5934 87.2363C19.042 86.1337 17.9394 84.4797 18.3211 84.3525C18.7028 84.2252 19.6782 84.7766 20.1447 85.2855C20.6112 85.7944 21.2049 87.7876 21.2049 87.7876C21.2049 87.7876 22.0531 86.7274 22.2228 85.8368C22.3924 84.9886 22.4772 83.5467 22.8165 82.9105C23.1558 82.2744 24.4281 79.6026 22.9861 78.924ZM9.5423 84.3525C8.05796 84.8614 6.57363 85.4975 6.53122 85.2431C6.4464 84.6917 8.56688 83.9284 9.45748 83.6315C10.3057 83.3346 12.4686 82.8681 12.5534 83.165C12.6382 83.4195 11.069 83.8435 9.5423 84.3525ZM10.3481 90.1626C10.0936 89.9929 10.8146 88.8479 11.4083 88.2965C12.0021 87.7452 12.6806 87.5332 12.8502 87.7452C13.0199 87.9573 12.3837 88.5086 11.79 89.0599C11.1114 89.6112 10.4753 90.2474 10.3481 90.1626ZM22.2228 82.6561C22.0955 83.0378 21.2049 82.8257 20.7808 82.7833C20.3567 82.6985 19.4237 82.9105 19.3389 82.5713C19.2965 82.3592 20.3991 81.8503 21.1625 81.8503C21.8835 81.8503 22.35 82.3168 22.2228 82.6561Z" fill="url(#paint18_linear_2_552)"/>
<path d="M4.45329 111.325C4.45329 111.325 4.32606 109.332 5.98004 108.144C7.63401 106.957 9.66967 106.321 11.4933 105.685C13.3169 105.049 15.4798 104.243 15.4374 102.758C15.395 101.274 13.953 101.02 13.0624 101.613C12.5535 101.953 11.8326 102.843 11.8326 102.843C11.8326 102.843 12.9776 101.359 12.2566 101.316C11.5357 101.232 10.1786 103.564 8.52461 104.667C7.76124 105.176 3.22341 108.06 4.45329 111.325Z" fill="url(#paint19_linear_2_552)"/>
<path d="M26.2513 101.825C26.2513 101.825 26.2937 100.977 25.4879 100.808C24.258 100.553 22.2648 101.783 22.0527 103.013C21.8831 104.243 22.8585 104.709 23.4098 104.837C23.9612 104.964 24.7245 105.006 24.8094 105.515C24.8518 106.024 24.9366 106.49 25.1486 106.703C25.1486 106.703 24.979 105.727 25.4031 105.345C25.7848 104.964 27.3539 105.133 28.8807 104.752C30.4074 104.328 31.3404 103.395 31.2132 102.377C31.086 101.359 29.6865 100.044 27.9901 100.214C26.2513 100.384 26.2513 101.825 26.2513 101.825Z" fill="url(#paint20_linear_2_552)"/>
<path d="M40.1201 96.6091C40.1201 96.6091 40.2049 96.8211 40.3322 97.1604C40.417 97.33 40.5018 97.5421 40.5866 97.7965C40.7139 98.051 40.7987 98.3054 40.9683 98.6023C41.0531 98.7295 41.1379 98.8992 41.1804 99.0688C41.2228 99.1536 41.2652 99.2385 41.3076 99.3233C41.35 99.4081 41.3924 99.4929 41.4348 99.5777C41.5196 99.7474 41.6469 99.8746 41.7741 100.044C41.9013 100.214 42.0285 100.384 42.1134 100.511C42.3678 100.85 42.6223 101.147 42.8343 101.486C42.9616 101.656 43.0888 101.825 43.1736 101.995C43.3008 102.165 43.3857 102.334 43.5129 102.546C43.5977 102.758 43.7249 102.928 43.7673 103.14C43.8522 103.352 43.937 103.522 43.9794 103.734C44.0642 104.158 44.1914 104.54 44.2338 104.964C44.2763 105.176 44.2763 105.345 44.3187 105.557C44.3187 105.77 44.3187 105.939 44.3611 106.109C44.3611 106.278 44.3611 106.49 44.3611 106.66C44.3611 106.83 44.3611 106.999 44.3611 107.169C44.3187 107.508 44.3187 107.763 44.2763 108.06C44.2338 108.314 44.1914 108.526 44.1914 108.738C44.149 108.908 44.1066 109.077 44.1066 109.162C44.0642 109.247 44.0642 109.332 44.0642 109.332C44.0642 109.332 44.0642 109.29 44.1066 109.162C44.149 109.077 44.149 108.908 44.1914 108.738C44.2338 108.569 44.2763 108.314 44.3187 108.06C44.3611 107.805 44.4035 107.508 44.4035 107.169C44.4035 106.999 44.4035 106.83 44.4459 106.66C44.4459 106.49 44.4459 106.321 44.4459 106.109C44.4459 105.939 44.4459 105.727 44.4459 105.557C44.4459 105.345 44.4035 105.176 44.4035 104.964C44.3611 104.54 44.2763 104.158 44.1914 103.734C44.149 103.522 44.0642 103.31 43.9794 103.14C43.8946 102.928 43.8097 102.758 43.7249 102.546C43.6401 102.334 43.5129 102.165 43.4281 101.995C43.3432 101.825 43.216 101.613 43.0888 101.444C42.8767 101.104 42.5799 100.765 42.3678 100.426C42.2406 100.256 42.1134 100.087 42.0285 99.9594C41.9013 99.7898 41.8165 99.6626 41.7317 99.4929C41.6893 99.4081 41.6469 99.3233 41.6045 99.2809C41.562 99.196 41.5196 99.1112 41.4772 99.0264C41.3924 98.8568 41.35 98.7295 41.2652 98.5599C41.1379 98.263 41.0107 98.0086 40.9259 97.7541C40.8411 97.4997 40.7139 97.2876 40.6714 97.118C40.5442 96.7787 40.4594 96.5667 40.4594 96.5667L40.1201 96.6091Z" fill="#0093DF"/>
<path d="M29.5176 82.6138C29.5176 82.6138 29.6024 82.741 29.772 82.9107C29.9417 83.0803 30.1961 83.3772 30.493 83.674C30.7899 84.0133 31.1291 84.395 31.4684 84.7767C31.8501 85.2008 32.1894 85.6249 32.5711 86.0914C32.9528 86.5155 33.3344 86.982 33.6737 87.4061C34.013 87.8302 34.3099 88.2543 34.6067 88.5935C35.158 89.2721 35.4973 89.7386 35.4973 89.7386C35.4973 89.7386 35.158 89.2721 34.6491 88.5511C34.3947 88.2119 34.0978 87.7878 33.7585 87.3637C33.4193 86.9396 33.0376 86.4731 32.6983 86.049C32.3166 85.5825 31.9773 85.1584 31.6381 84.7343C31.2988 84.3102 30.9595 83.9285 30.6626 83.5892C30.3658 83.2499 30.1537 82.9955 29.9841 82.7834C29.8144 82.5714 29.7296 82.4866 29.7296 82.4866L29.5176 82.6138Z" fill="#1A52E0"/>
<path d="M17.5579 82.3171C17.5579 82.3171 17.5154 82.3595 17.4306 82.402C17.3458 82.4868 17.2186 82.5716 17.0489 82.7412C16.8793 82.8685 16.7097 83.0805 16.54 83.2926C16.3704 83.5046 16.1159 83.7591 15.9039 84.0559C15.6918 84.3528 15.4798 84.6497 15.2253 84.9889C15.0981 85.1586 15.0133 85.3282 14.8861 85.5403C14.7588 85.7099 14.674 85.9219 14.5468 86.0916C14.4195 86.3036 14.3347 86.4733 14.2075 86.6853C14.0803 86.8974 13.9955 87.1094 13.9106 87.3215C13.8258 87.5335 13.6986 87.7456 13.6138 87.9576C13.5289 88.1697 13.4441 88.3817 13.3169 88.5937C13.1049 89.0178 12.9352 89.4419 12.7656 89.9084C12.6808 90.1205 12.5959 90.3325 12.5111 90.5446C12.4263 90.7566 12.3839 90.9687 12.2991 91.1807C12.1718 91.6048 12.0022 91.9865 11.9174 92.4106C11.7902 92.7923 11.7053 93.174 11.5781 93.5133C11.4933 93.8525 11.4085 94.1494 11.3237 94.4463C11.2388 94.7431 11.1964 94.9552 11.154 95.1672C11.0692 95.5489 10.9844 95.8034 10.9844 95.8034C10.9844 95.8034 11.0268 95.5913 11.154 95.1672C11.1964 94.9552 11.2812 94.7431 11.3661 94.4463C11.4509 94.1494 11.5357 93.8525 11.6205 93.5133C11.7053 93.174 11.8326 92.7923 11.9598 92.4106C12.087 92.0289 12.2143 91.6472 12.3839 91.2231C12.4687 91.0111 12.5535 90.7991 12.5959 90.587C12.6808 90.375 12.7656 90.1629 12.8504 89.9509C13.02 89.5268 13.1897 89.1027 13.4017 88.6786C13.4865 88.4665 13.6138 88.2545 13.6986 88.0424C13.7834 87.8304 13.9106 87.6183 14.0379 87.4063C14.1651 87.1942 14.2499 86.9822 14.3771 86.8125C14.5044 86.6005 14.5892 86.4309 14.7164 86.2188C14.8436 86.0068 14.9285 85.8371 15.0557 85.6675C15.1829 85.4979 15.2677 85.3282 15.395 85.1586C15.6494 84.8193 15.8615 84.5224 16.0735 84.268C16.2856 83.9711 16.4976 83.7591 16.7097 83.547C16.9217 83.335 17.0914 83.1653 17.2186 83.0381C17.3458 82.9109 17.473 82.7836 17.5579 82.7412C17.6427 82.6988 17.6851 82.6564 17.6851 82.6564L17.5579 82.3171Z" fill="#00B1E2"/>
<path d="M32.9951 109.247L31.7228 110.816L28.0756 115.354L27.0153 116.669H26.676C26.464 116.669 26.2519 116.669 26.0399 116.669H25.9551L26.0399 116.584L27.0153 115.566L27.185 115.354L31.5531 110.731L32.9951 109.247Z" fill="#1A52E0"/>
<path d="M33.2485 108.865C33.2485 108.865 33.1637 108.017 34.1391 107.763C35.1145 107.508 37.1926 108.272 37.9984 109.12C38.8042 109.968 38.6345 111.24 37.9984 111.537C37.3622 111.834 36.302 112.004 36.0899 112.343C35.8779 112.682 35.581 113.361 35.581 113.361C35.581 113.361 35.2842 111.707 34.7328 111.283C34.1815 110.858 32.5275 111.325 31.6793 110.774C30.5343 110.095 30.4071 108.823 31.128 108.229C32.2307 107.381 33.2485 108.865 33.2485 108.865Z" fill="#172B36"/>
<path d="M132.912 66.8799L134.778 67.7281V85.2432L132.912 84.3526V66.8799Z" fill="#C7DEFF"/>
<path d="M136.601 66.8799L134.777 67.7281V85.2432L136.601 84.3526V66.8799Z" fill="#E3EFFF"/>
<path d="M132.912 66.8799L134.778 67.7281V74.8953L132.912 74.0047V66.8799Z" fill="#FF8144"/>
<path d="M134.778 66.0315L132.912 66.8797L134.778 67.7279L136.602 66.8797L134.778 66.0315Z" fill="#FFCD85"/>
<path d="M136.601 66.8799L134.777 67.7281V74.8953L136.601 74.0047V66.8799Z" fill="#FFB74E"/>
<path d="M138.637 70.8665V78.7122V84.3527L140.503 85.2433V78.7122V71.7571L138.637 70.8665Z" fill="#C7DEFF"/>
<path d="M140.503 71.7571V78.7122V85.2433L142.327 84.3527V78.7122V70.8665L140.503 71.7571Z" fill="#E3EFFF"/>
<path d="M138.637 70.8665V73.411L140.503 74.2592V71.7571L138.637 70.8665Z" fill="#E3733D"/>
<path d="M140.503 70.0605L138.637 70.8663L140.503 71.7569L142.326 70.8663L140.503 70.0605Z" fill="#FFA77D"/>
<path d="M140.503 71.7571V74.2592L142.327 73.411V70.8665L140.503 71.7571Z" fill="#FF8144"/>
<path d="M144.362 73.4109V78.0335V80.0268V84.3525L146.186 85.2432V80.0268V78.0335V74.2591L144.362 73.4109Z" fill="#C7DEFF"/>
<path d="M146.186 74.2591V78.0335V80.0268V85.2432L148.052 84.3525V80.0268V78.0335V73.4109L146.186 74.2591Z" fill="#E3EFFF"/>
<path d="M144.362 73.4109L146.186 74.2591V75.7858L144.362 74.9376V73.4109Z" fill="#48A6A8"/>
<path d="M146.186 72.5627L144.362 73.4109L146.186 74.2591L148.052 73.4109L146.186 72.5627Z" fill="#72DFE3"/>
<path d="M148.052 73.4109L146.186 74.2591V75.7858L148.052 74.9376V73.4109Z" fill="#6ED7DB"/>
<path d="M150.088 66.8799L151.912 67.7281V85.2432L150.088 84.3526V66.8799Z" fill="#C7DEFF"/>
<path d="M153.777 66.8799L151.911 67.7281V85.2432L153.777 84.3526V66.8799Z" fill="#E3EFFF"/>
<path d="M150.088 66.8799L151.912 67.7281V73.4534L150.088 72.5628V66.8799Z" fill="#3E9ED4"/>
<path d="M151.912 66.0315L150.088 66.8797L151.912 67.7279L153.778 66.8797L151.912 66.0315Z" fill="#75CEFF"/>
<path d="M153.777 66.8799L151.911 67.7281V73.411L153.777 72.5204V66.8799Z" fill="#47B5F2"/>
<path d="M142.326 66.583H138.637V68.4066H140.206L140.503 68.7459L140.757 68.4066H142.326V66.583Z" fill="#F2E9E4"/>
<path d="M48.0918 42.7488V57.2104C48.0918 57.7618 49.1096 58.2283 50.3395 58.2283C51.5694 58.2283 52.5872 57.7618 52.5872 57.2104V42.7488H48.0918Z" fill="url(#paint21_linear_2_552)"/>
<path d="M50.3395 43.7666C51.5809 43.7666 52.5872 43.3109 52.5872 42.7488C52.5872 42.1867 51.5809 41.731 50.3395 41.731C49.0981 41.731 48.0918 42.1867 48.0918 42.7488C48.0918 43.3109 49.0981 43.7666 50.3395 43.7666Z" fill="#ECF3FF"/>
<path d="M41.1377 46.4807V57.2103C41.1377 57.7617 42.1555 58.2282 43.3854 58.2282C44.6153 58.2282 45.6331 57.7617 45.6331 57.2103V46.4807H41.1377Z" fill="url(#paint22_linear_2_552)"/>
<path d="M43.4274 47.4988C44.6688 47.4988 45.6751 47.0431 45.6751 46.481C45.6751 45.9188 44.6688 45.4631 43.4274 45.4631C42.186 45.4631 41.1797 45.9188 41.1797 46.481C41.1797 47.0431 42.186 47.4988 43.4274 47.4988Z" fill="#ECF3FF"/>
<path d="M34.2246 50.0433V57.2105C34.2246 57.7619 35.2424 58.2284 36.4723 58.2284C37.7022 58.2284 38.72 57.7619 38.72 57.2105V50.0433H34.2246Z" fill="url(#paint23_linear_2_552)"/>
<path d="M36.4723 51.0613C37.7137 51.0613 38.72 50.6056 38.72 50.0435C38.72 49.4813 37.7137 49.0256 36.4723 49.0256C35.2309 49.0256 34.2246 49.4813 34.2246 50.0435C34.2246 50.6056 35.2309 51.0613 36.4723 51.0613Z" fill="#ECF3FF"/>
<path d="M27.3115 53.5632V57.2105C27.3115 57.7618 28.3294 58.2283 29.5592 58.2283C30.7891 58.2283 31.8069 57.7618 31.8069 57.2105V53.5632H27.3115Z" fill="url(#paint24_linear_2_552)"/>
<path d="M29.5592 54.5811C30.8006 54.5811 31.8069 54.1254 31.8069 53.5632C31.8069 53.0011 30.8006 52.5454 29.5592 52.5454C28.3179 52.5454 27.3115 53.0011 27.3115 53.5632C27.3115 54.1254 28.3179 54.5811 29.5592 54.5811Z" fill="#ECF3FF"/>
<path d="M31.3407 49.7888H27.7783V51.5276H29.3051L29.5595 51.8669L29.814 51.5276H31.3407V49.7888Z" fill="#6ED7DB"/>
<path d="M38.2538 46.2263H34.6914V47.9227H36.2181L36.4726 48.3044L36.7271 47.9227H38.2538V46.2263Z" fill="#E3733D"/>
<path d="M45.2089 42.6641H41.6465V44.4029H43.1732L43.4277 44.7421L43.6821 44.4029H45.2089V42.6641Z" fill="#FFB74E"/>
<path d="M52.1209 38.9321H48.5585V40.6709H50.0853L50.3397 41.0102L50.5942 40.6709H52.1209V38.9321Z" fill="#47B5F2"/>
<path d="M38.6782 63.4023H34.8613V64.1233H38.6782V63.4023Z" fill="#75CEFF"/>
<path d="M38.6782 64.5474H34.8613V65.2683H38.6782V64.5474Z" fill="#65BCF9"/>
<path d="M38.6782 65.6924H34.8613V66.4134H38.6782V65.6924Z" fill="#54AAF3"/>
<path d="M38.6782 66.8375H34.8613V67.5585H38.6782V66.8375Z" fill="#4497EE"/>
<path d="M38.6782 67.9825H34.8613V68.7035H38.6782V67.9825Z" fill="#3385E8"/>
<path d="M44.6147 63.4023H40.7979V64.1233H44.6147V63.4023Z" fill="#EADCDD"/>
<path d="M44.6148 64.5474H40.7979V65.2683H44.6148V64.5474Z" fill="#ECDFDF"/>
<path d="M44.6148 65.6924H40.7979V66.4134H44.6148V65.6924Z" fill="#EEE3E1"/>
<path d="M44.6148 66.8375H40.7979V67.5585H44.6148V66.8375Z" fill="#F0E6E2"/>
<path d="M44.6148 67.9825H40.7979V68.7035H44.6148V67.9825Z" fill="#F2E9E4"/>
<path d="M50.5532 63.4023H46.7363V64.1233H50.5532V63.4023Z" fill="#FF8144"/>
<path d="M50.5532 64.5474H46.7363V65.2683H50.5532V64.5474Z" fill="#F87E42"/>
<path d="M50.5532 65.6924H46.7363V66.4134H50.5532V65.6924Z" fill="#F17A41"/>
<path d="M50.5532 66.8375H46.7363V67.5585H50.5532V66.8375Z" fill="#EA773F"/>
<path d="M50.5532 67.9825H46.7363V68.7035H50.5532V67.9825Z" fill="#E3733D"/>
<path d="M56.4897 63.4023H52.6729V64.1233H56.4897V63.4023Z" fill="#72DFE3"/>
<path d="M56.4897 64.5474H52.6729V65.2683H56.4897V64.5474Z" fill="#71DDE1"/>
<path d="M56.4897 65.6924H52.6729V66.4134H56.4897V65.6924Z" fill="#70DBDF"/>
<path d="M56.4897 66.8375H52.6729V67.5585H56.4897V66.8375Z" fill="#6FD9DD"/>
<path d="M56.4897 67.9825H52.6729V68.7035H56.4897V67.9825Z" fill="#6ED7DB"/>
<path d="M123.752 86.2185H100.851V63.3174H123.752V86.2185ZM101.105 86.0065H123.582V63.5294H101.105V86.0065Z" fill="#C2E5FF"/>
<path d="M148.688 60.9849H134.057V56.3198H148.688V60.9849ZM134.269 60.7728H148.476V56.5319H134.269V60.7728Z" fill="#C2E5FF"/>
<path d="M156.491 57.8893H149.154V56.2777H156.491V57.8893ZM149.409 57.6772H156.322V56.4898H149.409V57.6772Z" fill="#C2E5FF"/>
<path d="M156.491 60.985H149.154V58.5253H156.491V60.985ZM149.409 60.773H156.322V58.7373H149.409V60.773Z" fill="#C2E5FF"/>
<path d="M70.4839 40.1619H63.7832V37.2781H70.4839V40.1619ZM63.9528 39.9499H70.2295V37.4901H63.9528V39.9499Z" fill="#C2E5FF"/>
<path d="M60.6877 40.1619H57.8887V37.2781H60.6877V40.1619ZM58.1007 39.9499H60.4757V37.4901H58.1007V39.9499Z" fill="#C2E5FF"/>
<path d="M112.258 81.6809C108.442 81.6809 105.346 78.585 105.346 74.7681C105.346 70.9512 108.442 67.8553 112.258 67.8553C116.075 67.8553 119.171 70.9512 119.171 74.7681C119.171 78.585 116.075 81.6809 112.258 81.6809ZM112.258 69.17C109.205 69.17 106.703 71.6722 106.703 74.7257C106.703 77.7792 109.205 80.2813 112.258 80.2813C115.312 80.2813 117.814 77.7792 117.814 74.7257C117.857 71.6722 115.354 69.17 112.258 69.17Z" fill="#C2E5FF"/>
<path d="M104.836 74.3017C105.048 70.5273 108.101 67.4738 111.876 67.2617V69.7215C109.459 69.9335 107.508 71.8844 107.296 74.3017H104.836Z" fill="#75CEFF"/>
<path d="M59.0769 81.6382V83.7587C59.0769 83.7587 58.9073 84.0556 58.78 84.7766C58.6528 85.4975 58.6952 86.6426 58.8648 86.9819C59.0345 87.3635 59.3738 87.3635 59.5858 87.3211C59.5858 87.3211 59.7979 87.5332 60.0099 87.5332C60.222 87.5756 60.4764 87.406 60.4764 87.406C60.4764 87.406 60.6461 87.7028 60.9853 87.7028C61.2822 87.7452 61.4094 87.5332 61.4094 87.5332C61.4094 87.5332 61.4942 87.7452 61.7911 87.7452C62.1304 87.7452 62.3424 87.2363 62.3424 87.2363C62.3424 87.2363 62.5121 87.1939 62.5545 87.1091C62.5969 87.0243 62.8513 85.1582 62.8089 85.1158C62.7665 85.031 61.3246 83.6739 61.3246 83.6739V81.3838L59.0769 81.6382Z" fill="url(#paint25_linear_2_552)"/>
<path d="M63.0633 88.8476H58.4407C58.1862 88.8476 58.0166 88.678 58.0166 88.4235V86.4727C58.0166 86.2182 58.1862 86.0486 58.4407 86.0486H63.0633C63.3178 86.0486 63.4874 86.2182 63.4874 86.4727V88.4235C63.4874 88.678 63.3178 88.8476 63.0633 88.8476ZM58.8648 87.9994H62.6392V86.8968H58.8648V87.9994Z" fill="#172B36"/>
<path d="M70.0181 88.2966H51.6123V103.013H70.0181V88.2966Z" fill="#172B36"/>
<path d="M53.1815 88.2966H51.6123V103.013H53.1815V88.2966Z" fill="#1E70D3"/>
<path d="M52.3758 103.097C52.3334 103.097 52.291 103.055 52.291 103.013V88.2965C52.291 88.2541 52.3334 88.2117 52.3758 88.2117C52.4182 88.2117 52.4607 88.2541 52.4607 88.2965V103.013C52.4607 103.055 52.4182 103.097 52.3758 103.097Z" fill="#283558"/>
<path d="M60.3061 84.9462C60.2637 84.9462 60.2637 84.9462 60.2637 84.9038V84.3525C60.2637 84.3101 60.2637 84.3101 60.3061 84.3101C60.3485 84.3101 60.3485 84.3101 60.3485 84.3525V84.9038C60.3909 84.9038 60.3485 84.9462 60.3061 84.9462C60.3485 84.9462 60.3061 84.9462 60.3061 84.9462Z" fill="#D5584D"/>
<path d="M59.0762 86.9816C59.0762 86.9816 59.5427 85.9638 59.6275 85.8366C59.7971 85.6245 60.0516 85.879 60.094 86.0062L59.7547 87.1513L59.0762 86.9816Z" fill="url(#paint26_linear_2_552)"/>
<path d="M59.712 87.2788C59.712 87.2788 60.0937 85.9641 60.2209 85.752C60.3481 85.54 60.7722 85.6672 60.7722 85.8793C60.7722 86.0489 60.5602 87.4484 60.5602 87.4484L59.712 87.2788Z" fill="url(#paint27_linear_2_552)"/>
<path d="M61.4093 87.5753C61.5365 86.5999 61.3669 85.9638 61.2397 85.8366C61.1124 85.7093 60.7732 85.9214 60.7732 85.9214L60.6035 87.3209L61.4093 87.5753Z" fill="url(#paint28_linear_2_552)"/>
<path d="M62.6808 85.5822C62.6808 85.5822 61.9598 85.455 61.875 86.1335C61.875 86.1335 61.2813 86.0911 61.1116 86.3032C60.942 86.5152 60.942 86.7273 61.0692 86.7697C61.0692 86.7697 62.2567 87.2786 62.3839 87.2786L62.6808 85.5822Z" fill="url(#paint29_linear_2_552)"/>
<path d="M55.0898 89.0175H54.284C54.2416 89.0175 54.1992 88.9751 54.1992 88.9327C54.1992 88.8903 54.2416 88.8479 54.284 88.8479H55.0898C55.1322 88.8479 55.1746 88.8903 55.1746 88.9327C55.1746 88.9751 55.1322 89.0175 55.0898 89.0175Z" fill="white"/>
<path d="M62.4698 89.0175H55.8963C55.8539 89.0175 55.8115 88.9751 55.8115 88.9327C55.8115 88.8903 55.8539 88.8479 55.8963 88.8479H62.4698C62.5122 88.8479 62.5546 88.8903 62.5546 88.9327C62.5546 88.9751 62.5122 89.0175 62.4698 89.0175Z" fill="white"/>
<path d="M76.2953 50.4251C75.1927 50.001 72.1816 47.7533 71.5455 46.3113C70.9093 44.8694 70.57 43.0882 71.5455 42.0704C72.5209 41.0525 74.5141 40.374 76.1257 41.0101C77.7373 41.6463 78.1614 42.7065 78.3734 43.2578C78.543 43.7668 78.9671 44.615 78.7127 44.9542C78.4582 45.3359 78.2462 45.6752 78.2886 45.8872C78.331 46.1417 78.543 46.9051 78.4158 47.414C78.2886 47.9229 77.6524 50.0434 77.5252 50.2978C77.4404 50.5523 76.8891 50.6371 76.2953 50.4251Z" fill="url(#paint30_linear_2_552)"/>
<path d="M74.0467 54.0724C72.9864 54.0724 72.1807 53.2666 72.1807 52.2488V48.0927C72.1807 47.0748 72.9864 46.269 74.0043 46.269H74.0467C75.0645 46.269 75.8703 47.0748 75.8703 48.0927V52.2488C75.8703 53.2242 75.0645 54.0724 74.0467 54.0724Z" fill="url(#paint31_linear_2_552)"/>
<path d="M78.4155 43.1305C78.0338 43.5546 77.9066 45.5903 77.6097 45.6751C77.3129 45.7599 77.0584 44.4876 76.2526 44.4452C75.4469 44.4028 75.0228 48.6014 73.1567 48.6014C71.2907 48.6014 70.1033 44.8693 70.4425 42.8337C70.7818 40.798 73.1567 40.1195 74.217 40.1195C75.2772 40.1195 75.4893 39.4409 76.4647 39.5681C77.7794 39.7378 78.2883 40.9677 78.2883 40.9677C78.2883 40.9677 78.5852 40.4163 78.9244 40.6708C79.3061 40.9677 79.2637 42.1551 78.4155 43.1305Z" fill="#172B36"/>
<path d="M70.6113 52.1212C70.6113 52.1212 71.714 49.6191 73.8345 49.8311C75.9973 50.0432 78.1178 52.4181 78.1178 52.4181L70.6113 52.1212Z" fill="url(#paint32_linear_2_552)"/>
<path d="M74.4286 77.6519L64.8017 131.342C64.632 132.275 63.7838 132.869 62.8508 132.7C61.9602 132.53 61.3665 131.682 61.4937 130.833L69.0002 76.7613C69.2122 75.2346 70.6118 74.2167 72.0961 74.4288C73.6228 74.6408 74.6407 76.0403 74.4286 77.5247C74.4286 77.5671 74.4286 77.6095 74.4286 77.6519Z" fill="#242C4F"/>
<path d="M80.8331 78.0758L77.9068 131.173C77.8644 132.106 77.0586 132.827 76.1256 132.742C75.235 132.699 74.5141 131.936 74.5565 131.045L75.3198 77.9062C75.3623 76.3794 76.5921 75.1496 78.1189 75.192C79.6456 75.2344 80.8755 76.4643 80.8331 77.991C80.8755 77.991 80.8755 78.0334 80.8331 78.0758Z" fill="#242C4F"/>
<path d="M74.3447 130.367V132.318H82.0633L81.8512 131.894C81.724 131.639 81.5119 131.47 81.2151 131.47H80.791C80.7062 131.47 80.5789 131.427 80.4941 131.385L77.5254 129.943C77.5254 129.943 76.8893 131.046 75.7018 130.961C74.5568 130.961 74.3447 130.367 74.3447 130.367Z" fill="url(#paint33_linear_2_552)"/>
<path d="M82.2321 132.318H74.1318V132.869H82.2321V132.318Z" fill="url(#paint34_linear_2_552)"/>
<path d="M61.4512 130.41V132.276H68.9153L68.7456 131.894C68.6184 131.639 68.4063 131.512 68.1519 131.512H67.7278C67.643 131.512 67.5157 131.47 67.4309 131.427L64.5471 130.028C64.5471 130.028 63.9109 131.088 62.8083 131.046C61.6632 130.961 61.4512 130.41 61.4512 130.41Z" fill="url(#paint35_linear_2_552)"/>
<path d="M69.128 132.275H61.2822V132.827H69.128V132.275Z" fill="url(#paint36_linear_2_552)"/>
<path d="M74.641 86.0066C78.5525 86.0066 81.7234 82.8357 81.7234 78.9242C81.7234 75.0127 78.5525 71.8418 74.641 71.8418C70.7295 71.8418 67.5586 75.0127 67.5586 78.9242C67.5586 82.8357 70.7295 86.0066 74.641 86.0066Z" fill="#004A80"/>
<path d="M71.7142 77.2278L63.4443 128.84L71.7142 77.2278Z" fill="white"/>
<path d="M71.9686 73.1142C69.8481 72.987 68.0245 74.5986 67.77 76.719C67.77 76.719 61.7054 128.247 61.4086 130.325C61.1117 132.403 65.3103 131.258 65.6495 129.349C65.9888 127.441 75.6158 77.8641 75.6158 77.8641C75.6158 77.7793 75.6582 77.6945 75.6582 77.652C75.955 75.3619 74.3011 73.2839 71.9686 73.1142Z" fill="#172B36"/>
<path d="M61.3241 83.759C60.9848 83.4621 60.391 83.547 60.391 83.547C60.3486 83.547 60.3486 83.547 60.3486 83.5045C60.3486 83.4621 60.3486 83.4621 60.391 83.4621C60.4334 83.4621 61.0272 83.3773 61.3665 83.6742C61.3665 83.7166 61.3665 83.7166 61.3241 83.759C61.3665 83.759 61.3241 83.759 61.3241 83.759Z" fill="#D5584D"/>
<path d="M95.7179 52.9695C95.7179 52.9695 95.5907 52.1213 95.3786 52.1213C95.2514 52.1213 95.209 52.503 95.1242 52.8847C94.997 53.3936 94.7849 53.9449 94.7425 54.0722C94.6577 54.2842 94.8697 55.0476 94.9121 55.1748C94.9545 55.3021 95.7179 52.9695 95.7179 52.9695Z" fill="#D5584D"/>
<path d="M93.9785 58.5677L94.6571 56.4048C94.6571 56.4048 94.9115 54.0723 95.166 53.5634C95.4204 53.0545 96.099 52.0366 96.2262 51.8246C96.3959 51.6125 96.8624 50.934 97.1168 50.5523C97.3713 50.213 97.6681 50.4675 97.4985 50.8068C97.4137 50.9764 96.2262 53.3089 96.2262 53.3089C96.2262 53.3089 97.2016 51.7398 97.2865 51.655C97.4137 51.5277 97.8378 51.655 97.7106 52.1215L96.9472 53.6906C96.9472 53.6906 97.6257 52.3335 97.6257 52.2911C97.7106 52.1215 98.1771 52.3335 98.0922 52.7152C98.0498 52.9272 97.5409 54.1147 97.5409 54.1147C97.5409 54.1147 97.8802 53.0121 97.965 53.0545C98.0498 53.0545 98.3891 53.4362 98.3467 53.733C98.3043 54.0299 97.8802 54.8781 97.6681 55.3446C97.4561 55.8111 96.311 58.0164 96.311 58.0164L95.9718 59.2887L93.9785 58.5677Z" fill="url(#paint37_linear_2_552)"/>
<path d="M97.5828 54.7085C97.2435 54.6661 96.777 54.3268 96.565 54.1148C96.3953 53.9451 96.0137 53.8603 95.7168 53.7755C95.5896 53.7331 95.5047 53.6907 95.4623 53.6058C95.4199 53.521 95.4199 53.4362 95.4199 53.4362C95.4199 53.3938 95.4623 53.3938 95.4623 53.3938C95.5047 53.3938 95.5047 53.4362 95.5047 53.4362C95.5047 53.4362 95.5047 53.4786 95.5047 53.5634C95.5471 53.6058 95.5896 53.6483 95.6744 53.6483C95.9712 53.7331 96.3953 53.8179 96.565 54.0299C96.7346 54.242 97.2435 54.5389 97.498 54.5813C97.5404 54.5813 97.5404 54.6237 97.5404 54.6237C97.6252 54.7085 97.6252 54.7085 97.5828 54.7085Z" fill="#D5584D"/>
<path d="M88.8898 69.4245C89.7804 69.9758 91.1375 69.7637 93.2156 66.2438C94.8272 63.5295 96.6084 57.9315 96.778 57.465C97.2021 56.3623 94.8271 55.4293 94.5303 55.9806C94.2334 56.5744 94.1062 57.0409 92.7067 59.331C90.9679 62.2148 88.8474 65.4804 88.5505 66.2013C87.9144 67.8553 88.1689 68.958 88.8898 69.4245Z" fill="#005FF0"/>
<path d="M62.3839 67.0071C61.2812 66.795 60.009 67.4736 59.1608 71.7993C58.5246 75.1073 58.9487 82.8682 58.9911 83.3772C59.0335 83.9285 61.3661 83.8861 61.4085 83.2923C61.4509 82.741 61.5781 81.3415 62.1294 78.5425C62.808 75.0225 63.7834 70.9512 63.8258 70.1454C63.9955 68.1945 63.3169 67.1767 62.3839 67.0071Z" fill="#0056EC"/>
<path d="M63.784 70.9936C65.2683 66.9647 66.4133 63.9112 68.2794 58.822C68.5762 57.9738 68.4914 57.0408 67.9825 56.3199C67.1343 55.09 65.4379 54.7931 64.208 55.6837C63.6567 56.0654 63.3174 56.5743 63.1478 57.1681C61.7059 62.3844 60.8153 65.5651 59.6702 69.6789C59.5006 70.2726 59.5854 70.9512 59.9671 71.5025C60.6456 72.4779 62.0028 72.69 62.9782 72.0114C63.3599 71.7569 63.6567 71.4177 63.784 70.9936Z" fill="#0056EC"/>
<path d="M78.0754 74.0894C75.8701 74.0894 74.0889 75.8281 74.0889 78.0334C74.0889 78.0334 74.3009 131.512 74.3009 131.639L78.5419 130.197C78.5419 130.112 82.0195 78.3303 82.0195 78.3303C82.0195 78.2455 82.0195 78.1607 82.0195 78.0759C82.0619 75.8706 80.2807 74.0894 78.0754 74.0894Z" fill="#172B36"/>
<path d="M82.1055 80.1117C82.1055 77.0582 82.1055 70.0182 82.1055 70.0182C82.1055 70.0182 84.7773 57.0409 84.438 56.1079C83.7171 54.157 77.4828 51.2732 73.3267 51.2732C69.3826 51.2732 64.3359 55.1749 63.827 56.1079C63.3181 57.0409 68.2376 70.0606 68.2376 70.0606C68.2376 70.0606 67.4318 77.864 67.3045 79.2635C67.1773 81.2143 82.1055 82.4442 82.1055 80.1117Z" fill="url(#paint38_linear_2_552)"/>
<path d="M91.4345 66.2863C89.0172 62.7663 87.1511 60.0521 84.0977 55.5991C83.5887 54.8781 82.783 54.4116 81.85 54.4116C80.3656 54.4116 79.1357 55.6415 79.1357 57.1258C79.1357 57.762 79.3478 58.3557 79.7719 58.8222C83.2071 63.0208 85.2851 65.5229 88.0417 68.8733C88.4234 69.3398 89.0172 69.6791 89.6957 69.6791C90.8832 69.6791 91.8586 68.7036 91.8586 67.5162C91.8162 67.0497 91.689 66.6256 91.4345 66.2863Z" fill="#005FF0"/>
<defs>
<linearGradient id="paint0_linear_2_552" x1="175.452" y1="17.4834" x2="175.452" y2="120.932" gradientUnits="userSpaceOnUse">
<stop stop-color="#808080"/>
<stop offset="0.00382533" stop-color="#818181"/>
<stop offset="0.1485" stop-color="#A7A7A7"/>
<stop offset="0.2972" stop-color="#C7C7C7"/>
<stop offset="0.4521" stop-color="#E0E0E0"/>
<stop offset="0.6137" stop-color="#F1F1F1"/>
<stop offset="0.7864" stop-color="#FCFCFC"/>
<stop offset="0.9892" stop-color="white"/>
</linearGradient>
<linearGradient id="paint1_linear_2_552" x1="175.453" y1="17.4834" x2="175.453" y2="120.932" gradientUnits="userSpaceOnUse">
<stop stop-color="#DFF4FF"/>
<stop offset="0.0223325" stop-color="#DCF3FF"/>
<stop offset="0.2378" stop-color="#C3E6FE"/>
<stop offset="0.4638" stop-color="#B2DEFD"/>
<stop offset="0.7053" stop-color="#A7D9FC"/>
<stop offset="0.9892" stop-color="#A4D7FC"/>
</linearGradient>
<linearGradient id="paint2_linear_2_552" x1="155.741" y1="44.9367" x2="155.741" y2="120.416" gradientUnits="userSpaceOnUse">
<stop stop-color="#808080"/>
<stop offset="0.00382533" stop-color="#818181"/>
<stop offset="0.1485" stop-color="#A7A7A7"/>
<stop offset="0.2972" stop-color="#C7C7C7"/>
<stop offset="0.4521" stop-color="#E0E0E0"/>
<stop offset="0.6137" stop-color="#F1F1F1"/>
<stop offset="0.7864" stop-color="#FCFCFC"/>
<stop offset="0.9892" stop-color="white"/>
</linearGradient>
<linearGradient id="paint3_linear_2_552" x1="155.74" y1="44.9362" x2="155.74" y2="120.415" gradientUnits="userSpaceOnUse">
<stop stop-color="#DFF4FF"/>
<stop offset="0.0223325" stop-color="#DCF3FF"/>
<stop offset="0.2378" stop-color="#C3E6FE"/>
<stop offset="0.4638" stop-color="#B2DEFD"/>
<stop offset="0.7053" stop-color="#A7D9FC"/>
<stop offset="0.9892" stop-color="#A4D7FC"/>
</linearGradient>
<linearGradient id="paint4_linear_2_552" x1="131.281" y1="31.4552" x2="131.281" y2="120.553" gradientUnits="userSpaceOnUse">
<stop stop-color="#808080"/>
<stop offset="0.00382533" stop-color="#818181"/>
<stop offset="0.1485" stop-color="#A7A7A7"/>
<stop offset="0.2972" stop-color="#C7C7C7"/>
<stop offset="0.4521" stop-color="#E0E0E0"/>
<stop offset="0.6137" stop-color="#F1F1F1"/>
<stop offset="0.7864" stop-color="#FCFCFC"/>
<stop offset="0.9892" stop-color="white"/>
</linearGradient>
<linearGradient id="paint5_linear_2_552" x1="131.281" y1="31.4551" x2="131.281" y2="120.553" gradientUnits="userSpaceOnUse">
<stop stop-color="#DFF4FF"/>
<stop offset="0.0223325" stop-color="#DCF3FF"/>
<stop offset="0.2378" stop-color="#C3E6FE"/>
<stop offset="0.4638" stop-color="#B2DEFD"/>
<stop offset="0.7053" stop-color="#A7D9FC"/>
<stop offset="0.9892" stop-color="#A4D7FC"/>
</linearGradient>
<linearGradient id="paint6_linear_2_552" x1="72.5634" y1="59.0937" x2="118.11" y2="59.0937" gradientUnits="userSpaceOnUse">
<stop stop-color="white"/>
<stop offset="1" stop-color="#CDDBFE"/>
</linearGradient>
<linearGradient id="paint7_linear_2_552" x1="92.7939" y1="18.1254" x2="92.7939" y2="104.13" gradientUnits="userSpaceOnUse">
<stop stop-color="#0781FF"/>
<stop offset="0.00655669" stop-color="#0781FF"/>
<stop offset="0.5803" stop-color="#076FFF"/>
<stop offset="1" stop-color="#0769FF"/>
</linearGradient>
<linearGradient id="paint8_linear_2_552" x1="92.7939" y1="12.8649" x2="92.7939" y2="20.4342" gradientUnits="userSpaceOnUse">
<stop stop-color="white"/>
<stop offset="1" stop-color="#72A2D5"/>
</linearGradient>
<linearGradient id="paint9_linear_2_552" x1="102.103" y1="16.7618" x2="102.103" y2="52.068" gradientUnits="userSpaceOnUse">
<stop stop-color="white"/>
<stop offset="1" stop-color="#0077CD"/>
</linearGradient>
<linearGradient id="paint10_linear_2_552" x1="87.0321" y1="58.1637" x2="87.0321" y2="105.387" gradientUnits="userSpaceOnUse">
<stop stop-color="white"/>
<stop offset="1" stop-color="#0077CD"/>
</linearGradient>
<linearGradient id="paint11_linear_2_552" x1="93.2037" y1="35.0395" x2="93.2037" y2="46.0322" gradientUnits="userSpaceOnUse">
<stop stop-color="white"/>
<stop offset="0.3452" stop-color="#FCFEFF"/>
<stop offset="0.5613" stop-color="#F4F9FF"/>
<stop offset="0.7419" stop-color="#E5F1FE"/>
<stop offset="0.902" stop-color="#D1E5FD"/>
<stop offset="0.9892" stop-color="#C2DDFD"/>
</linearGradient>
<linearGradient id="paint12_linear_2_552" x1="21.6667" y1="17.4864" x2="35.2103" y2="9.59837" gradientUnits="userSpaceOnUse">
<stop stop-color="#FA902F"/>
<stop offset="0.1685" stop-color="#F7A030"/>
<stop offset="0.4545" stop-color="#F3B530"/>
<stop offset="0.7347" stop-color="#F1C231"/>
<stop offset="1" stop-color="#F0C631"/>
</linearGradient>
<linearGradient id="paint13_linear_2_552" x1="34.9072" y1="16.616" x2="34.9072" y2="26.6291" gradientUnits="userSpaceOnUse">
<stop stop-color="white"/>
<stop offset="0.3452" stop-color="#FCFEFF"/>
<stop offset="0.5613" stop-color="#F4F9FF"/>
<stop offset="0.7419" stop-color="#E5F1FE"/>
<stop offset="0.902" stop-color="#D1E5FD"/>
<stop offset="0.9892" stop-color="#C2DDFD"/>
</linearGradient>
<linearGradient id="paint14_linear_2_552" x1="17.835" y1="132.974" x2="129.101" y2="132.974" gradientUnits="userSpaceOnUse">
<stop stop-color="#CDDBFE"/>
<stop offset="1" stop-color="#8CD3EF"/>
</linearGradient>
<linearGradient id="paint15_linear_2_552" x1="16.5007" y1="124.659" x2="35.4761" y2="124.659" gradientUnits="userSpaceOnUse">
<stop stop-color="white"/>
<stop offset="1" stop-color="#7DC9FF"/>
</linearGradient>
<linearGradient id="paint16_linear_2_552" x1="47.2609" y1="107.1" x2="38.097" y2="92.1479" gradientUnits="userSpaceOnUse">
<stop stop-color="#0056EC"/>
<stop offset="1" stop-color="#00C2EC"/>
</linearGradient>
<linearGradient id="paint17_linear_2_552" x1="40.9819" y1="86.6186" x2="25.5964" y2="86.6186" gradientUnits="userSpaceOnUse">
<stop stop-color="#0056EC"/>
<stop offset="1" stop-color="#008BEC"/>
</linearGradient>
<linearGradient id="paint18_linear_2_552" x1="18.583" y1="91.4247" x2="11.3296" y2="79.5903" gradientUnits="userSpaceOnUse">
<stop stop-color="#0056EC"/>
<stop offset="1" stop-color="#00C2EC"/>
</linearGradient>
<linearGradient id="paint19_linear_2_552" x1="15.4273" y1="106.334" x2="4.24659" y2="106.334" gradientUnits="userSpaceOnUse">
<stop stop-color="#0056EC"/>
<stop offset="1" stop-color="#008BEC"/>
</linearGradient>
<linearGradient id="paint20_linear_2_552" x1="24.5771" y1="106.31" x2="28.5637" y2="99.8051" gradientUnits="userSpaceOnUse">
<stop stop-color="#0056EC"/>
<stop offset="1" stop-color="#00C2EC"/>
</linearGradient>
<linearGradient id="paint21_linear_2_552" x1="48.087" y1="50.4925" x2="52.6095" y2="50.4925" gradientUnits="userSpaceOnUse">
<stop stop-color="#D1E2FF"/>
<stop offset="1" stop-color="#ECF3FF"/>
</linearGradient>
<linearGradient id="paint22_linear_2_552" x1="41.1583" y1="52.3674" x2="45.6808" y2="52.3674" gradientUnits="userSpaceOnUse">
<stop stop-color="#D1E2FF"/>
<stop offset="1" stop-color="#ECF3FF"/>
</linearGradient>
<linearGradient id="paint23_linear_2_552" x1="34.2283" y1="54.135" x2="38.7508" y2="54.135" gradientUnits="userSpaceOnUse">
<stop stop-color="#D1E2FF"/>
<stop offset="1" stop-color="#ECF3FF"/>
</linearGradient>
<linearGradient id="paint24_linear_2_552" x1="27.2982" y1="55.897" x2="31.8207" y2="55.897" gradientUnits="userSpaceOnUse">
<stop stop-color="#D1E2FF"/>
<stop offset="1" stop-color="#ECF3FF"/>
</linearGradient>
<linearGradient id="paint25_linear_2_552" x1="61.3174" y1="84.5991" x2="57.2781" y2="84.3401" gradientUnits="userSpaceOnUse">
<stop stop-color="#E89492"/>
<stop offset="0.074034" stop-color="#E99A98"/>
<stop offset="0.4304" stop-color="#ECB4B3"/>
<stop offset="0.7502" stop-color="#EDC4C2"/>
<stop offset="1" stop-color="#EEC9C8"/>
</linearGradient>
<linearGradient id="paint26_linear_2_552" x1="59.687" y1="86.4817" x2="58.7257" y2="86.42" gradientUnits="userSpaceOnUse">
<stop stop-color="#E89492"/>
<stop offset="0.074034" stop-color="#E99A98"/>
<stop offset="0.4304" stop-color="#ECB4B3"/>
<stop offset="0.7502" stop-color="#EDC4C2"/>
<stop offset="1" stop-color="#EEC9C8"/>
</linearGradient>
<linearGradient id="paint27_linear_2_552" x1="60.3471" y1="86.5507" x2="59.401" y2="86.4901" gradientUnits="userSpaceOnUse">
<stop stop-color="#E89492"/>
<stop offset="0.074034" stop-color="#E99A98"/>
<stop offset="0.4304" stop-color="#ECB4B3"/>
<stop offset="0.7502" stop-color="#EDC4C2"/>
<stop offset="1" stop-color="#EEC9C8"/>
</linearGradient>
<linearGradient id="paint28_linear_2_552" x1="61.1425" y1="86.6643" x2="60.2891" y2="86.6096" gradientUnits="userSpaceOnUse">
<stop stop-color="#E89492"/>
<stop offset="0.074034" stop-color="#E99A98"/>
<stop offset="0.4304" stop-color="#ECB4B3"/>
<stop offset="0.7502" stop-color="#EDC4C2"/>
<stop offset="1" stop-color="#EEC9C8"/>
</linearGradient>
<linearGradient id="paint29_linear_2_552" x1="61.973" y1="86.3991" x2="60.3214" y2="86.2932" gradientUnits="userSpaceOnUse">
<stop stop-color="#E89492"/>
<stop offset="0.074034" stop-color="#E99A98"/>
<stop offset="0.4304" stop-color="#ECB4B3"/>
<stop offset="0.7502" stop-color="#EDC4C2"/>
<stop offset="1" stop-color="#EEC9C8"/>
</linearGradient>
<linearGradient id="paint30_linear_2_552" x1="75.7063" y1="45.6509" x2="67.8375" y2="45.1465" gradientUnits="userSpaceOnUse">
<stop stop-color="#E89492"/>
<stop offset="0.074034" stop-color="#E99A98"/>
<stop offset="0.4304" stop-color="#ECB4B3"/>
<stop offset="0.7502" stop-color="#EDC4C2"/>
<stop offset="1" stop-color="#EEC9C8"/>
</linearGradient>
<linearGradient id="paint31_linear_2_552" x1="74.4892" y1="50.1636" x2="70.5044" y2="49.9082" gradientUnits="userSpaceOnUse">
<stop stop-color="#E89492"/>
<stop offset="0.074034" stop-color="#E99A98"/>
<stop offset="0.4304" stop-color="#ECB4B3"/>
<stop offset="0.7502" stop-color="#EDC4C2"/>
<stop offset="1" stop-color="#EEC9C8"/>
</linearGradient>
<linearGradient id="paint32_linear_2_552" x1="70.6594" y1="53.9358" x2="76.9937" y2="50.2466" gradientUnits="userSpaceOnUse">
<stop stop-color="#FA902F"/>
<stop offset="0.1685" stop-color="#F7A030"/>
<stop offset="0.4545" stop-color="#F3B530"/>
<stop offset="0.7347" stop-color="#F1C231"/>
<stop offset="1" stop-color="#F0C631"/>
</linearGradient>
<linearGradient id="paint33_linear_2_552" x1="74.0968" y1="133.729" x2="80.7911" y2="129.83" gradientUnits="userSpaceOnUse">
<stop stop-color="#D0471E"/>
<stop offset="0.2198" stop-color="#D95E13"/>
<stop offset="0.4881" stop-color="#E17308"/>
<stop offset="0.751" stop-color="#E68002"/>
<stop offset="1" stop-color="#E88400"/>
</linearGradient>
<linearGradient id="paint34_linear_2_552" x1="74.1874" y1="134.932" x2="81.4449" y2="130.705" gradientUnits="userSpaceOnUse">
<stop stop-color="#D0471E"/>
<stop offset="0.2198" stop-color="#D95E13"/>
<stop offset="0.4881" stop-color="#E17308"/>
<stop offset="0.751" stop-color="#E68002"/>
<stop offset="1" stop-color="#E88400"/>
</linearGradient>
<linearGradient id="paint35_linear_2_552" x1="61.2212" y1="133.661" x2="67.7168" y2="129.877" gradientUnits="userSpaceOnUse">
<stop stop-color="#D0471E"/>
<stop offset="0.2198" stop-color="#D95E13"/>
<stop offset="0.4881" stop-color="#E17308"/>
<stop offset="0.751" stop-color="#E68002"/>
<stop offset="1" stop-color="#E88400"/>
</linearGradient>
<linearGradient id="paint36_linear_2_552" x1="61.3106" y1="134.828" x2="68.3528" y2="130.726" gradientUnits="userSpaceOnUse">
<stop stop-color="#D0471E"/>
<stop offset="0.2198" stop-color="#D95E13"/>
<stop offset="0.4881" stop-color="#E17308"/>
<stop offset="0.751" stop-color="#E68002"/>
<stop offset="1" stop-color="#E88400"/>
</linearGradient>
<linearGradient id="paint37_linear_2_552" x1="96.6856" y1="54.8229" x2="92.6681" y2="54.5654" gradientUnits="userSpaceOnUse">
<stop stop-color="#E89492"/>
<stop offset="0.074034" stop-color="#E99A98"/>
<stop offset="0.4304" stop-color="#ECB4B3"/>
<stop offset="0.7502" stop-color="#EDC4C2"/>
<stop offset="1" stop-color="#EEC9C8"/>
</linearGradient>
<linearGradient id="paint38_linear_2_552" x1="74.2238" y1="51.3583" x2="73.6584" y2="81.045" gradientUnits="userSpaceOnUse">
<stop stop-color="#0056EC"/>
<stop offset="1" stop-color="#008BEC"/>
</linearGradient>
</defs>
</svg>
